ISO-10303-21;
HEADER;
/* Generated by software containing ST-Developer
 * from STEP Tools, Inc. (www.steptools.com) 
 */

FILE_DESCRIPTION(
/* description */ ('FreeCAD Model'),
/* implementation_level */ '2;1');

FILE_NAME(
/* name */ 'Skirt_Face.step',
/* time_stamp */ '2025-11-27T15:45:32-05:00',
/* author */ (''),
/* organization */ (''),
/* preprocessor_version */ 'ST-DEVELOPER v20.1',
/* originating_system */ 'Autodesk Translation Framework v14.17.0.0',
/* authorisation */ '');

FILE_SCHEMA (('AUTOMOTIVE_DESIGN { 1 0 10303 214 3 1 1 }'));
ENDSEC;

DATA;
#10=MECHANICAL_DESIGN_GEOMETRIC_PRESENTATION_REPRESENTATION('',(#13),#674);
#11=SHAPE_REPRESENTATION_RELATIONSHIP('SRR','None',#681,#12);
#12=ADVANCED_BREP_SHAPE_REPRESENTATION('',(#14),#673);
#13=STYLED_ITEM('',(#691),#14);
#14=MANIFOLD_SOLID_BREP('Body7',#398);
#15=ELLIPSE('',#431,6.36396102551977,4.5000000032683);
#16=ELLIPSE('',#433,6.36396100653008,4.50000000025491);
#17=ELLIPSE('',#435,6.36396104601028,4.49999999907167);
#18=FACE_BOUND('',#68,.T.);
#19=FACE_BOUND('',#70,.T.);
#20=FACE_BOUND('',#73,.T.);
#21=FACE_BOUND('',#76,.T.);
#22=FACE_BOUND('',#85,.T.);
#23=FACE_BOUND('',#86,.T.);
#24=FACE_BOUND('',#87,.T.);
#25=FACE_BOUND('',#89,.T.);
#26=FACE_BOUND('',#94,.T.);
#27=FACE_BOUND('',#95,.T.);
#28=FACE_BOUND('',#96,.T.);
#29=PLANE('',#418);
#30=PLANE('',#421);
#31=PLANE('',#424);
#32=PLANE('',#425);
#33=PLANE('',#426);
#34=PLANE('',#427);
#35=PLANE('',#440);
#36=PLANE('',#443);
#37=PLANE('',#444);
#38=PLANE('',#445);
#39=PLANE('',#446);
#40=PLANE('',#447);
#41=PLANE('',#448);
#42=PLANE('',#449);
#43=FACE_OUTER_BOUND('',#65,.T.);
#44=FACE_OUTER_BOUND('',#66,.T.);
#45=FACE_OUTER_BOUND('',#67,.T.);
#46=FACE_OUTER_BOUND('',#69,.T.);
#47=FACE_OUTER_BOUND('',#71,.T.);
#48=FACE_OUTER_BOUND('',#72,.T.);
#49=FACE_OUTER_BOUND('',#74,.T.);
#50=FACE_OUTER_BOUND('',#75,.T.);
#51=FACE_OUTER_BOUND('',#77,.T.);
#52=FACE_OUTER_BOUND('',#78,.T.);
#53=FACE_OUTER_BOUND('',#79,.T.);
#54=FACE_OUTER_BOUND('',#80,.T.);
#55=FACE_OUTER_BOUND('',#81,.T.);
#56=FACE_OUTER_BOUND('',#82,.T.);
#57=FACE_OUTER_BOUND('',#83,.T.);
#58=FACE_OUTER_BOUND('',#84,.T.);
#59=FACE_OUTER_BOUND('',#88,.T.);
#60=FACE_OUTER_BOUND('',#90,.T.);
#61=FACE_OUTER_BOUND('',#91,.T.);
#62=FACE_OUTER_BOUND('',#92,.T.);
#63=FACE_OUTER_BOUND('',#93,.T.);
#64=FACE_OUTER_BOUND('',#97,.T.);
#65=EDGE_LOOP('',(#266,#267,#268,#269));
#66=EDGE_LOOP('',(#270,#271,#272,#273));
#67=EDGE_LOOP('',(#274));
#68=EDGE_LOOP('',(#275));
#69=EDGE_LOOP('',(#276));
#70=EDGE_LOOP('',(#277));
#71=EDGE_LOOP('',(#278,#279,#280,#281));
#72=EDGE_LOOP('',(#282,#283,#284,#285));
#73=EDGE_LOOP('',(#286));
#74=EDGE_LOOP('',(#287,#288,#289,#290));
#75=EDGE_LOOP('',(#291));
#76=EDGE_LOOP('',(#292));
#77=EDGE_LOOP('',(#293,#294,#295,#296));
#78=EDGE_LOOP('',(#297,#298,#299,#300));
#79=EDGE_LOOP('',(#301,#302,#303,#304));
#80=EDGE_LOOP('',(#305,#306,#307,#308));
#81=EDGE_LOOP('',(#309,#310,#311,#312));
#82=EDGE_LOOP('',(#313,#314,#315,#316,#317,#318,#319,#320));
#83=EDGE_LOOP('',(#321,#322,#323,#324));
#84=EDGE_LOOP('',(#325,#326,#327,#328));
#85=EDGE_LOOP('',(#329));
#86=EDGE_LOOP('',(#330));
#87=EDGE_LOOP('',(#331));
#88=EDGE_LOOP('',(#332,#333,#334,#335,#336,#337,#338,#339));
#89=EDGE_LOOP('',(#340));
#90=EDGE_LOOP('',(#341,#342,#343,#344,#345,#346));
#91=EDGE_LOOP('',(#347,#348,#349,#350));
#92=EDGE_LOOP('',(#351,#352,#353,#354));
#93=EDGE_LOOP('',(#355,#356,#357,#358));
#94=EDGE_LOOP('',(#359));
#95=EDGE_LOOP('',(#360));
#96=EDGE_LOOP('',(#361));
#97=EDGE_LOOP('',(#362,#363,#364,#365,#366,#367));
#98=LINE('',#568,#133);
#99=LINE('',#573,#134);
#100=LINE('',#577,#135);
#101=LINE('',#591,#136);
#102=LINE('',#593,#137);
#103=LINE('',#594,#138);
#104=LINE('',#597,#139);
#105=LINE('',#598,#140);
#106=LINE('',#601,#141);
#107=LINE('',#602,#142);
#108=LINE('',#610,#143);
#109=LINE('',#614,#144);
#110=LINE('',#618,#145);
#111=LINE('',#622,#146);
#112=LINE('',#626,#147);
#113=LINE('',#631,#148);
#114=LINE('',#633,#149);
#115=LINE('',#635,#150);
#116=LINE('',#636,#151);
#117=LINE('',#637,#152);
#118=LINE('',#640,#153);
#119=LINE('',#644,#154);
#120=LINE('',#646,#155);
#121=LINE('',#647,#156);
#122=LINE('',#650,#157);
#123=LINE('',#652,#158);
#124=LINE('',#653,#159);
#125=LINE('',#656,#160);
#126=LINE('',#658,#161);
#127=LINE('',#659,#162);
#128=LINE('',#662,#163);
#129=LINE('',#663,#164);
#130=LINE('',#666,#165);
#131=LINE('',#667,#166);
#132=LINE('',#669,#167);
#133=VECTOR('',#456,2.25);
#134=VECTOR('',#461,1.);
#135=VECTOR('',#464,1.);
#136=VECTOR('',#481,1.);
#137=VECTOR('',#482,1.);
#138=VECTOR('',#483,1.);
#139=VECTOR('',#486,1.);
#140=VECTOR('',#487,1.);
#141=VECTOR('',#490,1.);
#142=VECTOR('',#491,1.);
#143=VECTOR('',#500,4.5);
#144=VECTOR('',#505,4.5);
#145=VECTOR('',#510,4.5);
#146=VECTOR('',#515,2.75);
#147=VECTOR('',#520,2.75);
#148=VECTOR('',#525,10.);
#149=VECTOR('',#526,1.);
#150=VECTOR('',#527,10.);
#151=VECTOR('',#528,1.);
#152=VECTOR('',#529,1.);
#153=VECTOR('',#532,2.75);
#154=VECTOR('',#537,10.);
#155=VECTOR('',#538,1.);
#156=VECTOR('',#539,10.);
#157=VECTOR('',#542,10.);
#158=VECTOR('',#543,10.);
#159=VECTOR('',#544,1.);
#160=VECTOR('',#547,10.);
#161=VECTOR('',#548,10.);
#162=VECTOR('',#549,10.);
#163=VECTOR('',#552,10.);
#164=VECTOR('',#553,1.);
#165=VECTOR('',#556,10.);
#166=VECTOR('',#557,1.);
#167=VECTOR('',#560,10.);
#168=CIRCLE('',#413,2.25);
#169=CIRCLE('',#414,2.25);
#170=CIRCLE('',#416,8.000000001209);
#171=CIRCLE('',#417,8.000000001209);
#172=CIRCLE('',#419,4.5);
#173=CIRCLE('',#420,2.75);
#174=CIRCLE('',#422,4.5);
#175=CIRCLE('',#423,2.75);
#176=CIRCLE('',#428,4.5);
#177=CIRCLE('',#429,2.75);
#178=CIRCLE('',#437,2.75);
#179=CIRCLE('',#439,2.75);
#180=CIRCLE('',#442,2.75);
#181=VERTEX_POINT('',#565);
#182=VERTEX_POINT('',#567);
#183=VERTEX_POINT('',#571);
#184=VERTEX_POINT('',#572);
#185=VERTEX_POINT('',#574);
#186=VERTEX_POINT('',#576);
#187=VERTEX_POINT('',#580);
#188=VERTEX_POINT('',#582);
#189=VERTEX_POINT('',#585);
#190=VERTEX_POINT('',#587);
#191=VERTEX_POINT('',#590);
#192=VERTEX_POINT('',#592);
#193=VERTEX_POINT('',#596);
#194=VERTEX_POINT('',#600);
#195=VERTEX_POINT('',#604);
#196=VERTEX_POINT('',#606);
#197=VERTEX_POINT('',#609);
#198=VERTEX_POINT('',#613);
#199=VERTEX_POINT('',#617);
#200=VERTEX_POINT('',#621);
#201=VERTEX_POINT('',#625);
#202=VERTEX_POINT('',#629);
#203=VERTEX_POINT('',#630);
#204=VERTEX_POINT('',#632);
#205=VERTEX_POINT('',#634);
#206=VERTEX_POINT('',#639);
#207=VERTEX_POINT('',#643);
#208=VERTEX_POINT('',#645);
#209=VERTEX_POINT('',#649);
#210=VERTEX_POINT('',#651);
#211=VERTEX_POINT('',#655);
#212=VERTEX_POINT('',#657);
#213=VERTEX_POINT('',#661);
#214=VERTEX_POINT('',#665);
#215=EDGE_CURVE('',#181,#181,#168,.T.);
#216=EDGE_CURVE('',#181,#182,#98,.T.);
#217=EDGE_CURVE('',#182,#182,#169,.T.);
#218=EDGE_CURVE('',#183,#184,#99,.T.);
#219=EDGE_CURVE('',#184,#185,#170,.T.);
#220=EDGE_CURVE('',#186,#185,#100,.T.);
#221=EDGE_CURVE('',#183,#186,#171,.T.);
#222=EDGE_CURVE('',#187,#187,#172,.T.);
#223=EDGE_CURVE('',#188,#188,#173,.T.);
#224=EDGE_CURVE('',#189,#189,#174,.T.);
#225=EDGE_CURVE('',#190,#190,#175,.T.);
#226=EDGE_CURVE('',#183,#191,#101,.T.);
#227=EDGE_CURVE('',#191,#192,#102,.T.);
#228=EDGE_CURVE('',#184,#192,#103,.T.);
#229=EDGE_CURVE('',#193,#192,#104,.T.);
#230=EDGE_CURVE('',#185,#193,#105,.T.);
#231=EDGE_CURVE('',#194,#193,#106,.T.);
#232=EDGE_CURVE('',#186,#194,#107,.T.);
#233=EDGE_CURVE('',#195,#195,#176,.T.);
#234=EDGE_CURVE('',#196,#196,#177,.T.);
#235=EDGE_CURVE('',#195,#197,#108,.T.);
#236=EDGE_CURVE('',#197,#197,#15,.T.);
#237=EDGE_CURVE('',#187,#198,#109,.T.);
#238=EDGE_CURVE('',#198,#198,#16,.T.);
#239=EDGE_CURVE('',#189,#199,#110,.T.);
#240=EDGE_CURVE('',#199,#199,#17,.T.);
#241=EDGE_CURVE('',#188,#200,#111,.T.);
#242=EDGE_CURVE('',#200,#200,#178,.T.);
#243=EDGE_CURVE('',#190,#201,#112,.T.);
#244=EDGE_CURVE('',#201,#201,#179,.T.);
#245=EDGE_CURVE('',#202,#203,#113,.T.);
#246=EDGE_CURVE('',#202,#204,#114,.T.);
#247=EDGE_CURVE('',#204,#205,#115,.T.);
#248=EDGE_CURVE('',#205,#194,#116,.T.);
#249=EDGE_CURVE('',#191,#203,#117,.T.);
#250=EDGE_CURVE('',#196,#206,#118,.T.);
#251=EDGE_CURVE('',#206,#206,#180,.T.);
#252=EDGE_CURVE('',#207,#202,#119,.T.);
#253=EDGE_CURVE('',#207,#208,#120,.T.);
#254=EDGE_CURVE('',#208,#204,#121,.T.);
#255=EDGE_CURVE('',#203,#209,#122,.T.);
#256=EDGE_CURVE('',#205,#210,#123,.T.);
#257=EDGE_CURVE('',#209,#210,#124,.T.);
#258=EDGE_CURVE('',#211,#208,#125,.T.);
#259=EDGE_CURVE('',#212,#211,#126,.T.);
#260=EDGE_CURVE('',#210,#212,#127,.T.);
#261=EDGE_CURVE('',#209,#213,#128,.T.);
#262=EDGE_CURVE('',#213,#212,#129,.T.);
#263=EDGE_CURVE('',#213,#214,#130,.T.);
#264=EDGE_CURVE('',#214,#211,#131,.T.);
#265=EDGE_CURVE('',#214,#207,#132,.T.);
#266=ORIENTED_EDGE('',*,*,#215,.F.);
#267=ORIENTED_EDGE('',*,*,#216,.T.);
#268=ORIENTED_EDGE('',*,*,#217,.T.);
#269=ORIENTED_EDGE('',*,*,#216,.F.);
#270=ORIENTED_EDGE('',*,*,#218,.T.);
#271=ORIENTED_EDGE('',*,*,#219,.T.);
#272=ORIENTED_EDGE('',*,*,#220,.F.);
#273=ORIENTED_EDGE('',*,*,#221,.F.);
#274=ORIENTED_EDGE('',*,*,#222,.F.);
#275=ORIENTED_EDGE('',*,*,#223,.T.);
#276=ORIENTED_EDGE('',*,*,#224,.F.);
#277=ORIENTED_EDGE('',*,*,#225,.T.);
#278=ORIENTED_EDGE('',*,*,#218,.F.);
#279=ORIENTED_EDGE('',*,*,#226,.T.);
#280=ORIENTED_EDGE('',*,*,#227,.T.);
#281=ORIENTED_EDGE('',*,*,#228,.F.);
#282=ORIENTED_EDGE('',*,*,#219,.F.);
#283=ORIENTED_EDGE('',*,*,#228,.T.);
#284=ORIENTED_EDGE('',*,*,#229,.F.);
#285=ORIENTED_EDGE('',*,*,#230,.F.);
#286=ORIENTED_EDGE('',*,*,#215,.T.);
#287=ORIENTED_EDGE('',*,*,#220,.T.);
#288=ORIENTED_EDGE('',*,*,#230,.T.);
#289=ORIENTED_EDGE('',*,*,#231,.F.);
#290=ORIENTED_EDGE('',*,*,#232,.F.);
#291=ORIENTED_EDGE('',*,*,#233,.F.);
#292=ORIENTED_EDGE('',*,*,#234,.T.);
#293=ORIENTED_EDGE('',*,*,#233,.T.);
#294=ORIENTED_EDGE('',*,*,#235,.T.);
#295=ORIENTED_EDGE('',*,*,#236,.F.);
#296=ORIENTED_EDGE('',*,*,#235,.F.);
#297=ORIENTED_EDGE('',*,*,#222,.T.);
#298=ORIENTED_EDGE('',*,*,#237,.T.);
#299=ORIENTED_EDGE('',*,*,#238,.F.);
#300=ORIENTED_EDGE('',*,*,#237,.F.);
#301=ORIENTED_EDGE('',*,*,#224,.T.);
#302=ORIENTED_EDGE('',*,*,#239,.T.);
#303=ORIENTED_EDGE('',*,*,#240,.F.);
#304=ORIENTED_EDGE('',*,*,#239,.F.);
#305=ORIENTED_EDGE('',*,*,#223,.F.);
#306=ORIENTED_EDGE('',*,*,#241,.T.);
#307=ORIENTED_EDGE('',*,*,#242,.T.);
#308=ORIENTED_EDGE('',*,*,#241,.F.);
#309=ORIENTED_EDGE('',*,*,#225,.F.);
#310=ORIENTED_EDGE('',*,*,#243,.T.);
#311=ORIENTED_EDGE('',*,*,#244,.T.);
#312=ORIENTED_EDGE('',*,*,#243,.F.);
#313=ORIENTED_EDGE('',*,*,#245,.F.);
#314=ORIENTED_EDGE('',*,*,#246,.T.);
#315=ORIENTED_EDGE('',*,*,#247,.T.);
#316=ORIENTED_EDGE('',*,*,#248,.T.);
#317=ORIENTED_EDGE('',*,*,#231,.T.);
#318=ORIENTED_EDGE('',*,*,#229,.T.);
#319=ORIENTED_EDGE('',*,*,#227,.F.);
#320=ORIENTED_EDGE('',*,*,#249,.T.);
#321=ORIENTED_EDGE('',*,*,#234,.F.);
#322=ORIENTED_EDGE('',*,*,#250,.T.);
#323=ORIENTED_EDGE('',*,*,#251,.T.);
#324=ORIENTED_EDGE('',*,*,#250,.F.);
#325=ORIENTED_EDGE('',*,*,#252,.F.);
#326=ORIENTED_EDGE('',*,*,#253,.T.);
#327=ORIENTED_EDGE('',*,*,#254,.T.);
#328=ORIENTED_EDGE('',*,*,#246,.F.);
#329=ORIENTED_EDGE('',*,*,#251,.F.);
#330=ORIENTED_EDGE('',*,*,#244,.F.);
#331=ORIENTED_EDGE('',*,*,#242,.F.);
#332=ORIENTED_EDGE('',*,*,#255,.F.);
#333=ORIENTED_EDGE('',*,*,#249,.F.);
#334=ORIENTED_EDGE('',*,*,#226,.F.);
#335=ORIENTED_EDGE('',*,*,#221,.T.);
#336=ORIENTED_EDGE('',*,*,#232,.T.);
#337=ORIENTED_EDGE('',*,*,#248,.F.);
#338=ORIENTED_EDGE('',*,*,#256,.T.);
#339=ORIENTED_EDGE('',*,*,#257,.F.);
#340=ORIENTED_EDGE('',*,*,#217,.F.);
#341=ORIENTED_EDGE('',*,*,#254,.F.);
#342=ORIENTED_EDGE('',*,*,#258,.F.);
#343=ORIENTED_EDGE('',*,*,#259,.F.);
#344=ORIENTED_EDGE('',*,*,#260,.F.);
#345=ORIENTED_EDGE('',*,*,#256,.F.);
#346=ORIENTED_EDGE('',*,*,#247,.F.);
#347=ORIENTED_EDGE('',*,*,#261,.F.);
#348=ORIENTED_EDGE('',*,*,#257,.T.);
#349=ORIENTED_EDGE('',*,*,#260,.T.);
#350=ORIENTED_EDGE('',*,*,#262,.F.);
#351=ORIENTED_EDGE('',*,*,#263,.F.);
#352=ORIENTED_EDGE('',*,*,#262,.T.);
#353=ORIENTED_EDGE('',*,*,#259,.T.);
#354=ORIENTED_EDGE('',*,*,#264,.F.);
#355=ORIENTED_EDGE('',*,*,#265,.F.);
#356=ORIENTED_EDGE('',*,*,#264,.T.);
#357=ORIENTED_EDGE('',*,*,#258,.T.);
#358=ORIENTED_EDGE('',*,*,#253,.F.);
#359=ORIENTED_EDGE('',*,*,#240,.T.);
#360=ORIENTED_EDGE('',*,*,#238,.T.);
#361=ORIENTED_EDGE('',*,*,#236,.T.);
#362=ORIENTED_EDGE('',*,*,#261,.T.);
#363=ORIENTED_EDGE('',*,*,#263,.T.);
#364=ORIENTED_EDGE('',*,*,#265,.T.);
#365=ORIENTED_EDGE('',*,*,#252,.T.);
#366=ORIENTED_EDGE('',*,*,#245,.T.);
#367=ORIENTED_EDGE('',*,*,#255,.T.);
#368=CYLINDRICAL_SURFACE('',#412,2.25);
#369=CYLINDRICAL_SURFACE('',#415,8.000000001209);
#370=CYLINDRICAL_SURFACE('',#430,4.5);
#371=CYLINDRICAL_SURFACE('',#432,4.5);
#372=CYLINDRICAL_SURFACE('',#434,4.5);
#373=CYLINDRICAL_SURFACE('',#436,2.75);
#374=CYLINDRICAL_SURFACE('',#438,2.75);
#375=CYLINDRICAL_SURFACE('',#441,2.75);
#376=ADVANCED_FACE('',(#43),#368,.F.);
#377=ADVANCED_FACE('',(#44),#369,.T.);
#378=ADVANCED_FACE('',(#45,#18),#29,.F.);
#379=ADVANCED_FACE('',(#46,#19),#30,.F.);
#380=ADVANCED_FACE('',(#47),#31,.F.);
#381=ADVANCED_FACE('',(#48,#20),#32,.T.);
#382=ADVANCED_FACE('',(#49),#33,.T.);
#383=ADVANCED_FACE('',(#50,#21),#34,.F.);
#384=ADVANCED_FACE('',(#51),#370,.F.);
#385=ADVANCED_FACE('',(#52),#371,.F.);
#386=ADVANCED_FACE('',(#53),#372,.F.);
#387=ADVANCED_FACE('',(#54),#373,.F.);
#388=ADVANCED_FACE('',(#55),#374,.F.);
#389=ADVANCED_FACE('',(#56),#35,.F.);
#390=ADVANCED_FACE('',(#57),#375,.F.);
#391=ADVANCED_FACE('',(#58,#22,#23,#24),#36,.T.);
#392=ADVANCED_FACE('',(#59,#25),#37,.T.);
#393=ADVANCED_FACE('',(#60),#38,.F.);
#394=ADVANCED_FACE('',(#61),#39,.T.);
#395=ADVANCED_FACE('',(#62),#40,.F.);
#396=ADVANCED_FACE('',(#63,#26,#27,#28),#41,.T.);
#397=ADVANCED_FACE('',(#64),#42,.T.);
#398=CLOSED_SHELL('',(#376,#377,#378,#379,#380,#381,#382,#383,#384,#385,
#386,#387,#388,#389,#390,#391,#392,#393,#394,#395,#396,#397));
#399=DERIVED_UNIT_ELEMENT(#401,1.);
#400=DERIVED_UNIT_ELEMENT(#676,-3.);
#401=(
MASS_UNIT()
NAMED_UNIT(*)
SI_UNIT(.KILO.,.GRAM.)
);
#402=DERIVED_UNIT((#399,#400));
#403=MEASURE_REPRESENTATION_ITEM('density measure',
POSITIVE_RATIO_MEASURE(7850.),#402);
#404=PROPERTY_DEFINITION_REPRESENTATION(#409,#406);
#405=PROPERTY_DEFINITION_REPRESENTATION(#410,#407);
#406=REPRESENTATION('material name',(#408),#673);
#407=REPRESENTATION('density',(#403),#673);
#408=DESCRIPTIVE_REPRESENTATION_ITEM('Steel','Steel');
#409=PROPERTY_DEFINITION('material property','material name',#683);
#410=PROPERTY_DEFINITION('material property','density of part',#683);
#411=AXIS2_PLACEMENT_3D('',#563,#450,#451);
#412=AXIS2_PLACEMENT_3D('',#564,#452,#453);
#413=AXIS2_PLACEMENT_3D('',#566,#454,#455);
#414=AXIS2_PLACEMENT_3D('',#569,#457,#458);
#415=AXIS2_PLACEMENT_3D('',#570,#459,#460);
#416=AXIS2_PLACEMENT_3D('',#575,#462,#463);
#417=AXIS2_PLACEMENT_3D('',#578,#465,#466);
#418=AXIS2_PLACEMENT_3D('',#579,#467,#468);
#419=AXIS2_PLACEMENT_3D('',#581,#469,#470);
#420=AXIS2_PLACEMENT_3D('',#583,#471,#472);
#421=AXIS2_PLACEMENT_3D('',#584,#473,#474);
#422=AXIS2_PLACEMENT_3D('',#586,#475,#476);
#423=AXIS2_PLACEMENT_3D('',#588,#477,#478);
#424=AXIS2_PLACEMENT_3D('',#589,#479,#480);
#425=AXIS2_PLACEMENT_3D('',#595,#484,#485);
#426=AXIS2_PLACEMENT_3D('',#599,#488,#489);
#427=AXIS2_PLACEMENT_3D('',#603,#492,#493);
#428=AXIS2_PLACEMENT_3D('',#605,#494,#495);
#429=AXIS2_PLACEMENT_3D('',#607,#496,#497);
#430=AXIS2_PLACEMENT_3D('',#608,#498,#499);
#431=AXIS2_PLACEMENT_3D('',#611,#501,#502);
#432=AXIS2_PLACEMENT_3D('',#612,#503,#504);
#433=AXIS2_PLACEMENT_3D('',#615,#506,#507);
#434=AXIS2_PLACEMENT_3D('',#616,#508,#509);
#435=AXIS2_PLACEMENT_3D('',#619,#511,#512);
#436=AXIS2_PLACEMENT_3D('',#620,#513,#514);
#437=AXIS2_PLACEMENT_3D('',#623,#516,#517);
#438=AXIS2_PLACEMENT_3D('',#624,#518,#519);
#439=AXIS2_PLACEMENT_3D('',#627,#521,#522);
#440=AXIS2_PLACEMENT_3D('',#628,#523,#524);
#441=AXIS2_PLACEMENT_3D('',#638,#530,#531);
#442=AXIS2_PLACEMENT_3D('',#641,#533,#534);
#443=AXIS2_PLACEMENT_3D('',#642,#535,#536);
#444=AXIS2_PLACEMENT_3D('',#648,#540,#541);
#445=AXIS2_PLACEMENT_3D('',#654,#545,#546);
#446=AXIS2_PLACEMENT_3D('',#660,#550,#551);
#447=AXIS2_PLACEMENT_3D('',#664,#554,#555);
#448=AXIS2_PLACEMENT_3D('',#668,#558,#559);
#449=AXIS2_PLACEMENT_3D('',#670,#561,#562);
#450=DIRECTION('axis',(0.,0.,1.));
#451=DIRECTION('refdir',(1.,0.,0.));
#452=DIRECTION('center_axis',(0.,0.,-1.));
#453=DIRECTION('ref_axis',(1.,0.,0.));
#454=DIRECTION('center_axis',(0.,0.,-1.));
#455=DIRECTION('ref_axis',(1.,0.,0.));
#456=DIRECTION('',(0.,0.,-1.));
#457=DIRECTION('center_axis',(0.,0.,-1.));
#458=DIRECTION('ref_axis',(1.,0.,0.));
#459=DIRECTION('center_axis',(0.,0.,-1.));
#460=DIRECTION('ref_axis',(1.,0.,0.));
#461=DIRECTION('',(0.,0.,1.));
#462=DIRECTION('center_axis',(0.,0.,-1.));
#463=DIRECTION('ref_axis',(1.,0.,0.));
#464=DIRECTION('',(0.,0.,1.));
#465=DIRECTION('center_axis',(0.,0.,-1.));
#466=DIRECTION('ref_axis',(1.,0.,0.));
#467=DIRECTION('center_axis',(0.,0.,1.));
#468=DIRECTION('ref_axis',(1.,0.,0.));
#469=DIRECTION('center_axis',(0.,0.,1.));
#470=DIRECTION('ref_axis',(1.,0.,0.));
#471=DIRECTION('center_axis',(0.,0.,1.));
#472=DIRECTION('ref_axis',(1.,0.,0.));
#473=DIRECTION('center_axis',(0.,0.,1.));
#474=DIRECTION('ref_axis',(1.,0.,0.));
#475=DIRECTION('center_axis',(0.,0.,1.));
#476=DIRECTION('ref_axis',(1.,0.,0.));
#477=DIRECTION('center_axis',(0.,0.,1.));
#478=DIRECTION('ref_axis',(1.,0.,0.));
#479=DIRECTION('center_axis',(-1.,0.,0.));
#480=DIRECTION('ref_axis',(0.,1.,0.));
#481=DIRECTION('',(0.,1.,0.));
#482=DIRECTION('',(0.,0.,1.));
#483=DIRECTION('',(0.,1.,0.));
#484=DIRECTION('center_axis',(0.,0.,1.));
#485=DIRECTION('ref_axis',(1.,0.,0.));
#486=DIRECTION('',(1.,0.,0.));
#487=DIRECTION('',(0.,1.,0.));
#488=DIRECTION('center_axis',(-1.,0.,0.));
#489=DIRECTION('ref_axis',(0.,1.,0.));
#490=DIRECTION('',(0.,0.,1.));
#491=DIRECTION('',(0.,1.,0.));
#492=DIRECTION('center_axis',(0.,0.,1.));
#493=DIRECTION('ref_axis',(1.,0.,0.));
#494=DIRECTION('center_axis',(0.,0.,1.));
#495=DIRECTION('ref_axis',(1.,0.,0.));
#496=DIRECTION('center_axis',(0.,0.,1.));
#497=DIRECTION('ref_axis',(1.,0.,0.));
#498=DIRECTION('center_axis',(0.,0.,-1.));
#499=DIRECTION('ref_axis',(1.,0.,0.));
#500=DIRECTION('',(0.,0.,-1.));
#501=DIRECTION('center_axis',(4.00345117476707E-13,-0.70710678118665,0.707106781186445));
#502=DIRECTION('ref_axis',(-4.57442445042966E-9,-0.707106781186445,-0.70710678118665));
#503=DIRECTION('center_axis',(0.,0.,-1.));
#504=DIRECTION('ref_axis',(1.,0.,0.));
#505=DIRECTION('',(0.,0.,-1.));
#506=DIRECTION('center_axis',(8.10800507093971E-13,-0.707106781186705,0.707106781186391));
#507=DIRECTION('ref_axis',(-5.56886633656438E-9,-0.70710678118639,-0.707106781186705));
#508=DIRECTION('center_axis',(0.,0.,-1.));
#509=DIRECTION('ref_axis',(1.,0.,0.));
#510=DIRECTION('',(0.,0.,-1.));
#511=DIRECTION('center_axis',(6.48833414350096E-13,-0.707106781185953,0.707106781187142));
#512=DIRECTION('ref_axis',(3.70789109616707E-9,0.707106781187142,0.707106781185953));
#513=DIRECTION('center_axis',(0.,0.,1.));
#514=DIRECTION('ref_axis',(1.,0.,0.));
#515=DIRECTION('',(0.,0.,1.));
#516=DIRECTION('center_axis',(0.,0.,1.));
#517=DIRECTION('ref_axis',(1.,0.,0.));
#518=DIRECTION('center_axis',(0.,0.,1.));
#519=DIRECTION('ref_axis',(1.,0.,0.));
#520=DIRECTION('',(0.,0.,1.));
#521=DIRECTION('center_axis',(0.,0.,1.));
#522=DIRECTION('ref_axis',(1.,0.,0.));
#523=DIRECTION('center_axis',(0.,1.,0.));
#524=DIRECTION('ref_axis',(-1.,0.,0.));
#525=DIRECTION('',(0.,0.,-1.));
#526=DIRECTION('',(-1.,0.,0.));
#527=DIRECTION('',(0.,0.,-1.));
#528=DIRECTION('',(1.,0.,0.));
#529=DIRECTION('',(1.,0.,0.));
#530=DIRECTION('center_axis',(0.,0.,1.));
#531=DIRECTION('ref_axis',(1.,0.,0.));
#532=DIRECTION('',(0.,0.,1.));
#533=DIRECTION('center_axis',(0.,0.,1.));
#534=DIRECTION('ref_axis',(1.,0.,0.));
#535=DIRECTION('center_axis',(0.,0.,1.));
#536=DIRECTION('ref_axis',(1.,0.,0.));
#537=DIRECTION('',(0.,-1.,0.));
#538=DIRECTION('',(-1.,0.,0.));
#539=DIRECTION('',(0.,-1.,0.));
#540=DIRECTION('center_axis',(0.,0.,-1.));
#541=DIRECTION('ref_axis',(-1.,0.,0.));
#542=DIRECTION('',(0.,1.,0.));
#543=DIRECTION('',(0.,1.,0.));
#544=DIRECTION('',(-1.,7.E-17,0.));
#545=DIRECTION('center_axis',(1.,0.,0.));
#546=DIRECTION('ref_axis',(0.,0.,-1.));
#547=DIRECTION('',(0.,0.707106781186548,0.707106781186547));
#548=DIRECTION('',(0.,1.,0.));
#549=DIRECTION('',(0.,0.,-1.));
#550=DIRECTION('center_axis',(-7.E-17,-1.,0.));
#551=DIRECTION('ref_axis',(-1.,7.E-17,0.));
#552=DIRECTION('',(0.,0.,-1.));
#553=DIRECTION('',(-1.,7.E-17,0.));
#554=DIRECTION('center_axis',(0.,0.,1.));
#555=DIRECTION('ref_axis',(1.,0.,0.));
#556=DIRECTION('',(0.,1.,0.));
#557=DIRECTION('',(-1.,0.,0.));
#558=DIRECTION('center_axis',(0.,0.707106781186547,-0.707106781186548));
#559=DIRECTION('ref_axis',(-1.,0.,0.));
#560=DIRECTION('',(0.,0.707106781186548,0.707106781186547));
#561=DIRECTION('center_axis',(1.,0.,0.));
#562=DIRECTION('ref_axis',(0.,0.,-1.));
#563=CARTESIAN_POINT('',(0.,0.,0.));
#564=CARTESIAN_POINT('Origin',(-1.E-16,159.,-13.));
#565=CARTESIAN_POINT('',(-2.25,159.,-6.));
#566=CARTESIAN_POINT('Origin',(-1.E-16,159.,-6.));
#567=CARTESIAN_POINT('',(-2.25,159.,-13.));
#568=CARTESIAN_POINT('',(-2.25,159.,-13.));
#569=CARTESIAN_POINT('Origin',(-1.E-16,159.,-13.));
#570=CARTESIAN_POINT('Origin',(-3.E-16,159.,-13.));
#571=CARTESIAN_POINT('',(8.000000001209,159.,-13.));
#572=CARTESIAN_POINT('',(8.000000001209,159.,-6.));
#573=CARTESIAN_POINT('',(8.000000001209,159.,-13.));
#574=CARTESIAN_POINT('',(-8.000000001209,159.,-6.));
#575=CARTESIAN_POINT('Origin',(-3.E-16,159.,-6.));
#576=CARTESIAN_POINT('',(-8.000000001209,159.,-13.));
#577=CARTESIAN_POINT('',(-8.000000001209,159.,-13.));
#578=CARTESIAN_POINT('Origin',(-3.E-16,159.,-13.));
#579=CARTESIAN_POINT('Origin',(-6.08E-15,6.32E-15,-3.));
#580=CARTESIAN_POINT('',(151.5,182.,-3.));
#581=CARTESIAN_POINT('Origin',(156.,182.,-3.));
#582=CARTESIAN_POINT('',(153.25,182.,-3.));
#583=CARTESIAN_POINT('Origin',(156.,182.,-3.));
#584=CARTESIAN_POINT('Origin',(-6.08E-15,6.32E-15,-3.));
#585=CARTESIAN_POINT('',(-4.5,182.,-3.));
#586=CARTESIAN_POINT('Origin',(0.,182.,-3.));
#587=CARTESIAN_POINT('',(-2.74999999999998,182.,-3.));
#588=CARTESIAN_POINT('Origin',(1.72E-14,182.,-3.));
#589=CARTESIAN_POINT('Origin',(8.000000001209,159.,-13.));
#590=CARTESIAN_POINT('',(8.000000001209,167.,-13.));
#591=CARTESIAN_POINT('',(8.000000001209,159.,-13.));
#592=CARTESIAN_POINT('',(8.000000001209,167.,-6.));
#593=CARTESIAN_POINT('',(8.000000001209,167.,-13.));
#594=CARTESIAN_POINT('',(8.000000001209,159.,-6.));
#595=CARTESIAN_POINT('Origin',(-4.47E-15,1.598E-14,-6.));
#596=CARTESIAN_POINT('',(-8.000000001209,167.,-6.));
#597=CARTESIAN_POINT('',(-8.000000001209,167.,-6.));
#598=CARTESIAN_POINT('',(-8.000000001209,159.,-6.));
#599=CARTESIAN_POINT('Origin',(-8.000000001209,159.,-13.));
#600=CARTESIAN_POINT('',(-8.000000001209,167.,-13.));
#601=CARTESIAN_POINT('',(-8.000000001209,167.,-13.));
#602=CARTESIAN_POINT('',(-8.000000001209,159.,-13.));
#603=CARTESIAN_POINT('Origin',(-6.08E-15,6.32E-15,-3.));
#604=CARTESIAN_POINT('',(-160.5,182.,-3.));
#605=CARTESIAN_POINT('Origin',(-156.,182.,-3.));
#606=CARTESIAN_POINT('',(-158.75,182.,-3.));
#607=CARTESIAN_POINT('Origin',(-156.,182.,-3.));
#608=CARTESIAN_POINT('Origin',(-156.,182.,-15.));
#609=CARTESIAN_POINT('',(-160.500000006537,182.,-9.99999999999491));
#610=CARTESIAN_POINT('',(-160.5,182.,-15.));
#611=CARTESIAN_POINT('Origin',(-156.000000003268,181.999999999191,-10.0000000008069));
#612=CARTESIAN_POINT('Origin',(156.,182.,-15.));
#613=CARTESIAN_POINT('',(151.49999999949,182.,-9.99999999998968));
#614=CARTESIAN_POINT('',(151.5,182.,-15.));
#615=CARTESIAN_POINT('Origin',(155.999999999745,182.00000001864,-9.99999998135454));
#616=CARTESIAN_POINT('Origin',(0.,182.,-15.));
#617=CARTESIAN_POINT('',(-4.49999999814333,182.,-9.99999999999176));
#618=CARTESIAN_POINT('',(-4.5,182.,-15.));
#619=CARTESIAN_POINT('Origin',(9.28334631389305E-10,182.000000006778,-9.99999999321783));
#620=CARTESIAN_POINT('Origin',(156.,182.,-1.78E-15));
#621=CARTESIAN_POINT('',(153.25,182.,-1.7763568394E-15));
#622=CARTESIAN_POINT('',(153.25,182.,-1.78E-15));
#623=CARTESIAN_POINT('Origin',(156.,182.,-1.7763568394E-15));
#624=CARTESIAN_POINT('Origin',(1.72E-14,182.,-1.78E-15));
#625=CARTESIAN_POINT('',(-2.74999999999998,182.,-1.7763568394E-15));
#626=CARTESIAN_POINT('',(-2.74999999999998,182.,-1.78E-15));
#627=CARTESIAN_POINT('Origin',(1.72E-14,182.,-1.7763568394E-15));
#628=CARTESIAN_POINT('Origin',(196.,167.,0.));
#629=CARTESIAN_POINT('',(176.,167.,0.));
#630=CARTESIAN_POINT('',(176.,167.,-13.));
#631=CARTESIAN_POINT('',(176.,167.,-3.74999999999955));
#632=CARTESIAN_POINT('',(-176.,167.,0.));
#633=CARTESIAN_POINT('',(196.,167.,0.));
#634=CARTESIAN_POINT('',(-176.,167.,-13.));
#635=CARTESIAN_POINT('',(-176.,167.,-3.74999999999955));
#636=CARTESIAN_POINT('',(98.,167.,-13.));
#637=CARTESIAN_POINT('',(98.,167.,-13.));
#638=CARTESIAN_POINT('Origin',(-156.,182.,-1.78E-15));
#639=CARTESIAN_POINT('',(-158.75,182.,-1.7763568394E-15));
#640=CARTESIAN_POINT('',(-158.75,182.,-1.78E-15));
#641=CARTESIAN_POINT('Origin',(-156.,182.,-1.7763568394E-15));
#642=CARTESIAN_POINT('Origin',(2.127E-14,-2.675E-14,-1.78E-15));
#643=CARTESIAN_POINT('',(176.,192.,0.));
#644=CARTESIAN_POINT('',(176.,-1.3375E-14,-1.66533453693773E-15));
#645=CARTESIAN_POINT('',(-176.,192.,0.));
#646=CARTESIAN_POINT('',(224.,192.,0.));
#647=CARTESIAN_POINT('',(-176.,-1.3375E-14,-1.66533453693773E-15));
#648=CARTESIAN_POINT('Origin',(1.461E-14,-4.87E-15,-13.));
#649=CARTESIAN_POINT('',(176.,172.,-13.));
#650=CARTESIAN_POINT('',(176.,-2.435E-15,-13.));
#651=CARTESIAN_POINT('',(-176.,172.,-13.));
#652=CARTESIAN_POINT('',(-176.,-2.435E-15,-13.));
#653=CARTESIAN_POINT('',(196.,172.,-13.));
#654=CARTESIAN_POINT('Origin',(-176.,0.,-7.49999999999911));
#655=CARTESIAN_POINT('',(-176.,177.,-15.));
#656=CARTESIAN_POINT('',(-176.,134.625,-57.3749999999998));
#657=CARTESIAN_POINT('',(-176.,172.,-15.));
#658=CARTESIAN_POINT('',(-176.,-6.07E-15,-15.));
#659=CARTESIAN_POINT('',(-176.,172.,-11.2499999999996));
#660=CARTESIAN_POINT('Origin',(196.,172.,-15.));
#661=CARTESIAN_POINT('',(176.,172.,-15.));
#662=CARTESIAN_POINT('',(176.,172.,-11.2499999999996));
#663=CARTESIAN_POINT('',(196.,172.,-15.));
#664=CARTESIAN_POINT('Origin',(1.133E-14,-1.214E-14,-15.));
#665=CARTESIAN_POINT('',(176.,177.,-15.));
#666=CARTESIAN_POINT('',(176.,-6.07E-15,-15.));
#667=CARTESIAN_POINT('',(199.,177.,-15.));
#668=CARTESIAN_POINT('Origin',(0.,177.,-15.));
#669=CARTESIAN_POINT('',(176.,134.625,-57.3749999999998));
#670=CARTESIAN_POINT('Origin',(176.,0.,-7.49999999999911));
#671=UNCERTAINTY_MEASURE_WITH_UNIT(LENGTH_MEASURE(0.01),#675,
'DISTANCE_ACCURACY_VALUE',
'Maximum model space distance between geometric entities at asserted c
onnectivities');
#672=UNCERTAINTY_MEASURE_WITH_UNIT(LENGTH_MEASURE(0.01),#675,
'DISTANCE_ACCURACY_VALUE',
'Maximum model space distance between geometric entities at asserted c
onnectivities');
#673=(
GEOMETRIC_REPRESENTATION_CONTEXT(3)
GLOBAL_UNCERTAINTY_ASSIGNED_CONTEXT((#671))
GLOBAL_UNIT_ASSIGNED_CONTEXT((#675,#677,#678))
REPRESENTATION_CONTEXT('','3D')
);
#674=(
GEOMETRIC_REPRESENTATION_CONTEXT(3)
GLOBAL_UNCERTAINTY_ASSIGNED_CONTEXT((#672))
GLOBAL_UNIT_ASSIGNED_CONTEXT((#675,#677,#678))
REPRESENTATION_CONTEXT('','3D')
);
#675=(
LENGTH_UNIT()
NAMED_UNIT(*)
SI_UNIT(.MILLI.,.METRE.)
);
#676=(
LENGTH_UNIT()
NAMED_UNIT(*)
SI_UNIT($,.METRE.)
);
#677=(
NAMED_UNIT(*)
PLANE_ANGLE_UNIT()
SI_UNIT($,.RADIAN.)
);
#678=(
NAMED_UNIT(*)
SI_UNIT($,.STERADIAN.)
SOLID_ANGLE_UNIT()
);
#679=SHAPE_DEFINITION_REPRESENTATION(#680,#681);
#680=PRODUCT_DEFINITION_SHAPE('',$,#683);
#681=SHAPE_REPRESENTATION('',(#411),#673);
#682=PRODUCT_DEFINITION_CONTEXT('part definition',#687,'design');
#683=PRODUCT_DEFINITION('Skirt','(Unsaved)',#684,#682);
#684=PRODUCT_DEFINITION_FORMATION('',$,#689);
#685=PRODUCT_RELATED_PRODUCT_CATEGORY('(Unsaved)','(Unsaved)',(#689));
#686=APPLICATION_PROTOCOL_DEFINITION('international standard',
'automotive_design',2009,#687);
#687=APPLICATION_CONTEXT(
'Core Data for Automotive Mechanical Design Process');
#688=PRODUCT_CONTEXT('part definition',#687,'mechanical');
#689=PRODUCT('Skirt','(Unsaved)','FreeCAD Model',(#688));
#690=PRESENTATION_STYLE_ASSIGNMENT((#692));
#691=PRESENTATION_STYLE_ASSIGNMENT((#693));
#692=SURFACE_STYLE_USAGE(.BOTH.,#694);
#693=SURFACE_STYLE_USAGE(.BOTH.,#695);
#694=SURFACE_SIDE_STYLE('',(#696));
#695=SURFACE_SIDE_STYLE('',(#697));
#696=SURFACE_STYLE_FILL_AREA(#698);
#697=SURFACE_STYLE_FILL_AREA(#699);
#698=FILL_AREA_STYLE('Steel - Satin',(#700));
#699=FILL_AREA_STYLE('Opaque(30,30,30)',(#701));
#700=FILL_AREA_STYLE_COLOUR('Steel - Satin',#702);
#701=FILL_AREA_STYLE_COLOUR('Opaque(30,30,30)',#703);
#702=COLOUR_RGB('Steel - Satin',0.627450980392157,0.627450980392157,0.627450980392157);
#703=COLOUR_RGB('Opaque(30,30,30)',0.117647058823529,0.117647058823529,
0.117647058823529);
ENDSEC;
END-ISO-10303-21;
