ISO-10303-21;
HEADER;
/* Generated by software containing ST-Developer
 * from STEP Tools, Inc. (www.steptools.com) 
 */

FILE_DESCRIPTION(
/* description */ ('FreeCAD Model'),
/* implementation_level */ '2;1');

FILE_NAME(
/* name */ 'Skirt_Corner.step',
/* time_stamp */ '2025-11-27T15:45:01-05:00',
/* author */ (''),
/* organization */ (''),
/* preprocessor_version */ 'ST-DEVELOPER v20.1',
/* originating_system */ 'Autodesk Translation Framework v14.17.0.0',
/* authorisation */ '');

FILE_SCHEMA (('AUTOMOTIVE_DESIGN { 1 0 10303 214 3 1 1 }'));
ENDSEC;

DATA;
#10=MECHANICAL_DESIGN_GEOMETRIC_PRESENTATION_REPRESENTATION('',(#13),#808);
#11=SHAPE_REPRESENTATION_RELATIONSHIP('SRR','None',#815,#12);
#12=ADVANCED_BREP_SHAPE_REPRESENTATION('',(#14),#807);
#13=STYLED_ITEM('',(#825),#14);
#14=MANIFOLD_SOLID_BREP('Body2',#470);
#15=B_SPLINE_SURFACE_WITH_KNOTS('',8,1,((#753,#754),(#755,#756),(#757,#758),
(#759,#760),(#761,#762),(#763,#764),(#765,#766),(#767,#768),(#769,#770)),
 .UNSPECIFIED.,.F.,.F.,.F.,(9,9),(2,2),(1.570796326795,3.14159265359),(0.,
1.),.UNSPECIFIED.);
#16=ELLIPSE('',#498,6.36396097434918,4.50000002745861);
#17=ELLIPSE('',#515,6.36396103067893,4.5);
#18=FACE_BOUND('',#72,.T.);
#19=FACE_BOUND('',#74,.T.);
#20=FACE_BOUND('',#77,.T.);
#21=FACE_BOUND('',#85,.T.);
#22=FACE_BOUND('',#89,.T.);
#23=FACE_BOUND('',#94,.T.);
#24=FACE_BOUND('',#95,.T.);
#25=FACE_BOUND('',#98,.T.);
#26=PLANE('',#490);
#27=PLANE('',#491);
#28=PLANE('',#492);
#29=PLANE('',#494);
#30=PLANE('',#499);
#31=PLANE('',#502);
#32=PLANE('',#512);
#33=PLANE('',#513);
#34=PLANE('',#518);
#35=PLANE('',#519);
#36=PLANE('',#520);
#37=PLANE('',#521);
#38=PLANE('',#522);
#39=PLANE('',#523);
#40=PLANE('',#524);
#41=PLANE('',#525);
#42=FACE_OUTER_BOUND('',#67,.T.);
#43=FACE_OUTER_BOUND('',#68,.T.);
#44=FACE_OUTER_BOUND('',#69,.T.);
#45=FACE_OUTER_BOUND('',#70,.T.);
#46=FACE_OUTER_BOUND('',#71,.T.);
#47=FACE_OUTER_BOUND('',#73,.T.);
#48=FACE_OUTER_BOUND('',#75,.T.);
#49=FACE_OUTER_BOUND('',#76,.T.);
#50=FACE_OUTER_BOUND('',#78,.T.);
#51=FACE_OUTER_BOUND('',#79,.T.);
#52=FACE_OUTER_BOUND('',#80,.T.);
#53=FACE_OUTER_BOUND('',#81,.T.);
#54=FACE_OUTER_BOUND('',#82,.T.);
#55=FACE_OUTER_BOUND('',#83,.T.);
#56=FACE_OUTER_BOUND('',#84,.T.);
#57=FACE_OUTER_BOUND('',#86,.T.);
#58=FACE_OUTER_BOUND('',#87,.T.);
#59=FACE_OUTER_BOUND('',#88,.T.);
#60=FACE_OUTER_BOUND('',#90,.T.);
#61=FACE_OUTER_BOUND('',#91,.T.);
#62=FACE_OUTER_BOUND('',#92,.T.);
#63=FACE_OUTER_BOUND('',#93,.T.);
#64=FACE_OUTER_BOUND('',#96,.T.);
#65=FACE_OUTER_BOUND('',#97,.T.);
#66=FACE_OUTER_BOUND('',#99,.T.);
#67=EDGE_LOOP('',(#311,#312,#313,#314));
#68=EDGE_LOOP('',(#315,#316,#317,#318));
#69=EDGE_LOOP('',(#319,#320,#321,#322));
#70=EDGE_LOOP('',(#323,#324,#325,#326));
#71=EDGE_LOOP('',(#327,#328,#329,#330,#331,#332));
#72=EDGE_LOOP('',(#333));
#73=EDGE_LOOP('',(#334));
#74=EDGE_LOOP('',(#335));
#75=EDGE_LOOP('',(#336,#337,#338,#339));
#76=EDGE_LOOP('',(#340));
#77=EDGE_LOOP('',(#341));
#78=EDGE_LOOP('',(#342,#343,#344,#345,#346,#347));
#79=EDGE_LOOP('',(#348,#349,#350,#351));
#80=EDGE_LOOP('',(#352,#353,#354,#355));
#81=EDGE_LOOP('',(#356,#357,#358,#359));
#82=EDGE_LOOP('',(#360,#361,#362,#363));
#83=EDGE_LOOP('',(#364,#365,#366,#367));
#84=EDGE_LOOP('',(#368,#369,#370,#371));
#85=EDGE_LOOP('',(#372));
#86=EDGE_LOOP('',(#373,#374,#375,#376));
#87=EDGE_LOOP('',(#377,#378,#379,#380));
#88=EDGE_LOOP('',(#381,#382,#383,#384));
#89=EDGE_LOOP('',(#385));
#90=EDGE_LOOP('',(#386,#387,#388,#389,#390,#391,#392,#393));
#91=EDGE_LOOP('',(#394,#395,#396,#397));
#92=EDGE_LOOP('',(#398,#399,#400,#401,#402,#403));
#93=EDGE_LOOP('',(#404,#405,#406,#407,#408,#409,#410,#411));
#94=EDGE_LOOP('',(#412));
#95=EDGE_LOOP('',(#413));
#96=EDGE_LOOP('',(#414,#415,#416,#417,#418,#419));
#97=EDGE_LOOP('',(#420,#421,#422,#423,#424,#425,#426,#427,#428,#429));
#98=EDGE_LOOP('',(#430));
#99=EDGE_LOOP('',(#431,#432,#433,#434,#435,#436));
#100=LINE('',#662,#145);
#101=LINE('',#667,#146);
#102=LINE('',#671,#147);
#103=LINE('',#676,#148);
#104=LINE('',#677,#149);
#105=LINE('',#678,#150);
#106=LINE('',#681,#151);
#107=LINE('',#683,#152);
#108=LINE('',#684,#153);
#109=LINE('',#687,#154);
#110=LINE('',#690,#155);
#111=LINE('',#698,#156);
#112=LINE('',#708,#157);
#113=LINE('',#709,#158);
#114=LINE('',#711,#159);
#115=LINE('',#712,#160);
#116=LINE('',#715,#161);
#117=LINE('',#719,#162);
#118=LINE('',#723,#163);
#119=LINE('',#728,#164);
#120=LINE('',#732,#165);
#121=LINE('',#737,#166);
#122=LINE('',#738,#167);
#123=LINE('',#739,#168);
#124=LINE('',#743,#169);
#125=LINE('',#745,#170);
#126=LINE('',#747,#171);
#127=LINE('',#748,#172);
#128=LINE('',#751,#173);
#129=LINE('',#774,#174);
#130=LINE('',#779,#175);
#131=LINE('',#780,#176);
#132=LINE('',#781,#177);
#133=LINE('',#783,#178);
#134=LINE('',#785,#179);
#135=LINE('',#786,#180);
#136=LINE('',#789,#181);
#137=LINE('',#790,#182);
#138=LINE('',#792,#183);
#139=LINE('',#793,#184);
#140=LINE('',#796,#185);
#141=LINE('',#797,#186);
#142=LINE('',#800,#187);
#143=LINE('',#801,#188);
#144=LINE('',#803,#189);
#145=VECTOR('',#532,2.25);
#146=VECTOR('',#537,1.);
#147=VECTOR('',#540,1.);
#148=VECTOR('',#545,1.);
#149=VECTOR('',#546,1.);
#150=VECTOR('',#547,1.);
#151=VECTOR('',#550,1.);
#152=VECTOR('',#551,1.);
#153=VECTOR('',#552,1.);
#154=VECTOR('',#555,1.);
#155=VECTOR('',#558,1.);
#156=VECTOR('',#567,4.5);
#157=VECTOR('',#578,10.);
#158=VECTOR('',#579,1.);
#159=VECTOR('',#580,10.);
#160=VECTOR('',#581,1.);
#161=VECTOR('',#584,10.);
#162=VECTOR('',#589,2.75);
#163=VECTOR('',#594,2.75);
#164=VECTOR('',#599,1.);
#165=VECTOR('',#602,1.);
#166=VECTOR('',#607,10.);
#167=VECTOR('',#608,1.);
#168=VECTOR('',#609,1.);
#169=VECTOR('',#612,10.);
#170=VECTOR('',#613,1.);
#171=VECTOR('',#614,10.);
#172=VECTOR('',#615,1.);
#173=VECTOR('',#618,4.5);
#174=VECTOR('',#623,10.);
#175=VECTOR('',#628,10.);
#176=VECTOR('',#629,1.);
#177=VECTOR('',#630,1.);
#178=VECTOR('',#633,10.);
#179=VECTOR('',#634,1.);
#180=VECTOR('',#635,10.);
#181=VECTOR('',#638,10.);
#182=VECTOR('',#639,1.);
#183=VECTOR('',#642,10.);
#184=VECTOR('',#643,10.);
#185=VECTOR('',#646,10.);
#186=VECTOR('',#647,1.);
#187=VECTOR('',#650,10.);
#188=VECTOR('',#651,1.);
#189=VECTOR('',#654,10.);
#190=CIRCLE('',#485,2.25);
#191=CIRCLE('',#486,2.25);
#192=CIRCLE('',#488,8.);
#193=CIRCLE('',#489,8.);
#194=CIRCLE('',#493,5.);
#195=CIRCLE('',#495,4.5);
#196=CIRCLE('',#496,2.75);
#197=CIRCLE('',#500,4.5);
#198=CIRCLE('',#501,2.75);
#199=CIRCLE('',#504,5.);
#200=CIRCLE('',#506,2.75);
#201=CIRCLE('',#508,2.75);
#202=CIRCLE('',#510,10.);
#203=CIRCLE('',#511,10.);
#204=CIRCLE('',#516,12.);
#205=CIRCLE('',#517,2.);
#206=VERTEX_POINT('',#659);
#207=VERTEX_POINT('',#661);
#208=VERTEX_POINT('',#665);
#209=VERTEX_POINT('',#666);
#210=VERTEX_POINT('',#668);
#211=VERTEX_POINT('',#670);
#212=VERTEX_POINT('',#674);
#213=VERTEX_POINT('',#675);
#214=VERTEX_POINT('',#680);
#215=VERTEX_POINT('',#682);
#216=VERTEX_POINT('',#686);
#217=VERTEX_POINT('',#688);
#218=VERTEX_POINT('',#692);
#219=VERTEX_POINT('',#694);
#220=VERTEX_POINT('',#697);
#221=VERTEX_POINT('',#701);
#222=VERTEX_POINT('',#703);
#223=VERTEX_POINT('',#706);
#224=VERTEX_POINT('',#707);
#225=VERTEX_POINT('',#710);
#226=VERTEX_POINT('',#714);
#227=VERTEX_POINT('',#718);
#228=VERTEX_POINT('',#722);
#229=VERTEX_POINT('',#726);
#230=VERTEX_POINT('',#727);
#231=VERTEX_POINT('',#729);
#232=VERTEX_POINT('',#731);
#233=VERTEX_POINT('',#735);
#234=VERTEX_POINT('',#736);
#235=VERTEX_POINT('',#741);
#236=VERTEX_POINT('',#742);
#237=VERTEX_POINT('',#744);
#238=VERTEX_POINT('',#746);
#239=VERTEX_POINT('',#750);
#240=VERTEX_POINT('',#771);
#241=VERTEX_POINT('',#773);
#242=VERTEX_POINT('',#777);
#243=VERTEX_POINT('',#778);
#244=VERTEX_POINT('',#784);
#245=VERTEX_POINT('',#788);
#246=VERTEX_POINT('',#795);
#247=VERTEX_POINT('',#799);
#248=EDGE_CURVE('',#206,#206,#190,.T.);
#249=EDGE_CURVE('',#206,#207,#100,.T.);
#250=EDGE_CURVE('',#207,#207,#191,.T.);
#251=EDGE_CURVE('',#208,#209,#101,.T.);
#252=EDGE_CURVE('',#209,#210,#192,.T.);
#253=EDGE_CURVE('',#211,#210,#102,.T.);
#254=EDGE_CURVE('',#208,#211,#193,.T.);
#255=EDGE_CURVE('',#212,#213,#103,.T.);
#256=EDGE_CURVE('',#212,#211,#104,.T.);
#257=EDGE_CURVE('',#213,#210,#105,.T.);
#258=EDGE_CURVE('',#208,#214,#106,.T.);
#259=EDGE_CURVE('',#214,#215,#107,.T.);
#260=EDGE_CURVE('',#209,#215,#108,.T.);
#261=EDGE_CURVE('',#215,#216,#109,.T.);
#262=EDGE_CURVE('',#216,#217,#194,.T.);
#263=EDGE_CURVE('',#217,#213,#110,.T.);
#264=EDGE_CURVE('',#218,#218,#195,.T.);
#265=EDGE_CURVE('',#219,#219,#196,.T.);
#266=EDGE_CURVE('',#218,#220,#111,.T.);
#267=EDGE_CURVE('',#220,#220,#16,.T.);
#268=EDGE_CURVE('',#221,#221,#197,.T.);
#269=EDGE_CURVE('',#222,#222,#198,.T.);
#270=EDGE_CURVE('',#223,#224,#112,.F.);
#271=EDGE_CURVE('',#224,#212,#113,.T.);
#272=EDGE_CURVE('',#217,#225,#114,.T.);
#273=EDGE_CURVE('',#225,#223,#115,.T.);
#274=EDGE_CURVE('',#216,#226,#116,.T.);
#275=EDGE_CURVE('',#226,#225,#199,.T.);
#276=EDGE_CURVE('',#219,#227,#117,.T.);
#277=EDGE_CURVE('',#227,#227,#200,.T.);
#278=EDGE_CURVE('',#222,#228,#118,.T.);
#279=EDGE_CURVE('',#228,#228,#201,.T.);
#280=EDGE_CURVE('',#229,#230,#119,.T.);
#281=EDGE_CURVE('',#230,#231,#202,.T.);
#282=EDGE_CURVE('',#232,#231,#120,.T.);
#283=EDGE_CURVE('',#229,#232,#203,.T.);
#284=EDGE_CURVE('',#233,#234,#121,.T.);
#285=EDGE_CURVE('',#233,#230,#122,.T.);
#286=EDGE_CURVE('',#234,#229,#123,.T.);
#287=EDGE_CURVE('',#235,#236,#124,.T.);
#288=EDGE_CURVE('',#235,#237,#125,.T.);
#289=EDGE_CURVE('',#237,#238,#126,.T.);
#290=EDGE_CURVE('',#236,#238,#127,.T.);
#291=EDGE_CURVE('',#221,#239,#128,.T.);
#292=EDGE_CURVE('',#239,#239,#17,.T.);
#293=EDGE_CURVE('',#237,#240,#204,.T.);
#294=EDGE_CURVE('',#240,#241,#129,.T.);
#295=EDGE_CURVE('',#238,#241,#205,.T.);
#296=EDGE_CURVE('',#242,#243,#130,.T.);
#297=EDGE_CURVE('',#241,#243,#131,.T.);
#298=EDGE_CURVE('',#240,#242,#132,.T.);
#299=EDGE_CURVE('',#234,#235,#133,.F.);
#300=EDGE_CURVE('',#232,#244,#134,.T.);
#301=EDGE_CURVE('',#244,#242,#135,.F.);
#302=EDGE_CURVE('',#245,#244,#136,.T.);
#303=EDGE_CURVE('',#231,#245,#137,.T.);
#304=EDGE_CURVE('',#224,#245,#138,.T.);
#305=EDGE_CURVE('',#243,#223,#139,.T.);
#306=EDGE_CURVE('',#236,#246,#140,.T.);
#307=EDGE_CURVE('',#246,#226,#141,.T.);
#308=EDGE_CURVE('',#246,#247,#142,.F.);
#309=EDGE_CURVE('',#214,#247,#143,.T.);
#310=EDGE_CURVE('',#247,#233,#144,.T.);
#311=ORIENTED_EDGE('',*,*,#248,.F.);
#312=ORIENTED_EDGE('',*,*,#249,.T.);
#313=ORIENTED_EDGE('',*,*,#250,.T.);
#314=ORIENTED_EDGE('',*,*,#249,.F.);
#315=ORIENTED_EDGE('',*,*,#251,.T.);
#316=ORIENTED_EDGE('',*,*,#252,.T.);
#317=ORIENTED_EDGE('',*,*,#253,.F.);
#318=ORIENTED_EDGE('',*,*,#254,.F.);
#319=ORIENTED_EDGE('',*,*,#255,.F.);
#320=ORIENTED_EDGE('',*,*,#256,.T.);
#321=ORIENTED_EDGE('',*,*,#253,.T.);
#322=ORIENTED_EDGE('',*,*,#257,.F.);
#323=ORIENTED_EDGE('',*,*,#251,.F.);
#324=ORIENTED_EDGE('',*,*,#258,.T.);
#325=ORIENTED_EDGE('',*,*,#259,.T.);
#326=ORIENTED_EDGE('',*,*,#260,.F.);
#327=ORIENTED_EDGE('',*,*,#252,.F.);
#328=ORIENTED_EDGE('',*,*,#260,.T.);
#329=ORIENTED_EDGE('',*,*,#261,.T.);
#330=ORIENTED_EDGE('',*,*,#262,.T.);
#331=ORIENTED_EDGE('',*,*,#263,.T.);
#332=ORIENTED_EDGE('',*,*,#257,.T.);
#333=ORIENTED_EDGE('',*,*,#248,.T.);
#334=ORIENTED_EDGE('',*,*,#264,.F.);
#335=ORIENTED_EDGE('',*,*,#265,.T.);
#336=ORIENTED_EDGE('',*,*,#264,.T.);
#337=ORIENTED_EDGE('',*,*,#266,.T.);
#338=ORIENTED_EDGE('',*,*,#267,.F.);
#339=ORIENTED_EDGE('',*,*,#266,.F.);
#340=ORIENTED_EDGE('',*,*,#268,.F.);
#341=ORIENTED_EDGE('',*,*,#269,.T.);
#342=ORIENTED_EDGE('',*,*,#270,.T.);
#343=ORIENTED_EDGE('',*,*,#271,.T.);
#344=ORIENTED_EDGE('',*,*,#255,.T.);
#345=ORIENTED_EDGE('',*,*,#263,.F.);
#346=ORIENTED_EDGE('',*,*,#272,.T.);
#347=ORIENTED_EDGE('',*,*,#273,.T.);
#348=ORIENTED_EDGE('',*,*,#274,.T.);
#349=ORIENTED_EDGE('',*,*,#275,.T.);
#350=ORIENTED_EDGE('',*,*,#272,.F.);
#351=ORIENTED_EDGE('',*,*,#262,.F.);
#352=ORIENTED_EDGE('',*,*,#265,.F.);
#353=ORIENTED_EDGE('',*,*,#276,.T.);
#354=ORIENTED_EDGE('',*,*,#277,.T.);
#355=ORIENTED_EDGE('',*,*,#276,.F.);
#356=ORIENTED_EDGE('',*,*,#269,.F.);
#357=ORIENTED_EDGE('',*,*,#278,.T.);
#358=ORIENTED_EDGE('',*,*,#279,.T.);
#359=ORIENTED_EDGE('',*,*,#278,.F.);
#360=ORIENTED_EDGE('',*,*,#280,.T.);
#361=ORIENTED_EDGE('',*,*,#281,.T.);
#362=ORIENTED_EDGE('',*,*,#282,.F.);
#363=ORIENTED_EDGE('',*,*,#283,.F.);
#364=ORIENTED_EDGE('',*,*,#284,.F.);
#365=ORIENTED_EDGE('',*,*,#285,.T.);
#366=ORIENTED_EDGE('',*,*,#280,.F.);
#367=ORIENTED_EDGE('',*,*,#286,.F.);
#368=ORIENTED_EDGE('',*,*,#287,.F.);
#369=ORIENTED_EDGE('',*,*,#288,.T.);
#370=ORIENTED_EDGE('',*,*,#289,.T.);
#371=ORIENTED_EDGE('',*,*,#290,.F.);
#372=ORIENTED_EDGE('',*,*,#267,.T.);
#373=ORIENTED_EDGE('',*,*,#268,.T.);
#374=ORIENTED_EDGE('',*,*,#291,.T.);
#375=ORIENTED_EDGE('',*,*,#292,.F.);
#376=ORIENTED_EDGE('',*,*,#291,.F.);
#377=ORIENTED_EDGE('',*,*,#293,.T.);
#378=ORIENTED_EDGE('',*,*,#294,.T.);
#379=ORIENTED_EDGE('',*,*,#295,.F.);
#380=ORIENTED_EDGE('',*,*,#289,.F.);
#381=ORIENTED_EDGE('',*,*,#296,.T.);
#382=ORIENTED_EDGE('',*,*,#297,.F.);
#383=ORIENTED_EDGE('',*,*,#294,.F.);
#384=ORIENTED_EDGE('',*,*,#298,.T.);
#385=ORIENTED_EDGE('',*,*,#292,.T.);
#386=ORIENTED_EDGE('',*,*,#299,.F.);
#387=ORIENTED_EDGE('',*,*,#286,.T.);
#388=ORIENTED_EDGE('',*,*,#283,.T.);
#389=ORIENTED_EDGE('',*,*,#300,.T.);
#390=ORIENTED_EDGE('',*,*,#301,.T.);
#391=ORIENTED_EDGE('',*,*,#298,.F.);
#392=ORIENTED_EDGE('',*,*,#293,.F.);
#393=ORIENTED_EDGE('',*,*,#288,.F.);
#394=ORIENTED_EDGE('',*,*,#302,.T.);
#395=ORIENTED_EDGE('',*,*,#300,.F.);
#396=ORIENTED_EDGE('',*,*,#282,.T.);
#397=ORIENTED_EDGE('',*,*,#303,.T.);
#398=ORIENTED_EDGE('',*,*,#296,.F.);
#399=ORIENTED_EDGE('',*,*,#301,.F.);
#400=ORIENTED_EDGE('',*,*,#302,.F.);
#401=ORIENTED_EDGE('',*,*,#304,.F.);
#402=ORIENTED_EDGE('',*,*,#270,.F.);
#403=ORIENTED_EDGE('',*,*,#305,.F.);
#404=ORIENTED_EDGE('',*,*,#306,.F.);
#405=ORIENTED_EDGE('',*,*,#290,.T.);
#406=ORIENTED_EDGE('',*,*,#295,.T.);
#407=ORIENTED_EDGE('',*,*,#297,.T.);
#408=ORIENTED_EDGE('',*,*,#305,.T.);
#409=ORIENTED_EDGE('',*,*,#273,.F.);
#410=ORIENTED_EDGE('',*,*,#275,.F.);
#411=ORIENTED_EDGE('',*,*,#307,.F.);
#412=ORIENTED_EDGE('',*,*,#277,.F.);
#413=ORIENTED_EDGE('',*,*,#279,.F.);
#414=ORIENTED_EDGE('',*,*,#308,.F.);
#415=ORIENTED_EDGE('',*,*,#307,.T.);
#416=ORIENTED_EDGE('',*,*,#274,.F.);
#417=ORIENTED_EDGE('',*,*,#261,.F.);
#418=ORIENTED_EDGE('',*,*,#259,.F.);
#419=ORIENTED_EDGE('',*,*,#309,.T.);
#420=ORIENTED_EDGE('',*,*,#310,.F.);
#421=ORIENTED_EDGE('',*,*,#309,.F.);
#422=ORIENTED_EDGE('',*,*,#258,.F.);
#423=ORIENTED_EDGE('',*,*,#254,.T.);
#424=ORIENTED_EDGE('',*,*,#256,.F.);
#425=ORIENTED_EDGE('',*,*,#271,.F.);
#426=ORIENTED_EDGE('',*,*,#304,.T.);
#427=ORIENTED_EDGE('',*,*,#303,.F.);
#428=ORIENTED_EDGE('',*,*,#281,.F.);
#429=ORIENTED_EDGE('',*,*,#285,.F.);
#430=ORIENTED_EDGE('',*,*,#250,.F.);
#431=ORIENTED_EDGE('',*,*,#306,.T.);
#432=ORIENTED_EDGE('',*,*,#308,.T.);
#433=ORIENTED_EDGE('',*,*,#310,.T.);
#434=ORIENTED_EDGE('',*,*,#284,.T.);
#435=ORIENTED_EDGE('',*,*,#299,.T.);
#436=ORIENTED_EDGE('',*,*,#287,.T.);
#437=CYLINDRICAL_SURFACE('',#484,2.25);
#438=CYLINDRICAL_SURFACE('',#487,8.);
#439=CYLINDRICAL_SURFACE('',#497,4.5);
#440=CYLINDRICAL_SURFACE('',#503,5.);
#441=CYLINDRICAL_SURFACE('',#505,2.75);
#442=CYLINDRICAL_SURFACE('',#507,2.75);
#443=CYLINDRICAL_SURFACE('',#509,10.);
#444=CYLINDRICAL_SURFACE('',#514,4.5);
#445=ADVANCED_FACE('',(#42),#437,.F.);
#446=ADVANCED_FACE('',(#43),#438,.T.);
#447=ADVANCED_FACE('',(#44),#26,.F.);
#448=ADVANCED_FACE('',(#45),#27,.F.);
#449=ADVANCED_FACE('',(#46,#18),#28,.T.);
#450=ADVANCED_FACE('',(#47,#19),#29,.F.);
#451=ADVANCED_FACE('',(#48),#439,.F.);
#452=ADVANCED_FACE('',(#49,#20),#30,.F.);
#453=ADVANCED_FACE('',(#50),#31,.F.);
#454=ADVANCED_FACE('',(#51),#440,.F.);
#455=ADVANCED_FACE('',(#52),#441,.F.);
#456=ADVANCED_FACE('',(#53),#442,.F.);
#457=ADVANCED_FACE('',(#54),#443,.F.);
#458=ADVANCED_FACE('',(#55),#32,.T.);
#459=ADVANCED_FACE('',(#56,#21),#33,.T.);
#460=ADVANCED_FACE('',(#57),#444,.F.);
#461=ADVANCED_FACE('',(#58),#15,.T.);
#462=ADVANCED_FACE('',(#59,#22),#34,.T.);
#463=ADVANCED_FACE('',(#60),#35,.F.);
#464=ADVANCED_FACE('',(#61),#36,.T.);
#465=ADVANCED_FACE('',(#62),#37,.F.);
#466=ADVANCED_FACE('',(#63,#23,#24),#38,.T.);
#467=ADVANCED_FACE('',(#64),#39,.F.);
#468=ADVANCED_FACE('',(#65,#25),#40,.T.);
#469=ADVANCED_FACE('',(#66),#41,.T.);
#470=CLOSED_SHELL('',(#445,#446,#447,#448,#449,#450,#451,#452,#453,#454,
#455,#456,#457,#458,#459,#460,#461,#462,#463,#464,#465,#466,#467,#468,#469));
#471=DERIVED_UNIT_ELEMENT(#473,1.);
#472=DERIVED_UNIT_ELEMENT(#810,-3.);
#473=(
MASS_UNIT()
NAMED_UNIT(*)
SI_UNIT(.KILO.,.GRAM.)
);
#474=DERIVED_UNIT((#471,#472));
#475=MEASURE_REPRESENTATION_ITEM('density measure',
POSITIVE_RATIO_MEASURE(7850.),#474);
#476=PROPERTY_DEFINITION_REPRESENTATION(#481,#478);
#477=PROPERTY_DEFINITION_REPRESENTATION(#482,#479);
#478=REPRESENTATION('material name',(#480),#807);
#479=REPRESENTATION('density',(#475),#807);
#480=DESCRIPTIVE_REPRESENTATION_ITEM('Steel','Steel');
#481=PROPERTY_DEFINITION('material property','material name',#817);
#482=PROPERTY_DEFINITION('material property','density of part',#817);
#483=AXIS2_PLACEMENT_3D('',#657,#526,#527);
#484=AXIS2_PLACEMENT_3D('',#658,#528,#529);
#485=AXIS2_PLACEMENT_3D('',#660,#530,#531);
#486=AXIS2_PLACEMENT_3D('',#663,#533,#534);
#487=AXIS2_PLACEMENT_3D('',#664,#535,#536);
#488=AXIS2_PLACEMENT_3D('',#669,#538,#539);
#489=AXIS2_PLACEMENT_3D('',#672,#541,#542);
#490=AXIS2_PLACEMENT_3D('',#673,#543,#544);
#491=AXIS2_PLACEMENT_3D('',#679,#548,#549);
#492=AXIS2_PLACEMENT_3D('',#685,#553,#554);
#493=AXIS2_PLACEMENT_3D('',#689,#556,#557);
#494=AXIS2_PLACEMENT_3D('',#691,#559,#560);
#495=AXIS2_PLACEMENT_3D('',#693,#561,#562);
#496=AXIS2_PLACEMENT_3D('',#695,#563,#564);
#497=AXIS2_PLACEMENT_3D('',#696,#565,#566);
#498=AXIS2_PLACEMENT_3D('',#699,#568,#569);
#499=AXIS2_PLACEMENT_3D('',#700,#570,#571);
#500=AXIS2_PLACEMENT_3D('',#702,#572,#573);
#501=AXIS2_PLACEMENT_3D('',#704,#574,#575);
#502=AXIS2_PLACEMENT_3D('',#705,#576,#577);
#503=AXIS2_PLACEMENT_3D('',#713,#582,#583);
#504=AXIS2_PLACEMENT_3D('',#716,#585,#586);
#505=AXIS2_PLACEMENT_3D('',#717,#587,#588);
#506=AXIS2_PLACEMENT_3D('',#720,#590,#591);
#507=AXIS2_PLACEMENT_3D('',#721,#592,#593);
#508=AXIS2_PLACEMENT_3D('',#724,#595,#596);
#509=AXIS2_PLACEMENT_3D('',#725,#597,#598);
#510=AXIS2_PLACEMENT_3D('',#730,#600,#601);
#511=AXIS2_PLACEMENT_3D('',#733,#603,#604);
#512=AXIS2_PLACEMENT_3D('',#734,#605,#606);
#513=AXIS2_PLACEMENT_3D('',#740,#610,#611);
#514=AXIS2_PLACEMENT_3D('',#749,#616,#617);
#515=AXIS2_PLACEMENT_3D('',#752,#619,#620);
#516=AXIS2_PLACEMENT_3D('',#772,#621,#622);
#517=AXIS2_PLACEMENT_3D('',#775,#624,#625);
#518=AXIS2_PLACEMENT_3D('',#776,#626,#627);
#519=AXIS2_PLACEMENT_3D('',#782,#631,#632);
#520=AXIS2_PLACEMENT_3D('',#787,#636,#637);
#521=AXIS2_PLACEMENT_3D('',#791,#640,#641);
#522=AXIS2_PLACEMENT_3D('',#794,#644,#645);
#523=AXIS2_PLACEMENT_3D('',#798,#648,#649);
#524=AXIS2_PLACEMENT_3D('',#802,#652,#653);
#525=AXIS2_PLACEMENT_3D('',#804,#655,#656);
#526=DIRECTION('axis',(0.,0.,1.));
#527=DIRECTION('refdir',(1.,0.,0.));
#528=DIRECTION('center_axis',(0.,0.,-1.));
#529=DIRECTION('ref_axis',(1.,0.,0.));
#530=DIRECTION('center_axis',(0.,0.,-1.));
#531=DIRECTION('ref_axis',(1.,0.,0.));
#532=DIRECTION('',(0.,0.,-1.));
#533=DIRECTION('center_axis',(0.,0.,-1.));
#534=DIRECTION('ref_axis',(1.,0.,0.));
#535=DIRECTION('center_axis',(0.,0.,-1.));
#536=DIRECTION('ref_axis',(1.,0.,0.));
#537=DIRECTION('',(0.,0.,1.));
#538=DIRECTION('center_axis',(0.,0.,-1.));
#539=DIRECTION('ref_axis',(1.,0.,0.));
#540=DIRECTION('',(0.,0.,1.));
#541=DIRECTION('center_axis',(0.,0.,-1.));
#542=DIRECTION('ref_axis',(1.,0.,0.));
#543=DIRECTION('center_axis',(0.,1.,0.));
#544=DIRECTION('ref_axis',(1.,0.,0.));
#545=DIRECTION('',(0.,0.,1.));
#546=DIRECTION('',(1.,0.,0.));
#547=DIRECTION('',(1.,0.,0.));
#548=DIRECTION('center_axis',(-1.,0.,0.));
#549=DIRECTION('ref_axis',(0.,1.,0.));
#550=DIRECTION('',(0.,1.,0.));
#551=DIRECTION('',(0.,0.,1.));
#552=DIRECTION('',(0.,1.,0.));
#553=DIRECTION('center_axis',(0.,0.,1.));
#554=DIRECTION('ref_axis',(1.,0.,0.));
#555=DIRECTION('',(-1.,0.,0.));
#556=DIRECTION('center_axis',(0.,0.,1.));
#557=DIRECTION('ref_axis',(1.,0.,0.));
#558=DIRECTION('',(0.,-1.,0.));
#559=DIRECTION('center_axis',(0.,0.,1.));
#560=DIRECTION('ref_axis',(1.,0.,0.));
#561=DIRECTION('center_axis',(0.,0.,1.));
#562=DIRECTION('ref_axis',(1.,0.,0.));
#563=DIRECTION('center_axis',(0.,0.,1.));
#564=DIRECTION('ref_axis',(1.,0.,0.));
#565=DIRECTION('center_axis',(0.,0.,-1.));
#566=DIRECTION('ref_axis',(1.,0.,0.));
#567=DIRECTION('',(0.,0.,-1.));
#568=DIRECTION('center_axis',(3.7948459998339E-13,-0.707106781186799,0.707106781186296));
#569=DIRECTION('ref_axis',(-1.84413394821552E-8,-0.707106781186296,-0.707106781186799));
#570=DIRECTION('center_axis',(0.,0.,1.));
#571=DIRECTION('ref_axis',(1.,0.,0.));
#572=DIRECTION('center_axis',(0.,0.,1.));
#573=DIRECTION('ref_axis',(1.,0.,0.));
#574=DIRECTION('center_axis',(0.,0.,1.));
#575=DIRECTION('ref_axis',(1.,0.,0.));
#576=DIRECTION('center_axis',(-1.,0.,0.));
#577=DIRECTION('ref_axis',(0.,-1.,0.));
#578=DIRECTION('',(0.,0.,1.));
#579=DIRECTION('',(0.,1.,0.));
#580=DIRECTION('',(0.,0.,1.));
#581=DIRECTION('',(0.,-1.,0.));
#582=DIRECTION('center_axis',(0.,0.,1.));
#583=DIRECTION('ref_axis',(1.,0.,0.));
#584=DIRECTION('',(0.,0.,1.));
#585=DIRECTION('center_axis',(0.,0.,1.));
#586=DIRECTION('ref_axis',(1.,0.,0.));
#587=DIRECTION('center_axis',(0.,0.,1.));
#588=DIRECTION('ref_axis',(1.,0.,0.));
#589=DIRECTION('',(0.,0.,1.));
#590=DIRECTION('center_axis',(0.,0.,1.));
#591=DIRECTION('ref_axis',(1.,0.,0.));
#592=DIRECTION('center_axis',(0.,0.,1.));
#593=DIRECTION('ref_axis',(1.,0.,0.));
#594=DIRECTION('',(0.,0.,1.));
#595=DIRECTION('center_axis',(0.,0.,1.));
#596=DIRECTION('ref_axis',(1.,0.,0.));
#597=DIRECTION('center_axis',(0.,0.,-1.));
#598=DIRECTION('ref_axis',(1.,1.2E-16,0.));
#599=DIRECTION('',(0.,0.,1.));
#600=DIRECTION('center_axis',(0.,0.,1.));
#601=DIRECTION('ref_axis',(1.,1.2E-16,0.));
#602=DIRECTION('',(0.,0.,1.));
#603=DIRECTION('center_axis',(0.,0.,1.));
#604=DIRECTION('ref_axis',(1.,1.2E-16,0.));
#605=DIRECTION('center_axis',(-7.E-17,-1.,0.));
#606=DIRECTION('ref_axis',(-1.,7.E-17,0.));
#607=DIRECTION('',(0.,0.,-1.));
#608=DIRECTION('',(-1.,7.E-17,0.));
#609=DIRECTION('',(-1.,7.E-17,0.));
#610=DIRECTION('center_axis',(0.,0.707106781186547,-0.707106781186548));
#611=DIRECTION('ref_axis',(-1.,0.,0.));
#612=DIRECTION('',(0.,0.707106781186548,0.707106781186547));
#613=DIRECTION('',(-1.,0.,0.));
#614=DIRECTION('',(-0.762492851663023,0.457495710997815,0.457495710997814));
#615=DIRECTION('',(-1.,0.,0.));
#616=DIRECTION('center_axis',(0.,0.,-1.));
#617=DIRECTION('ref_axis',(1.,0.,0.));
#618=DIRECTION('',(0.,0.,-1.));
#619=DIRECTION('center_axis',(0.707106781186548,0.,0.707106781186548));
#620=DIRECTION('ref_axis',(0.707106781186548,0.,-0.707106781186548));
#621=DIRECTION('center_axis',(0.,0.,1.));
#622=DIRECTION('ref_axis',(1.,0.,0.));
#623=DIRECTION('',(-0.457495710997814,0.762492851663023,0.457495710997814));
#624=DIRECTION('center_axis',(0.,0.,1.));
#625=DIRECTION('ref_axis',(1.,0.,0.));
#626=DIRECTION('center_axis',(-0.707106781186548,0.,-0.707106781186548));
#627=DIRECTION('ref_axis',(-0.707106781186548,0.,0.707106781186548));
#628=DIRECTION('',(-0.707106781186548,0.,0.707106781186548));
#629=DIRECTION('',(0.,-1.,0.));
#630=DIRECTION('',(0.,-1.,0.));
#631=DIRECTION('center_axis',(0.,0.,1.));
#632=DIRECTION('ref_axis',(1.,0.,0.));
#633=DIRECTION('',(0.,-1.,0.));
#634=DIRECTION('',(-9.E-17,-1.,0.));
#635=DIRECTION('',(1.,0.,0.));
#636=DIRECTION('center_axis',(1.,-9.E-17,0.));
#637=DIRECTION('ref_axis',(-9.E-17,-1.,0.));
#638=DIRECTION('',(0.,0.,-1.));
#639=DIRECTION('',(-9.E-17,-1.,0.));
#640=DIRECTION('center_axis',(0.,1.,0.));
#641=DIRECTION('ref_axis',(0.,0.,1.));
#642=DIRECTION('',(-1.,0.,0.));
#643=DIRECTION('',(1.,0.,0.));
#644=DIRECTION('center_axis',(0.,0.,1.));
#645=DIRECTION('ref_axis',(1.,0.,0.));
#646=DIRECTION('',(0.,-1.,0.));
#647=DIRECTION('',(-1.,0.,0.));
#648=DIRECTION('center_axis',(0.,1.,0.));
#649=DIRECTION('ref_axis',(-1.,0.,0.));
#650=DIRECTION('',(0.,0.,1.));
#651=DIRECTION('',(1.,0.,0.));
#652=DIRECTION('center_axis',(0.,0.,-1.));
#653=DIRECTION('ref_axis',(-1.,0.,0.));
#654=DIRECTION('',(0.,1.,0.));
#655=DIRECTION('center_axis',(1.,0.,0.));
#656=DIRECTION('ref_axis',(0.,0.,-1.));
#657=CARTESIAN_POINT('',(0.,0.,0.));
#658=CARTESIAN_POINT('Origin',(-193.,159.,-13.));
#659=CARTESIAN_POINT('',(-195.25,159.,-6.));
#660=CARTESIAN_POINT('Origin',(-193.,159.,-6.));
#661=CARTESIAN_POINT('',(-195.25,159.,-13.));
#662=CARTESIAN_POINT('',(-195.25,159.,-13.));
#663=CARTESIAN_POINT('Origin',(-193.,159.,-13.));
#664=CARTESIAN_POINT('Origin',(-193.,159.,-13.));
#665=CARTESIAN_POINT('',(-185.,159.,-13.));
#666=CARTESIAN_POINT('',(-185.,159.,-6.));
#667=CARTESIAN_POINT('',(-185.,159.,-13.));
#668=CARTESIAN_POINT('',(-193.,151.,-6.));
#669=CARTESIAN_POINT('Origin',(-193.,159.,-6.));
#670=CARTESIAN_POINT('',(-193.,151.,-13.));
#671=CARTESIAN_POINT('',(-193.,151.,-13.));
#672=CARTESIAN_POINT('Origin',(-193.,159.,-13.));
#673=CARTESIAN_POINT('Origin',(-201.,151.,-13.));
#674=CARTESIAN_POINT('',(-201.,151.,-13.));
#675=CARTESIAN_POINT('',(-201.,151.,-6.));
#676=CARTESIAN_POINT('',(-201.,151.,-13.));
#677=CARTESIAN_POINT('',(-201.,151.,-13.));
#678=CARTESIAN_POINT('',(-201.,151.,-6.));
#679=CARTESIAN_POINT('Origin',(-185.,159.,-13.));
#680=CARTESIAN_POINT('',(-185.,167.,-13.));
#681=CARTESIAN_POINT('',(-185.,159.,-13.));
#682=CARTESIAN_POINT('',(-185.,167.,-6.));
#683=CARTESIAN_POINT('',(-185.,167.,-13.));
#684=CARTESIAN_POINT('',(-185.,159.,-6.));
#685=CARTESIAN_POINT('Origin',(-4.47E-15,1.598E-14,-6.));
#686=CARTESIAN_POINT('',(-196.,167.,-6.));
#687=CARTESIAN_POINT('',(-185.,167.,-6.));
#688=CARTESIAN_POINT('',(-201.,162.,-6.));
#689=CARTESIAN_POINT('Origin',(-196.,162.,-6.));
#690=CARTESIAN_POINT('',(-201.,167.,-6.));
#691=CARTESIAN_POINT('Origin',(-6.08E-15,6.32E-15,-3.));
#692=CARTESIAN_POINT('',(-200.5,182.,-3.));
#693=CARTESIAN_POINT('Origin',(-196.,182.,-3.));
#694=CARTESIAN_POINT('',(-198.75,182.,-3.));
#695=CARTESIAN_POINT('Origin',(-196.,182.,-3.));
#696=CARTESIAN_POINT('Origin',(-196.,182.,-15.));
#697=CARTESIAN_POINT('',(-200.500000054917,182.,-9.99999999999517));
#698=CARTESIAN_POINT('',(-200.5,182.,-15.));
#699=CARTESIAN_POINT('Origin',(-196.000000027459,182.000000021374,-9.99999997862333));
#700=CARTESIAN_POINT('Origin',(-6.08E-15,6.32E-15,-3.));
#701=CARTESIAN_POINT('',(-220.5,162.,-3.));
#702=CARTESIAN_POINT('Origin',(-216.,162.,-3.));
#703=CARTESIAN_POINT('',(-218.75,162.,-3.));
#704=CARTESIAN_POINT('Origin',(-216.,162.,-3.));
#705=CARTESIAN_POINT('Origin',(-201.,162.,0.));
#706=CARTESIAN_POINT('',(-201.,142.3,0.));
#707=CARTESIAN_POINT('',(-201.,142.3,-13.));
#708=CARTESIAN_POINT('',(-201.,142.3,-3.74999999999955));
#709=CARTESIAN_POINT('',(-201.,81.,-13.));
#710=CARTESIAN_POINT('',(-201.,162.,0.));
#711=CARTESIAN_POINT('',(-201.,162.,-6.));
#712=CARTESIAN_POINT('',(-201.,162.,0.));
#713=CARTESIAN_POINT('Origin',(-196.,162.,-15.));
#714=CARTESIAN_POINT('',(-196.,167.,0.));
#715=CARTESIAN_POINT('',(-196.,167.,-6.));
#716=CARTESIAN_POINT('Origin',(-196.,162.,0.));
#717=CARTESIAN_POINT('Origin',(-196.,182.,-1.78E-15));
#718=CARTESIAN_POINT('',(-198.75,182.,-1.7763568394E-15));
#719=CARTESIAN_POINT('',(-198.75,182.,-1.78E-15));
#720=CARTESIAN_POINT('Origin',(-196.,182.,-1.7763568394E-15));
#721=CARTESIAN_POINT('Origin',(-216.,162.,-1.78E-15));
#722=CARTESIAN_POINT('',(-218.75,162.,-1.7763568394E-15));
#723=CARTESIAN_POINT('',(-218.75,162.,-1.78E-15));
#724=CARTESIAN_POINT('Origin',(-216.,162.,-1.7763568394E-15));
#725=CARTESIAN_POINT('Origin',(-196.,162.,-15.));
#726=CARTESIAN_POINT('',(-196.,172.,-15.));
#727=CARTESIAN_POINT('',(-196.,172.,-13.));
#728=CARTESIAN_POINT('',(-196.,172.,-15.));
#729=CARTESIAN_POINT('',(-206.,162.,-13.));
#730=CARTESIAN_POINT('Origin',(-196.,162.,-13.));
#731=CARTESIAN_POINT('',(-206.,162.,-15.));
#732=CARTESIAN_POINT('',(-206.,162.,-15.));
#733=CARTESIAN_POINT('Origin',(-196.,162.,-15.));
#734=CARTESIAN_POINT('Origin',(196.,172.,-15.));
#735=CARTESIAN_POINT('',(-176.3,172.,-13.));
#736=CARTESIAN_POINT('',(-176.3,172.,-15.));
#737=CARTESIAN_POINT('',(-176.3,172.,-11.2499999999996));
#738=CARTESIAN_POINT('',(196.,172.,-13.));
#739=CARTESIAN_POINT('',(196.,172.,-15.));
#740=CARTESIAN_POINT('Origin',(0.,177.,-15.));
#741=CARTESIAN_POINT('',(-176.3,177.,-15.));
#742=CARTESIAN_POINT('',(-176.3,192.,0.));
#743=CARTESIAN_POINT('',(-176.3,134.625,-57.3749999999998));
#744=CARTESIAN_POINT('',(-199.,177.,-15.));
#745=CARTESIAN_POINT('',(199.,177.,-15.));
#746=CARTESIAN_POINT('',(-224.,192.,0.));
#747=CARTESIAN_POINT('',(-199.,177.,-15.));
#748=CARTESIAN_POINT('',(224.,192.,0.));
#749=CARTESIAN_POINT('Origin',(-216.,162.,-15.));
#750=CARTESIAN_POINT('',(-220.5,162.,-5.5));
#751=CARTESIAN_POINT('',(-220.5,162.,-15.));
#752=CARTESIAN_POINT('Origin',(-216.,162.,-10.));
#753=CARTESIAN_POINT('Ctrl Pts',(-199.,177.,-15.));
#754=CARTESIAN_POINT('Ctrl Pts',(-224.,192.,0.));
#755=CARTESIAN_POINT('Ctrl Pts',(-201.3561944901,176.99999999999,-15.));
#756=CARTESIAN_POINT('Ctrl Pts',(-224.3926990817,192.,1.9185E-13));
#757=CARTESIAN_POINT('Ctrl Pts',(-203.712389722,176.47127053247,-15.));
#758=CARTESIAN_POINT('Ctrl Pts',(-224.785398287,191.91187842206,-6.8745E-13));
#759=CARTESIAN_POINT('Ctrl Pts',(-205.930158812,175.41381679044,-15.));
#760=CARTESIAN_POINT('Ctrl Pts',(-225.1550264686,191.73563613175,1.18305E-12));
#761=CARTESIAN_POINT('Ctrl Pts',(-207.8711050693,173.87110506937,-15.));
#762=CARTESIAN_POINT('Ctrl Pts',(-225.4785175115,191.47851751154,-1.24523E-12));
#763=CARTESIAN_POINT('Ctrl Pts',(-209.4138167904,171.930158812,-15.));
#764=CARTESIAN_POINT('Ctrl Pts',(-225.7356361317,191.15502646868,8.793E-13));
#765=CARTESIAN_POINT('Ctrl Pts',(-210.4712705324,169.71238972205,-15.));
#766=CARTESIAN_POINT('Ctrl Pts',(-225.911878422,190.785398287,-4.0501E-13));
#767=CARTESIAN_POINT('Ctrl Pts',(-210.9999999999,167.35619449019,-15.));
#768=CARTESIAN_POINT('Ctrl Pts',(-226.,190.3926990817,1.0303E-13));
#769=CARTESIAN_POINT('Ctrl Pts',(-211.,165.,-15.));
#770=CARTESIAN_POINT('Ctrl Pts',(-226.,190.,0.));
#771=CARTESIAN_POINT('',(-211.,165.,-15.));
#772=CARTESIAN_POINT('Origin',(-199.,165.,-15.));
#773=CARTESIAN_POINT('',(-226.,190.,0.));
#774=CARTESIAN_POINT('',(-211.,165.,-15.));
#775=CARTESIAN_POINT('Origin',(-224.,190.,0.));
#776=CARTESIAN_POINT('Origin',(-211.,0.,-15.));
#777=CARTESIAN_POINT('',(-211.,142.3,-15.));
#778=CARTESIAN_POINT('',(-226.,142.3,0.));
#779=CARTESIAN_POINT('',(-160.125,142.3,-65.8749999999998));
#780=CARTESIAN_POINT('',(-226.,190.,0.));
#781=CARTESIAN_POINT('',(-211.,165.,-15.));
#782=CARTESIAN_POINT('Origin',(1.133E-14,-1.214E-14,-15.));
#783=CARTESIAN_POINT('',(-176.3,-6.07E-15,-15.));
#784=CARTESIAN_POINT('',(-206.,142.3,-15.));
#785=CARTESIAN_POINT('',(-206.,162.,-15.));
#786=CARTESIAN_POINT('',(5.665E-15,142.3,-15.));
#787=CARTESIAN_POINT('Origin',(-206.,162.,-15.));
#788=CARTESIAN_POINT('',(-206.,142.3,-13.));
#789=CARTESIAN_POINT('',(-206.,142.3,-11.2499999999996));
#790=CARTESIAN_POINT('',(-206.,162.,-13.));
#791=CARTESIAN_POINT('Origin',(0.,142.3,-7.49999999999911));
#792=CARTESIAN_POINT('',(7.305E-15,142.3,-13.));
#793=CARTESIAN_POINT('',(1.0635E-14,142.3,-1.66533453693773E-15));
#794=CARTESIAN_POINT('Origin',(2.127E-14,-2.675E-14,-1.78E-15));
#795=CARTESIAN_POINT('',(-176.3,167.,0.));
#796=CARTESIAN_POINT('',(-176.3,-1.3375E-14,-1.66533453693773E-15));
#797=CARTESIAN_POINT('',(196.,167.,0.));
#798=CARTESIAN_POINT('Origin',(196.,167.,0.));
#799=CARTESIAN_POINT('',(-176.3,167.,-13.));
#800=CARTESIAN_POINT('',(-176.3,167.,-3.74999999999955));
#801=CARTESIAN_POINT('',(98.,167.,-13.));
#802=CARTESIAN_POINT('Origin',(1.461E-14,-4.87E-15,-13.));
#803=CARTESIAN_POINT('',(-176.3,-2.435E-15,-13.));
#804=CARTESIAN_POINT('Origin',(-176.3,0.,-7.49999999999911));
#805=UNCERTAINTY_MEASURE_WITH_UNIT(LENGTH_MEASURE(0.01),#809,
'DISTANCE_ACCURACY_VALUE',
'Maximum model space distance between geometric entities at asserted c
onnectivities');
#806=UNCERTAINTY_MEASURE_WITH_UNIT(LENGTH_MEASURE(0.01),#809,
'DISTANCE_ACCURACY_VALUE',
'Maximum model space distance between geometric entities at asserted c
onnectivities');
#807=(
GEOMETRIC_REPRESENTATION_CONTEXT(3)
GLOBAL_UNCERTAINTY_ASSIGNED_CONTEXT((#805))
GLOBAL_UNIT_ASSIGNED_CONTEXT((#809,#811,#812))
REPRESENTATION_CONTEXT('','3D')
);
#808=(
GEOMETRIC_REPRESENTATION_CONTEXT(3)
GLOBAL_UNCERTAINTY_ASSIGNED_CONTEXT((#806))
GLOBAL_UNIT_ASSIGNED_CONTEXT((#809,#811,#812))
REPRESENTATION_CONTEXT('','3D')
);
#809=(
LENGTH_UNIT()
NAMED_UNIT(*)
SI_UNIT(.MILLI.,.METRE.)
);
#810=(
LENGTH_UNIT()
NAMED_UNIT(*)
SI_UNIT($,.METRE.)
);
#811=(
NAMED_UNIT(*)
PLANE_ANGLE_UNIT()
SI_UNIT($,.RADIAN.)
);
#812=(
NAMED_UNIT(*)
SI_UNIT($,.STERADIAN.)
SOLID_ANGLE_UNIT()
);
#813=SHAPE_DEFINITION_REPRESENTATION(#814,#815);
#814=PRODUCT_DEFINITION_SHAPE('',$,#817);
#815=SHAPE_REPRESENTATION('',(#483),#807);
#816=PRODUCT_DEFINITION_CONTEXT('part definition',#821,'design');
#817=PRODUCT_DEFINITION('Skirt','(Unsaved)',#818,#816);
#818=PRODUCT_DEFINITION_FORMATION('',$,#823);
#819=PRODUCT_RELATED_PRODUCT_CATEGORY('(Unsaved)','(Unsaved)',(#823));
#820=APPLICATION_PROTOCOL_DEFINITION('international standard',
'automotive_design',2009,#821);
#821=APPLICATION_CONTEXT(
'Core Data for Automotive Mechanical Design Process');
#822=PRODUCT_CONTEXT('part definition',#821,'mechanical');
#823=PRODUCT('Skirt','(Unsaved)','FreeCAD Model',(#822));
#824=PRESENTATION_STYLE_ASSIGNMENT((#826));
#825=PRESENTATION_STYLE_ASSIGNMENT((#827));
#826=SURFACE_STYLE_USAGE(.BOTH.,#828);
#827=SURFACE_STYLE_USAGE(.BOTH.,#829);
#828=SURFACE_SIDE_STYLE('',(#830));
#829=SURFACE_SIDE_STYLE('',(#831));
#830=SURFACE_STYLE_FILL_AREA(#832);
#831=SURFACE_STYLE_FILL_AREA(#833);
#832=FILL_AREA_STYLE('Steel - Satin',(#834));
#833=FILL_AREA_STYLE('Opaque(30,30,30)',(#835));
#834=FILL_AREA_STYLE_COLOUR('Steel - Satin',#836);
#835=FILL_AREA_STYLE_COLOUR('Opaque(30,30,30)',#837);
#836=COLOUR_RGB('Steel - Satin',0.627450980392157,0.627450980392157,0.627450980392157);
#837=COLOUR_RGB('Opaque(30,30,30)',0.117647058823529,0.117647058823529,
0.117647058823529);
ENDSEC;
END-ISO-10303-21;
