ISO-10303-21;
HEADER;
FILE_DESCRIPTION (( 'STEP AP214' ),
    '1' );
FILE_NAME ('1752431222179.step',
    '2025-07-13T18:15:21',
    ( 'EC2' ),
    ( 'Amazon.com' ),
    'FaSTEP 2.0',
    'Forface 3D 2020',
    '' );
FILE_SCHEMA (( 'AUTOMOTIVE_DESIGN' ));
ENDSEC;

DATA;
#1 = ORIENTED_EDGE ( 'NONE', *, *, #666, .F. ) ;
#2 = CARTESIAN_POINT ( 'NONE',  ( -40.00000000000000711, 1.499999999999995115, 4.898587196589414604E-15 ) ) ;
#3 = EDGE_LOOP ( 'NONE', ( #688, #296, #592, #163 ) ) ;
#4 = EDGE_CURVE ( 'NONE', #131, #116, #420, .T. ) ;
#5 = COLOUR_RGB ( '',1.000000000000000000, 1.000000000000000000, 1.000000000000000000 ) ;
#6 = LINE ( 'NONE', #529, #1027 ) ;
#7 = FACE_BOUND ( 'NONE', #677, .T. ) ;
#8 = CIRCLE ( 'NONE', #817, 7.500000000000013323 ) ;
#9 = VERTEX_POINT ( 'NONE', #185 ) ;
#10 =( NAMED_UNIT ( * ) SI_UNIT ( $, .STERADIAN. ) SOLID_ANGLE_UNIT ( ) );
#11 = ORIENTED_EDGE ( 'NONE', *, *, #740, .F. ) ;
#12 = EDGE_CURVE ( 'NONE', #649, #28, #352, .T. ) ;
#13 = CARTESIAN_POINT ( 'NONE',  ( -40.00000000000000711, 3.500000000000003109, 4.898587196589414604E-15 ) ) ;
#14 = ORIENTED_EDGE ( 'NONE', *, *, #226, .T. ) ;
#15 = DIRECTION ( 'NONE',  ( 0.0000000000000000000, 0.0000000000000000000, 1.000000000000000000 ) ) ;
#16 = CYLINDRICAL_SURFACE ( 'NONE', #700, 2.750000000000009326 ) ;
#17 = FACE_OUTER_BOUND ( 'NONE', #94, .T. ) ;
#18 = DIRECTION ( 'NONE',  ( 0.0000000000000000000, 0.0000000000000000000, -1.000000000000000000 ) ) ;
#19 = CYLINDRICAL_SURFACE ( 'NONE', #109, 5.000000000000004441 ) ;
#20 = ORIENTED_EDGE ( 'NONE', *, *, #1030, .F. ) ;
#21 = LINE ( 'NONE', #844, #944 ) ;
#22 = AXIS2_PLACEMENT_3D ( 'NONE', #710, #130, #470 ) ;
#23 = VECTOR ( 'NONE', #314, 1000.000000000000000 ) ;
#24 = EDGE_CURVE ( 'NONE', #757, #122, #374, .T. ) ;
#25 = FACE_OUTER_BOUND ( 'NONE', #3, .T. ) ;
#26 = AXIS2_PLACEMENT_3D ( 'NONE', #263, #600, #104 ) ;
#27 = ORIENTED_EDGE ( 'NONE', *, *, #892, .F. ) ;
#28 = VERTEX_POINT ( 'NONE', #291 ) ;
#29 = CARTESIAN_POINT ( 'NONE',  ( -40.00000000000000711, 3.500000000000003109, -4.999999999999999112 ) ) ;
#30 = FILL_AREA_STYLE_COLOUR ( '', #713 ) ;
#31 = CARTESIAN_POINT ( 'NONE',  ( 32.00000000000001421, 54.99999999999999289, 4.898587196589414604E-15 ) ) ;
#32 = ORIENTED_EDGE ( 'NONE', *, *, #523, .T. ) ;
#33 = VERTEX_POINT ( 'NONE', #1032 ) ;
#34 = UNCERTAINTY_MEASURE_WITH_UNIT (LENGTH_MEASURE( 1.000000000000000082E-05 ), #1014, 'distance_accuracy_value', 'NONE');
#35 =( NAMED_UNIT ( * ) SI_UNIT ( $, .STERADIAN. ) SOLID_ANGLE_UNIT ( ) );
#36 = CARTESIAN_POINT ( 'NONE',  ( 32.00000000000001421, 60.00000000000000000, 4.898587196589414604E-15 ) ) ;
#37 = ORIENTED_EDGE ( 'NONE', *, *, #1050, .F. ) ;
#38 = ORIENTED_EDGE ( 'NONE', *, *, #346, .T. ) ;
#39 = PLANE ( 'NONE',  #351 ) ;
#40 = STYLED_ITEM ( 'NONE', ( #836 ), #621 ) ;
#41 = CARTESIAN_POINT ( 'NONE',  ( -40.00000000000000711, -4.898587196589413815E-15, 4.898587196589414604E-15 ) ) ;
#42 = AXIS2_PLACEMENT_3D ( 'NONE', #548, #160, #478 ) ;
#43 = CIRCLE ( 'NONE', #752, 5.000000000000004441 ) ;
#44 = ORIENTED_EDGE ( 'NONE', *, *, #363, .F. ) ;
#45 = ADVANCED_FACE ( 'NONE', ( #691 ), #496, .T. ) ;
#46 = FILL_AREA_STYLE_COLOUR ( '', #407 ) ;
#47 = DIRECTION ( 'NONE',  ( -0.0000000000000000000, -1.000000000000000000, -0.0000000000000000000 ) ) ;
#48 = DIRECTION ( 'NONE',  ( -1.000000000000000000, 0.0000000000000000000, 0.0000000000000000000 ) ) ;
#49 = VERTEX_POINT ( 'NONE', #856 ) ;
#50 = FACE_OUTER_BOUND ( 'NONE', #622, .T. ) ;
#51 = EDGE_CURVE ( 'NONE', #64, #28, #316, .T. ) ;
#52 = ORIENTED_EDGE ( 'NONE', *, *, #460, .F. ) ;
#53 = UNCERTAINTY_MEASURE_WITH_UNIT (LENGTH_MEASURE( 1.000000000000000082E-05 ), #1061, 'distance_accuracy_value', 'NONE');
#54 = CARTESIAN_POINT ( 'NONE',  ( 40.00000000000000711, 3.500000000000000000, 4.898587196589414604E-15 ) ) ;
#55 = CARTESIAN_POINT ( 'NONE',  ( -40.00000000000000711, 0.0000000000000000000, 4.898587196589414604E-15 ) ) ;
#56 = EDGE_CURVE ( 'NONE', #633, #550, #975, .T. ) ;
#57 = VECTOR ( 'NONE', #276, 1000.000000000000000 ) ;
#58 = ORIENTED_EDGE ( 'NONE', *, *, #51, .T. ) ;
#59 = AXIS2_PLACEMENT_3D ( 'NONE', #737, #1057, #1066 ) ;
#60 = VECTOR ( 'NONE', #1035, 1000.000000000000000 ) ;
#61 = CARTESIAN_POINT ( 'NONE',  ( -42.75000000000001421, 1.499999999999994671, 5.235365066354937050E-15 ) ) ;
#62 = CARTESIAN_POINT ( 'NONE',  ( 39.99999999999998579, 46.99999999999997158, 4.898587196589414604E-15 ) ) ;
#63 =( NAMED_UNIT ( * ) PLANE_ANGLE_UNIT ( ) SI_UNIT ( $, .RADIAN. ) );
#64 = VERTEX_POINT ( 'NONE', #527 ) ;
#65 = CARTESIAN_POINT ( 'NONE',  ( -40.00000000000000711, 10.00000000000000000, 2.100000000000002309 ) ) ;
#66 = PRODUCT_DEFINITION_CONTEXT ( 'detailed design', #650, 'design' ) ;
#67 = ORIENTED_EDGE ( 'NONE', *, *, #376, .T. ) ;
#68 = DIRECTION ( 'NONE',  ( 0.0000000000000000000, 1.000000000000000000, 0.0000000000000000000 ) ) ;
#69 = DIRECTION ( 'NONE',  ( 0.0000000000000000000, 0.0000000000000000000, -1.000000000000000000 ) ) ;
#70 = DIRECTION ( 'NONE',  ( 1.224646799147353207E-16, -1.000000000000000000, -0.0000000000000000000 ) ) ;
#71 = VERTEX_POINT ( 'NONE', #704 ) ;
#72 = STYLED_ITEM ( 'NONE', ( #144 ), #711 ) ;
#73 = AXIS2_PLACEMENT_3D ( 'NONE', #411, #1071, #656 ) ;
#74 = AXIS2_PLACEMENT_3D ( 'NONE', #574, #894, #148 ) ;
#75 = AXIS2_PLACEMENT_3D ( 'NONE', #573, #728, #401 ) ;
#76 = EDGE_CURVE ( 'NONE', #122, #879, #923, .T. ) ;
#77 = FACE_OUTER_BOUND ( 'NONE', #278, .T. ) ;
#78 = DIRECTION ( 'NONE',  ( 0.0000000000000000000, -0.7071067811865469066, -0.7071067811865482389 ) ) ;
#79 = VERTEX_POINT ( 'NONE', #112 ) ;
#80 = PRODUCT_DEFINITION ( '??', '', #816, #66 ) ;
#81 = FACE_OUTER_BOUND ( 'NONE', #958, .T. ) ;
#82 = EDGE_CURVE ( 'NONE', #344, #641, #587, .T. ) ;
#83 = ORIENTED_EDGE ( 'NONE', *, *, #981, .T. ) ;
#84 = SHAPE_DEFINITION_REPRESENTATION ( #994, #244 ) ;
#85 = CARTESIAN_POINT ( 'NONE',  ( 37.25000000000000000, 1.500000000000004663, 5.235365066354937050E-15 ) ) ;
#86 = CYLINDRICAL_SURFACE ( 'NONE', #747, 2.750000000000009326 ) ;
#87 = EDGE_CURVE ( 'NONE', #687, #79, #284, .T. ) ;
#88 = ORIENTED_EDGE ( 'NONE', *, *, #82, .T. ) ;
#89 = ORIENTED_EDGE ( 'NONE', *, *, #187, .F. ) ;
#90 = AXIS2_PLACEMENT_3D ( 'NONE', #213, #135, #298 ) ;
#91 = CARTESIAN_POINT ( 'NONE',  ( -40.00000000000000711, 10.00000000000000000, 4.898587196589414604E-15 ) ) ;
#92 = CIRCLE ( 'NONE', #159, 2.750000000000009326 ) ;
#93 = FACE_OUTER_BOUND ( 'NONE', #784, .T. ) ;
#94 = EDGE_LOOP ( 'NONE', ( #27, #458, #491, #136 ) ) ;
#95 = DIRECTION ( 'NONE',  ( 1.224646799147353207E-16, -1.000000000000000000, -0.0000000000000000000 ) ) ;
#96 = DIRECTION ( 'NONE',  ( 0.0000000000000000000, -1.000000000000000000, 0.0000000000000000000 ) ) ;
#97 = DIRECTION ( 'NONE',  ( -0.0000000000000000000, -1.000000000000000000, -0.0000000000000000000 ) ) ;
#98 = DIRECTION ( 'NONE',  ( 0.0000000000000000000, 0.0000000000000000000, -1.000000000000000000 ) ) ;
#99 = CARTESIAN_POINT ( 'NONE',  ( -32.00000000000000000, 47.00000000000000000, 5.510910596163091133E-15 ) ) ;
#100 = ADVANCED_FACE ( 'NONE', ( #431 ), #19, .T. ) ;
#101 = CARTESIAN_POINT ( 'NONE',  ( 40.00000000000000711, 1.500000000000005107, 4.898587196589414604E-15 ) ) ;
#102 = ORIENTED_EDGE ( 'NONE', *, *, #390, .F. ) ;
#103 = VERTEX_POINT ( 'NONE', #493 ) ;
#104 = DIRECTION ( 'NONE',  ( 0.0000000000000000000, 0.0000000000000000000, 1.000000000000000000 ) ) ;
#105 = MECHANICAL_DESIGN_GEOMETRIC_PRESENTATION_REPRESENTATION (  '', ( #40 ), #798 ) ;
#106 = EDGE_CURVE ( 'NONE', #917, #103, #463, .T. ) ;
#107 = CARTESIAN_POINT ( 'NONE',  ( -40.00000000000000711, 3.500000000000000000, -7.500000000000007994 ) ) ;
#108 = AXIS2_PLACEMENT_3D ( 'NONE', #538, #542, #190 ) ;
#109 = AXIS2_PLACEMENT_3D ( 'NONE', #348, #1010, #268 ) ;
#110 = DIRECTION ( 'NONE',  ( -1.000000000000000000, 0.0000000000000000000, 0.0000000000000000000 ) ) ;
#111 = CIRCLE ( 'NONE', #231, 5.000000000000004441 ) ;
#112 = CARTESIAN_POINT ( 'NONE',  ( 40.00000000000000711, 3.500000000000000000, -6.500000000000028422 ) ) ;
#113 = ORIENTED_EDGE ( 'NONE', *, *, #956, .T. ) ;
#114 = CARTESIAN_POINT ( 'NONE',  ( -32.00000000000000000, 47.00000000000000000, 4.898587196589414604E-15 ) ) ;
#115 = DIRECTION ( 'NONE',  ( 0.0000000000000000000, 1.000000000000000000, 0.0000000000000000000 ) ) ;
#116 = VERTEX_POINT ( 'NONE', #904 ) ;
#117 = VERTEX_POINT ( 'NONE', #393 ) ;
#118 = DIRECTION ( 'NONE',  ( 1.000000000000000000, 1.577021341797091890E-16, 0.0000000000000000000 ) ) ;
#119 = FACE_OUTER_BOUND ( 'NONE', #432, .T. ) ;
#120 = CARTESIAN_POINT ( 'NONE',  ( 39.99999999999998579, 3.500000000000003109, 4.898587196589414604E-15 ) ) ;
#121 = ADVANCED_FACE ( 'NONE', ( #77, #307 ), #889, .T. ) ;
#122 = VERTEX_POINT ( 'NONE', #659 ) ;
#123 = DIRECTION ( 'NONE',  ( 0.0000000000000000000, 1.000000000000000000, 0.0000000000000000000 ) ) ;
#124 = AXIS2_PLACEMENT_3D ( 'NONE', #947, #277, #115 ) ;
#125 = CARTESIAN_POINT ( 'NONE',  ( 40.00000000000000711, 10.00000000000000000, 2.100000000000002309 ) ) ;
#126 = AXIS2_PLACEMENT_3D ( 'NONE', #134, #877, #483 ) ;
#127 = EDGE_LOOP ( 'NONE', ( #797, #588, #217, #591, #602 ) ) ;
#128 = CARTESIAN_POINT ( 'NONE',  ( -31.99999999999998579, 49.99999999999999289, 5.510910596163091133E-15 ) ) ;
#129 = DIRECTION ( 'NONE',  ( -1.224646799147353207E-16, 1.000000000000000000, -0.0000000000000000000 ) ) ;
#130 = DIRECTION ( 'NONE',  ( 1.224646799147353207E-16, -1.000000000000000000, 0.0000000000000000000 ) ) ;
#131 = VERTEX_POINT ( 'NONE', #410 ) ;
#132 = DIRECTION ( 'NONE',  ( 1.224646799147353207E-16, -1.000000000000000000, 0.0000000000000000000 ) ) ;
#133 = EDGE_CURVE ( 'NONE', #763, #757, #371, .T. ) ;
#134 = CARTESIAN_POINT ( 'NONE',  ( -40.00000000000000711, 47.00000000000000000, 4.898587196589414604E-15 ) ) ;
#135 = DIRECTION ( 'NONE',  ( 1.000000000000000000, -1.084202172485504434E-16, 0.0000000000000000000 ) ) ;
#136 = ORIENTED_EDGE ( 'NONE', *, *, #658, .F. ) ;
#137 = PLANE ( 'NONE',  #465 ) ;
#138 = CARTESIAN_POINT ( 'NONE',  ( 40.00000000000000711, 1.500000000000005107, 4.898587196589414604E-15 ) ) ;
#139 = VECTOR ( 'NONE', #748, 1000.000000000000000 ) ;
#140 = ORIENTED_EDGE ( 'NONE', *, *, #686, .T. ) ;
#141 = MECHANICAL_DESIGN_GEOMETRIC_PRESENTATION_REPRESENTATION (  '', ( #405 ), #886 ) ;
#142 = AXIS2_PLACEMENT_3D ( 'NONE', #758, #505, #345 ) ;
#143 = FACE_OUTER_BOUND ( 'NONE', #395, .T. ) ;
#144 = PRESENTATION_STYLE_ASSIGNMENT (( #883 ) ) ;
#145 = ADVANCED_FACE ( 'NONE', ( #1052 ), #730, .T. ) ;
#146 = VERTEX_POINT ( 'NONE', #811 ) ;
#147 = DIRECTION ( 'NONE',  ( -0.0000000000000000000, -1.000000000000000000, -0.0000000000000000000 ) ) ;
#148 = DIRECTION ( 'NONE',  ( 0.0000000000000000000, 0.0000000000000000000, -1.000000000000000000 ) ) ;
#149 = LINE ( 'NONE', #252, #139 ) ;
#150 = ORIENTED_EDGE ( 'NONE', *, *, #1043, .T. ) ;
#151 = EDGE_CURVE ( 'NONE', #825, #202, #732, .T. ) ;
#152 = DIRECTION ( 'NONE',  ( 1.224646799147353207E-16, -1.000000000000000000, 0.0000000000000000000 ) ) ;
#153 = DIRECTION ( 'NONE',  ( 0.0000000000000000000, -1.000000000000000000, 0.0000000000000000000 ) ) ;
#154 = ORIENTED_EDGE ( 'NONE', *, *, #812, .F. ) ;
#155 = AXIS2_PLACEMENT_3D ( 'NONE', #31, #610, #199 ) ;
#156 = FILL_AREA_STYLE_COLOUR ( '', #174 ) ;
#157 = EDGE_LOOP ( 'NONE', ( #364, #327, #399 ) ) ;
#158 = STYLED_ITEM ( 'NONE', ( #689 ), #951 ) ;
#159 = AXIS2_PLACEMENT_3D ( 'NONE', #251, #773, #589 ) ;
#160 = DIRECTION ( 'NONE',  ( 0.0000000000000000000, 1.000000000000000000, 0.0000000000000000000 ) ) ;
#161 = EDGE_CURVE ( 'NONE', #998, #64, #198, .T. ) ;
#162 = DIRECTION ( 'NONE',  ( 0.0000000000000000000, 0.0000000000000000000, 1.000000000000000000 ) ) ;
#163 = ORIENTED_EDGE ( 'NONE', *, *, #76, .F. ) ;
#164 = ORIENTED_EDGE ( 'NONE', *, *, #87, .F. ) ;
#165 = CYLINDRICAL_SURFACE ( 'NONE', #498, 2.750000000000009326 ) ;
#166 = ADVANCED_FACE ( 'NONE', ( #655 ), #234, .F. ) ;
#167 = CARTESIAN_POINT ( 'NONE',  ( 40.00000000000000711, 3.500000000000000000, -6.500000000000028422 ) ) ;
#168 = ORIENTED_EDGE ( 'NONE', *, *, #326, .F. ) ;
#169 = ORIENTED_EDGE ( 'NONE', *, *, #311, .T. ) ;
#170 = CARTESIAN_POINT ( 'NONE',  ( -40.00000000000000711, 0.0000000000000000000, -7.500000000000007994 ) ) ;
#171 = DIRECTION ( 'NONE',  ( 1.000000000000000000, 1.224646799147351975E-16, 0.0000000000000000000 ) ) ;
#172 = EDGE_LOOP ( 'NONE', ( #927, #571, #113, #971 ) ) ;
#173 = ORIENTED_EDGE ( 'NONE', *, *, #765, .T. ) ;
#174 = COLOUR_RGB ( '',0.7529411764705882248, 0.7529411764705882248, 0.7529411764705882248 ) ;
#175 = AXIS2_PLACEMENT_3D ( 'NONE', #762, #1021, #533 ) ;
#176 = CARTESIAN_POINT ( 'NONE',  ( -40.00000000000000711, 47.00000000000000000, -4.999999999999999112 ) ) ;
#177 = AXIS2_PLACEMENT_3D ( 'NONE', #694, #329, #1012 ) ;
#178 = DIRECTION ( 'NONE',  ( 0.0000000000000000000, 0.0000000000000000000, -1.000000000000000000 ) ) ;
#179 = DIRECTION ( 'NONE',  ( 1.000000000000000000, -1.084202172485504434E-16, 0.0000000000000000000 ) ) ;
#180 = ORIENTED_EDGE ( 'NONE', *, *, #812, .T. ) ;
#181 = EDGE_CURVE ( 'NONE', #482, #331, #651, .T. ) ;
#182 = DIRECTION ( 'NONE',  ( -0.0000000000000000000, -1.000000000000000000, -0.0000000000000000000 ) ) ;
#183 = CYLINDRICAL_SURFACE ( 'NONE', #462, 2.099999999999997868 ) ;
#184 = CARTESIAN_POINT ( 'NONE',  ( -37.25000000000000000, -4.561809326823890580E-15, 4.898587196589414604E-15 ) ) ;
#185 = CARTESIAN_POINT ( 'NONE',  ( -31.99999999999998579, 60.00000000000000711, 4.898587196589414604E-15 ) ) ;
#186 = ORIENTED_EDGE ( 'NONE', *, *, #965, .T. ) ;
#187 = EDGE_CURVE ( 'NONE', #338, #117, #21, .T. ) ;
#188 = DIRECTION ( 'NONE',  ( 0.0000000000000000000, 0.0000000000000000000, 1.000000000000000000 ) ) ;
#189 = PRODUCT ( '1752431222179', '1752431222179', '', ( #909 ) ) ;
#190 = DIRECTION ( 'NONE',  ( 0.0000000000000000000, 0.0000000000000000000, -1.000000000000000000 ) ) ;
#191 = CARTESIAN_POINT ( 'NONE',  ( 32.00000000000000000, 47.00000000000000000, 5.510910596163091133E-15 ) ) ;
#192 = CARTESIAN_POINT ( 'NONE',  ( 40.00000000000000711, 1.500000000000005107, 4.898587196589414604E-15 ) ) ;
#193 = ORIENTED_EDGE ( 'NONE', *, *, #446, .T. ) ;
#194 = CIRCLE ( 'NONE', #940, 2.750000000000009326 ) ;
#195 = CIRCLE ( 'NONE', #799, 2.750000000000009326 ) ;
#196 = DIRECTION ( 'NONE',  ( -0.0000000000000000000, -1.000000000000000000, -0.0000000000000000000 ) ) ;
#197 = EDGE_CURVE ( 'NONE', #620, #331, #480, .T. ) ;
#198 = CIRCLE ( 'NONE', #867, 5.000000000000004441 ) ;
#199 = DIRECTION ( 'NONE',  ( 0.0000000000000000000, 0.0000000000000000000, 1.000000000000000000 ) ) ;
#200 = AXIS2_PLACEMENT_3D ( 'NONE', #723, #630, #1056 ) ;
#201 = CARTESIAN_POINT ( 'NONE',  ( 32.00000000000000000, 47.00000000000000000, 4.898587196589414604E-15 ) ) ;
#202 = VERTEX_POINT ( 'NONE', #683 ) ;
#203 = CYLINDRICAL_SURFACE ( 'NONE', #108, 7.500000000000013323 ) ;
#204 = EDGE_CURVE ( 'NONE', #913, #508, #215, .T. ) ;
#205 = ORIENTED_EDGE ( 'NONE', *, *, #421, .T. ) ;
#206 = EDGE_LOOP ( 'NONE', ( #89, #423, #896, #193 ) ) ;
#207 =( NAMED_UNIT ( * ) PLANE_ANGLE_UNIT ( ) SI_UNIT ( $, .RADIAN. ) );
#208 = CARTESIAN_POINT ( 'NONE',  ( 40.00000000000000711, 4.898587196589413815E-15, 4.898587196589414604E-15 ) ) ;
#209 = CYLINDRICAL_SURFACE ( 'NONE', #585, 2.099999999999997868 ) ;
#210 = ORIENTED_EDGE ( 'NONE', *, *, #12, .F. ) ;
#211 = DIRECTION ( 'NONE',  ( -0.0000000000000000000, -1.000000000000000000, -0.0000000000000000000 ) ) ;
#212 =( GEOMETRIC_REPRESENTATION_CONTEXT ( 3 ) GLOBAL_UNCERTAINTY_ASSIGNED_CONTEXT ( ( #953 ) ) GLOBAL_UNIT_ASSIGNED_CONTEXT ( ( #796, #63, #720 ) ) REPRESENTATION_CONTEXT ( 'NONE', 'WORKASPACE' ) );
#213 = CARTESIAN_POINT ( 'NONE',  ( -31.99999999999998579, 55.00000000000000000, 4.898587196589414604E-15 ) ) ;
#214 = CIRCLE ( 'NONE', #813, 5.000000000000004441 ) ;
#215 = CIRCLE ( 'NONE', #629, 2.099999999999997868 ) ;
#216 = CIRCLE ( 'NONE', #368, 2.099999999999997868 ) ;
#217 = ORIENTED_EDGE ( 'NONE', *, *, #321, .F. ) ;
#218 = LINE ( 'NONE', #61, #870 ) ;
#219 = CYLINDRICAL_SURFACE ( 'NONE', #90, 5.000000000000004441 ) ;
#220 = ORIENTED_EDGE ( 'NONE', *, *, #740, .T. ) ;
#221 = DIRECTION ( 'NONE',  ( 0.0000000000000000000, 0.0000000000000000000, 1.000000000000000000 ) ) ;
#222 = FILL_AREA_STYLE ('',( #966 ) ) ;
#223 = ORIENTED_EDGE ( 'NONE', *, *, #652, .T. ) ;
#224 = CARTESIAN_POINT ( 'NONE',  ( 39.99999999999998579, -2.775557561562891351E-14, 4.898587196589414604E-15 ) ) ;
#225 = SURFACE_STYLE_USAGE ( .BOTH. , #743 ) ;
#226 = EDGE_CURVE ( 'NONE', #71, #596, #750, .T. ) ;
#227 = FACE_OUTER_BOUND ( 'NONE', #580, .T. ) ;
#228 = CIRCLE ( 'NONE', #247, 5.000000000000004441 ) ;
#229 = AXIS2_PLACEMENT_3D ( 'NONE', #120, #457, #930 ) ;
#230 = ORIENTED_EDGE ( 'NONE', *, *, #4, .T. ) ;
#231 = AXIS2_PLACEMENT_3D ( 'NONE', #13, #182, #928 ) ;
#232 = FILL_AREA_STYLE ('',( #156 ) ) ;
#233 = CARTESIAN_POINT ( 'NONE',  ( -40.00000000000000711, 10.00000000000000000, 4.898587196589414604E-15 ) ) ;
#234 = CYLINDRICAL_SURFACE ( 'NONE', #74, 2.099999999999997868 ) ;
#235 = LINE ( 'NONE', #167, #477 ) ;
#236 = EDGE_CURVE ( 'NONE', #564, #9, #354, .T. ) ;
#237 = ORIENTED_EDGE ( 'NONE', *, *, #301, .T. ) ;
#238 = SURFACE_STYLE_FILL_AREA ( #979 ) ;
#239 = DIRECTION ( 'NONE',  ( 0.0000000000000000000, -0.0000000000000000000, -1.000000000000000000 ) ) ;
#240 = VERTEX_POINT ( 'NONE', #170 ) ;
#241 = EDGE_CURVE ( 'NONE', #79, #687, #286, .T. ) ;
#242 = DIRECTION ( 'NONE',  ( 0.0000000000000000000, 1.000000000000000000, 0.0000000000000000000 ) ) ;
#243 = CARTESIAN_POINT ( 'NONE',  ( -37.25000000000000000, 1.499999999999995559, 4.898587196589414604E-15 ) ) ;
#244 = ADVANCED_BREP_SHAPE_REPRESENTATION ( '1752431222179', ( #1039, #869 ), #535 ) ;
#245 = ORIENTED_EDGE ( 'NONE', *, *, #427, .F. ) ;
#246 = AXIS2_PLACEMENT_3D ( 'NONE', #430, #676, #1008 ) ;
#247 = AXIS2_PLACEMENT_3D ( 'NONE', #341, #684, #355 ) ;
#248 = CIRCLE ( 'NONE', #369, 2.099999999999997868 ) ;
#249 = AXIS2_PLACEMENT_3D ( 'NONE', #860, #779, #936 ) ;
#250 = ADVANCED_FACE ( 'NONE', ( #823 ), #165, .F. ) ;
#251 = CARTESIAN_POINT ( 'NONE',  ( 40.00000000000000711, 1.500000000000005107, 4.898587196589414604E-15 ) ) ;
#252 = CARTESIAN_POINT ( 'NONE',  ( 40.00000000000000711, 3.500000000000000000, 7.500000000000018652 ) ) ;
#253 = ORIENTED_EDGE ( 'NONE', *, *, #981, .F. ) ;
#254 = DIRECTION ( 'NONE',  ( 1.224646799147353207E-16, -1.000000000000000000, -0.0000000000000000000 ) ) ;
#255 = DIRECTION ( 'NONE',  ( 0.0000000000000000000, 0.0000000000000000000, -1.000000000000000000 ) ) ;
#256 = ORIENTED_EDGE ( 'NONE', *, *, #968, .T. ) ;
#257 = CARTESIAN_POINT ( 'NONE',  ( -40.00000000000000711, 0.0000000000000000000, 4.898587196589414604E-15 ) ) ;
#258 = LINE ( 'NONE', #835, #262 ) ;
#259 = ADVANCED_FACE ( 'NONE', ( #353 ), #960, .F. ) ;
#260 = ORIENTED_EDGE ( 'NONE', *, *, #500, .F. ) ;
#261 = PRESENTATION_LAYER_ASSIGNMENT (  '', '', ( #40 ) ) ;
#262 = VECTOR ( 'NONE', #271, 1000.000000000000000 ) ;
#263 = CARTESIAN_POINT ( 'NONE',  ( -31.99999999999998579, 55.00000000000000000, 4.898587196589414604E-15 ) ) ;
#264 = PRESENTATION_LAYER_ASSIGNMENT (  '', '', ( #1063 ) ) ;
#265 = CIRCLE ( 'NONE', #802, 7.500000000000013323 ) ;
#266 = SURFACE_SIDE_STYLE ('',( #1023 ) ) ;
#267 = EDGE_CURVE ( 'NONE', #9, #596, #976, .T. ) ;
#268 = DIRECTION ( 'NONE',  ( 0.0000000000000000000, 0.0000000000000000000, -1.000000000000000000 ) ) ;
#269 = ORIENTED_EDGE ( 'NONE', *, *, #275, .T. ) ;
#270 = DIRECTION ( 'NONE',  ( 0.0000000000000000000, 0.0000000000000000000, -1.000000000000000000 ) ) ;
#271 = DIRECTION ( 'NONE',  ( -0.0000000000000000000, -1.000000000000000000, -0.0000000000000000000 ) ) ;
#272 = SURFACE_STYLE_FILL_AREA ( #685 ) ;
#273 = DIRECTION ( 'NONE',  ( 0.0000000000000000000, 0.0000000000000000000, -1.000000000000000000 ) ) ;
#274 = ORIENTED_EDGE ( 'NONE', *, *, #988, .T. ) ;
#275 = EDGE_CURVE ( 'NONE', #116, #131, #8, .T. ) ;
#276 = DIRECTION ( 'NONE',  ( -0.0000000000000000000, -1.000000000000000000, -0.0000000000000000000 ) ) ;
#277 = DIRECTION ( 'NONE',  ( 1.000000000000000000, -1.084202172485504434E-16, 0.0000000000000000000 ) ) ;
#278 = EDGE_LOOP ( 'NONE', ( #256, #654 ) ) ;
#279 = ORIENTED_EDGE ( 'NONE', *, *, #1050, .T. ) ;
#280 = CARTESIAN_POINT ( 'NONE',  ( -37.25000000000000000, 1.499999999999995559, 4.898587196589414604E-15 ) ) ;
#281 = EDGE_CURVE ( 'NONE', #240, #861, #1064, .T. ) ;
#282 = TOROIDAL_SURFACE ( 'NONE', #769, 8.000000000000007105, 5.000000000000004441 ) ;
#283 = DIRECTION ( 'NONE',  ( 0.0000000000000000000, 0.0000000000000000000, -1.000000000000000000 ) ) ;
#284 = CIRCLE ( 'NONE', #992, 6.500000000000033751 ) ;
#285 = DIRECTION ( 'NONE',  ( 0.0000000000000000000, -0.5150380749100544886, -0.8571673007021121116 ) ) ;
#286 = CIRCLE ( 'NONE', #786, 6.500000000000033751 ) ;
#287 = ORIENTED_EDGE ( 'NONE', *, *, #267, .F. ) ;
#288 = VERTEX_POINT ( 'NONE', #991 ) ;
#289 = DIRECTION ( 'NONE',  ( 1.224646799147353207E-16, -1.000000000000000000, 0.0000000000000000000 ) ) ;
#290 = LINE ( 'NONE', #924, #332 ) ;
#291 = CARTESIAN_POINT ( 'NONE',  ( 45.00000000000000000, 46.99999999999997158, 4.898587196589414604E-15 ) ) ;
#292 = ORIENTED_EDGE ( 'NONE', *, *, #1036, .F. ) ;
#293 = SURFACE_STYLE_FILL_AREA ( #232 ) ;
#294 = FACE_OUTER_BOUND ( 'NONE', #718, .T. ) ;
#295 = CARTESIAN_POINT ( 'NONE',  ( 40.00000000000000711, 10.00000000000000000, -2.099999999999992983 ) ) ;
#296 = ORIENTED_EDGE ( 'NONE', *, *, #133, .F. ) ;
#297 = LINE ( 'NONE', #555, #907 ) ;
#298 = DIRECTION ( 'NONE',  ( 0.0000000000000000000, 1.000000000000000000, 0.0000000000000000000 ) ) ;
#299 = AXIS2_PLACEMENT_3D ( 'NONE', #595, #153, #239 ) ;
#300 = AXIS2_PLACEMENT_3D ( 'NONE', #54, #47, #306 ) ;
#301 = EDGE_CURVE ( 'NONE', #626, #649, #389, .T. ) ;
#302 = EDGE_LOOP ( 'NONE', ( #467, #793 ) ) ;
#303 = DIRECTION ( 'NONE',  ( 0.0000000000000000000, 0.0000000000000000000, -1.000000000000000000 ) ) ;
#304 = CARTESIAN_POINT ( 'NONE',  ( -40.00000000000000711, 3.500000000000000000, 7.500000000000018652 ) ) ;
#305 = EDGE_LOOP ( 'NONE', ( #237, #358, #379, #342, #987 ) ) ;
#306 = DIRECTION ( 'NONE',  ( 0.0000000000000000000, 0.0000000000000000000, -1.000000000000000000 ) ) ;
#307 = FACE_BOUND ( 'NONE', #517, .T. ) ;
#308 = CARTESIAN_POINT ( 'NONE',  ( -42.75000000000001421, 1.499999999999994671, 5.235365066354937050E-15 ) ) ;
#309 = ORIENTED_EDGE ( 'NONE', *, *, #1043, .F. ) ;
#310 = DIRECTION ( 'NONE',  ( 0.0000000000000000000, -0.5150380749100544886, -0.8571673007021121116 ) ) ;
#311 = EDGE_CURVE ( 'NONE', #937, #757, #6, .T. ) ;
#312 = DIRECTION ( 'NONE',  ( 8.659560562354941486E-17, -0.7071067811865469066, 0.7071067811865482389 ) ) ;
#313 =( NAMED_UNIT ( * ) SI_UNIT ( $, .STERADIAN. ) SOLID_ANGLE_UNIT ( ) );
#314 = DIRECTION ( 'NONE',  ( 1.224646799147353207E-16, -1.000000000000000000, -0.0000000000000000000 ) ) ;
#315 = CIRCLE ( 'NONE', #785, 7.500000000000013323 ) ;
#316 = CIRCLE ( 'NONE', #249, 5.000000000000004441 ) ;
#317 = ORIENTED_EDGE ( 'NONE', *, *, #151, .F. ) ;
#318 = CIRCLE ( 'NONE', #852, 2.750000000000009326 ) ;
#319 = DIRECTION ( 'NONE',  ( -0.0000000000000000000, -1.000000000000000000, -0.0000000000000000000 ) ) ;
#320 = CARTESIAN_POINT ( 'NONE',  ( 42.75000000000001421, 1.500000000000005551, 4.898587196589414604E-15 ) ) ;
#321 = EDGE_CURVE ( 'NONE', #482, #564, #570, .T. ) ;
#322 = ORIENTED_EDGE ( 'NONE', *, *, #652, .F. ) ;
#323 = SURFACE_SIDE_STYLE ('',( #293 ) ) ;
#324 = DIRECTION ( 'NONE',  ( 0.0000000000000000000, 0.0000000000000000000, 1.000000000000000000 ) ) ;
#325 = FACE_OUTER_BOUND ( 'NONE', #874, .T. ) ;
#326 = EDGE_CURVE ( 'NONE', #338, #818, #92, .T. ) ;
#327 = ORIENTED_EDGE ( 'NONE', *, *, #581, .T. ) ;
#328 = EDGE_LOOP ( 'NONE', ( #230, #367, #653, #1028 ) ) ;
#329 = DIRECTION ( 'NONE',  ( 0.0000000000000000000, 1.000000000000000000, -0.0000000000000000000 ) ) ;
#330 = DIRECTION ( 'NONE',  ( 0.0000000000000000000, 1.000000000000000000, -0.0000000000000000000 ) ) ;
#331 = VERTEX_POINT ( 'NONE', #29 ) ;
#332 = VECTOR ( 'NONE', #179, 1000.000000000000000 ) ;
#333 = VECTOR ( 'NONE', #359, 1000.000000000000000 ) ;
#334 = VECTOR ( 'NONE', #312, 999.9999999999998863 ) ;
#335 = FACE_OUTER_BOUND ( 'NONE', #206, .T. ) ;
#336 = PLANE ( 'NONE',  #299 ) ;
#337 = EDGE_LOOP ( 'NONE', ( #309, #349, #771, #984 ) ) ;
#338 = VERTEX_POINT ( 'NONE', #85 ) ;
#339 = DIRECTION ( 'NONE',  ( 0.0000000000000000000, 0.0000000000000000000, 1.000000000000000000 ) ) ;
#340 = ADVANCED_FACE ( 'NONE', ( #335 ), #16, .F. ) ;
#341 = CARTESIAN_POINT ( 'NONE',  ( 39.99999999999998579, 46.99999999999997158, 4.898587196589414604E-15 ) ) ;
#342 = ORIENTED_EDGE ( 'NONE', *, *, #161, .F. ) ;
#343 = DIRECTION ( 'NONE',  ( 1.000000000000000000, 0.0000000000000000000, 0.0000000000000000000 ) ) ;
#344 = VERTEX_POINT ( 'NONE', #1005 ) ;
#345 = DIRECTION ( 'NONE',  ( 0.0000000000000000000, 0.0000000000000000000, 1.000000000000000000 ) ) ;
#346 = EDGE_CURVE ( 'NONE', #331, #620, #111, .T. ) ;
#347 = DIRECTION ( 'NONE',  ( -0.0000000000000000000, -0.0000000000000000000, -1.000000000000000000 ) ) ;
#348 = CARTESIAN_POINT ( 'NONE',  ( -40.00000000000000711, 47.00000000000000000, 4.898587196589414604E-15 ) ) ;
#349 = ORIENTED_EDGE ( 'NONE', *, *, #727, .T. ) ;
#350 = AXIS2_PLACEMENT_3D ( 'NONE', #962, #708, #1037 ) ;
#351 = AXIS2_PLACEMENT_3D ( 'NONE', #370, #242, #983 ) ;
#352 = CIRCLE ( 'NONE', #614, 12.99999999999999822 ) ;
#353 = FACE_OUTER_BOUND ( 'NONE', #775, .T. ) ;
#354 = CIRCLE ( 'NONE', #1042, 13.00000000000001066 ) ;
#355 = DIRECTION ( 'NONE',  ( 0.0000000000000000000, 0.0000000000000000000, 1.000000000000000000 ) ) ;
#356 = CYLINDRICAL_SURFACE ( 'NONE', #583, 2.099999999999997868 ) ;
#357 = DIRECTION ( 'NONE',  ( -1.224646799147353207E-16, 1.000000000000000000, -0.0000000000000000000 ) ) ;
#358 = ORIENTED_EDGE ( 'NONE', *, *, #12, .T. ) ;
#359 = DIRECTION ( 'NONE',  ( -0.0000000000000000000, -1.000000000000000000, -0.0000000000000000000 ) ) ;
#360 = CYLINDRICAL_SURFACE ( 'NONE', #419, 5.000000000000004441 ) ;
#361 = SURFACE_SIDE_STYLE ('',( #272 ) ) ;
#362 = ORIENTED_EDGE ( 'NONE', *, *, #301, .F. ) ;
#363 = EDGE_CURVE ( 'NONE', #741, #781, #890, .T. ) ;
#364 = ORIENTED_EDGE ( 'NONE', *, *, #806, .F. ) ;
#365 = CARTESIAN_POINT ( 'NONE',  ( -40.00000000000000711, 2.499999999999980016, 4.898587196589414604E-15 ) ) ;
#366 = ORIENTED_EDGE ( 'NONE', *, *, #76, .T. ) ;
#367 = ORIENTED_EDGE ( 'NONE', *, *, #838, .T. ) ;
#368 = AXIS2_PLACEMENT_3D ( 'NONE', #233, #147, #69 ) ;
#369 = AXIS2_PLACEMENT_3D ( 'NONE', #579, #899, #494 ) ;
#370 = CARTESIAN_POINT ( 'NONE',  ( -40.00000000000000711, 3.500000000000000000, 4.898587196589414604E-15 ) ) ;
#371 = CIRCLE ( 'NONE', #59, 2.099999999999997868 ) ;
#372 = AXIS2_PLACEMENT_3D ( 'NONE', #742, #450, #459 ) ;
#373 = DIRECTION ( 'NONE',  ( -0.0000000000000000000, -1.000000000000000000, -0.0000000000000000000 ) ) ;
#374 = LINE ( 'NONE', #540, #442 ) ;
#375 = FILL_AREA_STYLE ('',( #46 ) ) ;
#376 = EDGE_CURVE ( 'NONE', #550, #633, #772, .T. ) ;
#377 = DIRECTION ( 'NONE',  ( 1.224646799147353207E-16, -1.000000000000000000, -0.0000000000000000000 ) ) ;
#378 = PLANE ( 'NONE',  #350 ) ;
#379 = ORIENTED_EDGE ( 'NONE', *, *, #51, .F. ) ;
#380 = LINE ( 'NONE', #707, #60 ) ;
#381 = EDGE_CURVE ( 'NONE', #288, #657, #734, .T. ) ;
#382 = DIRECTION ( 'NONE',  ( 1.000000000000000000, 1.224646799147353207E-16, 0.0000000000000000000 ) ) ;
#383 = ORIENTED_EDGE ( 'NONE', *, *, #820, .T. ) ;
#384 = CARTESIAN_POINT ( 'NONE',  ( 40.00000000000000711, 0.0000000000000000000, 4.898587196589414604E-15 ) ) ;
#385 = AXIS2_PLACEMENT_3D ( 'NONE', #824, #330, #255 ) ;
#386 = MECHANICAL_DESIGN_GEOMETRIC_PRESENTATION_REPRESENTATION (  '', ( #158 ), #567 ) ;
#387 = FACE_BOUND ( 'NONE', #302, .T. ) ;
#388 = AXIS2_PLACEMENT_3D ( 'NONE', #41, #950, #522 ) ;
#389 = CIRCLE ( 'NONE', #631, 5.000000000000004441 ) ;
#390 = EDGE_CURVE ( 'NONE', #781, #641, #551, .T. ) ;
#391 = ORIENTED_EDGE ( 'NONE', *, *, #281, .F. ) ;
#392 = FACE_OUTER_BOUND ( 'NONE', #558, .T. ) ;
#393 = CARTESIAN_POINT ( 'NONE',  ( 37.25000000000000000, 4.561809326823889791E-15, 5.235365066354937050E-15 ) ) ;
#394 = DIRECTION ( 'NONE',  ( 1.224646799147353207E-16, -1.000000000000000000, 0.0000000000000000000 ) ) ;
#395 = EDGE_LOOP ( 'NONE', ( #11, #604, #437, #609 ) ) ;
#396 = EDGE_CURVE ( 'NONE', #146, #71, #43, .T. ) ;
#397 = CYLINDRICAL_SURFACE ( 'NONE', #200, 7.500000000000013323 ) ;
#398 = PLANE ( 'NONE',  #810 ) ;
#399 = ORIENTED_EDGE ( 'NONE', *, *, #204, .T. ) ;
#400 =( LENGTH_UNIT ( ) NAMED_UNIT ( * ) SI_UNIT ( .MILLI., .METRE. ) );
#401 = DIRECTION ( 'NONE',  ( -1.000000000000000000, 0.0000000000000000000, 0.0000000000000000000 ) ) ;
#402 = DIRECTION ( 'NONE',  ( 1.000000000000000000, 1.224646799147353207E-16, 0.0000000000000000000 ) ) ;
#403 = DIRECTION ( 'NONE',  ( 1.224646799147353207E-16, -1.000000000000000000, 0.0000000000000000000 ) ) ;
#404 =( GEOMETRIC_REPRESENTATION_CONTEXT ( 3 ) GLOBAL_UNCERTAINTY_ASSIGNED_CONTEXT ( ( #53 ) ) GLOBAL_UNIT_ASSIGNED_CONTEXT ( ( #1061, #1070, #702 ) ) REPRESENTATION_CONTEXT ( 'NONE', 'WORKASPACE' ) );
#405 = STYLED_ITEM ( 'NONE', ( #566 ), #166 ) ;
#406 = EDGE_LOOP ( 'NONE', ( #705, #439, #1033, #14, #287 ) ) ;
#407 = COLOUR_RGB ( '',0.7529411764705882248, 0.7529411764705882248, 0.7529411764705882248 ) ;
#408 = CIRCLE ( 'NONE', #925, 5.000000000000004441 ) ;
#409 = FACE_BOUND ( 'NONE', #782, .T. ) ;
#410 = CARTESIAN_POINT ( 'NONE',  ( 40.00000000000000711, 2.500000000000021760, -7.500000000000007994 ) ) ;
#411 = CARTESIAN_POINT ( 'NONE',  ( 40.00000000000000711, 10.00000000000000000, 4.898587196589414604E-15 ) ) ;
#412 = EDGE_LOOP ( 'NONE', ( #486, #317, #663, #776 ) ) ;
#413 = FACE_OUTER_BOUND ( 'NONE', #406, .T. ) ;
#414 = EDGE_LOOP ( 'NONE', ( #292, #169, #745 ) ) ;
#415 = ORIENTED_EDGE ( 'NONE', *, *, #197, .T. ) ;
#416 = CARTESIAN_POINT ( 'NONE',  ( 40.00000000000000711, 1.500000000000005107, 4.898587196589414604E-15 ) ) ;
#417 = DIRECTION ( 'NONE',  ( 1.224646799147353207E-16, -1.000000000000000000, -0.0000000000000000000 ) ) ;
#418 = ORIENTED_EDGE ( 'NONE', *, *, #460, .T. ) ;
#419 = AXIS2_PLACEMENT_3D ( 'NONE', #760, #96, #434 ) ;
#420 = CIRCLE ( 'NONE', #1026, 7.500000000000013323 ) ;
#421 = EDGE_CURVE ( 'NONE', #131, #49, #715, .T. ) ;
#422 = CARTESIAN_POINT ( 'NONE',  ( 0.0000000000000000000, 0.0000000000000000000, 0.0000000000000000000 ) ) ;
#423 = ORIENTED_EDGE ( 'NONE', *, *, #968, .F. ) ;
#424 = DIRECTION ( 'NONE',  ( 0.0000000000000000000, 1.000000000000000000, 0.0000000000000000000 ) ) ;
#425 = CARTESIAN_POINT ( 'NONE',  ( 32.00000000000000000, 47.00000000000000000, 4.898587196589414604E-15 ) ) ;
#426 = ORIENTED_EDGE ( 'NONE', *, *, #275, .F. ) ;
#427 = EDGE_CURVE ( 'NONE', #687, #116, #1040, .T. ) ;
#428 = DIRECTION ( 'NONE',  ( 1.000000000000000000, 6.123233995736766036E-17, 0.0000000000000000000 ) ) ;
#429 = CARTESIAN_POINT ( 'NONE',  ( 40.00000000000000711, 11.26180729995787644, 4.898587196589414604E-15 ) ) ;
#430 = CARTESIAN_POINT ( 'NONE',  ( -40.00000000000000711, 1.499999999999995115, 4.898587196589414604E-15 ) ) ;
#431 = FACE_OUTER_BOUND ( 'NONE', #127, .T. ) ;
#432 = EDGE_LOOP ( 'NONE', ( #865, #1038, #577, #322 ) ) ;
#433 = DIRECTION ( 'NONE',  ( -1.000000000000000000, 0.0000000000000000000, 0.0000000000000000000 ) ) ;
#434 = DIRECTION ( 'NONE',  ( 0.0000000000000000000, 0.0000000000000000000, -1.000000000000000000 ) ) ;
#435 = EDGE_CURVE ( 'NONE', #564, #146, #648, .T. ) ;
#436 = CARTESIAN_POINT ( 'NONE',  ( 32.00000000000001421, 49.99999999999998579, 5.510910596163091133E-15 ) ) ;
#437 = ORIENTED_EDGE ( 'NONE', *, *, #1030, .T. ) ;
#438 = AXIS2_PLACEMENT_3D ( 'NONE', #839, #1001, #270 ) ;
#439 = ORIENTED_EDGE ( 'NONE', *, *, #435, .T. ) ;
#440 = VECTOR ( 'NONE', #935, 1000.000000000000000 ) ;
#441 = AXIS2_PLACEMENT_3D ( 'NONE', #766, #196, #283 ) ;
#442 = VECTOR ( 'NONE', #608, 1000.000000000000000 ) ;
#443 = DIRECTION ( 'NONE',  ( 1.049727191138618449E-16, -0.5150380749100544886, 0.8571673007021121116 ) ) ;
#444 =( GEOMETRIC_REPRESENTATION_CONTEXT ( 3 ) GLOBAL_UNCERTAINTY_ASSIGNED_CONTEXT ( ( #506 ) ) GLOBAL_UNIT_ASSIGNED_CONTEXT ( ( #603, #499, #10 ) ) REPRESENTATION_CONTEXT ( 'NONE', 'WORKASPACE' ) );
#445 = DIRECTION ( 'NONE',  ( -1.000000000000000000, 0.0000000000000000000, 0.0000000000000000000 ) ) ;
#446 = EDGE_CURVE ( 'NONE', #851, #117, #318, .T. ) ;
#447 =( NAMED_UNIT ( * ) PLANE_ANGLE_UNIT ( ) SI_UNIT ( $, .RADIAN. ) );
#448 = DIRECTION ( 'NONE',  ( 0.0000000000000000000, -1.000000000000000000, 0.0000000000000000000 ) ) ;
#449 = EDGE_LOOP ( 'NONE', ( #168, #978, #180, #900 ) ) ;
#450 = DIRECTION ( 'NONE',  ( 0.0000000000000000000, -1.000000000000000000, 0.0000000000000000000 ) ) ;
#451 = FACE_OUTER_BOUND ( 'NONE', #475, .T. ) ;
#452 = CARTESIAN_POINT ( 'NONE',  ( -40.00000000000000711, 3.500000000000003109, 5.000000000000009770 ) ) ;
#453 = ORIENTED_EDGE ( 'NONE', *, *, #820, .F. ) ;
#454 = ORIENTED_EDGE ( 'NONE', *, *, #581, .F. ) ;
#455 = DIRECTION ( 'NONE',  ( 0.0000000000000000000, 0.0000000000000000000, 1.000000000000000000 ) ) ;
#456 = SURFACE_STYLE_USAGE ( .BOTH. , #361 ) ;
#457 = DIRECTION ( 'NONE',  ( 0.0000000000000000000, 1.000000000000000000, -0.0000000000000000000 ) ) ;
#458 = ORIENTED_EDGE ( 'NONE', *, *, #24, .T. ) ;
#459 = DIRECTION ( 'NONE',  ( 0.0000000000000000000, 0.0000000000000000000, 1.000000000000000000 ) ) ;
#460 = EDGE_CURVE ( 'NONE', #28, #1069, #408, .T. ) ;
#461 = AXIS2_PLACEMENT_3D ( 'NONE', #191, #532, #110 ) ;
#462 = AXIS2_PLACEMENT_3D ( 'NONE', #946, #531, #525 ) ;
#463 = CIRCLE ( 'NONE', #850, 2.099999999999997868 ) ;
#464 = DIRECTION ( 'NONE',  ( 1.224646799147353207E-16, -1.000000000000000000, 0.0000000000000000000 ) ) ;
#465 = AXIS2_PLACEMENT_3D ( 'NONE', #224, #476, #221 ) ;
#466 = CARTESIAN_POINT ( 'NONE',  ( -32.00000000000000000, 47.00000000000000000, 4.898587196589414604E-15 ) ) ;
#467 = ORIENTED_EDGE ( 'NONE', *, *, #666, .T. ) ;
#468 = ADVANCED_FACE ( 'NONE', ( #787, #50 ), #137, .T. ) ;
#469 = CARTESIAN_POINT ( 'NONE',  ( 40.00000000000000711, 1.500000000000005107, 4.898587196589414604E-15 ) ) ;
#470 = DIRECTION ( 'NONE',  ( 1.000000000000000000, 1.577021341797091890E-16, 0.0000000000000000000 ) ) ;
#471 = ORIENTED_EDGE ( 'NONE', *, *, #346, .F. ) ;
#472 = UNCERTAINTY_MEASURE_WITH_UNIT (LENGTH_MEASURE( 1.000000000000000082E-05 ), #985, 'distance_accuracy_value', 'NONE');
#473 = DIRECTION ( 'NONE',  ( 1.000000000000000000, 1.224646799147351975E-16, 0.0000000000000000000 ) ) ;
#474 = ADVANCED_FACE ( 'NONE', ( #546 ), #969, .T. ) ;
#475 = EDGE_LOOP ( 'NONE', ( #1054, #83, #826, #857, #67 ) ) ;
#476 = DIRECTION ( 'NONE',  ( 1.224646799147353207E-16, -1.000000000000000000, 0.0000000000000000000 ) ) ;
#477 = VECTOR ( 'NONE', #739, 999.9999999999998863 ) ;
#478 = DIRECTION ( 'NONE',  ( 0.0000000000000000000, 0.0000000000000000000, 1.000000000000000000 ) ) ;
#479 = FACE_OUTER_BOUND ( 'NONE', #949, .T. ) ;
#480 = CIRCLE ( 'NONE', #680, 5.000000000000004441 ) ;
#481 = EDGE_CURVE ( 'NONE', #33, #49, #265, .T. ) ;
#482 = VERTEX_POINT ( 'NONE', #804 ) ;
#483 = DIRECTION ( 'NONE',  ( 0.0000000000000000000, 0.0000000000000000000, 1.000000000000000000 ) ) ;
#484 = DIRECTION ( 'NONE',  ( 0.0000000000000000000, 0.0000000000000000000, -1.000000000000000000 ) ) ;
#485 = FACE_OUTER_BOUND ( 'NONE', #681, .T. ) ;
#486 = ORIENTED_EDGE ( 'NONE', *, *, #727, .F. ) ;
#487 = DIRECTION ( 'NONE',  ( 0.0000000000000000000, 0.0000000000000000000, 1.000000000000000000 ) ) ;
#488 = CARTESIAN_POINT ( 'NONE',  ( -45.00000000000001421, 47.00000000000000000, 4.898587196589414604E-15 ) ) ;
#489 = DIRECTION ( 'NONE',  ( 1.000000000000000000, 1.032573497605243334E-16, 0.0000000000000000000 ) ) ;
#490 = DIRECTION ( 'NONE',  ( 0.0000000000000000000, 0.0000000000000000000, 1.000000000000000000 ) ) ;
#491 = ORIENTED_EDGE ( 'NONE', *, *, #559, .F. ) ;
#492 = CARTESIAN_POINT ( 'NONE',  ( -31.99999999999998579, 55.00000000000000000, 4.898587196589414604E-15 ) ) ;
#493 = CARTESIAN_POINT ( 'NONE',  ( -40.00000000000000711, 1.499999999999995115, -2.099999999999992983 ) ) ;
#494 = DIRECTION ( 'NONE',  ( 0.0000000000000000000, 0.0000000000000000000, -1.000000000000000000 ) ) ;
#495 = CIRCLE ( 'NONE', #22, 2.750000000000009326 ) ;
#496 = CONICAL_SURFACE ( 'NONE', #175, 6.500000000000033751, 0.7853981633974491672 ) ;
#497 = ORIENTED_EDGE ( 'NONE', *, *, #133, .T. ) ;
#498 = AXIS2_PLACEMENT_3D ( 'NONE', #597, #95, #674 ) ;
#499 =( NAMED_UNIT ( * ) PLANE_ANGLE_UNIT ( ) SI_UNIT ( $, .RADIAN. ) );
#500 = EDGE_CURVE ( 'NONE', #64, #550, #297, .T. ) ;
#501 = FILL_AREA_STYLE_COLOUR ( '', #516 ) ;
#502 = CARTESIAN_POINT ( 'NONE',  ( -40.00000000000000711, 1.499999999999995115, 2.100000000000002309 ) ) ;
#503 = ORIENTED_EDGE ( 'NONE', *, *, #876, .T. ) ;
#504 = ORIENTED_EDGE ( 'NONE', *, *, #634, .T. ) ;
#505 = DIRECTION ( 'NONE',  ( 0.0000000000000000000, 1.000000000000000000, 0.0000000000000000000 ) ) ;
#506 = UNCERTAINTY_MEASURE_WITH_UNIT (LENGTH_MEASURE( 1.000000000000000082E-05 ), #603, 'distance_accuracy_value', 'NONE');
#507 = CARTESIAN_POINT ( 'NONE',  ( -40.00000000000000711, 3.500000000000000000, -6.499999999999986677 ) ) ;
#508 = VERTEX_POINT ( 'NONE', #65 ) ;
#509 = EDGE_LOOP ( 'NONE', ( #391, #982 ) ) ;
#510 = CARTESIAN_POINT ( 'NONE',  ( -32.00000000000000000, 47.00000000000000000, 4.898587196589414604E-15 ) ) ;
#511 = LINE ( 'NONE', #507, #1024 ) ;
#512 = EDGE_CURVE ( 'NONE', #741, #344, #218, .T. ) ;
#513 = ORIENTED_EDGE ( 'NONE', *, *, #1067, .F. ) ;
#514 = CIRCLE ( 'NONE', #155, 5.000000000000004441 ) ;
#515 = PRESENTATION_LAYER_ASSIGNMENT (  '', '', ( #974 ) ) ;
#516 = COLOUR_RGB ( '',1.000000000000000000, 1.000000000000000000, 1.000000000000000000 ) ;
#517 = EDGE_LOOP ( 'NONE', ( #995, #366 ) ) ;
#518 = VECTOR ( 'NONE', #613, 1000.000000000000000 ) ;
#519 = DIRECTION ( 'NONE',  ( 0.0000000000000000000, 1.000000000000000000, -0.0000000000000000000 ) ) ;
#520 = LINE ( 'NONE', #840, #1045 ) ;
#521 = CARTESIAN_POINT ( 'NONE',  ( 40.00000000000000711, 0.0000000000000000000, -2.099999999999992983 ) ) ;
#522 = DIRECTION ( 'NONE',  ( 1.000000000000000000, 1.224646799147351975E-16, 0.0000000000000000000 ) ) ;
#523 = EDGE_CURVE ( 'NONE', #1069, #633, #380, .T. ) ;
#524 = CARTESIAN_POINT ( 'NONE',  ( -40.00000000000000711, 3.500000000000003109, 4.898587196589414604E-15 ) ) ;
#525 = DIRECTION ( 'NONE',  ( 0.0000000000000000000, 0.0000000000000000000, -1.000000000000000000 ) ) ;
#526 = CARTESIAN_POINT ( 'NONE',  ( -40.00000000000000711, 2.499999999999980016, -7.500000000000007994 ) ) ;
#527 = CARTESIAN_POINT ( 'NONE',  ( 39.99999999999998579, 46.99999999999997158, -4.999999999999999112 ) ) ;
#528 = ORIENTED_EDGE ( 'NONE', *, *, #876, .F. ) ;
#529 = CARTESIAN_POINT ( 'NONE',  ( 40.00000000000000711, 10.00000000000000000, 2.100000000000002309 ) ) ;
#530 = ADVANCED_FACE ( 'NONE', ( #294 ), #624, .T. ) ;
#531 = DIRECTION ( 'NONE',  ( -0.0000000000000000000, -1.000000000000000000, -0.0000000000000000000 ) ) ;
#532 = DIRECTION ( 'NONE',  ( -0.0000000000000000000, -0.0000000000000000000, -1.000000000000000000 ) ) ;
#533 = DIRECTION ( 'NONE',  ( 0.0000000000000000000, 0.0000000000000000000, -1.000000000000000000 ) ) ;
#534 = ORIENTED_EDGE ( 'NONE', *, *, #795, .T. ) ;
#535 =( GEOMETRIC_REPRESENTATION_CONTEXT ( 3 ) GLOBAL_UNCERTAINTY_ASSIGNED_CONTEXT ( ( #738 ) ) GLOBAL_UNIT_ASSIGNED_CONTEXT ( ( #400, #207, #726 ) ) REPRESENTATION_CONTEXT ( 'NONE', 'WORKASPACE' ) );
#536 = AXIS2_PLACEMENT_3D ( 'NONE', #138, #152, #402 ) ;
#537 = AXIS2_PLACEMENT_3D ( 'NONE', #875, #132, #552 ) ;
#538 = CARTESIAN_POINT ( 'NONE',  ( 40.00000000000000711, 3.500000000000000000, 4.898587196589414604E-15 ) ) ;
#539 =( NAMED_UNIT ( * ) SI_UNIT ( $, .STERADIAN. ) SOLID_ANGLE_UNIT ( ) );
#540 = CARTESIAN_POINT ( 'NONE',  ( 40.00000000000000711, 0.0000000000000000000, 2.100000000000002309 ) ) ;
#541 = ORIENTED_EDGE ( 'NONE', *, *, #795, .F. ) ;
#542 = DIRECTION ( 'NONE',  ( -0.0000000000000000000, -1.000000000000000000, -0.0000000000000000000 ) ) ;
#543 = CARTESIAN_POINT ( 'NONE',  ( 40.00000000000000711, 2.500000000000021760, 4.898587196589414604E-15 ) ) ;
#544 = ADVANCED_FACE ( 'NONE', ( #392 ), #565, .T. ) ;
#545 = DIRECTION ( 'NONE',  ( 0.0000000000000000000, 0.0000000000000000000, 1.000000000000000000 ) ) ;
#546 = FACE_OUTER_BOUND ( 'NONE', #637, .T. ) ;
#547 = DIRECTION ( 'NONE',  ( -0.0000000000000000000, -1.000000000000000000, -0.0000000000000000000 ) ) ;
#548 = CARTESIAN_POINT ( 'NONE',  ( -40.00000000000000711, 3.500000000000000000, 4.898587196589414604E-15 ) ) ;
#549 = ADVANCED_FACE ( 'NONE', ( #143 ), #397, .T. ) ;
#550 = VERTEX_POINT ( 'NONE', #872 ) ;
#551 = LINE ( 'NONE', #280, #518 ) ;
#552 = DIRECTION ( 'NONE',  ( 1.000000000000000000, 1.577021341797091890E-16, 0.0000000000000000000 ) ) ;
#553 = AXIS2_PLACEMENT_3D ( 'NONE', #569, #891, #640 ) ;
#554 = FACE_OUTER_BOUND ( 'NONE', #756, .T. ) ;
#555 = CARTESIAN_POINT ( 'NONE',  ( 39.99999999999998579, 46.99999999999997158, -4.999999999999999112 ) ) ;
#556 = AXIS2_PLACEMENT_3D ( 'NONE', #954, #211, #709 ) ;
#557 = FACE_OUTER_BOUND ( 'NONE', #509, .T. ) ;
#558 = EDGE_LOOP ( 'NONE', ( #58, #418, #32, #735, #260 ) ) ;
#559 = EDGE_CURVE ( 'NONE', #879, #122, #664, .T. ) ;
#560 = DIRECTION ( 'NONE',  ( 0.0000000000000000000, 0.0000000000000000000, -1.000000000000000000 ) ) ;
#561 = FACE_OUTER_BOUND ( 'NONE', #305, .T. ) ;
#562 = ADVANCED_FACE ( 'NONE', ( #961 ), #1009, .T. ) ;
#563 = CARTESIAN_POINT ( 'NONE',  ( 39.99999999999998579, 46.99999999999997158, 4.898587196589414604E-15 ) ) ;
#564 = VERTEX_POINT ( 'NONE', #488 ) ;
#565 = CYLINDRICAL_SURFACE ( 'NONE', #716, 5.000000000000004441 ) ;
#566 = PRESENTATION_STYLE_ASSIGNMENT (( #225 ) ) ;
#567 =( GEOMETRIC_REPRESENTATION_CONTEXT ( 3 ) GLOBAL_UNCERTAINTY_ASSIGNED_CONTEXT ( ( #34 ) ) GLOBAL_UNIT_ASSIGNED_CONTEXT ( ( #1014, #777, #35 ) ) REPRESENTATION_CONTEXT ( 'NONE', 'WORKASPACE' ) );
#568 = AXIS2_PLACEMENT_3D ( 'NONE', #99, #910, #764 ) ;
#569 = CARTESIAN_POINT ( 'NONE',  ( -40.00000000000000711, 3.500000000000000000, 4.898587196589414604E-15 ) ) ;
#570 = CIRCLE ( 'NONE', #142, 5.000000000000004441 ) ;
#571 = ORIENTED_EDGE ( 'NONE', *, *, #204, .F. ) ;
#572 = PRESENTATION_STYLE_ASSIGNMENT (( #897 ) ) ;
#573 = CARTESIAN_POINT ( 'NONE',  ( 32.00000000000000000, 47.00000000000000000, 4.898587196589414604E-15 ) ) ;
#574 = CARTESIAN_POINT ( 'NONE',  ( -40.00000000000000711, 0.0000000000000000000, 4.898587196589414604E-15 ) ) ;
#575 = FACE_OUTER_BOUND ( 'NONE', #945, .T. ) ;
#576 = EDGE_CURVE ( 'NONE', #508, #913, #216, .T. ) ;
#577 = ORIENTED_EDGE ( 'NONE', *, *, #634, .F. ) ;
#578 = PRESENTATION_STYLE_ASSIGNMENT (( #1034 ) ) ;
#579 = CARTESIAN_POINT ( 'NONE',  ( 40.00000000000000711, 10.00000000000000000, 4.898587196589414604E-15 ) ) ;
#580 = EDGE_LOOP ( 'NONE', ( #893, #805, #37, #822, #503 ) ) ;
#581 = EDGE_CURVE ( 'NONE', #712, #913, #1065, .T. ) ;
#582 = CARTESIAN_POINT ( 'NONE',  ( 39.99999999999998579, 46.99999999999997158, 5.000000000000009770 ) ) ;
#583 = AXIS2_PLACEMENT_3D ( 'NONE', #774, #373, #1020 ) ;
#584 = LINE ( 'NONE', #590, #660 ) ;
#585 = AXIS2_PLACEMENT_3D ( 'NONE', #55, #547, #1048 ) ;
#586 = CIRCLE ( 'NONE', #679, 2.750000000000009326 ) ;
#587 = CIRCLE ( 'NONE', #388, 2.750000000000009326 ) ;
#588 = ORIENTED_EDGE ( 'NONE', *, *, #435, .F. ) ;
#589 = DIRECTION ( 'NONE',  ( 1.000000000000000000, 1.577021341797091890E-16, 0.0000000000000000000 ) ) ;
#590 = CARTESIAN_POINT ( 'NONE',  ( -40.00000000000000711, 10.00000000000000000, 2.100000000000002309 ) ) ;
#591 = ORIENTED_EDGE ( 'NONE', *, *, #181, .T. ) ;
#592 = ORIENTED_EDGE ( 'NONE', *, *, #658, .T. ) ;
#593 = DIRECTION ( 'NONE',  ( 0.0000000000000000000, 0.0000000000000000000, 1.000000000000000000 ) ) ;
#594 = ADVANCED_FACE ( 'NONE', ( #855 ), #1060, .T. ) ;
#595 = CARTESIAN_POINT ( 'NONE',  ( 40.00000000000000711, 3.500000000000000000, 4.898587196589414604E-15 ) ) ;
#596 = VERTEX_POINT ( 'NONE', #690 ) ;
#597 = CARTESIAN_POINT ( 'NONE',  ( 40.00000000000000711, 1.500000000000005107, 4.898587196589414604E-15 ) ) ;
#598 = FACE_OUTER_BOUND ( 'NONE', #337, .T. ) ;
#599 = ORIENTED_EDGE ( 'NONE', *, *, #956, .F. ) ;
#600 = DIRECTION ( 'NONE',  ( 1.000000000000000000, 6.123233995736766036E-17, 0.0000000000000000000 ) ) ;
#601 = CARTESIAN_POINT ( 'NONE',  ( 39.99999999999998579, 3.500000000000003109, 5.000000000000009770 ) ) ;
#602 = ORIENTED_EDGE ( 'NONE', *, *, #197, .F. ) ;
#603 =( LENGTH_UNIT ( ) NAMED_UNIT ( * ) SI_UNIT ( .MILLI., .METRE. ) );
#604 = ORIENTED_EDGE ( 'NONE', *, *, #381, .T. ) ;
#605 = CARTESIAN_POINT ( 'NONE',  ( 40.00000000000000711, 2.500000000000021760, 4.898587196589414604E-15 ) ) ;
#606 = CARTESIAN_POINT ( 'NONE',  ( 34.99999999999998579, 46.99999999999997158, 5.510910596163091922E-15 ) ) ;
#607 = CARTESIAN_POINT ( 'NONE',  ( -40.00000000000000711, 47.00000000000000000, 5.000000000000009770 ) ) ;
#608 = DIRECTION ( 'NONE',  ( -0.0000000000000000000, -1.000000000000000000, -0.0000000000000000000 ) ) ;
#609 = ORIENTED_EDGE ( 'NONE', *, *, #281, .T. ) ;
#610 = DIRECTION ( 'NONE',  ( 1.000000000000000000, 6.123233995736766036E-17, 0.0000000000000000000 ) ) ;
#611 = CARTESIAN_POINT ( 'NONE',  ( 40.00000000000000711, 3.500000000000000000, 4.898587196589414604E-15 ) ) ;
#612 = ORIENTED_EDGE ( 'NONE', *, *, #87, .T. ) ;
#613 = DIRECTION ( 'NONE',  ( 1.224646799147353207E-16, -1.000000000000000000, -0.0000000000000000000 ) ) ;
#614 = AXIS2_PLACEMENT_3D ( 'NONE', #201, #842, #942 ) ;
#615 = VECTOR ( 'NONE', #801, 1000.000000000000000 ) ;
#616 = SURFACE_STYLE_USAGE ( .BOTH. , #266 ) ;
#617 = ADVANCED_FACE ( 'NONE', ( #119 ), #859, .T. ) ;
#618 =( LENGTH_UNIT ( ) NAMED_UNIT ( * ) SI_UNIT ( .MILLI., .METRE. ) );
#619 = ORIENTED_EDGE ( 'NONE', *, *, #241, .F. ) ;
#620 = VERTEX_POINT ( 'NONE', #452 ) ;
#621 = ADVANCED_FACE ( 'NONE', ( #25 ), #356, .F. ) ;
#622 = EDGE_LOOP ( 'NONE', ( #541, #692 ) ) ;
#623 = ORIENTED_EDGE ( 'NONE', *, *, #56, .F. ) ;
#624 = CYLINDRICAL_SURFACE ( 'NONE', #556, 7.500000000000013323 ) ;
#625 = LINE ( 'NONE', #304, #989 ) ;
#626 = VERTEX_POINT ( 'NONE', #436 ) ;
#627 = TOROIDAL_SURFACE ( 'NONE', #903, 7.999999999999992895, 5.000000000000004441 ) ;
#628 = AXIS2_PLACEMENT_3D ( 'NONE', #809, #70, #980 ) ;
#629 = AXIS2_PLACEMENT_3D ( 'NONE', #91, #1013, #834 ) ;
#630 = DIRECTION ( 'NONE',  ( -0.0000000000000000000, -1.000000000000000000, -0.0000000000000000000 ) ) ;
#631 = AXIS2_PLACEMENT_3D ( 'NONE', #919, #428, #188 ) ;
#632 = FACE_BOUND ( 'NONE', #803, .T. ) ;
#633 = VERTEX_POINT ( 'NONE', #601 ) ;
#634 = EDGE_CURVE ( 'NONE', #649, #626, #514, .T. ) ;
#635 = DIRECTION ( 'NONE',  ( 0.0000000000000000000, 0.0000000000000000000, 1.000000000000000000 ) ) ;
#636 = CARTESIAN_POINT ( 'NONE',  ( -40.00000000000000711, 11.26180729995787644, 4.898587196589414604E-15 ) ) ;
#637 = EDGE_LOOP ( 'NONE', ( #725, #269, #205, #534 ) ) ;
#638 = DIRECTION ( 'NONE',  ( 0.0000000000000000000, -1.000000000000000000, 0.0000000000000000000 ) ) ;
#639 = CARTESIAN_POINT ( 'NONE',  ( -40.00000000000000711, 47.00000000000000000, 4.898587196589414604E-15 ) ) ;
#640 = DIRECTION ( 'NONE',  ( 0.0000000000000000000, 0.0000000000000000000, -1.000000000000000000 ) ) ;
#641 = VERTEX_POINT ( 'NONE', #184 ) ;
#642 = LINE ( 'NONE', #973, #943 ) ;
#643 = CARTESIAN_POINT ( 'NONE',  ( 40.00000000000000711, 3.500000000000000000, -7.500000000000007994 ) ) ;
#644 = CIRCLE ( 'NONE', #461, 2.999999999999988898 ) ;
#645 = DIRECTION ( 'NONE',  ( 1.224646799147353207E-16, -1.000000000000000000, 0.0000000000000000000 ) ) ;
#646 = ADVANCED_FACE ( 'NONE', ( #703 ), #920, .F. ) ;
#647 = DIRECTION ( 'NONE',  ( -1.000000000000000000, 0.0000000000000000000, 0.0000000000000000000 ) ) ;
#648 = CIRCLE ( 'NONE', #126, 5.000000000000004441 ) ;
#649 = VERTEX_POINT ( 'NONE', #36 ) ;
#650 = APPLICATION_CONTEXT ( 'automotive_design' ) ;
#651 = LINE ( 'NONE', #176, #333 ) ;
#652 = EDGE_CURVE ( 'NONE', #9, #649, #290, .T. ) ;
#653 = ORIENTED_EDGE ( 'NONE', *, *, #481, .T. ) ;
#654 = ORIENTED_EDGE ( 'NONE', *, *, #326, .T. ) ;
#655 = FACE_OUTER_BOUND ( 'NONE', #172, .T. ) ;
#656 = DIRECTION ( 'NONE',  ( 0.0000000000000000000, 0.0000000000000000000, -1.000000000000000000 ) ) ;
#657 = VERTEX_POINT ( 'NONE', #526 ) ;
#658 = EDGE_CURVE ( 'NONE', #763, #879, #929, .T. ) ;
#659 = CARTESIAN_POINT ( 'NONE',  ( 40.00000000000000711, 1.500000000000005107, 2.100000000000002309 ) ) ;
#660 = VECTOR ( 'NONE', #911, 1000.000000000000000 ) ;
#661 = CARTESIAN_POINT ( 'NONE',  ( -40.00000000000000711, 3.500000000000000000, -6.499999999999986677 ) ) ;
#662 = CIRCLE ( 'NONE', #1007, 6.499999999999992006 ) ;
#663 = ORIENTED_EDGE ( 'NONE', *, *, #846, .T. ) ;
#664 = CIRCLE ( 'NONE', #682, 2.099999999999997868 ) ;
#665 = ORIENTED_EDGE ( 'NONE', *, *, #576, .F. ) ;
#666 = EDGE_CURVE ( 'NONE', #103, #917, #864, .T. ) ;
#667 = DIRECTION ( 'NONE',  ( 0.0000000000000000000, 0.0000000000000000000, -1.000000000000000000 ) ) ;
#668 = CARTESIAN_POINT ( 'NONE',  ( -40.00000000000000711, 0.0000000000000000000, 7.500000000000018652 ) ) ;
#669 = ORIENTED_EDGE ( 'NONE', *, *, #241, .T. ) ;
#670 = ORIENTED_EDGE ( 'NONE', *, *, #181, .F. ) ;
#671 = DIRECTION ( 'NONE',  ( 0.0000000000000000000, 0.0000000000000000000, -1.000000000000000000 ) ) ;
#672 = DIRECTION ( 'NONE',  ( -0.0000000000000000000, -1.000000000000000000, -0.0000000000000000000 ) ) ;
#673 = ORIENTED_EDGE ( 'NONE', *, *, #446, .F. ) ;
#674 = DIRECTION ( 'NONE',  ( 1.000000000000000000, 1.577021341797091890E-16, 0.0000000000000000000 ) ) ;
#675 = EDGE_CURVE ( 'NONE', #146, #620, #1015, .T. ) ;
#676 = DIRECTION ( 'NONE',  ( -1.224646799147353207E-16, 1.000000000000000000, -0.0000000000000000000 ) ) ;
#677 = EDGE_LOOP ( 'NONE', ( #931, #623 ) ) ;
#678 = PRESENTATION_LAYER_ASSIGNMENT (  '', '', ( #72 ) ) ;
#679 = AXIS2_PLACEMENT_3D ( 'NONE', #101, #1019, #118 ) ;
#680 = AXIS2_PLACEMENT_3D ( 'NONE', #524, #914, #339 ) ;
#681 = EDGE_LOOP ( 'NONE', ( #665, #274, #1, #599 ) ) ;
#682 = AXIS2_PLACEMENT_3D ( 'NONE', #469, #129, #791 ) ;
#683 = CARTESIAN_POINT ( 'NONE',  ( -40.00000000000000711, 3.500000000000000000, 6.499999999999997335 ) ) ;
#684 = DIRECTION ( 'NONE',  ( 1.224646799147353207E-16, -1.000000000000000000, 0.0000000000000000000 ) ) ;
#685 = FILL_AREA_STYLE ('',( #841 ) ) ;
#686 = EDGE_CURVE ( 'NONE', #626, #998, #644, .T. ) ;
#687 = VERTEX_POINT ( 'NONE', #1058 ) ;
#688 = ORIENTED_EDGE ( 'NONE', *, *, #24, .F. ) ;
#689 = PRESENTATION_STYLE_ASSIGNMENT (( #616 ) ) ;
#690 = CARTESIAN_POINT ( 'NONE',  ( -31.99999999999998579, 49.99999999999999289, 5.510910596163091133E-15 ) ) ;
#691 = FACE_OUTER_BOUND ( 'NONE', #768, .T. ) ;
#692 = ORIENTED_EDGE ( 'NONE', *, *, #481, .F. ) ;
#693 = ADVANCED_FACE ( 'NONE', ( #955 ), #219, .T. ) ;
#694 = CARTESIAN_POINT ( 'NONE',  ( 39.99999999999998579, 3.500000000000003109, 4.898587196589414604E-15 ) ) ;
#695 = FACE_OUTER_BOUND ( 'NONE', #328, .T. ) ;
#696 = EDGE_LOOP ( 'NONE', ( #673, #154 ) ) ;
#697 = MECHANICAL_DESIGN_GEOMETRIC_PRESENTATION_REPRESENTATION (  '', ( #72 ), #212 ) ;
#698 = ORIENTED_EDGE ( 'NONE', *, *, #396, .F. ) ;
#699 = CIRCLE ( 'NONE', #1062, 7.500000000000013323 ) ;
#700 = AXIS2_PLACEMENT_3D ( 'NONE', #416, #254, #754 ) ;
#701 = ADVANCED_FACE ( 'NONE', ( #1041 ), #729, .T. ) ;
#702 =( NAMED_UNIT ( * ) SI_UNIT ( $, .STERADIAN. ) SOLID_ANGLE_UNIT ( ) );
#703 = FACE_OUTER_BOUND ( 'NONE', #414, .T. ) ;
#704 = CARTESIAN_POINT ( 'NONE',  ( -35.00000000000000000, 47.00000000000000000, 5.510910596163091133E-15 ) ) ;
#705 = ORIENTED_EDGE ( 'NONE', *, *, #236, .F. ) ;
#706 = SURFACE_STYLE_FILL_AREA ( #375 ) ;
#707 = CARTESIAN_POINT ( 'NONE',  ( 39.99999999999998579, 46.99999999999997158, 5.000000000000009770 ) ) ;
#708 = DIRECTION ( 'NONE',  ( 0.0000000000000000000, 1.000000000000000000, 0.0000000000000000000 ) ) ;
#709 = DIRECTION ( 'NONE',  ( 0.0000000000000000000, 0.0000000000000000000, -1.000000000000000000 ) ) ;
#710 = CARTESIAN_POINT ( 'NONE',  ( -40.00000000000000711, 1.499999999999995115, 4.898587196589414604E-15 ) ) ;
#711 = ADVANCED_FACE ( 'NONE', ( #485 ), #209, .F. ) ;
#712 = VERTEX_POINT ( 'NONE', #636 ) ;
#713 = COLOUR_RGB ( '',1.000000000000000000, 1.000000000000000000, 1.000000000000000000 ) ;
#714 = CONICAL_SURFACE ( 'NONE', #441, 2.099999999999997868, 1.029744258676654090 ) ;
#715 = LINE ( 'NONE', #643, #615 ) ;
#716 = AXIS2_PLACEMENT_3D ( 'NONE', #719, #638, #560 ) ;
#717 = DIRECTION ( 'NONE',  ( 8.659560562354941486E-17, -0.7071067811865469066, 0.7071067811865482389 ) ) ;
#718 = EDGE_LOOP ( 'NONE', ( #186, #220, #1059, #20 ) ) ;
#719 = CARTESIAN_POINT ( 'NONE',  ( 39.99999999999998579, 46.99999999999997158, 4.898587196589414604E-15 ) ) ;
#720 =( NAMED_UNIT ( * ) SI_UNIT ( $, .STERADIAN. ) SOLID_ANGLE_UNIT ( ) );
#721 = SURFACE_SIDE_STYLE ('',( #706 ) ) ;
#722 = ADVANCED_FACE ( 'NONE', ( #479, #387 ), #398, .T. ) ;
#723 = CARTESIAN_POINT ( 'NONE',  ( -40.00000000000000711, 3.500000000000000000, 4.898587196589414604E-15 ) ) ;
#724 = CARTESIAN_POINT ( 'NONE',  ( -40.00000000000000711, 1.499999999999995115, 4.898587196589414604E-15 ) ) ;
#725 = ORIENTED_EDGE ( 'NONE', *, *, #838, .F. ) ;
#726 =( NAMED_UNIT ( * ) SI_UNIT ( $, .STERADIAN. ) SOLID_ANGLE_UNIT ( ) );
#727 = EDGE_CURVE ( 'NONE', #202, #288, #873, .T. ) ;
#728 = DIRECTION ( 'NONE',  ( -0.0000000000000000000, -0.0000000000000000000, -1.000000000000000000 ) ) ;
#729 = CONICAL_SURFACE ( 'NONE', #553, 6.499999999999992006, 0.7853981633974491672 ) ;
#730 = CYLINDRICAL_SURFACE ( 'NONE', #800, 5.000000000000004441 ) ;
#731 = MECHANICAL_DESIGN_GEOMETRIC_PRESENTATION_REPRESENTATION (  '', ( #974 ), #404 ) ;
#732 = CIRCLE ( 'NONE', #42, 6.499999999999992006 ) ;
#733 = CARTESIAN_POINT ( 'NONE',  ( 42.75000000000001421, 5.235365066354936261E-15, 4.898587196589414604E-15 ) ) ;
#734 = CIRCLE ( 'NONE', #372, 7.500000000000013323 ) ;
#735 = ORIENTED_EDGE ( 'NONE', *, *, #56, .T. ) ;
#736 = DIRECTION ( 'NONE',  ( 1.000000000000000000, -1.084202172485504434E-16, 0.0000000000000000000 ) ) ;
#737 = CARTESIAN_POINT ( 'NONE',  ( 40.00000000000000711, 10.00000000000000000, 4.898587196589414604E-15 ) ) ;
#738 = UNCERTAINTY_MEASURE_WITH_UNIT (LENGTH_MEASURE( 1.000000000000000082E-05 ), #400, 'distance_accuracy_value', 'NONE');
#739 = DIRECTION ( 'NONE',  ( 0.0000000000000000000, -0.7071067811865469066, -0.7071067811865482389 ) ) ;
#740 = EDGE_CURVE ( 'NONE', #288, #861, #625, .T. ) ;
#741 = VERTEX_POINT ( 'NONE', #308 ) ;
#742 = CARTESIAN_POINT ( 'NONE',  ( -40.00000000000000711, 2.499999999999980016, 4.898587196589414604E-15 ) ) ;
#743 = SURFACE_SIDE_STYLE ('',( #238 ) ) ;
#744 = ADVANCED_FACE ( 'NONE', ( #227 ), #282, .T. ) ;
#745 = ORIENTED_EDGE ( 'NONE', *, *, #892, .T. ) ;
#746 = DIRECTION ( 'NONE',  ( 1.224646799147353207E-16, -1.000000000000000000, -0.0000000000000000000 ) ) ;
#747 = AXIS2_PLACEMENT_3D ( 'NONE', #2, #417, #915 ) ;
#748 = DIRECTION ( 'NONE',  ( -0.0000000000000000000, -1.000000000000000000, -0.0000000000000000000 ) ) ;
#749 = CONICAL_SURFACE ( 'NONE', #73, 2.099999999999997868, 1.029744258676654090 ) ;
#750 = CIRCLE ( 'NONE', #568, 3.000000000000002665 ) ;
#751 = ORIENTED_EDGE ( 'NONE', *, *, #1036, .T. ) ;
#752 = AXIS2_PLACEMENT_3D ( 'NONE', #862, #123, #635 ) ;
#753 = ORIENTED_EDGE ( 'NONE', *, *, #512, .F. ) ;
#754 = DIRECTION ( 'NONE',  ( 1.000000000000000000, 1.577021341797091890E-16, 0.0000000000000000000 ) ) ;
#755 = DIRECTION ( 'NONE',  ( -0.0000000000000000000, -0.0000000000000000000, -1.000000000000000000 ) ) ;
#756 = EDGE_LOOP ( 'NONE', ( #1011, #150 ) ) ;
#757 = VERTEX_POINT ( 'NONE', #125 ) ;
#758 = CARTESIAN_POINT ( 'NONE',  ( -40.00000000000000711, 47.00000000000000000, 4.898587196589414604E-15 ) ) ;
#759 = ADVANCED_FACE ( 'NONE', ( #632, #557 ), #378, .F. ) ;
#760 = CARTESIAN_POINT ( 'NONE',  ( 39.99999999999998579, 46.99999999999997158, 4.898587196589414604E-15 ) ) ;
#761 = DIRECTION ( 'NONE',  ( 0.0000000000000000000, -1.000000000000000000, 0.0000000000000000000 ) ) ;
#762 = CARTESIAN_POINT ( 'NONE',  ( 40.00000000000000711, 3.500000000000000000, 4.898587196589414604E-15 ) ) ;
#763 = VERTEX_POINT ( 'NONE', #295 ) ;
#764 = DIRECTION ( 'NONE',  ( -1.000000000000000000, 0.0000000000000000000, 0.0000000000000000000 ) ) ;
#765 = EDGE_CURVE ( 'NONE', #781, #741, #495, .T. ) ;
#766 = CARTESIAN_POINT ( 'NONE',  ( -40.00000000000000711, 10.00000000000000000, 4.898587196589414604E-15 ) ) ;
#767 = CARTESIAN_POINT ( 'NONE',  ( 40.00000000000000711, 10.00000000000000000, 4.898587196589414604E-15 ) ) ;
#768 = EDGE_LOOP ( 'NONE', ( #164, #908, #1049, #453 ) ) ;
#769 = AXIS2_PLACEMENT_3D ( 'NONE', #466, #788, #48 ) ;
#770 = AXIS2_PLACEMENT_3D ( 'NONE', #895, #977, #490 ) ;
#771 = ORIENTED_EDGE ( 'NONE', *, *, #965, .F. ) ;
#772 = CIRCLE ( 'NONE', #177, 5.000000000000004441 ) ;
#773 = DIRECTION ( 'NONE',  ( 1.224646799147353207E-16, -1.000000000000000000, 0.0000000000000000000 ) ) ;
#774 = CARTESIAN_POINT ( 'NONE',  ( 40.00000000000000711, 0.0000000000000000000, 4.898587196589414604E-15 ) ) ;
#775 = EDGE_LOOP ( 'NONE', ( #454, #843, #1000 ) ) ;
#776 = ORIENTED_EDGE ( 'NONE', *, *, #381, .F. ) ;
#777 =( NAMED_UNIT ( * ) PLANE_ANGLE_UNIT ( ) SI_UNIT ( $, .RADIAN. ) );
#778 = CARTESIAN_POINT ( 'NONE',  ( 40.00000000000000711, 3.500000000000000000, 4.898587196589414604E-15 ) ) ;
#779 = DIRECTION ( 'NONE',  ( 1.224646799147353207E-16, -1.000000000000000000, 0.0000000000000000000 ) ) ;
#780 = ADVANCED_FACE ( 'NONE', ( #561 ), #627, .T. ) ;
#781 = VERTEX_POINT ( 'NONE', #243 ) ;
#782 = EDGE_LOOP ( 'NONE', ( #38, #415 ) ) ;
#783 = AXIS2_PLACEMENT_3D ( 'NONE', #778, #761, #18 ) ;
#784 = EDGE_LOOP ( 'NONE', ( #669, #612 ) ) ;
#785 = AXIS2_PLACEMENT_3D ( 'NONE', #986, #906, #162 ) ;
#786 = AXIS2_PLACEMENT_3D ( 'NONE', #996, #519, #667 ) ;
#787 = FACE_BOUND ( 'NONE', #696, .T. ) ;
#788 = DIRECTION ( 'NONE',  ( -0.0000000000000000000, -0.0000000000000000000, -1.000000000000000000 ) ) ;
#789 = ORIENTED_EDGE ( 'NONE', *, *, #363, .T. ) ;
#790 = APPLICATION_PROTOCOL_DEFINITION ( 'draft international standard', 'automotive_design', 1998, #912 ) ;
#791 = DIRECTION ( 'NONE',  ( 1.000000000000000000, 1.032573497605243334E-16, 0.0000000000000000000 ) ) ;
#792 = CARTESIAN_POINT ( 'NONE',  ( -40.00000000000000711, 3.500000000000000000, 6.499999999999997335 ) ) ;
#793 = ORIENTED_EDGE ( 'NONE', *, *, #106, .T. ) ;
#794 = DIRECTION ( 'NONE',  ( 0.0000000000000000000, 0.0000000000000000000, 1.000000000000000000 ) ) ;
#795 = EDGE_CURVE ( 'NONE', #49, #33, #847, .T. ) ;
#796 =( LENGTH_UNIT ( ) NAMED_UNIT ( * ) SI_UNIT ( .MILLI., .METRE. ) );
#797 = ORIENTED_EDGE ( 'NONE', *, *, #675, .F. ) ;
#798 =( GEOMETRIC_REPRESENTATION_CONTEXT ( 3 ) GLOBAL_UNCERTAINTY_ASSIGNED_CONTEXT ( ( #853 ) ) GLOBAL_UNIT_ASSIGNED_CONTEXT ( ( #618, #447, #539 ) ) REPRESENTATION_CONTEXT ( 'NONE', 'WORKASPACE' ) );
#799 = AXIS2_PLACEMENT_3D ( 'NONE', #1029, #289, #807 ) ;
#800 = AXIS2_PLACEMENT_3D ( 'NONE', #639, #319, #484 ) ;
#801 = DIRECTION ( 'NONE',  ( -0.0000000000000000000, -1.000000000000000000, -0.0000000000000000000 ) ) ;
#802 = AXIS2_PLACEMENT_3D ( 'NONE', #384, #1051, #303 ) ;
#803 = EDGE_LOOP ( 'NONE', ( #952, #918 ) ) ;
#804 = CARTESIAN_POINT ( 'NONE',  ( -40.00000000000000711, 47.00000000000000000, -4.999999999999999112 ) ) ;
#805 = ORIENTED_EDGE ( 'NONE', *, *, #236, .T. ) ;
#806 = EDGE_CURVE ( 'NONE', #712, #508, #584, .T. ) ;
#807 = DIRECTION ( 'NONE',  ( 1.000000000000000000, 1.224646799147351975E-16, 0.0000000000000000000 ) ) ;
#808 = CARTESIAN_POINT ( 'NONE',  ( -40.00000000000000711, 10.00000000000000000, -2.099999999999992983 ) ) ;
#809 = CARTESIAN_POINT ( 'NONE',  ( -40.00000000000000711, 1.499999999999995115, 4.898587196589414604E-15 ) ) ;
#810 = AXIS2_PLACEMENT_3D ( 'NONE', #724, #394, #382 ) ;
#811 = CARTESIAN_POINT ( 'NONE',  ( -40.00000000000000711, 47.00000000000000000, 5.000000000000009770 ) ) ;
#812 = EDGE_CURVE ( 'NONE', #117, #851, #194, .T. ) ;
#813 = AXIS2_PLACEMENT_3D ( 'NONE', #492, #901, #545 ) ;
#814 = PRESENTATION_LAYER_ASSIGNMENT (  '', '', ( #405 ) ) ;
#815 = CARTESIAN_POINT ( 'NONE',  ( 40.00000000000000711, 1.500000000000005107, -2.099999999999992983 ) ) ;
#816 = PRODUCT_DEFINITION_FORMATION_WITH_SPECIFIED_SOURCE ( '??', '', #189, .NOT_KNOWN. ) ;
#817 = AXIS2_PLACEMENT_3D ( 'NONE', #605, #827, #671 ) ;
#818 = VERTEX_POINT ( 'NONE', #320 ) ;
#819 =( NAMED_UNIT ( * ) PLANE_ANGLE_UNIT ( ) SI_UNIT ( $, .RADIAN. ) );
#820 = EDGE_CURVE ( 'NONE', #79, #131, #235, .T. ) ;
#821 = CARTESIAN_POINT ( 'NONE',  ( -40.00000000000000711, 10.00000000000000000, -2.099999999999992983 ) ) ;
#822 = ORIENTED_EDGE ( 'NONE', *, *, #226, .F. ) ;
#823 = FACE_OUTER_BOUND ( 'NONE', #449, .T. ) ;
#824 = CARTESIAN_POINT ( 'NONE',  ( 40.00000000000000711, 0.0000000000000000000, 4.898587196589414604E-15 ) ) ;
#825 = VERTEX_POINT ( 'NONE', #661 ) ;
#826 = ORIENTED_EDGE ( 'NONE', *, *, #161, .T. ) ;
#827 = DIRECTION ( 'NONE',  ( 0.0000000000000000000, -1.000000000000000000, 0.0000000000000000000 ) ) ;
#828 = AXIS2_PLACEMENT_3D ( 'NONE', #767, #1031, #941 ) ;
#829 = CARTESIAN_POINT ( 'NONE',  ( 42.75000000000001421, 1.500000000000005551, 4.898587196589414604E-15 ) ) ;
#830 = AXIS2_PLACEMENT_3D ( 'NONE', #192, #357, #848 ) ;
#831 = AXIS2_PLACEMENT_3D ( 'NONE', #257, #424, #593 ) ;
#832 = ORIENTED_EDGE ( 'NONE', *, *, #512, .T. ) ;
#833 = ADVANCED_FACE ( 'NONE', ( #575 ), #86, .F. ) ;
#834 = DIRECTION ( 'NONE',  ( 0.0000000000000000000, 0.0000000000000000000, -1.000000000000000000 ) ) ;
#835 = CARTESIAN_POINT ( 'NONE',  ( -40.00000000000000711, 0.0000000000000000000, 2.100000000000002309 ) ) ;
#836 = PRESENTATION_STYLE_ASSIGNMENT (( #456 ) ) ;
#837 = DIRECTION ( 'NONE',  ( 0.0000000000000000000, 1.000000000000000000, -0.0000000000000000000 ) ) ;
#838 = EDGE_CURVE ( 'NONE', #116, #33, #149, .T. ) ;
#839 = CARTESIAN_POINT ( 'NONE',  ( -40.00000000000000711, 10.00000000000000000, 4.898587196589414604E-15 ) ) ;
#840 = CARTESIAN_POINT ( 'NONE',  ( -40.00000000000000711, 0.0000000000000000000, -2.099999999999992983 ) ) ;
#841 = FILL_AREA_STYLE_COLOUR ( '', #972 ) ;
#842 = DIRECTION ( 'NONE',  ( -0.0000000000000000000, -0.0000000000000000000, -1.000000000000000000 ) ) ;
#843 = ORIENTED_EDGE ( 'NONE', *, *, #806, .T. ) ;
#844 = CARTESIAN_POINT ( 'NONE',  ( 37.25000000000000000, 1.500000000000004663, 5.235365066354937050E-15 ) ) ;
#845 = DIRECTION ( 'NONE',  ( 0.0000000000000000000, -1.000000000000000000, 0.0000000000000000000 ) ) ;
#846 = EDGE_CURVE ( 'NONE', #825, #657, #511, .T. ) ;
#847 = CIRCLE ( 'NONE', #385, 7.500000000000013323 ) ;
#848 = DIRECTION ( 'NONE',  ( 1.000000000000000000, 1.032573497605243334E-16, 0.0000000000000000000 ) ) ;
#849 = CONICAL_SURFACE ( 'NONE', #990, 6.499999999999992006, 0.7853981633974491672 ) ;
#850 = AXIS2_PLACEMENT_3D ( 'NONE', #881, #898, #489 ) ;
#851 = VERTEX_POINT ( 'NONE', #733 ) ;
#852 = AXIS2_PLACEMENT_3D ( 'NONE', #208, #464, #473 ) ;
#853 = UNCERTAINTY_MEASURE_WITH_UNIT (LENGTH_MEASURE( 1.000000000000000082E-05 ), #618, 'distance_accuracy_value', 'NONE');
#854 = ADVANCED_FACE ( 'NONE', ( #93, #7 ), #336, .F. ) ;
#855 = FACE_OUTER_BOUND ( 'NONE', #963, .T. ) ;
#856 = CARTESIAN_POINT ( 'NONE',  ( 40.00000000000000711, 0.0000000000000000000, -7.500000000000007994 ) ) ;
#857 = ORIENTED_EDGE ( 'NONE', *, *, #500, .T. ) ;
#858 = FACE_OUTER_BOUND ( 'NONE', #157, .T. ) ;
#859 = CYLINDRICAL_SURFACE ( 'NONE', #124, 5.000000000000004441 ) ;
#860 = CARTESIAN_POINT ( 'NONE',  ( 39.99999999999998579, 46.99999999999997158, 4.898587196589414604E-15 ) ) ;
#861 = VERTEX_POINT ( 'NONE', #668 ) ;
#862 = CARTESIAN_POINT ( 'NONE',  ( -40.00000000000000711, 47.00000000000000000, 4.898587196589414604E-15 ) ) ;
#863 = LINE ( 'NONE', #128, #959 ) ;
#864 = CIRCLE ( 'NONE', #246, 2.099999999999997868 ) ;
#865 = ORIENTED_EDGE ( 'NONE', *, *, #267, .T. ) ;
#866 = PRESENTATION_LAYER_ASSIGNMENT (  '', '', ( #158 ) ) ;
#867 = AXIS2_PLACEMENT_3D ( 'NONE', #62, #645, #324 ) ;
#868 = EDGE_CURVE ( 'NONE', #818, #851, #997, .T. ) ;
#869 = AXIS2_PLACEMENT_3D ( 'NONE', #422, #15, #343 ) ;
#870 = VECTOR ( 'NONE', #377, 1000.000000000000000 ) ;
#871 = CARTESIAN_POINT ( 'NONE',  ( -40.00000000000000711, 3.500000000000000000, 4.898587196589414604E-15 ) ) ;
#872 = CARTESIAN_POINT ( 'NONE',  ( 39.99999999999998579, 3.500000000000003109, -4.999999999999999112 ) ) ;
#873 = LINE ( 'NONE', #792, #957 ) ;
#874 = EDGE_LOOP ( 'NONE', ( #1016, #751, #497 ) ) ;
#875 = CARTESIAN_POINT ( 'NONE',  ( -40.00000000000000711, 1.499999999999995115, 4.898587196589414604E-15 ) ) ;
#876 = EDGE_CURVE ( 'NONE', #71, #482, #922, .T. ) ;
#877 = DIRECTION ( 'NONE',  ( 0.0000000000000000000, 1.000000000000000000, 0.0000000000000000000 ) ) ;
#878 = SURFACE_SIDE_STYLE ('',( #970 ) ) ;
#879 = VERTEX_POINT ( 'NONE', #815 ) ;
#880 = DIRECTION ( 'NONE',  ( 0.0000000000000000000, -1.000000000000000000, 0.0000000000000000000 ) ) ;
#881 = CARTESIAN_POINT ( 'NONE',  ( -40.00000000000000711, 1.499999999999995115, 4.898587196589414604E-15 ) ) ;
#882 = ADVANCED_FACE ( 'NONE', ( #81 ), #1068, .F. ) ;
#883 = SURFACE_STYLE_USAGE ( .BOTH. , #878 ) ;
#884 = VECTOR ( 'NONE', #97, 1000.000000000000000 ) ;
#885 = TOROIDAL_SURFACE ( 'NONE', #905, 8.000000000000007105, 5.000000000000004441 ) ;
#886 =( GEOMETRIC_REPRESENTATION_CONTEXT ( 3 ) GLOBAL_UNCERTAINTY_ASSIGNED_CONTEXT ( ( #472 ) ) GLOBAL_UNIT_ASSIGNED_CONTEXT ( ( #985, #819, #313 ) ) REPRESENTATION_CONTEXT ( 'NONE', 'WORKASPACE' ) );
#887 = CLOSED_SHELL ( 'NONE', ( #744, #780, #951, #646, #250, #711, #259, #882, #1017, #45, #1002, #145, #617, #530, #544, #932, #1055, #549, #759, #562, #693, #926, #100, #474, #854, #468, #594, #701, #722, #833, #938, #166, #121, #340, #902, #621 ) ) ;
#888 = CARTESIAN_POINT ( 'NONE',  ( 40.00000000000000711, 3.500000000000000000, 6.500000000000039080 ) ) ;
#889 = PLANE ( 'NONE',  #536 ) ;
#890 = CIRCLE ( 'NONE', #537, 2.750000000000009326 ) ;
#891 = DIRECTION ( 'NONE',  ( 0.0000000000000000000, -1.000000000000000000, 0.0000000000000000000 ) ) ;
#892 = EDGE_CURVE ( 'NONE', #757, #763, #248, .T. ) ;
#893 = ORIENTED_EDGE ( 'NONE', *, *, #321, .T. ) ;
#894 = DIRECTION ( 'NONE',  ( -0.0000000000000000000, -1.000000000000000000, -0.0000000000000000000 ) ) ;
#895 = CARTESIAN_POINT ( 'NONE',  ( -40.00000000000000711, 47.00000000000000000, 4.898587196589414604E-15 ) ) ;
#896 = ORIENTED_EDGE ( 'NONE', *, *, #868, .T. ) ;
#897 = SURFACE_STYLE_USAGE ( .BOTH. , #323 ) ;
#898 = DIRECTION ( 'NONE',  ( -1.224646799147353207E-16, 1.000000000000000000, -0.0000000000000000000 ) ) ;
#899 = DIRECTION ( 'NONE',  ( -0.0000000000000000000, -1.000000000000000000, -0.0000000000000000000 ) ) ;
#900 = ORIENTED_EDGE ( 'NONE', *, *, #868, .F. ) ;
#901 = DIRECTION ( 'NONE',  ( 1.000000000000000000, 6.123233995736766036E-17, 0.0000000000000000000 ) ) ;
#902 = ADVANCED_FACE ( 'NONE', ( #325 ), #749, .F. ) ;
#903 = AXIS2_PLACEMENT_3D ( 'NONE', #425, #755, #647 ) ;
#904 = CARTESIAN_POINT ( 'NONE',  ( 40.00000000000000711, 2.500000000000021760, 7.500000000000018652 ) ) ;
#905 = AXIS2_PLACEMENT_3D ( 'NONE', #114, #347, #445 ) ;
#906 = DIRECTION ( 'NONE',  ( 0.0000000000000000000, 1.000000000000000000, 0.0000000000000000000 ) ) ;
#907 = VECTOR ( 'NONE', #880, 1000.000000000000000 ) ;
#908 = ORIENTED_EDGE ( 'NONE', *, *, #427, .T. ) ;
#909 = PRODUCT_CONTEXT ( 'NONE', #912, 'mechanical' ) ;
#910 = DIRECTION ( 'NONE',  ( -0.0000000000000000000, -0.0000000000000000000, -1.000000000000000000 ) ) ;
#911 = DIRECTION ( 'NONE',  ( 1.049727191138618449E-16, -0.5150380749100544886, 0.8571673007021121116 ) ) ;
#912 = APPLICATION_CONTEXT ( 'automotive_design' ) ;
#913 = VERTEX_POINT ( 'NONE', #821 ) ;
#914 = DIRECTION ( 'NONE',  ( -0.0000000000000000000, -1.000000000000000000, -0.0000000000000000000 ) ) ;
#915 = DIRECTION ( 'NONE',  ( 1.000000000000000000, 1.577021341797091890E-16, 0.0000000000000000000 ) ) ;
#916 = EDGE_CURVE ( 'NONE', #861, #240, #315, .T. ) ;
#917 = VERTEX_POINT ( 'NONE', #502 ) ;
#918 = ORIENTED_EDGE ( 'NONE', *, *, #82, .F. ) ;
#919 = CARTESIAN_POINT ( 'NONE',  ( 32.00000000000001421, 54.99999999999999289, 4.898587196589414604E-15 ) ) ;
#920 = CONICAL_SURFACE ( 'NONE', #828, 2.099999999999997868, 1.029744258676654090 ) ;
#921 = CARTESIAN_POINT ( 'NONE',  ( -40.00000000000000711, 3.500000000000000000, 4.898587196589414604E-15 ) ) ;
#922 = CIRCLE ( 'NONE', #770, 5.000000000000004441 ) ;
#923 = CIRCLE ( 'NONE', #830, 2.099999999999997868 ) ;
#924 = CARTESIAN_POINT ( 'NONE',  ( -31.99999999999998579, 60.00000000000000711, 4.898587196589414604E-15 ) ) ;
#925 = AXIS2_PLACEMENT_3D ( 'NONE', #563, #1047, #794 ) ;
#926 = ADVANCED_FACE ( 'NONE', ( #413 ), #885, .T. ) ;
#927 = ORIENTED_EDGE ( 'NONE', *, *, #988, .F. ) ;
#928 = DIRECTION ( 'NONE',  ( 0.0000000000000000000, 0.0000000000000000000, 1.000000000000000000 ) ) ;
#929 = LINE ( 'NONE', #521, #884 ) ;
#930 = DIRECTION ( 'NONE',  ( 0.0000000000000000000, 0.0000000000000000000, -1.000000000000000000 ) ) ;
#931 = ORIENTED_EDGE ( 'NONE', *, *, #376, .F. ) ;
#932 = ADVANCED_FACE ( 'NONE', ( #451 ), #360, .T. ) ;
#933 = DIRECTION ( 'NONE',  ( -0.0000000000000000000, -0.0000000000000000000, -1.000000000000000000 ) ) ;
#934 = LINE ( 'NONE', #107, #57 ) ;
#935 = DIRECTION ( 'NONE',  ( -0.0000000000000000000, -1.000000000000000000, -0.0000000000000000000 ) ) ;
#936 = DIRECTION ( 'NONE',  ( 0.0000000000000000000, 0.0000000000000000000, 1.000000000000000000 ) ) ;
#937 = VERTEX_POINT ( 'NONE', #429 ) ;
#938 = ADVANCED_FACE ( 'NONE', ( #858 ), #714, .F. ) ;
#939 = FILL_AREA_STYLE ('',( #30 ) ) ;
#940 = AXIS2_PLACEMENT_3D ( 'NONE', #993, #403, #171 ) ;
#941 = DIRECTION ( 'NONE',  ( 0.0000000000000000000, 0.0000000000000000000, -1.000000000000000000 ) ) ;
#942 = DIRECTION ( 'NONE',  ( -1.000000000000000000, 0.0000000000000000000, 0.0000000000000000000 ) ) ;
#943 = VECTOR ( 'NONE', #310, 1000.000000000000000 ) ;
#944 = VECTOR ( 'NONE', #746, 1000.000000000000000 ) ;
#945 = EDGE_LOOP ( 'NONE', ( #753, #1018, #1025, #1044 ) ) ;
#946 = CARTESIAN_POINT ( 'NONE',  ( 40.00000000000000711, 0.0000000000000000000, 4.898587196589414604E-15 ) ) ;
#947 = CARTESIAN_POINT ( 'NONE',  ( -31.99999999999998579, 55.00000000000000000, 4.898587196589414604E-15 ) ) ;
#948 = EDGE_LOOP ( 'NONE', ( #698, #1004, #471, #670, #528 ) ) ;
#949 = EDGE_LOOP ( 'NONE', ( #173, #789 ) ) ;
#950 = DIRECTION ( 'NONE',  ( 1.224646799147353207E-16, -1.000000000000000000, 0.0000000000000000000 ) ) ;
#951 = ADVANCED_FACE ( 'NONE', ( #17 ), #183, .F. ) ;
#952 = ORIENTED_EDGE ( 'NONE', *, *, #1072, .F. ) ;
#953 = UNCERTAINTY_MEASURE_WITH_UNIT (LENGTH_MEASURE( 1.000000000000000082E-05 ), #796, 'distance_accuracy_value', 'NONE');
#954 = CARTESIAN_POINT ( 'NONE',  ( -40.00000000000000711, 3.500000000000000000, 4.898587196589414604E-15 ) ) ;
#955 = FACE_OUTER_BOUND ( 'NONE', #1022, .T. ) ;
#956 = EDGE_CURVE ( 'NONE', #913, #103, #520, .T. ) ;
#957 = VECTOR ( 'NONE', #717, 999.9999999999998863 ) ;
#958 = EDGE_LOOP ( 'NONE', ( #44, #832, #88, #102 ) ) ;
#959 = VECTOR ( 'NONE', #736, 1000.000000000000000 ) ;
#960 = CONICAL_SURFACE ( 'NONE', #438, 2.099999999999997868, 1.029744258676654090 ) ;
#961 = FACE_OUTER_BOUND ( 'NONE', #967, .T. ) ;
#962 = CARTESIAN_POINT ( 'NONE',  ( -40.00000000000000711, 0.0000000000000000000, 4.898587196589414604E-15 ) ) ;
#963 = EDGE_LOOP ( 'NONE', ( #245, #619, #383, #426 ) ) ;
#964 = PRODUCT_RELATED_PRODUCT_CATEGORY ( 'part', '', ( #189 ) ) ;
#965 = EDGE_CURVE ( 'NONE', #657, #288, #699, .T. ) ;
#966 = FILL_AREA_STYLE_COLOUR ( '', #5 ) ;
#967 = EDGE_LOOP ( 'NONE', ( #210, #504, #140, #253, #52 ) ) ;
#968 = EDGE_CURVE ( 'NONE', #818, #338, #586, .T. ) ;
#969 = CYLINDRICAL_SURFACE ( 'NONE', #300, 7.500000000000013323 ) ;
#970 = SURFACE_STYLE_FILL_AREA ( #222 ) ;
#971 = ORIENTED_EDGE ( 'NONE', *, *, #106, .F. ) ;
#972 = COLOUR_RGB ( '',1.000000000000000000, 1.000000000000000000, 1.000000000000000000 ) ;
#973 = CARTESIAN_POINT ( 'NONE',  ( 40.00000000000000711, 10.00000000000000000, -2.099999999999992983 ) ) ;
#974 = STYLED_ITEM ( 'NONE', ( #572 ), #1039 ) ;
#975 = CIRCLE ( 'NONE', #229, 5.000000000000004441 ) ;
#976 = CIRCLE ( 'NONE', #26, 5.000000000000004441 ) ;
#977 = DIRECTION ( 'NONE',  ( 0.0000000000000000000, 1.000000000000000000, 0.0000000000000000000 ) ) ;
#978 = ORIENTED_EDGE ( 'NONE', *, *, #187, .T. ) ;
#979 = FILL_AREA_STYLE ('',( #501 ) ) ;
#980 = DIRECTION ( 'NONE',  ( 1.000000000000000000, 1.577021341797091890E-16, 0.0000000000000000000 ) ) ;
#981 = EDGE_CURVE ( 'NONE', #1069, #998, #228, .T. ) ;
#982 = ORIENTED_EDGE ( 'NONE', *, *, #916, .F. ) ;
#983 = DIRECTION ( 'NONE',  ( 0.0000000000000000000, -0.0000000000000000000, 1.000000000000000000 ) ) ;
#984 = ORIENTED_EDGE ( 'NONE', *, *, #846, .F. ) ;
#985 =( LENGTH_UNIT ( ) NAMED_UNIT ( * ) SI_UNIT ( .MILLI., .METRE. ) );
#986 = CARTESIAN_POINT ( 'NONE',  ( -40.00000000000000711, 0.0000000000000000000, 4.898587196589414604E-15 ) ) ;
#987 = ORIENTED_EDGE ( 'NONE', *, *, #686, .F. ) ;
#988 = EDGE_CURVE ( 'NONE', #508, #917, #258, .T. ) ;
#989 = VECTOR ( 'NONE', #1053, 1000.000000000000000 ) ;
#990 = AXIS2_PLACEMENT_3D ( 'NONE', #921, #845, #178 ) ;
#991 = CARTESIAN_POINT ( 'NONE',  ( -40.00000000000000711, 2.499999999999980016, 7.500000000000018652 ) ) ;
#992 = AXIS2_PLACEMENT_3D ( 'NONE', #611, #837, #98 ) ;
#993 = CARTESIAN_POINT ( 'NONE',  ( 40.00000000000000711, 4.898587196589413815E-15, 4.898587196589414604E-15 ) ) ;
#994 = PRODUCT_DEFINITION_SHAPE ( 'NONE', 'NONE',  #80 ) ;
#995 = ORIENTED_EDGE ( 'NONE', *, *, #559, .T. ) ;
#996 = CARTESIAN_POINT ( 'NONE',  ( 40.00000000000000711, 3.500000000000000000, 4.898587196589414604E-15 ) ) ;
#997 = LINE ( 'NONE', #829, #23 ) ;
#998 = VERTEX_POINT ( 'NONE', #606 ) ;
#999 = APPLICATION_PROTOCOL_DEFINITION ( 'draft international standard', 'automotive_design', 1998, #650 ) ;
#1000 = ORIENTED_EDGE ( 'NONE', *, *, #576, .T. ) ;
#1001 = DIRECTION ( 'NONE',  ( -0.0000000000000000000, -1.000000000000000000, -0.0000000000000000000 ) ) ;
#1002 = ADVANCED_FACE ( 'NONE', ( #695 ), #203, .T. ) ;
#1003 = DIRECTION ( 'NONE',  ( 0.0000000000000000000, -1.000000000000000000, 0.0000000000000000000 ) ) ;
#1004 = ORIENTED_EDGE ( 'NONE', *, *, #675, .T. ) ;
#1005 = CARTESIAN_POINT ( 'NONE',  ( -42.75000000000001421, -5.235365066354937050E-15, 5.235365066354937050E-15 ) ) ;
#1006 = VECTOR ( 'NONE', #285, 1000.000000000000000 ) ;
#1007 = AXIS2_PLACEMENT_3D ( 'NONE', #871, #68, #487 ) ;
#1008 = DIRECTION ( 'NONE',  ( 1.000000000000000000, 1.032573497605243334E-16, 0.0000000000000000000 ) ) ;
#1009 = TOROIDAL_SURFACE ( 'NONE', #75, 7.999999999999992895, 5.000000000000004441 ) ;
#1010 = DIRECTION ( 'NONE',  ( -0.0000000000000000000, -1.000000000000000000, -0.0000000000000000000 ) ) ;
#1011 = ORIENTED_EDGE ( 'NONE', *, *, #151, .T. ) ;
#1012 = DIRECTION ( 'NONE',  ( 0.0000000000000000000, 0.0000000000000000000, -1.000000000000000000 ) ) ;
#1013 = DIRECTION ( 'NONE',  ( -0.0000000000000000000, -1.000000000000000000, -0.0000000000000000000 ) ) ;
#1014 =( LENGTH_UNIT ( ) NAMED_UNIT ( * ) SI_UNIT ( .MILLI., .METRE. ) );
#1015 = LINE ( 'NONE', #607, #440 ) ;
#1016 = ORIENTED_EDGE ( 'NONE', *, *, #311, .F. ) ;
#1017 = ADVANCED_FACE ( 'NONE', ( #598 ), #849, .T. ) ;
#1018 = ORIENTED_EDGE ( 'NONE', *, *, #765, .F. ) ;
#1019 = DIRECTION ( 'NONE',  ( 1.224646799147353207E-16, -1.000000000000000000, 0.0000000000000000000 ) ) ;
#1020 = DIRECTION ( 'NONE',  ( 0.0000000000000000000, 0.0000000000000000000, -1.000000000000000000 ) ) ;
#1021 = DIRECTION ( 'NONE',  ( 0.0000000000000000000, -1.000000000000000000, 0.0000000000000000000 ) ) ;
#1022 = EDGE_LOOP ( 'NONE', ( #513, #279, #223, #362 ) ) ;
#1023 = SURFACE_STYLE_FILL_AREA ( #939 ) ;
#1024 = VECTOR ( 'NONE', #78, 999.9999999999998863 ) ;
#1025 = ORIENTED_EDGE ( 'NONE', *, *, #390, .T. ) ;
#1026 = AXIS2_PLACEMENT_3D ( 'NONE', #543, #448, #273 ) ;
#1027 = VECTOR ( 'NONE', #443, 1000.000000000000000 ) ;
#1028 = ORIENTED_EDGE ( 'NONE', *, *, #421, .F. ) ;
#1029 = CARTESIAN_POINT ( 'NONE',  ( -40.00000000000000711, -4.898587196589413815E-15, 4.898587196589414604E-15 ) ) ;
#1030 = EDGE_CURVE ( 'NONE', #657, #240, #934, .T. ) ;
#1031 = DIRECTION ( 'NONE',  ( -0.0000000000000000000, -1.000000000000000000, -0.0000000000000000000 ) ) ;
#1032 = CARTESIAN_POINT ( 'NONE',  ( 40.00000000000000711, 0.0000000000000000000, 7.500000000000018652 ) ) ;
#1033 = ORIENTED_EDGE ( 'NONE', *, *, #396, .T. ) ;
#1034 = SURFACE_STYLE_USAGE ( .BOTH. , #721 ) ;
#1035 = DIRECTION ( 'NONE',  ( 0.0000000000000000000, -1.000000000000000000, 0.0000000000000000000 ) ) ;
#1036 = EDGE_CURVE ( 'NONE', #937, #763, #642, .T. ) ;
#1037 = DIRECTION ( 'NONE',  ( 0.0000000000000000000, -0.0000000000000000000, 1.000000000000000000 ) ) ;
#1038 = ORIENTED_EDGE ( 'NONE', *, *, #1067, .T. ) ;
#1039 = MANIFOLD_SOLID_BREP ( '??-??1', #887 ) ;
#1040 = LINE ( 'NONE', #888, #334 ) ;
#1041 = FACE_OUTER_BOUND ( 'NONE', #412, .T. ) ;
#1042 = AXIS2_PLACEMENT_3D ( 'NONE', #510, #933, #433 ) ;
#1043 = EDGE_CURVE ( 'NONE', #202, #825, #662, .T. ) ;
#1044 = ORIENTED_EDGE ( 'NONE', *, *, #1072, .T. ) ;
#1045 = VECTOR ( 'NONE', #672, 1000.000000000000000 ) ;
#1046 = MECHANICAL_DESIGN_GEOMETRIC_PRESENTATION_REPRESENTATION (  '', ( #1063 ), #444 ) ;
#1047 = DIRECTION ( 'NONE',  ( 1.224646799147353207E-16, -1.000000000000000000, 0.0000000000000000000 ) ) ;
#1048 = DIRECTION ( 'NONE',  ( 0.0000000000000000000, 0.0000000000000000000, -1.000000000000000000 ) ) ;
#1049 = ORIENTED_EDGE ( 'NONE', *, *, #4, .F. ) ;
#1050 = EDGE_CURVE ( 'NONE', #596, #9, #214, .T. ) ;
#1051 = DIRECTION ( 'NONE',  ( 0.0000000000000000000, 1.000000000000000000, -0.0000000000000000000 ) ) ;
#1052 = FACE_OUTER_BOUND ( 'NONE', #948, .T. ) ;
#1053 = DIRECTION ( 'NONE',  ( -0.0000000000000000000, -1.000000000000000000, -0.0000000000000000000 ) ) ;
#1054 = ORIENTED_EDGE ( 'NONE', *, *, #523, .F. ) ;
#1055 = ADVANCED_FACE ( 'NONE', ( #554, #409 ), #39, .T. ) ;
#1056 = DIRECTION ( 'NONE',  ( 0.0000000000000000000, 0.0000000000000000000, -1.000000000000000000 ) ) ;
#1057 = DIRECTION ( 'NONE',  ( -0.0000000000000000000, -1.000000000000000000, -0.0000000000000000000 ) ) ;
#1058 = CARTESIAN_POINT ( 'NONE',  ( 40.00000000000000711, 3.500000000000000000, 6.500000000000039080 ) ) ;
#1059 = ORIENTED_EDGE ( 'NONE', *, *, #916, .T. ) ;
#1060 = CONICAL_SURFACE ( 'NONE', #783, 6.500000000000033751, 0.7853981633974491672 ) ;
#1061 =( LENGTH_UNIT ( ) NAMED_UNIT ( * ) SI_UNIT ( .MILLI., .METRE. ) );
#1062 = AXIS2_PLACEMENT_3D ( 'NONE', #365, #1003, #455 ) ;
#1063 = STYLED_ITEM ( 'NONE', ( #578 ), #244 ) ;
#1064 = CIRCLE ( 'NONE', #831, 7.500000000000013323 ) ;
#1065 = LINE ( 'NONE', #808, #1006 ) ;
#1066 = DIRECTION ( 'NONE',  ( 0.0000000000000000000, 0.0000000000000000000, -1.000000000000000000 ) ) ;
#1067 = EDGE_CURVE ( 'NONE', #596, #626, #863, .T. ) ;
#1068 = CYLINDRICAL_SURFACE ( 'NONE', #628, 2.750000000000009326 ) ;
#1069 = VERTEX_POINT ( 'NONE', #582 ) ;
#1070 =( NAMED_UNIT ( * ) PLANE_ANGLE_UNIT ( ) SI_UNIT ( $, .RADIAN. ) );
#1071 = DIRECTION ( 'NONE',  ( -0.0000000000000000000, -1.000000000000000000, -0.0000000000000000000 ) ) ;
#1072 = EDGE_CURVE ( 'NONE', #641, #344, #195, .T. ) ;
ENDSEC;
END-ISO-10303-21;
