ISO-10303-21;
HEADER;
FILE_DESCRIPTION (( 'STEP AP214' ),
    '1' );
FILE_NAME ('1750005656757.step',
    '2025-06-15T16:35:26',
    ( 'EC2' ),
    ( 'Amazon.com' ),
    'FaSTEP 2.0',
    'Forface 3D 2020',
    '' );
FILE_SCHEMA (( 'AUTOMOTIVE_DESIGN' ));
ENDSEC;

DATA;
#1 = DIRECTION ( 'NONE',  ( 0.0000000000000000000, 0.4999999999999999445, -0.8660254037844387076 ) ) ;
#2 = CARTESIAN_POINT ( 'NONE',  ( -27.25394174179385232, 1.695615155246689598, 3.500000000000002665 ) ) ;
#3 = AXIS2_PLACEMENT_3D ( 'NONE', #334, #740, #472 ) ;
#4 = CIRCLE ( 'NONE', #91, 2.299999999999999822 ) ;
#5 = FACE_OUTER_BOUND ( 'NONE', #482, .T. ) ;
#6 = AXIS2_PLACEMENT_3D ( 'NONE', #720, #201, #395 ) ;
#7 =( LENGTH_UNIT ( ) NAMED_UNIT ( * ) SI_UNIT ( .MILLI., .METRE. ) );
#8 = DIRECTION ( 'NONE',  ( 0.0000000000000000000, 0.0000000000000000000, -1.000000000000000000 ) ) ;
#9 = DIRECTION ( 'NONE',  ( 0.0000000000000000000, 0.0000000000000000000, -1.000000000000000000 ) ) ;
#10 = ADVANCED_FACE ( 'NONE', ( #699 ), #710, .F. ) ;
#11 = VERTEX_POINT ( 'NONE', #192 ) ;
#12 = DIRECTION ( 'NONE',  ( -1.000000000000000000, -0.0000000000000000000, -0.0000000000000000000 ) ) ;
#13 = EDGE_LOOP ( 'NONE', ( #563, #759, #694 ) ) ;
#14 = DIRECTION ( 'NONE',  ( 1.000000000000000000, 0.0000000000000000000, 0.0000000000000000000 ) ) ;
#15 = ORIENTED_EDGE ( 'NONE', *, *, #392, .F. ) ;
#16 = EDGE_CURVE ( 'NONE', #413, #766, #507, .T. ) ;
#17 = EDGE_CURVE ( 'NONE', #101, #402, #238, .T. ) ;
#18 = CARTESIAN_POINT ( 'NONE',  ( -27.50000000000000000, -3.031088913245535643, 1.750000000000000000 ) ) ;
#19 = AXIS2_PLACEMENT_3D ( 'NONE', #558, #415, #295 ) ;
#20 = CARTESIAN_POINT ( 'NONE',  ( 27.36211517233571300, -3.712324015161845292, -0.5700661915815904424 ) ) ;
#21 = MECHANICAL_DESIGN_GEOMETRIC_PRESENTATION_REPRESENTATION (  '', ( #652 ), #322 ) ;
#22 = VERTEX_POINT ( 'NONE', #658 ) ;
#23 = CARTESIAN_POINT ( 'NONE',  ( 27.25456204698476981, -1.693704782786036533, -3.500000000000000444 ) ) ;
#24 = CARTESIAN_POINT ( 'NONE',  ( 27.50000000000000000, -4.041451884327381450, 3.001283488714036810E-16 ) ) ;
#25 = VERTEX_POINT ( 'NONE', #118 ) ;
#26 = CARTESIAN_POINT ( 'NONE',  ( -27.50000000000000000, 3.031088913245535643, -1.749999999999999112 ) ) ;
#27 = ORIENTED_EDGE ( 'NONE', *, *, #83, .F. ) ;
#28 = DIRECTION ( 'NONE',  ( -1.000000000000000000, 0.0000000000000000000, 0.0000000000000000000 ) ) ;
#29 = EDGE_CURVE ( 'NONE', #228, #86, #175, .T. ) ;
#30 = ORIENTED_EDGE ( 'NONE', *, *, #751, .T. ) ;
#31 = CARTESIAN_POINT ( 'NONE',  ( 21.50000000000000000, 0.0000000000000000000, -2.300000000000005151 ) ) ;
#32 = VERTEX_POINT ( 'NONE', #258 ) ;
#33 = LINE ( 'NONE', #24, #617 ) ;
#34 = AXIS2_PLACEMENT_3D ( 'NONE', #797, #466, #668 ) ;
#35 = VECTOR ( 'NONE', #503, 1000.000000000000000 ) ;
#36 = VECTOR ( 'NONE', #303, 1000.000000000000000 ) ;
#37 = CARTESIAN_POINT ( 'NONE',  ( -27.14837703496669974, 2.020725942163693389, -3.499999999999999112 ) ) ;
#38 = CARTESIAN_POINT ( 'NONE',  ( 27.49999999999999645, 0.0000000000000000000, 0.0000000000000000000 ) ) ;
#39 = ORIENTED_EDGE ( 'NONE', *, *, #640, .T. ) ;
#40 = DIRECTION ( 'NONE',  ( 0.0000000000000000000, 0.0000000000000000000, -1.000000000000000000 ) ) ;
#41 = UNCERTAINTY_MEASURE_WITH_UNIT (LENGTH_MEASURE( 1.000000000000000082E-05 ), #462, 'distance_accuracy_value', 'NONE');
#42 = EDGE_CURVE ( 'NONE', #343, #78, #483, .T. ) ;
#43 = CARTESIAN_POINT ( 'NONE',  ( -27.50000000000000000, 3.031088913245535643, 1.749999999999999334 ) ) ;
#44 = VERTEX_POINT ( 'NONE', #730 ) ;
#45 = CARTESIAN_POINT ( 'NONE',  ( -27.50000000000000000, 0.0000000000000000000, 0.0000000000000000000 ) ) ;
#46 = DIRECTION ( 'NONE',  ( 0.0000000000000000000, 0.0000000000000000000, -1.000000000000000000 ) ) ;
#47 = ORIENTED_EDGE ( 'NONE', *, *, #722, .F. ) ;
#48 = CARTESIAN_POINT ( 'NONE',  ( -27.49159873270999555, 2.858369331288498127, 2.049159091411647982 ) ) ;
#49 = CIRCLE ( 'NONE', #650, 3.499999999999999556 ) ;
#50 = DIRECTION ( 'NONE',  ( -1.000000000000000000, -0.0000000000000000000, -0.0000000000000000000 ) ) ;
#51 = CARTESIAN_POINT ( 'NONE',  ( -27.50000000000000000, 3.031088913245535643, 1.749999999999999334 ) ) ;
#52 = VERTEX_POINT ( 'NONE', #213 ) ;
#53 =( NAMED_UNIT ( * ) SI_UNIT ( $, .STERADIAN. ) SOLID_ANGLE_UNIT ( ) );
#54 = B_SPLINE_CURVE_WITH_KNOTS ( 'NONE', 3,
 ( #622, #711, #508, #775, #113, #306 ),
 .UNSPECIFIED., .F., .F.,
 ( 4, 2, 4 ),
 ( 0.005551221306477783536, 0.006576526737236647671, 0.007601832167995511806 ),
 .UNSPECIFIED. ) ;
#55 = CARTESIAN_POINT ( 'NONE',  ( 27.45918956571566127, 2.687413838814892486, 2.345262690208891332 ) ) ;
#56 = CARTESIAN_POINT ( 'NONE',  ( -27.46581126851000221, 0.6901315937921722599, -3.500000000000000000 ) ) ;
#57 = ADVANCED_FACE ( 'NONE', ( #666 ), #309, .T. ) ;
#58 = CARTESIAN_POINT ( 'NONE',  ( -8.996111243433677629, 0.0000000000000000000, 2.300000000000003819 ) ) ;
#59 = DIRECTION ( 'NONE',  ( 0.0000000000000000000, 0.0000000000000000000, -1.000000000000000000 ) ) ;
#60 = CARTESIAN_POINT ( 'NONE',  ( -27.14837703496669974, 4.041451884327381450, 3.459934453871075540E-16 ) ) ;
#61 = CONICAL_SURFACE ( 'NONE', #147, 1732.050807568891287, 1.047197551196601184 ) ;
#62 = APPLICATION_PROTOCOL_DEFINITION ( 'draft international standard', 'automotive_design', 1998, #464 ) ;
#63 = AXIS2_PLACEMENT_3D ( 'NONE', #98, #426, #692 ) ;
#64 = LINE ( 'NONE', #337, #528 ) ;
#65 = CARTESIAN_POINT ( 'NONE',  ( 27.46677445468353795, -0.6824088029959948232, 3.500000000000000888 ) ) ;
#66 = ADVANCED_FACE ( 'NONE', ( #597 ), #87, .F. ) ;
#67 =( NAMED_UNIT ( * ) SI_UNIT ( $, .STERADIAN. ) SOLID_ANGLE_UNIT ( ) );
#68 = CARTESIAN_POINT ( 'NONE',  ( 27.50000000000000000, 0.3421182720231563112, 3.500000000000001776 ) ) ;
#69 = CARTESIAN_POINT ( 'NONE',  ( -27.25456204698478047, -1.693704782786035423, 3.500000000000000444 ) ) ;
#70 = CARTESIAN_POINT ( 'NONE',  ( 27.14837703496669974, 2.020725942163690725, 3.500000000000002220 ) ) ;
#71 = DIRECTION ( 'NONE',  ( 0.0000000000000000000, 1.000000000000000000, 4.292327424963310814E-16 ) ) ;
#72 = FILL_AREA_STYLE ('',( #140 ) ) ;
#73 = CARTESIAN_POINT ( 'NONE',  ( -27.50000000000000000, -3.031088913245535643, 1.750000000000000000 ) ) ;
#74 = AXIS2_PLACEMENT_3D ( 'NONE', #410, #789, #261 ) ;
#75 = ORIENTED_EDGE ( 'NONE', *, *, #598, .T. ) ;
#76 = CIRCLE ( 'NONE', #703, 2.299999999999999822 ) ;
#77 = CARTESIAN_POINT ( 'NONE',  ( 27.25456204698478047, -1.693704782786035423, 3.500000000000000444 ) ) ;
#78 = VERTEX_POINT ( 'NONE', #531 ) ;
#79 = DIRECTION ( 'NONE',  ( -1.000000000000000000, -0.0000000000000000000, -0.0000000000000000000 ) ) ;
#80 = DIRECTION ( 'NONE',  ( -1.000000000000000000, 0.0000000000000000000, -0.0000000000000000000 ) ) ;
#81 = ORIENTED_EDGE ( 'NONE', *, *, #285, .F. ) ;
#82 = CARTESIAN_POINT ( 'NONE',  ( -27.50000000000002487, -2.945064497813548066, -1.898998658219617219 ) ) ;
#83 = EDGE_CURVE ( 'NONE', #800, #781, #400, .T. ) ;
#84 = ORIENTED_EDGE ( 'NONE', *, *, #454, .T. ) ;
#85 = CARTESIAN_POINT ( 'NONE',  ( 27.50000000000000000, 3.031088913245535643, 1.749999999999999334 ) ) ;
#86 = VERTEX_POINT ( 'NONE', #457 ) ;
#87 = PLANE ( 'NONE',  #554 ) ;
#88 = EDGE_LOOP ( 'NONE', ( #208, #681, #633, #642, #427, #609 ) ) ;
#89 = CARTESIAN_POINT ( 'NONE',  ( -27.25484827432531176, -3.877500553186424614, 0.2839720355046869704 ) ) ;
#90 = CARTESIAN_POINT ( 'NONE',  ( 27.14837703496669974, 2.020725942163693389, -3.499999999999999112 ) ) ;
#91 = AXIS2_PLACEMENT_3D ( 'NONE', #582, #646, #777 ) ;
#92 = EDGE_LOOP ( 'NONE', ( #811, #468, #271 ) ) ;
#93 = ADVANCED_FACE ( 'NONE', ( #5 ), #263, .F. ) ;
#94 = DIRECTION ( 'NONE',  ( -1.000000000000000000, -0.0000000000000000000, -0.0000000000000000000 ) ) ;
#95 = ORIENTED_EDGE ( 'NONE', *, *, #422, .F. ) ;
#96 = CARTESIAN_POINT ( 'NONE',  ( 27.50000000000000000, 0.0000000000000000000, 0.0000000000000000000 ) ) ;
#97 = ORIENTED_EDGE ( 'NONE', *, *, #16, .T. ) ;
#98 = CARTESIAN_POINT ( 'NONE',  ( 27.49999999999999645, 0.0000000000000000000, 0.0000000000000000000 ) ) ;
#99 = ORIENTED_EDGE ( 'NONE', *, *, #285, .T. ) ;
#100 = CARTESIAN_POINT ( 'NONE',  ( 27.50000000000000000, 3.031088913245535643, -1.749999999999999112 ) ) ;
#101 = VERTEX_POINT ( 'NONE', #139 ) ;
#102 = LINE ( 'NONE', #408, #673 ) ;
#103 = ORIENTED_EDGE ( 'NONE', *, *, #323, .T. ) ;
#104 = FACE_OUTER_BOUND ( 'NONE', #737, .T. ) ;
#105 = AXIS2_PLACEMENT_3D ( 'NONE', #786, #207, #71 ) ;
#106 = ADVANCED_FACE ( 'NONE', ( #523 ), #328, .F. ) ;
#107 = AXIS2_PLACEMENT_3D ( 'NONE', #96, #745, #489 ) ;
#108 = CARTESIAN_POINT ( 'NONE',  ( -27.14837703496669974, 2.020725942163693389, -3.499999999999999112 ) ) ;
#109 = ORIENTED_EDGE ( 'NONE', *, *, #368, .F. ) ;
#110 = CARTESIAN_POINT ( 'NONE',  ( 27.14837703496669974, 2.020725942163690725, 3.500000000000002220 ) ) ;
#111 = ADVANCED_FACE ( 'NONE', ( #272 ), #255, .F. ) ;
#112 = EDGE_CURVE ( 'NONE', #465, #11, #648, .T. ) ;
#113 = CARTESIAN_POINT ( 'NONE',  ( 27.25394174179386297, 1.695615155246693595, -3.499999999999999556 ) ) ;
#114 = ORIENTED_EDGE ( 'NONE', *, *, #547, .T. ) ;
#115 = DIRECTION ( 'NONE',  ( 0.0000000000000000000, 0.0000000000000000000, -1.000000000000000000 ) ) ;
#116 = CARTESIAN_POINT ( 'NONE',  ( -27.25456204698476981, -1.693704782786036533, -3.500000000000000444 ) ) ;
#117 = CARTESIAN_POINT ( 'NONE',  ( 27.34311953412924368, 3.711828022665239590, -0.5709252757858876981 ) ) ;
#118 = CARTESIAN_POINT ( 'NONE',  ( -27.50000000000000000, -3.031088913245535643, -1.749999999999999334 ) ) ;
#119 = CIRCLE ( 'NONE', #187, 3.500000000000000000 ) ;
#120 = CONICAL_SURFACE ( 'NONE', #387, 3.500000000000000000, 0.9948376736367700035 ) ;
#121 = DIRECTION ( 'NONE',  ( -1.000000000000000000, -0.0000000000000000000, -0.0000000000000000000 ) ) ;
#122 = CARTESIAN_POINT ( 'NONE',  ( 27.49159873270999199, 3.203808495202574935, -1.450840908588354017 ) ) ;
#123 = CARTESIAN_POINT ( 'NONE',  ( -8.996111243433677629, 0.0000000000000000000, 0.0000000000000000000 ) ) ;
#124 = CARTESIAN_POINT ( 'NONE',  ( 27.34311953412924012, -2.350349803825834805, -2.929074724214112635 ) ) ;
#125 = DIRECTION ( 'NONE',  ( -1.000000000000000000, -0.0000000000000000000, -0.0000000000000000000 ) ) ;
#126 = CARTESIAN_POINT ( 'NONE',  ( -27.25484827432531176, 3.877500553186425059, -0.2839720355046868594 ) ) ;
#127 = B_SPLINE_CURVE_WITH_KNOTS ( 'NONE', 3,
 ( #227, #155, #682, #85 ),
 .UNSPECIFIED., .F., .F.,
 ( 4, 4 ),
 ( 2.398396654284559575E-07, 0.002051102802373377769 ),
 .UNSPECIFIED. ) ;
#128 = DIRECTION ( 'NONE',  ( 1.000000000000000000, -0.0000000000000000000, -0.0000000000000000000 ) ) ;
#129 = B_SPLINE_CURVE_WITH_KNOTS ( 'NONE', 3,
 ( #353, #301, #807, #627 ),
 .UNSPECIFIED., .F., .F.,
 ( 4, 4 ),
 ( 2.398396654281023742E-07, 0.002051102802373377769 ),
 .UNSPECIFIED. ) ;
#130 = CARTESIAN_POINT ( 'NONE',  ( -27.34311953412924368, 3.711828022665239590, -0.5709252757858876981 ) ) ;
#131 = EDGE_CURVE ( 'NONE', #465, #696, #559, .T. ) ;
#132 = AXIS2_PLACEMENT_3D ( 'NONE', #242, #28, #480 ) ;
#133 = AXIS2_PLACEMENT_3D ( 'NONE', #342, #614, #423 ) ;
#134 = CARTESIAN_POINT ( 'NONE',  ( 27.50000000000000000, -1.502314598737158834E-15, 3.500000000000000000 ) ) ;
#135 = CARTESIAN_POINT ( 'NONE',  ( -27.34419109652523971, -1.357188532772014344, 3.500000000000000888 ) ) ;
#136 = PLANE ( 'NONE',  #231 ) ;
#137 = DIRECTION ( 'NONE',  ( 0.0000000000000000000, 0.0000000000000000000, -1.000000000000000000 ) ) ;
#138 = B_SPLINE_CURVE_WITH_KNOTS ( 'NONE', 3,
 ( #247, #641, #578, #437, #837, #124, #240, #708 ),
 .UNSPECIFIED., .F., .F.,
 ( 4, 2, 2, 4 ),
 ( 0.002051102802373377335, 0.002560869642631047674, 0.003070636482888718446, 0.004090170163404061726 ),
 .UNSPECIFIED. ) ;
#139 = CARTESIAN_POINT ( 'NONE',  ( -20.17209438086386797, 1.543763575451323432E-17, 0.0000000000000000000 ) ) ;
#140 = FILL_AREA_STYLE_COLOUR ( '', #704 ) ;
#141 = ADVANCED_FACE ( 'NONE', ( #590 ), #157, .F. ) ;
#142 = DIRECTION ( 'NONE',  ( 0.0000000000000000000, 0.0000000000000000000, 1.000000000000000000 ) ) ;
#143 = ORIENTED_EDGE ( 'NONE', *, *, #586, .T. ) ;
#144 = PLANE ( 'NONE',  #734 ) ;
#145 = ORIENTED_EDGE ( 'NONE', *, *, #195, .T. ) ;
#146 =( NAMED_UNIT ( * ) PLANE_ANGLE_UNIT ( ) SI_UNIT ( $, .RADIAN. ) );
#147 = AXIS2_PLACEMENT_3D ( 'NONE', #406, #534, #276 ) ;
#148 = CARTESIAN_POINT ( 'NONE',  ( 27.45918956571566483, -3.374763987676179688, 1.154737309791110444 ) ) ;
#149 = AXIS2_PLACEMENT_3D ( 'NONE', #796, #726, #384 ) ;
#150 = ORIENTED_EDGE ( 'NONE', *, *, #422, .T. ) ;
#151 = AXIS2_PLACEMENT_3D ( 'NONE', #644, #499, #46 ) ;
#152 = DIRECTION ( 'NONE',  ( -1.000000000000000000, -0.0000000000000000000, -0.0000000000000000000 ) ) ;
#153 = ADVANCED_FACE ( 'NONE', ( #683 ), #61, .F. ) ;
#154 = ORIENTED_EDGE ( 'NONE', *, *, #702, .T. ) ;
#155 = CARTESIAN_POINT ( 'NONE',  ( 27.36211517233571300, 3.712324015161846180, 0.5700661915815912195 ) ) ;
#156 = ORIENTED_EDGE ( 'NONE', *, *, #436, .T. ) ;
#157 = PLANE ( 'NONE',  #105 ) ;
#158 = EDGE_LOOP ( 'NONE', ( #291, #755, #114 ) ) ;
#159 = DIRECTION ( 'NONE',  ( -0.4999999999999970024, 0.0000000000000000000, 0.8660254037844403729 ) ) ;
#160 = CARTESIAN_POINT ( 'NONE',  ( -8.996111243433677629, 0.0000000000000000000, 0.0000000000000000000 ) ) ;
#161 = ORIENTED_EDGE ( 'NONE', *, *, #632, .F. ) ;
#162 = DIRECTION ( 'NONE',  ( 0.0000000000000000000, 0.0000000000000000000, 1.000000000000000000 ) ) ;
#163 = FACE_BOUND ( 'NONE', #277, .T. ) ;
#164 = AXIS2_PLACEMENT_3D ( 'NONE', #525, #324, #846 ) ;
#165 = ORIENTED_EDGE ( 'NONE', *, *, #640, .F. ) ;
#166 = CARTESIAN_POINT ( 'NONE',  ( -20.17209438086386797, 0.0000000000000000000, 1.543763575451323432E-17 ) ) ;
#167 = CARTESIAN_POINT ( 'NONE',  ( 27.14837703496669974, -2.020725942163690725, -3.500000000000000444 ) ) ;
#168 = CARTESIAN_POINT ( 'NONE',  ( -27.50000000000000000, 1.126735949052868337E-15, -3.500000000000000000 ) ) ;
#169 = DIRECTION ( 'NONE',  ( -1.000000000000000000, -0.0000000000000000000, -0.0000000000000000000 ) ) ;
#170 = ORIENTED_EDGE ( 'NONE', *, *, #446, .F. ) ;
#171 = ADVANCED_FACE ( 'NONE', ( #793 ), #144, .F. ) ;
#172 = PRODUCT ( '1750005656757', '1750005656757', '', ( #587 ) ) ;
#173 = DIRECTION ( 'NONE',  ( 0.0000000000000000000, 0.0000000000000000000, -1.000000000000000000 ) ) ;
#174 = ORIENTED_EDGE ( 'NONE', *, *, #17, .T. ) ;
#175 = B_SPLINE_CURVE_WITH_KNOTS ( 'NONE', 3,
 ( #719, #839, #320, #585, #448, #130, #126, #60 ),
 .UNSPECIFIED., .F., .F.,
 ( 4, 2, 2, 4 ),
 ( 0.002051102802373376034, 0.002560869642631046373, 0.003070636482888716712, 0.004090170163404059991 ),
 .UNSPECIFIED. ) ;
#176 = ORIENTED_EDGE ( 'NONE', *, *, #827, .F. ) ;
#177 = DIRECTION ( 'NONE',  ( 1.000000000000000000, -0.0000000000000000000, 0.0000000000000000000 ) ) ;
#178 = EDGE_CURVE ( 'NONE', #25, #611, #680, .T. ) ;
#179 = EDGE_CURVE ( 'NONE', #772, #52, #33, .T. ) ;
#180 = CARTESIAN_POINT ( 'NONE',  ( -27.50000000000000000, 0.0000000000000000000, 0.0000000000000000000 ) ) ;
#181 = B_SPLINE_CURVE_WITH_KNOTS ( 'NONE', 3,
 ( #371, #308, #828, #447 ),
 .UNSPECIFIED., .F., .F.,
 ( 4, 4 ),
 ( 2.398396654283653780E-07, 0.002051102802373377335 ),
 .UNSPECIFIED. ) ;
#182 = LINE ( 'NONE', #58, #830 ) ;
#183 = DIRECTION ( 'NONE',  ( -1.000000000000000000, 0.0000000000000000000, -0.0000000000000000000 ) ) ;
#184 = ADVANCED_FACE ( 'NONE', ( #631 ), #361, .T. ) ;
#185 = CARTESIAN_POINT ( 'NONE',  ( 27.50000000000001066, 3.117113328677525885, -1.601001341780382337 ) ) ;
#186 = ORIENTED_EDGE ( 'NONE', *, *, #473, .T. ) ;
#187 = AXIS2_PLACEMENT_3D ( 'NONE', #221, #701, #693 ) ;
#188 = CIRCLE ( 'NONE', #712, 2.299999999999999822 ) ;
#189 = AXIS2_PLACEMENT_3D ( 'NONE', #661, #128, #589 ) ;
#190 = FILL_AREA_STYLE ('',( #770 ) ) ;
#191 = CARTESIAN_POINT ( 'NONE',  ( -27.50000000000002487, -2.685000714552782775, 2.349442344035841845 ) ) ;
#192 = CARTESIAN_POINT ( 'NONE',  ( -27.50000000000000000, 3.031088913245535643, 1.749999999999999334 ) ) ;
#193 =( NAMED_UNIT ( * ) SI_UNIT ( $, .STERADIAN. ) SOLID_ANGLE_UNIT ( ) );
#194 = CARTESIAN_POINT ( 'NONE',  ( 27.25484827432531176, 2.184677273304648004, 3.216027964495315583 ) ) ;
#195 = EDGE_CURVE ( 'NONE', #78, #288, #129, .T. ) ;
#196 = ORIENTED_EDGE ( 'NONE', *, *, #621, .T. ) ;
#197 = CARTESIAN_POINT ( 'NONE',  ( 27.50000000000000000, 2.020725942163693389, -3.499999999999999112 ) ) ;
#198 = CARTESIAN_POINT ( 'NONE',  ( 27.14837703496669974, -4.041451884327381450, 5.317764985451298394E-16 ) ) ;
#199 = CARTESIAN_POINT ( 'NONE',  ( -27.50000000000000000, -1.502314598737158834E-15, 3.500000000000000000 ) ) ;
#200 = EDGE_CURVE ( 'NONE', #32, #766, #803, .T. ) ;
#201 = DIRECTION ( 'NONE',  ( 0.0000000000000000000, 0.0000000000000000000, 1.000000000000000000 ) ) ;
#202 = COLOUR_RGB ( '',0.4980392156862745168, 0.4980392156862745168, 0.4980392156862745168 ) ;
#203 = FACE_OUTER_BOUND ( 'NONE', #286, .T. ) ;
#204 = CARTESIAN_POINT ( 'NONE',  ( -27.45918956571566127, -2.687413838814892486, -2.345262690208890444 ) ) ;
#205 = DIRECTION ( 'NONE',  ( 0.0000000000000000000, 0.0000000000000000000, -1.000000000000000000 ) ) ;
#206 = FACE_OUTER_BOUND ( 'NONE', #490, .T. ) ;
#207 = DIRECTION ( 'NONE',  ( 0.0000000000000000000, 4.292327424963310814E-16, -1.000000000000000000 ) ) ;
#208 = ORIENTED_EDGE ( 'NONE', *, *, #522, .F. ) ;
#209 = ADVANCED_FACE ( 'NONE', ( #289 ), #386, .T. ) ;
#210 = ADVANCED_FACE ( 'NONE', ( #104 ), #749, .T. ) ;
#211 = CARTESIAN_POINT ( 'NONE',  ( 27.49159873270999555, -3.203808495202574491, 1.450840908588353573 ) ) ;
#212 = ORIENTED_EDGE ( 'NONE', *, *, #565, .F. ) ;
#213 = CARTESIAN_POINT ( 'NONE',  ( -27.14837703496669974, -4.041451884327381450, 3.001283488714036810E-16 ) ) ;
#214 = ORIENTED_EDGE ( 'NONE', *, *, #368, .T. ) ;
#215 = VECTOR ( 'NONE', #435, 1000.000000000000000 ) ;
#216 = ORIENTED_EDGE ( 'NONE', *, *, #670, .T. ) ;
#217 = CARTESIAN_POINT ( 'NONE',  ( 27.50000000000000000, 4.041451884327381450, 5.329468550135005277E-17 ) ) ;
#218 = ORIENTED_EDGE ( 'NONE', *, *, #576, .F. ) ;
#219 = CARTESIAN_POINT ( 'NONE',  ( -27.49159873270999199, -3.203808495202574047, 1.450840908588353351 ) ) ;
#220 = ORIENTED_EDGE ( 'NONE', *, *, #741, .F. ) ;
#221 = CARTESIAN_POINT ( 'NONE',  ( 27.50000000000000000, 0.0000000000000000000, 0.0000000000000000000 ) ) ;
#222 = ADVANCED_FACE ( 'NONE', ( #237, #163 ), #420, .F. ) ;
#223 = ORIENTED_EDGE ( 'NONE', *, *, #768, .F. ) ;
#224 = CARTESIAN_POINT ( 'NONE',  ( 27.46677445468353085, -0.6824088029959914925, -3.500000000000000000 ) ) ;
#225 = CARTESIAN_POINT ( 'NONE',  ( 27.50000000000000000, 2.020725942163693389, -3.499999999999999112 ) ) ;
#226 = ORIENTED_EDGE ( 'NONE', *, *, #131, .F. ) ;
#227 = CARTESIAN_POINT ( 'NONE',  ( 27.14837703496669974, 4.041451884327381450, 3.459934453871075540E-16 ) ) ;
#228 = VERTEX_POINT ( 'NONE', #824 ) ;
#229 = CARTESIAN_POINT ( 'NONE',  ( 27.50000000000000000, -3.031088913245535643, -1.749999999999999334 ) ) ;
#230 = CIRCLE ( 'NONE', #164, 3.499999999999999556 ) ;
#231 = AXIS2_PLACEMENT_3D ( 'NONE', #197, #336, #723 ) ;
#232 = PRODUCT_DEFINITION_CONTEXT ( 'detailed design', #736, 'design' ) ;
#233 = ORIENTED_EDGE ( 'NONE', *, *, #296, .T. ) ;
#234 = ADVANCED_FACE ( 'NONE', ( #543 ), #599, .T. ) ;
#235 = LINE ( 'NONE', #545, #785 ) ;
#236 = ORIENTED_EDGE ( 'NONE', *, *, #178, .F. ) ;
#237 = FACE_OUTER_BOUND ( 'NONE', #88, .T. ) ;
#238 = LINE ( 'NONE', #494, #773 ) ;
#239 = EDGE_CURVE ( 'NONE', #496, #465, #264, .T. ) ;
#240 = CARTESIAN_POINT ( 'NONE',  ( 27.25484827432531176, -2.184677273304648892, -3.216027964495313807 ) ) ;
#241 = ORIENTED_EDGE ( 'NONE', *, *, #670, .F. ) ;
#242 = CARTESIAN_POINT ( 'NONE',  ( 27.50000000000000000, 0.0000000000000000000, 0.0000000000000000000 ) ) ;
#243 = PRESENTATION_STYLE_ASSIGNMENT (( #430 ) ) ;
#244 = ORIENTED_EDGE ( 'NONE', *, *, #774, .F. ) ;
#245 = CARTESIAN_POINT ( 'NONE',  ( 27.14837703496669974, 4.041451884327381450, 3.459934453871075540E-16 ) ) ;
#246 = MECHANICAL_DESIGN_GEOMETRIC_PRESENTATION_REPRESENTATION (  '', ( #689 ), #691 ) ;
#247 = CARTESIAN_POINT ( 'NONE',  ( 27.50000000000000000, -3.031088913245535643, -1.749999999999999334 ) ) ;
#248 = CARTESIAN_POINT ( 'NONE',  ( 27.43522951109991226, 3.459508287370224533, -1.007955877069184103 ) ) ;
#249 = CARTESIAN_POINT ( 'NONE',  ( 21.50000000000000000, 0.0000000000000000000, 2.300000000000005151 ) ) ;
#250 = CARTESIAN_POINT ( 'NONE',  ( -27.50000000000000000, -3.031088913245535643, 1.750000000000000000 ) ) ;
#251 = ORIENTED_EDGE ( 'NONE', *, *, #672, .F. ) ;
#252 = DIRECTION ( 'NONE',  ( 0.0000000000000000000, 0.0000000000000000000, -1.000000000000000000 ) ) ;
#253 = CARTESIAN_POINT ( 'NONE',  ( -21.50000000000000000, 2.816687638038912056E-16, -2.299999999999999822 ) ) ;
#254 = ORIENTED_EDGE ( 'NONE', *, *, #178, .T. ) ;
#255 = CONICAL_SURFACE ( 'NONE', #74, 2.300000000000005151, 1.047197551196601406 ) ;
#256 = CIRCLE ( 'NONE', #63, 2.300000000000002487 ) ;
#257 = CARTESIAN_POINT ( 'NONE',  ( 27.50000000000002487, 2.945064497813548066, 1.898998658219618996 ) ) ;
#258 = CARTESIAN_POINT ( 'NONE',  ( 27.14837703496669974, 2.020725942163693389, -3.499999999999999112 ) ) ;
#259 = APPLICATION_PROTOCOL_DEFINITION ( 'draft international standard', 'automotive_design', 1998, #736 ) ;
#260 = CARTESIAN_POINT ( 'NONE',  ( 27.34311953412923302, -3.711828022665237814, 0.5709252757858881422 ) ) ;
#261 = DIRECTION ( 'NONE',  ( 0.0000000000000000000, 0.0000000000000000000, -1.000000000000000000 ) ) ;
#262 = FACE_OUTER_BOUND ( 'NONE', #297, .T. ) ;
#263 = PLANE ( 'NONE',  #34 ) ;
#264 = CIRCLE ( 'NONE', #484, 3.499999999999999556 ) ;
#265 = PRESENTATION_STYLE_ASSIGNMENT (( #592 ) ) ;
#266 = CIRCLE ( 'NONE', #444, 2.299999999999999822 ) ;
#267 = CIRCLE ( 'NONE', #151, 3.499999999999999556 ) ;
#268 = CARTESIAN_POINT ( 'NONE',  ( -27.34222474510946554, 1.365533549055712559, 3.500000000000002665 ) ) ;
#269 = CARTESIAN_POINT ( 'NONE',  ( -27.14837703496669974, -2.020725942163690725, 3.500000000000000444 ) ) ;
#270 = CARTESIAN_POINT ( 'NONE',  ( 27.14837703496669974, 2.020725942163690725, 3.500000000000002220 ) ) ;
#271 = ORIENTED_EDGE ( 'NONE', *, *, #473, .F. ) ;
#272 = FACE_OUTER_BOUND ( 'NONE', #313, .T. ) ;
#273 = EDGE_LOOP ( 'NONE', ( #626, #109, #226 ) ) ;
#274 = DIRECTION ( 'NONE',  ( 0.0000000000000000000, 0.0000000000000000000, 1.000000000000000000 ) ) ;
#275 = EDGE_LOOP ( 'NONE', ( #360, #75, #300, #516, #757, #816 ) ) ;
#276 = DIRECTION ( 'NONE',  ( 0.0000000000000000000, 0.0000000000000000000, 1.000000000000000000 ) ) ;
#277 = EDGE_LOOP ( 'NONE', ( #519, #461 ) ) ;
#278 = CARTESIAN_POINT ( 'NONE',  ( -27.50000000000000000, -1.502314598737158834E-15, 3.500000000000000000 ) ) ;
#279 = CIRCLE ( 'NONE', #539, 2.300000000000002487 ) ;
#280 = ORIENTED_EDGE ( 'NONE', *, *, #659, .F. ) ;
#281 = CARTESIAN_POINT ( 'NONE',  ( 27.50000000000000000, 0.0000000000000000000, 0.0000000000000000000 ) ) ;
#282 = EDGE_LOOP ( 'NONE', ( #818, #778, #223 ) ) ;
#283 = CARTESIAN_POINT ( 'NONE',  ( 27.34419109652524682, -1.357188532772013234, -3.500000000000000888 ) ) ;
#284 = CARTESIAN_POINT ( 'NONE',  ( 27.50000000000000000, 0.0000000000000000000, 0.0000000000000000000 ) ) ;
#285 = EDGE_CURVE ( 'NONE', #781, #823, #119, .T. ) ;
#286 = EDGE_LOOP ( 'NONE', ( #39, #214, #154, #605, #429, #637 ) ) ;
#287 = CARTESIAN_POINT ( 'NONE',  ( -27.14837703496669974, 2.020725942163690725, 3.500000000000002220 ) ) ;
#288 = VERTEX_POINT ( 'NONE', #762 ) ;
#289 = FACE_OUTER_BOUND ( 'NONE', #792, .T. ) ;
#290 = ADVANCED_FACE ( 'NONE', ( #551 ), #329, .T. ) ;
#291 = ORIENTED_EDGE ( 'NONE', *, *, #17, .F. ) ;
#292 = DIRECTION ( 'NONE',  ( -1.000000000000000000, -0.0000000000000000000, -0.0000000000000000000 ) ) ;
#293 = VERTEX_POINT ( 'NONE', #812 ) ;
#294 = CONICAL_SURFACE ( 'NONE', #149, 3.500000000000000000, 0.9948376736367700035 ) ;
#295 = DIRECTION ( 'NONE',  ( 0.0000000000000000000, 0.0000000000000000000, -1.000000000000000000 ) ) ;
#296 = EDGE_CURVE ( 'NONE', #772, #800, #591, .T. ) ;
#297 = EDGE_LOOP ( 'NONE', ( #510, #218, #15 ) ) ;
#298 = ADVANCED_FACE ( 'NONE', ( #428 ), #432, .T. ) ;
#299 = CARTESIAN_POINT ( 'NONE',  ( 21.50000000000000000, 0.0000000000000000000, 0.0000000000000000000 ) ) ;
#300 = ORIENTED_EDGE ( 'NONE', *, *, #29, .T. ) ;
#301 = CARTESIAN_POINT ( 'NONE',  ( 27.36211517233571300, -2.349853811329227327, 2.929933808418410113 ) ) ;
#302 = B_SPLINE_CURVE_WITH_KNOTS ( 'NONE', 3,
 ( #791, #459, #211, #148, #667, #260, #732, #198 ),
 .UNSPECIFIED., .F., .F.,
 ( 4, 2, 2, 4 ),
 ( 0.002051102802373377769, 0.002560869642631048108, 0.003070636482888718446, 0.004090170163404060859 ),
 .UNSPECIFIED. ) ;
#303 = DIRECTION ( 'NONE',  ( -1.000000000000000000, -0.0000000000000000000, -0.0000000000000000000 ) ) ;
#304 = ORIENTED_EDGE ( 'NONE', *, *, #841, .T. ) ;
#305 = CARTESIAN_POINT ( 'NONE',  ( -27.25484827432531176, 2.184677273304648004, 3.216027964495315583 ) ) ;
#306 = CARTESIAN_POINT ( 'NONE',  ( 27.14837703496669974, 2.020725942163693389, -3.499999999999999112 ) ) ;
#307 = ORIENTED_EDGE ( 'NONE', *, *, #200, .F. ) ;
#308 = CARTESIAN_POINT ( 'NONE',  ( -27.36211517233571300, -3.712324015161845292, -0.5700661915815904424 ) ) ;
#309 = CONICAL_SURFACE ( 'NONE', #813, 3.500000000000000000, 0.9948376736367700035 ) ;
#310 = AXIS2_PLACEMENT_3D ( 'NONE', #657, #183, #115 ) ;
#311 = CARTESIAN_POINT ( 'NONE',  ( -27.46677445468353085, -0.6824088029959914925, -3.500000000000000000 ) ) ;
#312 = LINE ( 'NONE', #373, #215 ) ;
#313 = EDGE_LOOP ( 'NONE', ( #478, #550, #280 ) ) ;
#314 = CARTESIAN_POINT ( 'NONE',  ( 21.50000000000000000, 0.0000000000000000000, 0.0000000000000000000 ) ) ;
#315 = DIRECTION ( 'NONE',  ( 0.0000000000000000000, 0.0000000000000000000, -1.000000000000000000 ) ) ;
#316 = CARTESIAN_POINT ( 'NONE',  ( -27.25394174179386297, 1.695615155246693595, -3.499999999999999556 ) ) ;
#317 = ADVANCED_FACE ( 'NONE', ( #564 ), #498, .F. ) ;
#318 = DIRECTION ( 'NONE',  ( -1.000000000000000000, -0.0000000000000000000, -0.0000000000000000000 ) ) ;
#319 = CARTESIAN_POINT ( 'NONE',  ( -27.50000000000002487, 2.945064497813548066, 1.898998658219618996 ) ) ;
#320 = CARTESIAN_POINT ( 'NONE',  ( -27.49159873270999199, 3.203808495202574935, -1.450840908588354017 ) ) ;
#321 = AXIS2_PLACEMENT_3D ( 'NONE', #729, #333, #8 ) ;
#322 =( GEOMETRIC_REPRESENTATION_CONTEXT ( 3 ) GLOBAL_UNCERTAINTY_ASSIGNED_CONTEXT ( ( #552 ) ) GLOBAL_UNIT_ASSIGNED_CONTEXT ( ( #7, #146, #193 ) ) REPRESENTATION_CONTEXT ( 'NONE', 'WORKASPACE' ) );
#323 = EDGE_CURVE ( 'NONE', #32, #823, #399, .T. ) ;
#324 = DIRECTION ( 'NONE',  ( -1.000000000000000000, 0.0000000000000000000, -0.0000000000000000000 ) ) ;
#325 = CARTESIAN_POINT ( 'NONE',  ( 27.34419109652523971, -1.357188532772014344, 3.500000000000000888 ) ) ;
#326 = CARTESIAN_POINT ( 'NONE',  ( -27.49159873270999555, -2.858369331288497683, -2.049159091411647093 ) ) ;
#327 = DIRECTION ( 'NONE',  ( 0.0000000000000000000, 0.4999999999999999445, 0.8660254037844385966 ) ) ;
#328 = CYLINDRICAL_SURFACE ( 'NONE', #417, 2.299999999999999822 ) ;
#329 = CONICAL_SURFACE ( 'NONE', #442, 3.500000000000000000, 0.9948376736367700035 ) ;
#330 = AXIS2_PLACEMENT_3D ( 'NONE', #677, #665, #137 ) ;
#331 = PRODUCT_DEFINITION_SHAPE ( 'NONE', 'NONE',  #412 ) ;
#332 = AXIS2_PLACEMENT_3D ( 'NONE', #451, #595, #205 ) ;
#333 = DIRECTION ( 'NONE',  ( 1.000000000000000000, 0.0000000000000000000, 0.0000000000000000000 ) ) ;
#334 = CARTESIAN_POINT ( 'NONE',  ( -27.50000000000000000, 0.0000000000000000000, 0.0000000000000000000 ) ) ;
#335 = EDGE_LOOP ( 'NONE', ( #450, #431, #30, #739 ) ) ;
#336 = DIRECTION ( 'NONE',  ( 0.0000000000000000000, -0.8660254037844388186, 0.4999999999999997780 ) ) ;
#337 = CARTESIAN_POINT ( 'NONE',  ( 21.50000000000000000, 2.816687638038918466E-16, 2.300000000000005151 ) ) ;
#338 = VERTEX_POINT ( 'NONE', #167 ) ;
#339 = DIRECTION ( 'NONE',  ( 0.0000000000000000000, -3.219245568722481385E-16, 1.000000000000000000 ) ) ;
#340 = ADVANCED_FACE ( 'NONE', ( #356 ), #120, .T. ) ;
#341 = EDGE_LOOP ( 'NONE', ( #753, #802, #761 ) ) ;
#342 = CARTESIAN_POINT ( 'NONE',  ( 27.50000000000000000, 0.0000000000000000000, 0.0000000000000000000 ) ) ;
#343 = VERTEX_POINT ( 'NONE', #769 ) ;
#344 = DIRECTION ( 'NONE',  ( -1.000000000000000000, -0.0000000000000000000, -0.0000000000000000000 ) ) ;
#345 = ORIENTED_EDGE ( 'NONE', *, *, #751, .F. ) ;
#346 = EDGE_CURVE ( 'NONE', #413, #25, #584, .T. ) ;
#347 = CARTESIAN_POINT ( 'NONE',  ( -27.14837703496669974, -4.041451884327381450, 3.001283488714036810E-16 ) ) ;
#348 = CONICAL_SURFACE ( 'NONE', #455, 2.300000000000005151, 1.047197551196601406 ) ;
#349 = PRESENTATION_LAYER_ASSIGNMENT (  '', '', ( #652 ) ) ;
#350 = CARTESIAN_POINT ( 'NONE',  ( -27.50000000000000000, 0.0000000000000000000, 0.0000000000000000000 ) ) ;
#351 = VERTEX_POINT ( 'NONE', #843 ) ;
#352 = FACE_OUTER_BOUND ( 'NONE', #733, .T. ) ;
#353 = CARTESIAN_POINT ( 'NONE',  ( 27.14837703496669974, -2.020725942163690725, 3.500000000000000444 ) ) ;
#354 = ORIENTED_EDGE ( 'NONE', *, *, #684, .F. ) ;
#355 = LINE ( 'NONE', #31, #572 ) ;
#356 = FACE_OUTER_BOUND ( 'NONE', #341, .T. ) ;
#357 = EDGE_CURVE ( 'NONE', #293, #86, #312, .T. ) ;
#358 = DIRECTION ( 'NONE',  ( 0.0000000000000000000, 0.0000000000000000000, 1.000000000000000000 ) ) ;
#359 = LINE ( 'NONE', #166, #815 ) ;
#360 = ORIENTED_EDGE ( 'NONE', *, *, #200, .T. ) ;
#361 = CONICAL_SURFACE ( 'NONE', #840, 3.500000000000000000, 0.9948376736367700035 ) ;
#362 = AXIS2_PLACEMENT_3D ( 'NONE', #521, #452, #327 ) ;
#363 = CARTESIAN_POINT ( 'NONE',  ( -27.50000000000000000, 0.0000000000000000000, 0.0000000000000000000 ) ) ;
#364 = UNCERTAINTY_MEASURE_WITH_UNIT (LENGTH_MEASURE( 1.000000000000000082E-05 ), #512, 'distance_accuracy_value', 'NONE');
#365 = CARTESIAN_POINT ( 'NONE',  ( -27.14837703496669974, 4.041451884327381450, 3.459934453871075540E-16 ) ) ;
#366 = VERTEX_POINT ( 'NONE', #579 ) ;
#367 = LINE ( 'NONE', #643, #35 ) ;
#368 = EDGE_CURVE ( 'NONE', #696, #496, #809, .T. ) ;
#369 = LINE ( 'NONE', #825, #388 ) ;
#370 = ORIENTED_EDGE ( 'NONE', *, *, #779, .T. ) ;
#371 = CARTESIAN_POINT ( 'NONE',  ( -27.14837703496669974, -4.041451884327381450, 3.001283488714036810E-16 ) ) ;
#372 = CARTESIAN_POINT ( 'NONE',  ( -27.34419109652524682, -1.357188532772013234, -3.500000000000000888 ) ) ;
#373 = CARTESIAN_POINT ( 'NONE',  ( 27.50000000000000000, 4.041451884327381450, 5.329468550135005277E-17 ) ) ;
#374 = AXIS2_PLACEMENT_3D ( 'NONE', #281, #758, #433 ) ;
#375 = CARTESIAN_POINT ( 'NONE',  ( -27.34222474510946199, 1.365533549055716778, -3.499999999999999556 ) ) ;
#376 = CONICAL_SURFACE ( 'NONE', #486, 3.500000000000000000, 0.9948376736367700035 ) ;
#377 = SURFACE_STYLE_FILL_AREA ( #190 ) ;
#378 = CARTESIAN_POINT ( 'NONE',  ( 27.25484827432531176, 3.877500553186425059, -0.2839720355046868594 ) ) ;
#379 = EDGE_CURVE ( 'NONE', #492, #44, #76, .T. ) ;
#380 = DIRECTION ( 'NONE',  ( -1.000000000000000000, -0.0000000000000000000, -0.0000000000000000000 ) ) ;
#381 = DIRECTION ( 'NONE',  ( 0.0000000000000000000, 0.0000000000000000000, 1.000000000000000000 ) ) ;
#382 = CARTESIAN_POINT ( 'NONE',  ( -27.45918956571566127, 2.687413838814892486, 2.345262690208891332 ) ) ;
#383 = ORIENTED_EDGE ( 'NONE', *, *, #722, .T. ) ;
#384 = DIRECTION ( 'NONE',  ( 0.0000000000000000000, 0.0000000000000000000, -1.000000000000000000 ) ) ;
#385 = CARTESIAN_POINT ( 'NONE',  ( 27.50000000000000000, -1.502314598737158834E-15, 3.500000000000000000 ) ) ;
#386 = CONICAL_SURFACE ( 'NONE', #19, 3.500000000000000000, 0.9948376736367700035 ) ;
#387 = AXIS2_PLACEMENT_3D ( 'NONE', #45, #713, #315 ) ;
#388 = VECTOR ( 'NONE', #318, 1000.000000000000000 ) ;
#389 = SHAPE_DEFINITION_REPRESENTATION ( #331, #787 ) ;
#390 = CARTESIAN_POINT ( 'NONE',  ( 27.34222474510946554, 1.365533549055712559, 3.500000000000002665 ) ) ;
#391 = DIRECTION ( 'NONE',  ( 0.0000000000000000000, -1.000000000000000000, -3.219245568722481385E-16 ) ) ;
#392 = EDGE_CURVE ( 'NONE', #11, #619, #822, .T. ) ;
#393 = PLANE ( 'NONE',  #362 ) ;
#394 = CARTESIAN_POINT ( 'NONE',  ( -27.34311953412924012, -2.350349803825834805, -2.929074724214112635 ) ) ;
#395 = DIRECTION ( 'NONE',  ( 1.000000000000000000, 0.0000000000000000000, 0.0000000000000000000 ) ) ;
#396 = FACE_OUTER_BOUND ( 'NONE', #690, .T. ) ;
#397 = B_SPLINE_CURVE_WITH_KNOTS ( 'NONE', 3,
 ( #760, #116, #372, #311, #574, #782 ),
 .UNSPECIFIED., .F., .F.,
 ( 4, 2, 4 ),
 ( 0.003497586702809006749, 0.004524404004643395143, 0.005551221306477783536 ),
 .UNSPECIFIED. ) ;
#398 = DIRECTION ( 'NONE',  ( 0.0000000000000000000, 0.0000000000000000000, 1.000000000000000000 ) ) ;
#399 = B_SPLINE_CURVE_WITH_KNOTS ( 'NONE', 3,
 ( #90, #424, #698, #100 ),
 .UNSPECIFIED., .F., .F.,
 ( 4, 4 ),
 ( 2.398396654284733217E-07, 0.002051102802373376034 ),
 .UNSPECIFIED. ) ;
#400 = CIRCLE ( 'NONE', #527, 3.499999999999999556 ) ;
#401 = CIRCLE ( 'NONE', #634, 3.499999999999999556 ) ;
#402 = VERTEX_POINT ( 'NONE', #253 ) ;
#403 = CARTESIAN_POINT ( 'NONE',  ( 27.50000000000000000, -2.020725942163690725, -3.500000000000000444 ) ) ;
#404 = DIRECTION ( 'NONE',  ( 0.4999999999999967804, 1.060575238724909010E-16, 0.8660254037844404840 ) ) ;
#405 = ORIENTED_EDGE ( 'NONE', *, *, #621, .F. ) ;
#406 = CARTESIAN_POINT ( 'NONE',  ( -1020.172094380863882, 0.0000000000000000000, 0.0000000000000000000 ) ) ;
#407 = EDGE_LOOP ( 'NONE', ( #656, #99, #304, #186, #826, #628 ) ) ;
#408 = CARTESIAN_POINT ( 'NONE',  ( 27.50000000000000000, -2.020725942163690725, 3.500000000000000444 ) ) ;
#409 = VERTEX_POINT ( 'NONE', #834 ) ;
#410 = CARTESIAN_POINT ( 'NONE',  ( 21.50000000000000000, 0.0000000000000000000, 0.0000000000000000000 ) ) ;
#411 = ADVANCED_FACE ( 'NONE', ( #832, #569 ), #709, .T. ) ;
#412 = PRODUCT_DEFINITION ( '??', '', #799, #232 ) ;
#413 = VERTEX_POINT ( 'NONE', #771 ) ;
#414 = FACE_OUTER_BOUND ( 'NONE', #92, .T. ) ;
#415 = DIRECTION ( 'NONE',  ( -1.000000000000000000, 0.0000000000000000000, 0.0000000000000000000 ) ) ;
#416 = ORIENTED_EDGE ( 'NONE', *, *, #436, .F. ) ;
#417 = AXIS2_PLACEMENT_3D ( 'NONE', #735, #152, #398 ) ;
#418 = CARTESIAN_POINT ( 'NONE',  ( -27.50000000000002132, 2.685000714552784551, -2.349442344035841845 ) ) ;
#419 = CIRCLE ( 'NONE', #602, 2.300000000000005151 ) ;
#420 = PLANE ( 'NONE',  #501 ) ;
#421 = ORIENTED_EDGE ( 'NONE', *, *, #357, .T. ) ;
#422 = EDGE_CURVE ( 'NONE', #402, #351, #4, .T. ) ;
#423 = DIRECTION ( 'NONE',  ( 0.0000000000000000000, 0.0000000000000000000, -1.000000000000000000 ) ) ;
#424 = CARTESIAN_POINT ( 'NONE',  ( 27.36211517233571300, 2.349853811329229103, -2.929933808418409225 ) ) ;
#425 = CARTESIAN_POINT ( 'NONE',  ( -27.50000000000000000, 0.3421182720231609187, -3.499999999999999112 ) ) ;
#426 = DIRECTION ( 'NONE',  ( -1.000000000000000000, -0.0000000000000000000, -0.0000000000000000000 ) ) ;
#427 = ORIENTED_EDGE ( 'NONE', *, *, #112, .T. ) ;
#428 = FACE_OUTER_BOUND ( 'NONE', #487, .T. ) ;
#429 = ORIENTED_EDGE ( 'NONE', *, *, #513, .F. ) ;
#430 = SURFACE_STYLE_USAGE ( .BOTH. , #831 ) ;
#431 = ORIENTED_EDGE ( 'NONE', *, *, #547, .F. ) ;
#432 = CONICAL_SURFACE ( 'NONE', #107, 3.500000000000000000, 0.9948376736367700035 ) ;
#433 = DIRECTION ( 'NONE',  ( 0.0000000000000000000, 0.0000000000000000000, -1.000000000000000000 ) ) ;
#434 = ORIENTED_EDGE ( 'NONE', *, *, #672, .T. ) ;
#435 = DIRECTION ( 'NONE',  ( -1.000000000000000000, -0.0000000000000000000, -0.0000000000000000000 ) ) ;
#436 = EDGE_CURVE ( 'NONE', #52, #25, #181, .T. ) ;
#437 = CARTESIAN_POINT ( 'NONE',  ( 27.45918956571566127, -2.687413838814892486, -2.345262690208890444 ) ) ;
#438 = CARTESIAN_POINT ( 'NONE',  ( -27.36211517233571300, -2.349853811329227327, 2.929933808418410113 ) ) ;
#439 = EDGE_CURVE ( 'NONE', #823, #293, #715, .T. ) ;
#440 = DIRECTION ( 'NONE',  ( 1.000000000000000000, 0.0000000000000000000, 0.0000000000000000000 ) ) ;
#441 = CARTESIAN_POINT ( 'NONE',  ( 27.45918956571566127, 3.374763987676179244, -1.154737309791110222 ) ) ;
#442 = AXIS2_PLACEMENT_3D ( 'NONE', #493, #477, #40 ) ;
#443 = ORIENTED_EDGE ( 'NONE', *, *, #598, .F. ) ;
#444 = AXIS2_PLACEMENT_3D ( 'NONE', #610, #12, #274 ) ;
#445 = CARTESIAN_POINT ( 'NONE',  ( -8.996111243433677629, 2.816687638038912056E-16, -2.299999999999999822 ) ) ;
#446 = EDGE_CURVE ( 'NONE', #557, #535, #660, .T. ) ;
#447 = CARTESIAN_POINT ( 'NONE',  ( -27.50000000000000000, -3.031088913245535643, -1.749999999999999334 ) ) ;
#448 = CARTESIAN_POINT ( 'NONE',  ( -27.43522951109991226, 3.459508287370224533, -1.007955877069184103 ) ) ;
#449 = CARTESIAN_POINT ( 'NONE',  ( 27.50000000000000000, 0.0000000000000000000, 0.0000000000000000000 ) ) ;
#450 = ORIENTED_EDGE ( 'NONE', *, *, #779, .F. ) ;
#451 = CARTESIAN_POINT ( 'NONE',  ( 27.50000000000000000, 0.0000000000000000000, 0.0000000000000000000 ) ) ;
#452 = DIRECTION ( 'NONE',  ( 0.0000000000000000000, 0.8660254037844387076, -0.5000000000000000000 ) ) ;
#453 = DIRECTION ( 'NONE',  ( 1.000000000000000000, -0.0000000000000000000, 0.0000000000000000000 ) ) ;
#454 = EDGE_CURVE ( 'NONE', #22, #835, #367, .T. ) ;
#455 = AXIS2_PLACEMENT_3D ( 'NONE', #765, #440, #252 ) ;
#456 = DIRECTION ( 'NONE',  ( 0.0000000000000000000, 0.0000000000000000000, 1.000000000000000000 ) ) ;
#457 = CARTESIAN_POINT ( 'NONE',  ( -27.14837703496669974, 4.041451884327381450, 3.459934453871075540E-16 ) ) ;
#458 =( NAMED_UNIT ( * ) PLANE_ANGLE_UNIT ( ) SI_UNIT ( $, .RADIAN. ) );
#459 = CARTESIAN_POINT ( 'NONE',  ( 27.50000000000003197, -3.117113328677525441, 1.601001341780383003 ) ) ;
#460 = CARTESIAN_POINT ( 'NONE',  ( -27.25484827432531176, -2.184677273304648892, -3.216027964495313807 ) ) ;
#461 = ORIENTED_EDGE ( 'NONE', *, *, #379, .F. ) ;
#462 =( LENGTH_UNIT ( ) NAMED_UNIT ( * ) SI_UNIT ( .MILLI., .METRE. ) );
#463 = CARTESIAN_POINT ( 'NONE',  ( -27.50000000000000000, 0.0000000000000000000, 0.0000000000000000000 ) ) ;
#464 = APPLICATION_CONTEXT ( 'automotive_design' ) ;
#465 = VERTEX_POINT ( 'NONE', #767 ) ;
#466 = DIRECTION ( 'NONE',  ( -0.0000000000000000000, 0.8660254037844387076, 0.4999999999999998890 ) ) ;
#467 = AXIS2_PLACEMENT_3D ( 'NONE', #479, #469, #162 ) ;
#468 = ORIENTED_EDGE ( 'NONE', *, *, #504, .T. ) ;
#469 = DIRECTION ( 'NONE',  ( -1.000000000000000000, -0.0000000000000000000, -0.0000000000000000000 ) ) ;
#470 = ORIENTED_EDGE ( 'NONE', *, *, #795, .T. ) ;
#471 = EDGE_CURVE ( 'NONE', #44, #492, #188, .T. ) ;
#472 = DIRECTION ( 'NONE',  ( 0.0000000000000000000, 0.0000000000000000000, -1.000000000000000000 ) ) ;
#473 = EDGE_CURVE ( 'NONE', #557, #343, #764, .T. ) ;
#474 = EDGE_LOOP ( 'NONE', ( #95, #370, #685, #345 ) ) ;
#475 = CARTESIAN_POINT ( 'NONE',  ( -27.45918956571566127, -3.374763987676178800, 1.154737309791110222 ) ) ;
#476 = EDGE_LOOP ( 'NONE', ( #615, #544, #236 ) ) ;
#477 = DIRECTION ( 'NONE',  ( 1.000000000000000000, 0.0000000000000000000, 0.0000000000000000000 ) ) ;
#478 = ORIENTED_EDGE ( 'NONE', *, *, #532, .F. ) ;
#479 = CARTESIAN_POINT ( 'NONE',  ( -8.996111243433677629, 0.0000000000000000000, 0.0000000000000000000 ) ) ;
#480 = DIRECTION ( 'NONE',  ( 0.0000000000000000000, 0.0000000000000000000, -1.000000000000000000 ) ) ;
#481 = ADVANCED_FACE ( 'NONE', ( #396 ), #618, .T. ) ;
#482 = EDGE_LOOP ( 'NONE', ( #804, #156, #254, #176, #731, #624 ) ) ;
#483 = B_SPLINE_CURVE_WITH_KNOTS ( 'NONE', 3,
 ( #385, #663, #65, #325, #77, #671 ),
 .UNSPECIFIED., .F., .F.,
 ( 4, 2, 4 ),
 ( 0.01068076541035680241, 0.01170981716101532691, 0.01273886891167384967 ),
 .UNSPECIFIED. ) ;
#484 = AXIS2_PLACEMENT_3D ( 'NONE', #363, #638, #173 ) ;
#485 = CARTESIAN_POINT ( 'NONE',  ( -27.14837703496669974, -2.020725942163690725, -3.500000000000000444 ) ) ;
#486 = AXIS2_PLACEMENT_3D ( 'NONE', #805, #555, #625 ) ;
#487 = EDGE_LOOP ( 'NONE', ( #750, #145, #244 ) ) ;
#488 = CIRCLE ( 'NONE', #332, 3.499999999999999556 ) ;
#489 = DIRECTION ( 'NONE',  ( 0.0000000000000000000, 0.0000000000000000000, -1.000000000000000000 ) ) ;
#490 = EDGE_LOOP ( 'NONE', ( #161, #174, #150 ) ) ;
#491 = CARTESIAN_POINT ( 'NONE',  ( 27.50000000000000000, -0.3426227448410753551, -3.499999999999999556 ) ) ;
#492 = VERTEX_POINT ( 'NONE', #784 ) ;
#493 = CARTESIAN_POINT ( 'NONE',  ( -27.50000000000000000, 0.0000000000000000000, 0.0000000000000000000 ) ) ;
#494 = CARTESIAN_POINT ( 'NONE',  ( -20.17209438086386797, 1.890565121316736838E-33, -1.543763575451323432E-17 ) ) ;
#495 = CARTESIAN_POINT ( 'NONE',  ( 27.50000000000000000, -3.031088913245535643, -1.749999999999999334 ) ) ;
#496 = VERTEX_POINT ( 'NONE', #73 ) ;
#497 = ADVANCED_FACE ( 'NONE', ( #206 ), #515, .F. ) ;
#498 = CYLINDRICAL_SURFACE ( 'NONE', #601, 2.299999999999999822 ) ;
#499 = DIRECTION ( 'NONE',  ( 1.000000000000000000, -0.0000000000000000000, 0.0000000000000000000 ) ) ;
#500 = ORIENTED_EDGE ( 'NONE', *, *, #392, .T. ) ;
#501 = AXIS2_PLACEMENT_3D ( 'NONE', #350, #177, #616 ) ;
#502 = CONICAL_SURFACE ( 'NONE', #133, 3.500000000000000000, 0.9948376736367700035 ) ;
#503 = DIRECTION ( 'NONE',  ( -1.000000000000000000, -0.0000000000000000000, -0.0000000000000000000 ) ) ;
#504 = EDGE_CURVE ( 'NONE', #535, #343, #833, .T. ) ;
#505 = CARTESIAN_POINT ( 'NONE',  ( -27.50000000000002487, 3.377177111938290288, 1.150557655964158821 ) ) ;
#506 = CARTESIAN_POINT ( 'NONE',  ( -27.43522951109991226, 2.602669539120849418, 2.492044122930817451 ) ) ;
#507 = B_SPLINE_CURVE_WITH_KNOTS ( 'NONE', 3,
 ( #168, #425, #56, #375, #316, #37 ),
 .UNSPECIFIED., .F., .F.,
 ( 4, 2, 4 ),
 ( 0.005551221306477783536, 0.006576526737236647671, 0.007601832167995511806 ),
 .UNSPECIFIED. ) ;
#508 = CARTESIAN_POINT ( 'NONE',  ( 27.46581126851000221, 0.6901315937921722599, -3.500000000000000000 ) ) ;
#509 = DIRECTION ( 'NONE',  ( 0.0000000000000000000, 0.0000000000000000000, 1.000000000000000000 ) ) ;
#510 = ORIENTED_EDGE ( 'NONE', *, *, #112, .F. ) ;
#511 = EDGE_CURVE ( 'NONE', #11, #228, #49, .T. ) ;
#512 =( LENGTH_UNIT ( ) NAMED_UNIT ( * ) SI_UNIT ( .MILLI., .METRE. ) );
#513 = EDGE_CURVE ( 'NONE', #288, #772, #302, .T. ) ;
#514 = CARTESIAN_POINT ( 'NONE',  ( -27.14837703496669974, 2.020725942163690725, 3.500000000000002220 ) ) ;
#515 = CONICAL_SURFACE ( 'NONE', #798, 1732.050807568891287, 1.047197551196601184 ) ;
#516 = ORIENTED_EDGE ( 'NONE', *, *, #357, .F. ) ;
#517 = B_SPLINE_CURVE_WITH_KNOTS ( 'NONE', 3,
 ( #18, #541, #219, #475, #743, #686, #89, #347 ),
 .UNSPECIFIED., .F., .F.,
 ( 4, 2, 2, 4 ),
 ( 0.002051102802373377769, 0.002560869642631048108, 0.003070636482888718446, 0.004090170163404061726 ),
 .UNSPECIFIED. ) ;
#518 = CARTESIAN_POINT ( 'NONE',  ( 27.43522951109991226, 2.602669539120849418, 2.492044122930817451 ) ) ;
#519 = ORIENTED_EDGE ( 'NONE', *, *, #471, .F. ) ;
#520 = FACE_OUTER_BOUND ( 'NONE', #275, .T. ) ;
#521 = CARTESIAN_POINT ( 'NONE',  ( 27.50000000000000000, -2.020725942163690725, 3.500000000000000444 ) ) ;
#522 = EDGE_CURVE ( 'NONE', #413, #228, #662, .T. ) ;
#523 = FACE_OUTER_BOUND ( 'NONE', #335, .T. ) ;
#524 = SURFACE_SIDE_STYLE ('',( #603 ) ) ;
#525 = CARTESIAN_POINT ( 'NONE',  ( -27.50000000000000000, 0.0000000000000000000, 0.0000000000000000000 ) ) ;
#526 = CARTESIAN_POINT ( 'NONE',  ( -27.50000000000000000, 0.0000000000000000000, 0.0000000000000000000 ) ) ;
#527 = AXIS2_PLACEMENT_3D ( 'NONE', #783, #453, #9 ) ;
#528 = VECTOR ( 'NONE', #404, 1000.000000000000114 ) ;
#529 = CARTESIAN_POINT ( 'NONE',  ( -27.46581126850998800, 0.6901315937921670418, 3.500000000000001776 ) ) ;
#530 = ORIENTED_EDGE ( 'NONE', *, *, #814, .T. ) ;
#531 = CARTESIAN_POINT ( 'NONE',  ( 27.14837703496669974, -2.020725942163690725, 3.500000000000000444 ) ) ;
#532 = EDGE_CURVE ( 'NONE', #409, #794, #64, .T. ) ;
#533 = CARTESIAN_POINT ( 'NONE',  ( 27.46581126850998800, 0.6901315937921670418, 3.500000000000001776 ) ) ;
#534 = DIRECTION ( 'NONE',  ( -1.000000000000000000, -0.0000000000000000000, -0.0000000000000000000 ) ) ;
#535 = VERTEX_POINT ( 'NONE', #70 ) ;
#536 = CARTESIAN_POINT ( 'NONE',  ( 27.50000000000000000, 3.031088913245535643, 1.749999999999999334 ) ) ;
#537 = DIRECTION ( 'NONE',  ( 0.0000000000000000000, -0.8660254037844387076, -0.4999999999999999445 ) ) ;
#538 = CLOSED_SHELL ( 'NONE', ( #728, #10, #317, #497, #411, #222, #93, #171, #836, #66, #141, #568, #184, #209, #298, #697, #234, #210, #607, #340, #561, #57, #481, #290, #153, #106, #639, #111 ) ) ;
#539 = AXIS2_PLACEMENT_3D ( 'NONE', #38, #94, #549 ) ;
#540 = ORIENTED_EDGE ( 'NONE', *, *, #576, .T. ) ;
#541 = CARTESIAN_POINT ( 'NONE',  ( -27.50000000000002132, -3.117113328677524997, 1.601001341780382337 ) ) ;
#542 = ORIENTED_EDGE ( 'NONE', *, *, #664, .F. ) ;
#543 = FACE_OUTER_BOUND ( 'NONE', #13, .T. ) ;
#544 = ORIENTED_EDGE ( 'NONE', *, *, #814, .F. ) ;
#545 = CARTESIAN_POINT ( 'NONE',  ( 27.50000000000000000, 2.020725942163690725, 3.500000000000002220 ) ) ;
#546 = DIRECTION ( 'NONE',  ( -1.000000000000000000, 0.0000000000000000000, 0.0000000000000000000 ) ) ;
#547 = EDGE_CURVE ( 'NONE', #351, #402, #266, .T. ) ;
#548 = ORIENTED_EDGE ( 'NONE', *, *, #741, .T. ) ;
#549 = DIRECTION ( 'NONE',  ( 0.0000000000000000000, 0.0000000000000000000, 1.000000000000000000 ) ) ;
#550 = ORIENTED_EDGE ( 'NONE', *, *, #649, .T. ) ;
#551 = FACE_OUTER_BOUND ( 'NONE', #476, .T. ) ;
#552 = UNCERTAINTY_MEASURE_WITH_UNIT (LENGTH_MEASURE( 1.000000000000000082E-05 ), #7, 'distance_accuracy_value', 'NONE');
#553 = ORIENTED_EDGE ( 'NONE', *, *, #504, .F. ) ;
#554 = AXIS2_PLACEMENT_3D ( 'NONE', #217, #537, #1 ) ;
#555 = DIRECTION ( 'NONE',  ( 1.000000000000000000, 0.0000000000000000000, 0.0000000000000000000 ) ) ;
#556 = AXIS2_PLACEMENT_3D ( 'NONE', #449, #651, #59 ) ;
#557 = VERTEX_POINT ( 'NONE', #536 ) ;
#558 = CARTESIAN_POINT ( 'NONE',  ( 27.50000000000000000, 0.0000000000000000000, 0.0000000000000000000 ) ) ;
#559 = B_SPLINE_CURVE_WITH_KNOTS ( 'NONE', 3,
 ( #199, #847, #725, #135, #69, #269 ),
 .UNSPECIFIED., .F., .F.,
 ( 4, 2, 4 ),
 ( 0.01068076541035680241, 0.01170981716101532691, 0.01273886891167384967 ),
 .UNSPECIFIED. ) ;
#560 = ORIENTED_EDGE ( 'NONE', *, *, #768, .T. ) ;
#561 = ADVANCED_FACE ( 'NONE', ( #262 ), #294, .T. ) ;
#562 = CARTESIAN_POINT ( 'NONE',  ( -27.14837703496669974, -2.020725942163690725, 3.500000000000000444 ) ) ;
#563 = ORIENTED_EDGE ( 'NONE', *, *, #439, .T. ) ;
#564 = FACE_OUTER_BOUND ( 'NONE', #474, .T. ) ;
#565 = EDGE_CURVE ( 'NONE', #25, #496, #230, .T. ) ;
#566 = CARTESIAN_POINT ( 'NONE',  ( -27.36211517233571300, 3.712324015161846180, 0.5700661915815912195 ) ) ;
#567 = ORIENTED_EDGE ( 'NONE', *, *, #827, .T. ) ;
#568 = ADVANCED_FACE ( 'NONE', ( #203 ), #393, .F. ) ;
#569 = FACE_BOUND ( 'NONE', #844, .T. ) ;
#570 = LINE ( 'NONE', #445, #36 ) ;
#571 = ORIENTED_EDGE ( 'NONE', *, *, #513, .T. ) ;
#572 = VECTOR ( 'NONE', #756, 1000.000000000000114 ) ;
#573 = CARTESIAN_POINT ( 'NONE',  ( 27.50000000000000000, 3.031088913245535643, 1.749999999999999334 ) ) ;
#574 = CARTESIAN_POINT ( 'NONE',  ( -27.50000000000000000, -0.3426227448410753551, -3.499999999999999556 ) ) ;
#575 = CARTESIAN_POINT ( 'NONE',  ( -27.34311953412924012, 2.350349803825834805, 2.929074724214114411 ) ) ;
#576 = EDGE_CURVE ( 'NONE', #619, #465, #588, .T. ) ;
#577 = ORIENTED_EDGE ( 'NONE', *, *, #718, .T. ) ;
#578 = CARTESIAN_POINT ( 'NONE',  ( 27.49159873270999555, -2.858369331288497683, -2.049159091411647093 ) ) ;
#579 = CARTESIAN_POINT ( 'NONE',  ( 27.49999999999999645, 0.0000000000000000000, 2.300000000000002487 ) ) ;
#580 = DIRECTION ( 'NONE',  ( -0.4999999999999970024, 1.060575238724909010E-16, -0.8660254037844403729 ) ) ;
#581 = CARTESIAN_POINT ( 'NONE',  ( 27.14837703496669974, -4.041451884327381450, 5.317764985451298394E-16 ) ) ;
#582 = CARTESIAN_POINT ( 'NONE',  ( -21.50000000000000000, 0.0000000000000000000, 0.0000000000000000000 ) ) ;
#583 = VECTOR ( 'NONE', #748, 1000.000000000000000 ) ;
#584 = CIRCLE ( 'NONE', #310, 3.499999999999999556 ) ;
#585 = CARTESIAN_POINT ( 'NONE',  ( -27.45918956571566127, 3.374763987676179244, -1.154737309791110222 ) ) ;
#586 = EDGE_CURVE ( 'NONE', #535, #619, #235, .T. ) ;
#587 = PRODUCT_CONTEXT ( 'NONE', #464, 'mechanical' ) ;
#588 = B_SPLINE_CURVE_WITH_KNOTS ( 'NONE', 3,
 ( #596, #2, #268, #529, #788, #278 ),
 .UNSPECIFIED., .F., .F.,
 ( 4, 2, 4 ),
 ( 0.008625692231131631971, 0.009653228820744217190, 0.01068076541035680241 ),
 .UNSPECIFIED. ) ;
#589 = DIRECTION ( 'NONE',  ( 0.0000000000000000000, 0.0000000000000000000, -1.000000000000000000 ) ) ;
#590 = FACE_OUTER_BOUND ( 'NONE', #808, .T. ) ;
#591 = B_SPLINE_CURVE_WITH_KNOTS ( 'NONE', 3,
 ( #705, #20, #819, #229 ),
 .UNSPECIFIED., .F., .F.,
 ( 4, 4 ),
 ( 2.398396654282204294E-07, 0.002051102802373377335 ),
 .UNSPECIFIED. ) ;
#592 = SURFACE_STYLE_USAGE ( .BOTH. , #524 ) ;
#593 = DIRECTION ( 'NONE',  ( -1.000000000000000000, -0.0000000000000000000, -0.0000000000000000000 ) ) ;
#594 = DIRECTION ( 'NONE',  ( 0.0000000000000000000, 0.0000000000000000000, -1.000000000000000000 ) ) ;
#595 = DIRECTION ( 'NONE',  ( 1.000000000000000000, -0.0000000000000000000, 0.0000000000000000000 ) ) ;
#596 = CARTESIAN_POINT ( 'NONE',  ( -27.14837703496669974, 2.020725942163690725, 3.500000000000002220 ) ) ;
#597 = FACE_OUTER_BOUND ( 'NONE', #687, .T. ) ;
#598 = EDGE_CURVE ( 'NONE', #766, #228, #763, .T. ) ;
#599 = CONICAL_SURFACE ( 'NONE', #374, 3.500000000000000000, 0.9948376736367700035 ) ;
#600 = B_SPLINE_CURVE_WITH_KNOTS ( 'NONE', 3,
 ( #365, #566, #505, #43 ),
 .UNSPECIFIED., .F., .F.,
 ( 4, 4 ),
 ( 2.398396654284559575E-07, 0.002051102802373377769 ),
 .UNSPECIFIED. ) ;
#601 = AXIS2_PLACEMENT_3D ( 'NONE', #160, #344, #754 ) ;
#602 = AXIS2_PLACEMENT_3D ( 'NONE', #314, #50, #381 ) ;
#603 = SURFACE_STYLE_FILL_AREA ( #72 ) ;
#604 = CARTESIAN_POINT ( 'NONE',  ( -1020.172094380863882, 0.0000000000000000000, 0.0000000000000000000 ) ) ;
#605 = ORIENTED_EDGE ( 'NONE', *, *, #179, .F. ) ;
#606 = CARTESIAN_POINT ( 'NONE',  ( -27.14837703496669974, -2.020725942163690725, -3.500000000000000444 ) ) ;
#607 = ADVANCED_FACE ( 'NONE', ( #817 ), #376, .T. ) ;
#608 = PRODUCT_RELATED_PRODUCT_CATEGORY ( 'part', '', ( #172 ) ) ;
#609 = ORIENTED_EDGE ( 'NONE', *, *, #511, .T. ) ;
#610 = CARTESIAN_POINT ( 'NONE',  ( -21.50000000000000000, 0.0000000000000000000, 0.0000000000000000000 ) ) ;
#611 = VERTEX_POINT ( 'NONE', #485 ) ;
#612 = CARTESIAN_POINT ( 'NONE',  ( -27.50000000000000000, -3.031088913245535643, -1.749999999999999334 ) ) ;
#613 = ORIENTED_EDGE ( 'NONE', *, *, #16, .F. ) ;
#614 = DIRECTION ( 'NONE',  ( -1.000000000000000000, 0.0000000000000000000, 0.0000000000000000000 ) ) ;
#615 = ORIENTED_EDGE ( 'NONE', *, *, #346, .F. ) ;
#616 = DIRECTION ( 'NONE',  ( 0.0000000000000000000, 0.0000000000000000000, -1.000000000000000000 ) ) ;
#617 = VECTOR ( 'NONE', #688, 1000.000000000000000 ) ;
#618 = CONICAL_SURFACE ( 'NONE', #321, 3.500000000000000000, 0.9948376736367700035 ) ;
#619 = VERTEX_POINT ( 'NONE', #287 ) ;
#620 = PRESENTATION_LAYER_ASSIGNMENT (  '', '', ( #689 ) ) ;
#621 = EDGE_CURVE ( 'NONE', #338, #781, #678, .T. ) ;
#622 = CARTESIAN_POINT ( 'NONE',  ( 27.50000000000000000, 1.126735949052868337E-15, -3.500000000000000000 ) ) ;
#623 = DIRECTION ( 'NONE',  ( 0.0000000000000000000, 0.0000000000000000000, -1.000000000000000000 ) ) ;
#624 = ORIENTED_EDGE ( 'NONE', *, *, #296, .F. ) ;
#625 = DIRECTION ( 'NONE',  ( 0.0000000000000000000, 0.0000000000000000000, -1.000000000000000000 ) ) ;
#626 = ORIENTED_EDGE ( 'NONE', *, *, #239, .F. ) ;
#627 = CARTESIAN_POINT ( 'NONE',  ( 27.50000000000000000, -3.031088913245536531, 1.750000000000000444 ) ) ;
#628 = ORIENTED_EDGE ( 'NONE', *, *, #664, .T. ) ;
#629 = DIRECTION ( 'NONE',  ( 0.0000000000000000000, 0.0000000000000000000, -1.000000000000000000 ) ) ;
#630 = ORIENTED_EDGE ( 'NONE', *, *, #42, .F. ) ;
#631 = FACE_OUTER_BOUND ( 'NONE', #806, .T. ) ;
#632 = EDGE_CURVE ( 'NONE', #101, #351, #359, .T. ) ;
#633 = ORIENTED_EDGE ( 'NONE', *, *, #565, .T. ) ;
#634 = AXIS2_PLACEMENT_3D ( 'NONE', #695, #810, #629 ) ;
#635 = DIRECTION ( 'NONE',  ( 0.0000000000000000000, 0.0000000000000000000, 1.000000000000000000 ) ) ;
#636 =( GEOMETRIC_REPRESENTATION_CONTEXT ( 3 ) GLOBAL_UNCERTAINTY_ASSIGNED_CONTEXT ( ( #41 ) ) GLOBAL_UNIT_ASSIGNED_CONTEXT ( ( #462, #458, #67 ) ) REPRESENTATION_CONTEXT ( 'NONE', 'WORKASPACE' ) );
#637 = ORIENTED_EDGE ( 'NONE', *, *, #195, .F. ) ;
#638 = DIRECTION ( 'NONE',  ( -1.000000000000000000, 0.0000000000000000000, -0.0000000000000000000 ) ) ;
#639 = ADVANCED_FACE ( 'NONE', ( #352 ), #801, .F. ) ;
#640 = EDGE_CURVE ( 'NONE', #78, #696, #102, .T. ) ;
#641 = CARTESIAN_POINT ( 'NONE',  ( 27.50000000000002487, -2.945064497813548066, -1.898998658219617219 ) ) ;
#642 = ORIENTED_EDGE ( 'NONE', *, *, #239, .T. ) ;
#643 = CARTESIAN_POINT ( 'NONE',  ( -8.996111243433677629, 2.816687638038916986E-16, -2.300000000000003819 ) ) ;
#644 = CARTESIAN_POINT ( 'NONE',  ( 27.50000000000000000, 0.0000000000000000000, 0.0000000000000000000 ) ) ;
#645 = EDGE_LOOP ( 'NONE', ( #706, #443, #613 ) ) ;
#646 = DIRECTION ( 'NONE',  ( -1.000000000000000000, -0.0000000000000000000, -0.0000000000000000000 ) ) ;
#647 = FACE_OUTER_BOUND ( 'NONE', #282, .T. ) ;
#648 = CIRCLE ( 'NONE', #3, 3.499999999999999556 ) ;
#649 = EDGE_CURVE ( 'NONE', #409, #835, #355, .T. ) ;
#650 = AXIS2_PLACEMENT_3D ( 'NONE', #463, #80, #848 ) ;
#651 = DIRECTION ( 'NONE',  ( 1.000000000000000000, -0.0000000000000000000, 0.0000000000000000000 ) ) ;
#652 = STYLED_ITEM ( 'NONE', ( #265 ), #787 ) ;
#653 = ORIENTED_EDGE ( 'NONE', *, *, #702, .F. ) ;
#654 =( NAMED_UNIT ( * ) PLANE_ANGLE_UNIT ( ) SI_UNIT ( $, .RADIAN. ) );
#655 = CARTESIAN_POINT ( 'NONE',  ( 27.49159873270999555, 2.858369331288498127, 2.049159091411647982 ) ) ;
#656 = ORIENTED_EDGE ( 'NONE', *, *, #83, .T. ) ;
#657 = CARTESIAN_POINT ( 'NONE',  ( -27.50000000000000000, 0.0000000000000000000, 0.0000000000000000000 ) ) ;
#658 = CARTESIAN_POINT ( 'NONE',  ( 27.49999999999999645, 2.816687638038916000E-16, -2.300000000000002487 ) ) ;
#659 = EDGE_CURVE ( 'NONE', #794, #835, #776, .T. ) ;
#660 = B_SPLINE_CURVE_WITH_KNOTS ( 'NONE', 3,
 ( #573, #257, #655, #55, #518, #780, #194, #110 ),
 .UNSPECIFIED., .F., .F.,
 ( 4, 2, 2, 4 ),
 ( 0.002051102802373377769, 0.002560869642631048541, 0.003070636482888719314, 0.004090170163404063461 ),
 .UNSPECIFIED. ) ;
#661 = CARTESIAN_POINT ( 'NONE',  ( -27.50000000000000000, 0.0000000000000000000, 0.0000000000000000000 ) ) ;
#662 = CIRCLE ( 'NONE', #189, 3.500000000000000000 ) ;
#663 = CARTESIAN_POINT ( 'NONE',  ( 27.49999999999999289, -0.3426227448410786858, 3.500000000000001776 ) ) ;
#664 = EDGE_CURVE ( 'NONE', #288, #800, #401, .T. ) ;
#665 = DIRECTION ( 'NONE',  ( 1.000000000000000000, -0.0000000000000000000, 0.0000000000000000000 ) ) ;
#666 = FACE_OUTER_BOUND ( 'NONE', #273, .T. ) ;
#667 = CARTESIAN_POINT ( 'NONE',  ( 27.43522951109990871, -3.459508287370221868, 1.007955877069184103 ) ) ;
#668 = DIRECTION ( 'NONE',  ( 0.0000000000000000000, -0.4999999999999998890, 0.8660254037844387076 ) ) ;
#669 = CARTESIAN_POINT ( 'NONE',  ( 27.25394174179385232, 1.695615155246689598, 3.500000000000002665 ) ) ;
#670 = EDGE_CURVE ( 'NONE', #22, #366, #256, .T. ) ;
#671 = CARTESIAN_POINT ( 'NONE',  ( 27.14837703496669974, -2.020725942163690725, 3.500000000000000444 ) ) ;
#672 = EDGE_CURVE ( 'NONE', #366, #22, #279, .T. ) ;
#673 = VECTOR ( 'NONE', #292, 1000.000000000000000 ) ;
#674 = VECTOR ( 'NONE', #79, 1000.000000000000000 ) ;
#675 = ORIENTED_EDGE ( 'NONE', *, *, #659, .T. ) ;
#676 = LINE ( 'NONE', #403, #674 ) ;
#677 = CARTESIAN_POINT ( 'NONE',  ( 27.50000000000000000, 0.0000000000000000000, 0.0000000000000000000 ) ) ;
#678 = B_SPLINE_CURVE_WITH_KNOTS ( 'NONE', 3,
 ( #700, #23, #283, #224, #491, #821 ),
 .UNSPECIFIED., .F., .F.,
 ( 4, 2, 4 ),
 ( 0.003497586702809006749, 0.004524404004643395143, 0.005551221306477783536 ),
 .UNSPECIFIED. ) ;
#679 = CARTESIAN_POINT ( 'NONE',  ( 27.50000000000000000, -2.020725942163690725, -3.500000000000000444 ) ) ;
#680 = B_SPLINE_CURVE_WITH_KNOTS ( 'NONE', 3,
 ( #612, #82, #326, #204, #727, #394, #460, #606 ),
 .UNSPECIFIED., .F., .F.,
 ( 4, 2, 2, 4 ),
 ( 0.002051102802373377335, 0.002560869642631047674, 0.003070636482888718446, 0.004090170163404061726 ),
 .UNSPECIFIED. ) ;
#681 = ORIENTED_EDGE ( 'NONE', *, *, #346, .T. ) ;
#682 = CARTESIAN_POINT ( 'NONE',  ( 27.50000000000002487, 3.377177111938290288, 1.150557655964158821 ) ) ;
#683 = FACE_OUTER_BOUND ( 'NONE', #158, .T. ) ;
#684 = EDGE_CURVE ( 'NONE', #293, #557, #127, .T. ) ;
#685 = ORIENTED_EDGE ( 'NONE', *, *, #379, .T. ) ;
#686 = CARTESIAN_POINT ( 'NONE',  ( -27.34311953412924368, -3.711828022665238702, 0.5709252757858875871 ) ) ;
#687 = EDGE_LOOP ( 'NONE', ( #421, #577, #500, #820, #170, #354 ) ) ;
#688 = DIRECTION ( 'NONE',  ( -1.000000000000000000, -0.0000000000000000000, -0.0000000000000000000 ) ) ;
#689 = STYLED_ITEM ( 'NONE', ( #243 ), #744 ) ;
#690 = EDGE_LOOP ( 'NONE', ( #653, #212, #416 ) ) ;
#691 =( GEOMETRIC_REPRESENTATION_CONTEXT ( 3 ) GLOBAL_UNCERTAINTY_ASSIGNED_CONTEXT ( ( #364 ) ) GLOBAL_UNIT_ASSIGNED_CONTEXT ( ( #512, #654, #53 ) ) REPRESENTATION_CONTEXT ( 'NONE', 'WORKASPACE' ) );
#692 = DIRECTION ( 'NONE',  ( 0.0000000000000000000, 0.0000000000000000000, 1.000000000000000000 ) ) ;
#693 = DIRECTION ( 'NONE',  ( 0.0000000000000000000, 0.0000000000000000000, -1.000000000000000000 ) ) ;
#694 = ORIENTED_EDGE ( 'NONE', *, *, #841, .F. ) ;
#695 = CARTESIAN_POINT ( 'NONE',  ( 27.50000000000000000, 0.0000000000000000000, 0.0000000000000000000 ) ) ;
#696 = VERTEX_POINT ( 'NONE', #562 ) ;
#697 = ADVANCED_FACE ( 'NONE', ( #414 ), #502, .T. ) ;
#698 = CARTESIAN_POINT ( 'NONE',  ( 27.50000000000002132, 2.685000714552784551, -2.349442344035841845 ) ) ;
#699 = FACE_OUTER_BOUND ( 'NONE', #721, .T. ) ;
#700 = CARTESIAN_POINT ( 'NONE',  ( 27.14837703496669974, -2.020725942163690725, -3.500000000000000444 ) ) ;
#701 = DIRECTION ( 'NONE',  ( 1.000000000000000000, 0.0000000000000000000, 0.0000000000000000000 ) ) ;
#702 = EDGE_CURVE ( 'NONE', #496, #52, #517, .T. ) ;
#703 = AXIS2_PLACEMENT_3D ( 'NONE', #707, #125, #509 ) ;
#704 = COLOUR_RGB ( '',0.4980392156862745168, 0.4980392156862745168, 0.4980392156862745168 ) ;
#705 = CARTESIAN_POINT ( 'NONE',  ( 27.14837703496669974, -4.041451884327381450, 5.317764985451298394E-16 ) ) ;
#706 = ORIENTED_EDGE ( 'NONE', *, *, #522, .T. ) ;
#707 = CARTESIAN_POINT ( 'NONE',  ( -27.50000000000000000, 0.0000000000000000000, 0.0000000000000000000 ) ) ;
#708 = CARTESIAN_POINT ( 'NONE',  ( 27.14837703496669974, -2.020725942163690725, -3.500000000000000444 ) ) ;
#709 = PLANE ( 'NONE',  #556 ) ;
#710 = CYLINDRICAL_SURFACE ( 'NONE', #829, 2.300000000000003819 ) ;
#711 = CARTESIAN_POINT ( 'NONE',  ( 27.50000000000000000, 0.3421182720231609187, -3.499999999999999112 ) ) ;
#712 = AXIS2_PLACEMENT_3D ( 'NONE', #180, #593, #456 ) ;
#713 = DIRECTION ( 'NONE',  ( 1.000000000000000000, 0.0000000000000000000, 0.0000000000000000000 ) ) ;
#714 = ORIENTED_EDGE ( 'NONE', *, *, #131, .T. ) ;
#715 = B_SPLINE_CURVE_WITH_KNOTS ( 'NONE', 3,
 ( #717, #185, #122, #441, #248, #117, #378, #245 ),
 .UNSPECIFIED., .F., .F.,
 ( 4, 2, 2, 4 ),
 ( 0.002051102802373376034, 0.002560869642631046373, 0.003070636482888716712, 0.004090170163404059991 ),
 .UNSPECIFIED. ) ;
#716 = CARTESIAN_POINT ( 'NONE',  ( 27.50000000000000000, 1.126735949052868337E-15, -3.500000000000000000 ) ) ;
#717 = CARTESIAN_POINT ( 'NONE',  ( 27.50000000000000000, 3.031088913245535643, -1.749999999999999112 ) ) ;
#718 = EDGE_CURVE ( 'NONE', #86, #11, #600, .T. ) ;
#719 = CARTESIAN_POINT ( 'NONE',  ( -27.50000000000000000, 3.031088913245535643, -1.749999999999999112 ) ) ;
#720 = CARTESIAN_POINT ( 'NONE',  ( 0.0000000000000000000, 0.0000000000000000000, 0.0000000000000000000 ) ) ;
#721 = EDGE_LOOP ( 'NONE', ( #241, #84, #560, #220 ) ) ;
#722 = EDGE_CURVE ( 'NONE', #781, #32, #54, .T. ) ;
#723 = DIRECTION ( 'NONE',  ( 0.0000000000000000000, -0.4999999999999997780, -0.8660254037844388186 ) ) ;
#724 = DIRECTION ( 'NONE',  ( -1.000000000000000000, -0.0000000000000000000, -0.0000000000000000000 ) ) ;
#725 = CARTESIAN_POINT ( 'NONE',  ( -27.46677445468353795, -0.6824088029959948232, 3.500000000000000888 ) ) ;
#726 = DIRECTION ( 'NONE',  ( 1.000000000000000000, 0.0000000000000000000, 0.0000000000000000000 ) ) ;
#727 = CARTESIAN_POINT ( 'NONE',  ( -27.43522951109991226, -2.602669539120849418, -2.492044122930815675 ) ) ;
#728 = ADVANCED_FACE ( 'NONE', ( #647 ), #348, .F. ) ;
#729 = CARTESIAN_POINT ( 'NONE',  ( -27.50000000000000000, 0.0000000000000000000, 0.0000000000000000000 ) ) ;
#730 = CARTESIAN_POINT ( 'NONE',  ( -27.50000000000000000, 0.0000000000000000000, 2.299999999999999822 ) ) ;
#731 = ORIENTED_EDGE ( 'NONE', *, *, #795, .F. ) ;
#732 = CARTESIAN_POINT ( 'NONE',  ( 27.25484827432530821, -3.877500553186424170, 0.2839720355046875255 ) ) ;
#733 = EDGE_LOOP ( 'NONE', ( #746, #251, #548, #675 ) ) ;
#734 = AXIS2_PLACEMENT_3D ( 'NONE', #679, #339, #391 ) ;
#735 = CARTESIAN_POINT ( 'NONE',  ( -8.996111243433677629, 0.0000000000000000000, 0.0000000000000000000 ) ) ;
#736 = APPLICATION_CONTEXT ( 'automotive_design' ) ;
#737 = EDGE_LOOP ( 'NONE', ( #383, #103, #81 ) ) ;
#738 = DIRECTION ( 'NONE',  ( -1.000000000000000000, -0.0000000000000000000, -0.0000000000000000000 ) ) ;
#739 = ORIENTED_EDGE ( 'NONE', *, *, #471, .T. ) ;
#740 = DIRECTION ( 'NONE',  ( -1.000000000000000000, 0.0000000000000000000, -0.0000000000000000000 ) ) ;
#741 = EDGE_CURVE ( 'NONE', #366, #794, #182, .T. ) ;
#742 = EDGE_LOOP ( 'NONE', ( #567, #530, #97, #307, #47, #405 ) ) ;
#743 = CARTESIAN_POINT ( 'NONE',  ( -27.43522951109991226, -3.459508287370223645, 1.007955877069183881 ) ) ;
#744 = MANIFOLD_SOLID_BREP ( '??-??1', #538 ) ;
#745 = DIRECTION ( 'NONE',  ( -1.000000000000000000, 0.0000000000000000000, 0.0000000000000000000 ) ) ;
#746 = ORIENTED_EDGE ( 'NONE', *, *, #454, .F. ) ;
#747 = CARTESIAN_POINT ( 'NONE',  ( -27.36211517233571300, 2.349853811329229103, -2.929933808418409225 ) ) ;
#748 = DIRECTION ( 'NONE',  ( -1.000000000000000000, -0.0000000000000000000, -0.0000000000000000000 ) ) ;
#749 = CONICAL_SURFACE ( 'NONE', #132, 3.500000000000000000, 0.9948376736367700035 ) ;
#750 = ORIENTED_EDGE ( 'NONE', *, *, #42, .T. ) ;
#751 = EDGE_CURVE ( 'NONE', #351, #44, #369, .T. ) ;
#752 = CARTESIAN_POINT ( 'NONE',  ( -27.14837703496669974, 2.020725942163693389, -3.499999999999999112 ) ) ;
#753 = ORIENTED_EDGE ( 'NONE', *, *, #511, .F. ) ;
#754 = DIRECTION ( 'NONE',  ( 0.0000000000000000000, 0.0000000000000000000, 1.000000000000000000 ) ) ;
#755 = ORIENTED_EDGE ( 'NONE', *, *, #632, .T. ) ;
#756 = DIRECTION ( 'NONE',  ( 0.4999999999999967804, 0.0000000000000000000, -0.8660254037844404840 ) ) ;
#757 = ORIENTED_EDGE ( 'NONE', *, *, #439, .F. ) ;
#758 = DIRECTION ( 'NONE',  ( -1.000000000000000000, 0.0000000000000000000, 0.0000000000000000000 ) ) ;
#759 = ORIENTED_EDGE ( 'NONE', *, *, #684, .T. ) ;
#760 = CARTESIAN_POINT ( 'NONE',  ( -27.14837703496669974, -2.020725942163690725, -3.500000000000000444 ) ) ;
#761 = ORIENTED_EDGE ( 'NONE', *, *, #29, .F. ) ;
#762 = CARTESIAN_POINT ( 'NONE',  ( 27.50000000000000000, -3.031088913245536531, 1.750000000000000444 ) ) ;
#763 = B_SPLINE_CURVE_WITH_KNOTS ( 'NONE', 3,
 ( #752, #747, #418, #26 ),
 .UNSPECIFIED., .F., .F.,
 ( 4, 4 ),
 ( 2.398396654284733217E-07, 0.002051102802373376034 ),
 .UNSPECIFIED. ) ;
#764 = CIRCLE ( 'NONE', #330, 3.499999999999999556 ) ;
#765 = CARTESIAN_POINT ( 'NONE',  ( 21.50000000000000000, 0.0000000000000000000, 0.0000000000000000000 ) ) ;
#766 = VERTEX_POINT ( 'NONE', #108 ) ;
#767 = CARTESIAN_POINT ( 'NONE',  ( -27.50000000000000000, -1.502314598737158834E-15, 3.500000000000000000 ) ) ;
#768 = EDGE_CURVE ( 'NONE', #835, #794, #419, .T. ) ;
#769 = CARTESIAN_POINT ( 'NONE',  ( 27.50000000000000000, -1.502314598737158834E-15, 3.500000000000000000 ) ) ;
#770 = FILL_AREA_STYLE_COLOUR ( '', #202 ) ;
#771 = CARTESIAN_POINT ( 'NONE',  ( -27.50000000000000000, 1.126735949052868337E-15, -3.500000000000000000 ) ) ;
#772 = VERTEX_POINT ( 'NONE', #581 ) ;
#773 = VECTOR ( 'NONE', #580, 1000.000000000000000 ) ;
#774 = EDGE_CURVE ( 'NONE', #343, #288, #267, .T. ) ;
#775 = CARTESIAN_POINT ( 'NONE',  ( 27.34222474510946199, 1.365533549055716778, -3.499999999999999556 ) ) ;
#776 = CIRCLE ( 'NONE', #842, 2.300000000000005151 ) ;
#777 = DIRECTION ( 'NONE',  ( 0.0000000000000000000, 0.0000000000000000000, 1.000000000000000000 ) ) ;
#778 = ORIENTED_EDGE ( 'NONE', *, *, #532, .T. ) ;
#779 = EDGE_CURVE ( 'NONE', #402, #492, #570, .T. ) ;
#780 = CARTESIAN_POINT ( 'NONE',  ( 27.34311953412924012, 2.350349803825834805, 2.929074724214114411 ) ) ;
#781 = VERTEX_POINT ( 'NONE', #716 ) ;
#782 = CARTESIAN_POINT ( 'NONE',  ( -27.50000000000000000, 1.126735949052868337E-15, -3.500000000000000000 ) ) ;
#783 = CARTESIAN_POINT ( 'NONE',  ( 27.50000000000000000, 0.0000000000000000000, 0.0000000000000000000 ) ) ;
#784 = CARTESIAN_POINT ( 'NONE',  ( -27.50000000000000000, 2.816687638038912056E-16, -2.299999999999999822 ) ) ;
#785 = VECTOR ( 'NONE', #169, 1000.000000000000000 ) ;
#786 = CARTESIAN_POINT ( 'NONE',  ( 27.50000000000000000, 2.020725942163690725, 3.500000000000002220 ) ) ;
#787 = ADVANCED_BREP_SHAPE_REPRESENTATION ( '1750005656757', ( #744, #6 ), #636 ) ;
#788 = CARTESIAN_POINT ( 'NONE',  ( -27.50000000000000000, 0.3421182720231563112, 3.500000000000001776 ) ) ;
#789 = DIRECTION ( 'NONE',  ( 1.000000000000000000, 0.0000000000000000000, 0.0000000000000000000 ) ) ;
#790 = CARTESIAN_POINT ( 'NONE',  ( 21.50000000000000000, 2.816687638038918959E-16, -2.300000000000005596 ) ) ;
#791 = CARTESIAN_POINT ( 'NONE',  ( 27.50000000000000000, -3.031088913245536531, 1.750000000000000444 ) ) ;
#792 = EDGE_LOOP ( 'NONE', ( #233, #542, #571 ) ) ;
#793 = FACE_OUTER_BOUND ( 'NONE', #742, .T. ) ;
#794 = VERTEX_POINT ( 'NONE', #249 ) ;
#795 = EDGE_CURVE ( 'NONE', #800, #338, #138, .T. ) ;
#796 = CARTESIAN_POINT ( 'NONE',  ( -27.50000000000000000, 0.0000000000000000000, 0.0000000000000000000 ) ) ;
#797 = CARTESIAN_POINT ( 'NONE',  ( 27.50000000000000000, -4.041451884327381450, 3.001283488714036810E-16 ) ) ;
#798 = AXIS2_PLACEMENT_3D ( 'NONE', #604, #724, #142 ) ;
#799 = PRODUCT_DEFINITION_FORMATION_WITH_SPECIFIED_SOURCE ( '??', '', #172, .NOT_KNOWN. ) ;
#800 = VERTEX_POINT ( 'NONE', #495 ) ;
#801 = CYLINDRICAL_SURFACE ( 'NONE', #467, 2.300000000000003819 ) ;
#802 = ORIENTED_EDGE ( 'NONE', *, *, #718, .F. ) ;
#803 = LINE ( 'NONE', #225, #583 ) ;
#804 = ORIENTED_EDGE ( 'NONE', *, *, #179, .T. ) ;
#805 = CARTESIAN_POINT ( 'NONE',  ( -27.50000000000000000, 0.0000000000000000000, 0.0000000000000000000 ) ) ;
#806 = EDGE_LOOP ( 'NONE', ( #470, #196, #27 ) ) ;
#807 = CARTESIAN_POINT ( 'NONE',  ( 27.50000000000002487, -2.685000714552782775, 2.349442344035841845 ) ) ;
#808 = EDGE_LOOP ( 'NONE', ( #143, #540, #714, #165, #630, #553 ) ) ;
#809 = B_SPLINE_CURVE_WITH_KNOTS ( 'NONE', 3,
 ( #838, #438, #191, #250 ),
 .UNSPECIFIED., .F., .F.,
 ( 4, 4 ),
 ( 2.398396654281023742E-07, 0.002051102802373377769 ),
 .UNSPECIFIED. ) ;
#810 = DIRECTION ( 'NONE',  ( 1.000000000000000000, -0.0000000000000000000, 0.0000000000000000000 ) ) ;
#811 = ORIENTED_EDGE ( 'NONE', *, *, #446, .T. ) ;
#812 = CARTESIAN_POINT ( 'NONE',  ( 27.14837703496669974, 4.041451884327381450, 3.459934453871075540E-16 ) ) ;
#813 = AXIS2_PLACEMENT_3D ( 'NONE', #526, #14, #594 ) ;
#814 = EDGE_CURVE ( 'NONE', #611, #413, #397, .T. ) ;
#815 = VECTOR ( 'NONE', #159, 1000.000000000000000 ) ;
#816 = ORIENTED_EDGE ( 'NONE', *, *, #323, .F. ) ;
#817 = FACE_OUTER_BOUND ( 'NONE', #645, .T. ) ;
#818 = ORIENTED_EDGE ( 'NONE', *, *, #649, .F. ) ;
#819 = CARTESIAN_POINT ( 'NONE',  ( 27.50000000000002487, -3.377177111938289844, -1.150557655964157933 ) ) ;
#820 = ORIENTED_EDGE ( 'NONE', *, *, #586, .F. ) ;
#821 = CARTESIAN_POINT ( 'NONE',  ( 27.50000000000000000, 1.126735949052868337E-15, -3.500000000000000000 ) ) ;
#822 = B_SPLINE_CURVE_WITH_KNOTS ( 'NONE', 3,
 ( #51, #319, #48, #382, #506, #575, #305, #514 ),
 .UNSPECIFIED., .F., .F.,
 ( 4, 2, 2, 4 ),
 ( 0.002051102802373377769, 0.002560869642631048541, 0.003070636482888719314, 0.004090170163404063461 ),
 .UNSPECIFIED. ) ;
#823 = VERTEX_POINT ( 'NONE', #845 ) ;
#824 = CARTESIAN_POINT ( 'NONE',  ( -27.50000000000000000, 3.031088913245535643, -1.749999999999999112 ) ) ;
#825 = CARTESIAN_POINT ( 'NONE',  ( -8.996111243433677629, 0.0000000000000000000, 2.299999999999999822 ) ) ;
#826 = ORIENTED_EDGE ( 'NONE', *, *, #774, .T. ) ;
#827 = EDGE_CURVE ( 'NONE', #338, #611, #676, .T. ) ;
#828 = CARTESIAN_POINT ( 'NONE',  ( -27.50000000000002487, -3.377177111938289844, -1.150557655964157933 ) ) ;
#829 = AXIS2_PLACEMENT_3D ( 'NONE', #123, #380, #358 ) ;
#830 = VECTOR ( 'NONE', #121, 1000.000000000000000 ) ;
#831 = SURFACE_SIDE_STYLE ('',( #377 ) ) ;
#832 = FACE_OUTER_BOUND ( 'NONE', #407, .T. ) ;
#833 = B_SPLINE_CURVE_WITH_KNOTS ( 'NONE', 3,
 ( #270, #669, #390, #533, #68, #134 ),
 .UNSPECIFIED., .F., .F.,
 ( 4, 2, 4 ),
 ( 0.008625692231131631971, 0.009653228820744217190, 0.01068076541035680241 ),
 .UNSPECIFIED. ) ;
#834 = CARTESIAN_POINT ( 'NONE',  ( 20.17209438086386797, 4.956175798879162731E-15, 0.0000000000000000000 ) ) ;
#835 = VERTEX_POINT ( 'NONE', #790 ) ;
#836 = ADVANCED_FACE ( 'NONE', ( #520 ), #136, .F. ) ;
#837 = CARTESIAN_POINT ( 'NONE',  ( 27.43522951109991226, -2.602669539120849418, -2.492044122930815675 ) ) ;
#838 = CARTESIAN_POINT ( 'NONE',  ( -27.14837703496669974, -2.020725942163690725, 3.500000000000000444 ) ) ;
#839 = CARTESIAN_POINT ( 'NONE',  ( -27.50000000000001066, 3.117113328677525885, -1.601001341780382337 ) ) ;
#840 = AXIS2_PLACEMENT_3D ( 'NONE', #284, #546, #623 ) ;
#841 = EDGE_CURVE ( 'NONE', #823, #557, #488, .T. ) ;
#842 = AXIS2_PLACEMENT_3D ( 'NONE', #299, #738, #635 ) ;
#843 = CARTESIAN_POINT ( 'NONE',  ( -21.50000000000000000, 0.0000000000000000000, 2.299999999999999822 ) ) ;
#844 = EDGE_LOOP ( 'NONE', ( #434, #216 ) ) ;
#845 = CARTESIAN_POINT ( 'NONE',  ( 27.50000000000000000, 3.031088913245535643, -1.749999999999999112 ) ) ;
#846 = DIRECTION ( 'NONE',  ( 0.0000000000000000000, 0.0000000000000000000, -1.000000000000000000 ) ) ;
#847 = CARTESIAN_POINT ( 'NONE',  ( -27.49999999999999289, -0.3426227448410786858, 3.500000000000001776 ) ) ;
#848 = DIRECTION ( 'NONE',  ( 0.0000000000000000000, 3.552713678800500929E-15, -1.000000000000000000 ) ) ;
ENDSEC;
END-ISO-10303-21;
