ISO-10303-21;
HEADER;
FILE_DESCRIPTION(('FreeCAD Model'),'2;1');
FILE_NAME('Open CASCADE Shape Model','2025-09-17T16:07:52',(''),(''),
  'Open CASCADE STEP processor 7.8','FreeCAD','Unknown');
FILE_SCHEMA(('AUTOMOTIVE_DESIGN { 1 0 10303 214 1 1 1 1 }'));
ENDSEC;
DATA;
#1 = APPLICATION_PROTOCOL_DEFINITION('international standard',
  'automotive_design',2000,#2);
#2 = APPLICATION_CONTEXT(
  'core data for automotive mechanical design processes');
#3 = SHAPE_DEFINITION_REPRESENTATION(#4,#10);
#4 = PRODUCT_DEFINITION_SHAPE('','',#5);
#5 = PRODUCT_DEFINITION('design','',#6,#9);
#6 = PRODUCT_DEFINITION_FORMATION('','',#7);
#7 = PRODUCT('Body','Body','',(#8));
#8 = PRODUCT_CONTEXT('',#2,'mechanical');
#9 = PRODUCT_DEFINITION_CONTEXT('part definition',#2,'design');
#10 = ADVANCED_BREP_SHAPE_REPRESENTATION('',(#11,#15),#1997);
#11 = AXIS2_PLACEMENT_3D('',#12,#13,#14);
#12 = CARTESIAN_POINT('',(0.,0.,0.));
#13 = DIRECTION('',(0.,0.,1.));
#14 = DIRECTION('',(1.,0.,-0.));
#15 = MANIFOLD_SOLID_BREP('',#16);
#16 = CLOSED_SHELL('',(#17,#79,#110,#141,#172,#203,#228,#253,#269,#285,
    #418,#460,#476,#507,#523,#656,#681,#706,#723,#740,#771,#795,#819,
    #850,#874,#907,#932,#956,#981,#1007,#1031,#1056,#1074,#1103,#1120,
    #1145,#1169,#1186,#1215,#1232,#1256,#1287,#1311,#1344,#1369,#1393,
    #1418,#1444,#1468,#1493,#1511,#1520,#1529,#1540,#1557,#1573,#1590,
    #1612,#1628,#1667,#1689,#1706,#1723,#1740,#1757,#1774,#1791,#1803,
    #1814,#1823,#1840,#1851,#1867,#1879,#1904,#1929,#1954,#1979,#1988));
#17 = ADVANCED_FACE('',(#18,#52,#63),#74,.T.);
#18 = FACE_BOUND('',#19,.T.);
#19 = EDGE_LOOP('',(#20,#30,#38,#46));
#20 = ORIENTED_EDGE('',*,*,#21,.F.);
#21 = EDGE_CURVE('',#22,#24,#26,.T.);
#22 = VERTEX_POINT('',#23);
#23 = CARTESIAN_POINT('',(74.5,-0.5,-20.));
#24 = VERTEX_POINT('',#25);
#25 = CARTESIAN_POINT('',(44.26,-0.5,-20.));
#26 = LINE('',#27,#28);
#27 = CARTESIAN_POINT('',(75.,-0.5,-20.));
#28 = VECTOR('',#29,1.);
#29 = DIRECTION('',(-1.,0.,0.));
#30 = ORIENTED_EDGE('',*,*,#31,.T.);
#31 = EDGE_CURVE('',#22,#32,#34,.T.);
#32 = VERTEX_POINT('',#33);
#33 = CARTESIAN_POINT('',(74.5,-24.9,-20.));
#34 = LINE('',#35,#36);
#35 = CARTESIAN_POINT('',(74.5,-4.440892098501E-15,-20.));
#36 = VECTOR('',#37,1.);
#37 = DIRECTION('',(0.,-1.,2.22044604925E-16));
#38 = ORIENTED_EDGE('',*,*,#39,.T.);
#39 = EDGE_CURVE('',#32,#40,#42,.T.);
#40 = VERTEX_POINT('',#41);
#41 = CARTESIAN_POINT('',(44.26,-24.9,-20.));
#42 = LINE('',#43,#44);
#43 = CARTESIAN_POINT('',(75.,-24.9,-20.));
#44 = VECTOR('',#45,1.);
#45 = DIRECTION('',(-1.,0.,0.));
#46 = ORIENTED_EDGE('',*,*,#47,.F.);
#47 = EDGE_CURVE('',#24,#40,#48,.T.);
#48 = LINE('',#49,#50);
#49 = CARTESIAN_POINT('',(44.26,-4.440892098501E-15,-20.));
#50 = VECTOR('',#51,1.);
#51 = DIRECTION('',(0.,-1.,2.22044604925E-16));
#52 = FACE_BOUND('',#53,.T.);
#53 = EDGE_LOOP('',(#54));
#54 = ORIENTED_EDGE('',*,*,#55,.F.);
#55 = EDGE_CURVE('',#56,#56,#58,.T.);
#56 = VERTEX_POINT('',#57);
#57 = CARTESIAN_POINT('',(53.41,-12.7,-20.));
#58 = CIRCLE('',#59,3.25);
#59 = AXIS2_PLACEMENT_3D('',#60,#61,#62);
#60 = CARTESIAN_POINT('',(50.16,-12.7,-20.));
#61 = DIRECTION('',(0.,-2.22044604925E-16,-1.));
#62 = DIRECTION('',(1.,2.868585109895E-31,-6.369538474204E-47));
#63 = FACE_BOUND('',#64,.T.);
#64 = EDGE_LOOP('',(#65));
#65 = ORIENTED_EDGE('',*,*,#66,.F.);
#66 = EDGE_CURVE('',#67,#67,#69,.T.);
#67 = VERTEX_POINT('',#68);
#68 = CARTESIAN_POINT('',(72.41,-12.7,-20.));
#69 = CIRCLE('',#70,3.25);
#70 = AXIS2_PLACEMENT_3D('',#71,#72,#73);
#71 = CARTESIAN_POINT('',(69.16,-12.7,-20.));
#72 = DIRECTION('',(0.,-2.22044604925E-16,-1.));
#73 = DIRECTION('',(1.,2.868585109895E-31,-6.369538474204E-47));
#74 = PLANE('',#75);
#75 = AXIS2_PLACEMENT_3D('',#76,#77,#78);
#76 = CARTESIAN_POINT('',(75.,-4.440892098501E-15,-20.));
#77 = DIRECTION('',(-0.,-2.22044604925E-16,-1.));
#78 = DIRECTION('',(-1.,0.,0.));
#79 = ADVANCED_FACE('',(#80),#105,.T.);
#80 = FACE_BOUND('',#81,.T.);
#81 = EDGE_LOOP('',(#82,#83,#91,#99));
#82 = ORIENTED_EDGE('',*,*,#21,.T.);
#83 = ORIENTED_EDGE('',*,*,#84,.F.);
#84 = EDGE_CURVE('',#85,#24,#87,.T.);
#85 = VERTEX_POINT('',#86);
#86 = CARTESIAN_POINT('',(44.26,-6.079173290515E-15,-19.5));
#87 = LINE('',#88,#89);
#88 = CARTESIAN_POINT('',(44.26,-0.25,-19.75));
#89 = VECTOR('',#90,1.);
#90 = DIRECTION('',(-3.172888432533E-15,-0.707106781187,-0.707106781187)
  );
#91 = ORIENTED_EDGE('',*,*,#92,.F.);
#92 = EDGE_CURVE('',#93,#85,#95,.T.);
#93 = VERTEX_POINT('',#94);
#94 = CARTESIAN_POINT('',(74.5,-8.630965596935E-15,-19.5));
#95 = LINE('',#96,#97);
#96 = CARTESIAN_POINT('',(75.,-4.329869796038E-15,-19.5));
#97 = VECTOR('',#98,1.);
#98 = DIRECTION('',(-1.,0.,0.));
#99 = ORIENTED_EDGE('',*,*,#100,.T.);
#100 = EDGE_CURVE('',#93,#22,#101,.T.);
#101 = LINE('',#102,#103);
#102 = CARTESIAN_POINT('',(74.5,-0.25,-19.75));
#103 = VECTOR('',#104,1.);
#104 = DIRECTION('',(-1.336459067037E-14,-0.707106781187,-0.707106781187
    ));
#105 = PLANE('',#106);
#106 = AXIS2_PLACEMENT_3D('',#107,#108,#109);
#107 = CARTESIAN_POINT('',(75.,-0.25,-19.75));
#108 = DIRECTION('',(0.,0.707106781187,-0.707106781187));
#109 = DIRECTION('',(-1.,0.,0.));
#110 = ADVANCED_FACE('',(#111),#136,.T.);
#111 = FACE_BOUND('',#112,.F.);
#112 = EDGE_LOOP('',(#113,#121,#122,#130));
#113 = ORIENTED_EDGE('',*,*,#114,.T.);
#114 = EDGE_CURVE('',#115,#22,#117,.T.);
#115 = VERTEX_POINT('',#116);
#116 = CARTESIAN_POINT('',(75.,-0.5,-19.5));
#117 = LINE('',#118,#119);
#118 = CARTESIAN_POINT('',(74.875,-0.5,-19.625));
#119 = VECTOR('',#120,1.);
#120 = DIRECTION('',(-0.707106781187,1.336459067037E-14,-0.707106781187)
  );
#121 = ORIENTED_EDGE('',*,*,#31,.T.);
#122 = ORIENTED_EDGE('',*,*,#123,.F.);
#123 = EDGE_CURVE('',#124,#32,#126,.T.);
#124 = VERTEX_POINT('',#125);
#125 = CARTESIAN_POINT('',(75.,-24.9,-19.5));
#126 = LINE('',#127,#128);
#127 = CARTESIAN_POINT('',(74.875,-24.9,-19.625));
#128 = VECTOR('',#129,1.);
#129 = DIRECTION('',(-0.707106781187,-1.009555410351E-14,-0.707106781187
    ));
#130 = ORIENTED_EDGE('',*,*,#131,.F.);
#131 = EDGE_CURVE('',#115,#124,#132,.T.);
#132 = LINE('',#133,#134);
#133 = CARTESIAN_POINT('',(75.,-4.329869796038E-15,-19.5));
#134 = VECTOR('',#135,1.);
#135 = DIRECTION('',(0.,-1.,2.22044604925E-16));
#136 = PLANE('',#137);
#137 = AXIS2_PLACEMENT_3D('',#138,#139,#140);
#138 = CARTESIAN_POINT('',(74.75,-4.385380947269E-15,-19.75));
#139 = DIRECTION('',(0.707106781187,-2.504239023119E-16,-0.707106781187)
  );
#140 = DIRECTION('',(6.605413703345E-17,1.,-2.880987419585E-16));
#141 = ADVANCED_FACE('',(#142),#167,.T.);
#142 = FACE_BOUND('',#143,.T.);
#143 = EDGE_LOOP('',(#144,#152,#153,#161));
#144 = ORIENTED_EDGE('',*,*,#145,.T.);
#145 = EDGE_CURVE('',#146,#24,#148,.T.);
#146 = VERTEX_POINT('',#147);
#147 = CARTESIAN_POINT('',(43.76,-0.5,-19.5));
#148 = LINE('',#149,#150);
#149 = CARTESIAN_POINT('',(43.885,-0.5,-19.625));
#150 = VECTOR('',#151,1.);
#151 = DIRECTION('',(0.707106781187,-1.634518283426E-15,-0.707106781187)
  );
#152 = ORIENTED_EDGE('',*,*,#47,.T.);
#153 = ORIENTED_EDGE('',*,*,#154,.F.);
#154 = EDGE_CURVE('',#155,#40,#157,.T.);
#155 = VERTEX_POINT('',#156);
#156 = CARTESIAN_POINT('',(43.76,-24.9,-19.5));
#157 = LINE('',#158,#159);
#158 = CARTESIAN_POINT('',(43.885,-24.9,-19.625));
#159 = VECTOR('',#160,1.);
#160 = DIRECTION('',(0.707106781187,0.,-0.707106781187));
#161 = ORIENTED_EDGE('',*,*,#162,.F.);
#162 = EDGE_CURVE('',#146,#155,#163,.T.);
#163 = LINE('',#164,#165);
#164 = CARTESIAN_POINT('',(43.76,-4.329869796038E-15,-19.5));
#165 = VECTOR('',#166,1.);
#166 = DIRECTION('',(0.,-1.,2.22044604925E-16));
#167 = PLANE('',#168);
#168 = AXIS2_PLACEMENT_3D('',#169,#170,#171);
#169 = CARTESIAN_POINT('',(44.01,-4.385380947269E-15,-19.75));
#170 = DIRECTION('',(-0.707106781187,-2.504239023119E-16,-0.707106781187
    ));
#171 = DIRECTION('',(6.605413703345E-17,-1.,2.880987419585E-16));
#172 = ADVANCED_FACE('',(#173),#198,.F.);
#173 = FACE_BOUND('',#174,.F.);
#174 = EDGE_LOOP('',(#175,#176,#184,#192));
#175 = ORIENTED_EDGE('',*,*,#39,.T.);
#176 = ORIENTED_EDGE('',*,*,#177,.F.);
#177 = EDGE_CURVE('',#178,#40,#180,.T.);
#178 = VERTEX_POINT('',#179);
#179 = CARTESIAN_POINT('',(44.26,-25.4,-19.5));
#180 = LINE('',#181,#182);
#181 = CARTESIAN_POINT('',(44.26,-25.15,-19.75));
#182 = VECTOR('',#183,1.);
#183 = DIRECTION('',(-4.999702984597E-15,0.707106781187,-0.707106781187)
  );
#184 = ORIENTED_EDGE('',*,*,#185,.F.);
#185 = EDGE_CURVE('',#186,#178,#188,.T.);
#186 = VERTEX_POINT('',#187);
#187 = CARTESIAN_POINT('',(74.5,-25.4,-19.5));
#188 = LINE('',#189,#190);
#189 = CARTESIAN_POINT('',(75.,-25.4,-19.5));
#190 = VECTOR('',#191,1.);
#191 = DIRECTION('',(-1.,0.,0.));
#192 = ORIENTED_EDGE('',*,*,#193,.T.);
#193 = EDGE_CURVE('',#186,#32,#194,.T.);
#194 = LINE('',#195,#196);
#195 = CARTESIAN_POINT('',(74.5,-25.15,-19.75));
#196 = VECTOR('',#197,1.);
#197 = DIRECTION('',(4.999702984597E-15,0.707106781187,-0.707106781187)
  );
#198 = PLANE('',#199);
#199 = AXIS2_PLACEMENT_3D('',#200,#201,#202);
#200 = CARTESIAN_POINT('',(75.,-25.15,-19.75));
#201 = DIRECTION('',(0.,0.707106781187,0.707106781187));
#202 = DIRECTION('',(-1.,0.,0.));
#203 = ADVANCED_FACE('',(#204),#223,.F.);
#204 = FACE_BOUND('',#205,.T.);
#205 = EDGE_LOOP('',(#206,#214,#215,#216));
#206 = ORIENTED_EDGE('',*,*,#207,.F.);
#207 = EDGE_CURVE('',#56,#208,#210,.T.);
#208 = VERTEX_POINT('',#209);
#209 = CARTESIAN_POINT('',(52.91,-12.7,-19.5));
#210 = LINE('',#211,#212);
#211 = CARTESIAN_POINT('',(52.91,-12.7,-19.5));
#212 = VECTOR('',#213,1.);
#213 = DIRECTION('',(-0.707106781187,1.570092458684E-16,0.707106781187)
  );
#214 = ORIENTED_EDGE('',*,*,#55,.T.);
#215 = ORIENTED_EDGE('',*,*,#207,.T.);
#216 = ORIENTED_EDGE('',*,*,#217,.F.);
#217 = EDGE_CURVE('',#208,#208,#218,.T.);
#218 = CIRCLE('',#219,2.75);
#219 = AXIS2_PLACEMENT_3D('',#220,#221,#222);
#220 = CARTESIAN_POINT('',(50.16,-12.7,-19.5));
#221 = DIRECTION('',(0.,-2.22044604925E-16,-1.));
#222 = DIRECTION('',(1.,2.868585109895E-31,-6.369538474204E-47));
#223 = CONICAL_SURFACE('',#224,2.75,0.785398163397);
#224 = AXIS2_PLACEMENT_3D('',#225,#226,#227);
#225 = CARTESIAN_POINT('',(50.16,-12.7,-19.5));
#226 = DIRECTION('',(-0.,-2.22044604925E-16,-1.));
#227 = DIRECTION('',(1.,2.868585109895E-31,-6.369538474204E-47));
#228 = ADVANCED_FACE('',(#229),#248,.F.);
#229 = FACE_BOUND('',#230,.T.);
#230 = EDGE_LOOP('',(#231,#239,#240,#241));
#231 = ORIENTED_EDGE('',*,*,#232,.F.);
#232 = EDGE_CURVE('',#67,#233,#235,.T.);
#233 = VERTEX_POINT('',#234);
#234 = CARTESIAN_POINT('',(71.91,-12.7,-19.5));
#235 = LINE('',#236,#237);
#236 = CARTESIAN_POINT('',(71.91,-12.7,-19.5));
#237 = VECTOR('',#238,1.);
#238 = DIRECTION('',(-0.707106781187,1.570092458684E-16,0.707106781187)
  );
#239 = ORIENTED_EDGE('',*,*,#66,.T.);
#240 = ORIENTED_EDGE('',*,*,#232,.T.);
#241 = ORIENTED_EDGE('',*,*,#242,.F.);
#242 = EDGE_CURVE('',#233,#233,#243,.T.);
#243 = CIRCLE('',#244,2.75);
#244 = AXIS2_PLACEMENT_3D('',#245,#246,#247);
#245 = CARTESIAN_POINT('',(69.16,-12.7,-19.5));
#246 = DIRECTION('',(0.,-2.22044604925E-16,-1.));
#247 = DIRECTION('',(1.,2.868585109895E-31,-6.369538474204E-47));
#248 = CONICAL_SURFACE('',#249,2.75,0.785398163397);
#249 = AXIS2_PLACEMENT_3D('',#250,#251,#252);
#250 = CARTESIAN_POINT('',(69.16,-12.7,-19.5));
#251 = DIRECTION('',(-0.,-2.22044604925E-16,-1.));
#252 = DIRECTION('',(1.,2.868585109895E-31,-6.369538474204E-47));
#253 = ADVANCED_FACE('',(#254),#264,.T.);
#254 = FACE_BOUND('',#255,.T.);
#255 = EDGE_LOOP('',(#256,#262,#263));
#256 = ORIENTED_EDGE('',*,*,#257,.F.);
#257 = EDGE_CURVE('',#115,#93,#258,.T.);
#258 = LINE('',#259,#260);
#259 = CARTESIAN_POINT('',(74.875,-0.375,-19.5));
#260 = VECTOR('',#261,1.);
#261 = DIRECTION('',(-0.707106781187,0.707106781187,-2.692147760937E-14)
  );
#262 = ORIENTED_EDGE('',*,*,#114,.T.);
#263 = ORIENTED_EDGE('',*,*,#100,.F.);
#264 = PLANE('',#265);
#265 = AXIS2_PLACEMENT_3D('',#266,#267,#268);
#266 = CARTESIAN_POINT('',(75.,-0.5,-19.5));
#267 = DIRECTION('',(0.57735026919,0.57735026919,-0.57735026919));
#268 = DIRECTION('',(-2.012279232133E-14,-0.707106781187,-0.707106781187
    ));
#269 = ADVANCED_FACE('',(#270),#280,.F.);
#270 = FACE_BOUND('',#271,.F.);
#271 = EDGE_LOOP('',(#272,#278,#279));
#272 = ORIENTED_EDGE('',*,*,#273,.F.);
#273 = EDGE_CURVE('',#146,#85,#274,.T.);
#274 = LINE('',#275,#276);
#275 = CARTESIAN_POINT('',(43.885,-0.375,-19.5));
#276 = VECTOR('',#277,1.);
#277 = DIRECTION('',(0.707106781187,0.707106781187,4.615110447321E-15));
#278 = ORIENTED_EDGE('',*,*,#145,.T.);
#279 = ORIENTED_EDGE('',*,*,#84,.F.);
#280 = PLANE('',#281);
#281 = AXIS2_PLACEMENT_3D('',#282,#283,#284);
#282 = CARTESIAN_POINT('',(43.76,-0.5,-19.5));
#283 = DIRECTION('',(0.57735026919,-0.57735026919,0.57735026919));
#284 = DIRECTION('',(0.,-0.707106781187,-0.707106781187));
#285 = ADVANCED_FACE('',(#286,#343),#413,.T.);
#286 = FACE_BOUND('',#287,.T.);
#287 = EDGE_LOOP('',(#288,#289,#297,#305,#313,#321,#329,#337));
#288 = ORIENTED_EDGE('',*,*,#92,.T.);
#289 = ORIENTED_EDGE('',*,*,#290,.T.);
#290 = EDGE_CURVE('',#85,#291,#293,.T.);
#291 = VERTEX_POINT('',#292);
#292 = CARTESIAN_POINT('',(44.26,-7.105427357601E-15,-18.5));
#293 = LINE('',#294,#295);
#294 = CARTESIAN_POINT('',(44.26,-4.440892098501E-15,-20.));
#295 = VECTOR('',#296,1.);
#296 = DIRECTION('',(0.,2.22044604925E-16,1.));
#297 = ORIENTED_EDGE('',*,*,#298,.T.);
#298 = EDGE_CURVE('',#291,#299,#301,.T.);
#299 = VERTEX_POINT('',#300);
#300 = CARTESIAN_POINT('',(-74.5,-5.856426454898E-15,-18.5));
#301 = LINE('',#302,#303);
#302 = CARTESIAN_POINT('',(43.76,-4.107825191113E-15,-18.5));
#303 = VECTOR('',#304,1.);
#304 = DIRECTION('',(-1.,0.,0.));
#305 = ORIENTED_EDGE('',*,*,#306,.T.);
#306 = EDGE_CURVE('',#299,#307,#309,.T.);
#307 = VERTEX_POINT('',#308);
#308 = CARTESIAN_POINT('',(-74.5,2.541074556728E-15,19.5));
#309 = LINE('',#310,#311);
#310 = CARTESIAN_POINT('',(-74.5,-4.218847493576E-15,-19.));
#311 = VECTOR('',#312,1.);
#312 = DIRECTION('',(0.,2.22044604925E-16,1.));
#313 = ORIENTED_EDGE('',*,*,#314,.T.);
#314 = EDGE_CURVE('',#307,#315,#317,.T.);
#315 = VERTEX_POINT('',#316);
#316 = CARTESIAN_POINT('',(-41.15260596379,3.858025010572E-15,19.5));
#317 = LINE('',#318,#319);
#318 = CARTESIAN_POINT('',(-75.,4.329869796038E-15,19.5));
#319 = VECTOR('',#320,1.);
#320 = DIRECTION('',(1.,0.,0.));
#321 = ORIENTED_EDGE('',*,*,#322,.T.);
#322 = EDGE_CURVE('',#315,#323,#325,.T.);
#323 = VERTEX_POINT('',#324);
#324 = CARTESIAN_POINT('',(-39.66700596379,7.160938508832E-15,18.5));
#325 = LINE('',#326,#327);
#326 = CARTESIAN_POINT('',(-41.27920296503,4.348791565777E-15,
    19.585216075147));
#327 = VECTOR('',#328,1.);
#328 = DIRECTION('',(0.829567849707,-1.239910241294E-16,-0.558405930066)
  );
#329 = ORIENTED_EDGE('',*,*,#330,.T.);
#330 = EDGE_CURVE('',#323,#331,#333,.T.);
#331 = VERTEX_POINT('',#332);
#332 = CARTESIAN_POINT('',(74.5,4.857225732735E-16,18.5));
#333 = LINE('',#334,#335);
#334 = CARTESIAN_POINT('',(-39.5144,4.107825191113E-15,18.5));
#335 = VECTOR('',#336,1.);
#336 = DIRECTION('',(1.,0.,0.));
#337 = ORIENTED_EDGE('',*,*,#338,.T.);
#338 = EDGE_CURVE('',#331,#93,#339,.T.);
#339 = LINE('',#340,#341);
#340 = CARTESIAN_POINT('',(74.5,4.218847493576E-15,19.));
#341 = VECTOR('',#342,1.);
#342 = DIRECTION('',(0.,-2.22044604925E-16,-1.));
#343 = FACE_BOUND('',#344,.T.);
#344 = EDGE_LOOP('',(#345,#356,#364,#373,#381,#390,#398,#407));
#345 = ORIENTED_EDGE('',*,*,#346,.T.);
#346 = EDGE_CURVE('',#347,#349,#351,.T.);
#347 = VERTEX_POINT('',#348);
#348 = CARTESIAN_POINT('',(12.022774435591,-1.998401444325E-15,-9.));
#349 = VERTEX_POINT('',#350);
#350 = CARTESIAN_POINT('',(23.,-1.887379141863E-15,-8.500000011658));
#351 = CIRCLE('',#352,5.5);
#352 = AXIS2_PLACEMENT_3D('',#353,#354,#355);
#353 = CARTESIAN_POINT('',(17.5,-1.887379115977E-15,-8.49999988342));
#354 = DIRECTION('',(0.,-1.,2.22044604925E-16));
#355 = DIRECTION('',(-1.,-5.17719314677E-24,-2.331600512662E-08));
#356 = ORIENTED_EDGE('',*,*,#357,.T.);
#357 = EDGE_CURVE('',#349,#358,#360,.T.);
#358 = VERTEX_POINT('',#359);
#359 = CARTESIAN_POINT('',(23.,1.110223024625E-16,8.5));
#360 = LINE('',#361,#362);
#361 = CARTESIAN_POINT('',(23.,-1.887379141863E-15,-8.5));
#362 = VECTOR('',#363,1.);
#363 = DIRECTION('',(0.,2.22044604925E-16,1.));
#364 = ORIENTED_EDGE('',*,*,#365,.T.);
#365 = EDGE_CURVE('',#358,#366,#368,.T.);
#366 = VERTEX_POINT('',#367);
#367 = CARTESIAN_POINT('',(12.022774418629,1.998401444325E-15,9.));
#368 = CIRCLE('',#369,5.5);
#369 = AXIS2_PLACEMENT_3D('',#370,#371,#372);
#370 = CARTESIAN_POINT('',(17.5,1.887379157234E-15,8.500000069225));
#371 = DIRECTION('',(0.,-1.,2.22044604925E-16));
#372 = DIRECTION('',(1.,-3.074187082228E-24,-1.384490779799E-08));
#373 = ORIENTED_EDGE('',*,*,#374,.T.);
#374 = EDGE_CURVE('',#366,#375,#377,.T.);
#375 = VERTEX_POINT('',#376);
#376 = CARTESIAN_POINT('',(-12.02277442494,2.053912595557E-15,9.));
#377 = LINE('',#378,#379);
#378 = CARTESIAN_POINT('',(12.5,1.942890293094E-15,9.));
#379 = VECTOR('',#380,1.);
#380 = DIRECTION('',(-1.,0.,0.));
#381 = ORIENTED_EDGE('',*,*,#382,.T.);
#382 = EDGE_CURVE('',#375,#383,#385,.T.);
#383 = VERTEX_POINT('',#384);
#384 = CARTESIAN_POINT('',(-23.,1.887379141863E-15,8.5));
#385 = CIRCLE('',#386,5.5);
#386 = AXIS2_PLACEMENT_3D('',#387,#388,#389);
#387 = CARTESIAN_POINT('',(-17.5,1.887379141863E-15,8.5));
#388 = DIRECTION('',(0.,-1.,2.22044604925E-16));
#389 = DIRECTION('',(1.,-3.889384548663E-63,-1.751623080406E-47));
#390 = ORIENTED_EDGE('',*,*,#391,.T.);
#391 = EDGE_CURVE('',#383,#392,#394,.T.);
#392 = VERTEX_POINT('',#393);
#393 = CARTESIAN_POINT('',(-23.,-3.635980405647E-15,-8.5));
#394 = LINE('',#395,#396);
#395 = CARTESIAN_POINT('',(-23.,1.887379141863E-15,8.5));
#396 = VECTOR('',#397,1.);
#397 = DIRECTION('',(0.,-2.22044604925E-16,-1.));
#398 = ORIENTED_EDGE('',*,*,#399,.T.);
#399 = EDGE_CURVE('',#392,#400,#402,.T.);
#400 = VERTEX_POINT('',#401);
#401 = CARTESIAN_POINT('',(-12.02277442494,-1.998401444325E-15,-9.));
#402 = CIRCLE('',#403,5.5);
#403 = AXIS2_PLACEMENT_3D('',#404,#405,#406);
#404 = CARTESIAN_POINT('',(-17.5,-1.887379141866E-15,-8.500000000013));
#405 = DIRECTION('',(0.,-1.,2.22044604925E-16));
#406 = DIRECTION('',(-1.,5.874647161181E-28,2.645705876603E-12));
#407 = ORIENTED_EDGE('',*,*,#408,.T.);
#408 = EDGE_CURVE('',#400,#347,#409,.T.);
#409 = LINE('',#410,#411);
#410 = CARTESIAN_POINT('',(-12.5,-1.942890293094E-15,-9.));
#411 = VECTOR('',#412,1.);
#412 = DIRECTION('',(1.,0.,0.));
#413 = PLANE('',#414);
#414 = AXIS2_PLACEMENT_3D('',#415,#416,#417);
#415 = CARTESIAN_POINT('',(6.014276227409E-02,-4.262451126684E-18,
    -1.919637330582E-02));
#416 = DIRECTION('',(0.,1.,-2.22044604925E-16));
#417 = DIRECTION('',(0.,2.22044604925E-16,1.));
#418 = ADVANCED_FACE('',(#419,#444),#455,.T.);
#419 = FACE_BOUND('',#420,.T.);
#420 = EDGE_LOOP('',(#421,#429,#437,#443));
#421 = ORIENTED_EDGE('',*,*,#422,.F.);
#422 = EDGE_CURVE('',#423,#115,#425,.T.);
#423 = VERTEX_POINT('',#424);
#424 = CARTESIAN_POINT('',(75.,-0.5,18.5));
#425 = LINE('',#426,#427);
#426 = CARTESIAN_POINT('',(75.,-0.5,19.));
#427 = VECTOR('',#428,1.);
#428 = DIRECTION('',(0.,-2.22044604925E-16,-1.));
#429 = ORIENTED_EDGE('',*,*,#430,.T.);
#430 = EDGE_CURVE('',#423,#431,#433,.T.);
#431 = VERTEX_POINT('',#432);
#432 = CARTESIAN_POINT('',(75.,-24.9,18.5));
#433 = LINE('',#434,#435);
#434 = CARTESIAN_POINT('',(75.,4.107825191113E-15,18.5));
#435 = VECTOR('',#436,1.);
#436 = DIRECTION('',(0.,-1.,2.22044604925E-16));
#437 = ORIENTED_EDGE('',*,*,#438,.T.);
#438 = EDGE_CURVE('',#431,#124,#439,.T.);
#439 = LINE('',#440,#441);
#440 = CARTESIAN_POINT('',(75.,-24.9,19.));
#441 = VECTOR('',#442,1.);
#442 = DIRECTION('',(0.,-2.22044604925E-16,-1.));
#443 = ORIENTED_EDGE('',*,*,#131,.F.);
#444 = FACE_BOUND('',#445,.T.);
#445 = EDGE_LOOP('',(#446));
#446 = ORIENTED_EDGE('',*,*,#447,.F.);
#447 = EDGE_CURVE('',#448,#448,#450,.T.);
#448 = VERTEX_POINT('',#449);
#449 = CARTESIAN_POINT('',(75.,-9.2,-0.5));
#450 = CIRCLE('',#451,3.5);
#451 = AXIS2_PLACEMENT_3D('',#452,#453,#454);
#452 = CARTESIAN_POINT('',(75.,-12.7,-0.5));
#453 = DIRECTION('',(1.,0.,0.));
#454 = DIRECTION('',(0.,1.,0.));
#455 = PLANE('',#456);
#456 = AXIS2_PLACEMENT_3D('',#457,#458,#459);
#457 = CARTESIAN_POINT('',(75.,4.218847493576E-15,19.));
#458 = DIRECTION('',(1.,0.,0.));
#459 = DIRECTION('',(0.,-2.22044604925E-16,-1.));
#460 = ADVANCED_FACE('',(#461),#471,.F.);
#461 = FACE_BOUND('',#462,.F.);
#462 = EDGE_LOOP('',(#463,#469,#470));
#463 = ORIENTED_EDGE('',*,*,#464,.F.);
#464 = EDGE_CURVE('',#124,#186,#465,.T.);
#465 = LINE('',#466,#467);
#466 = CARTESIAN_POINT('',(74.875,-25.025,-19.5));
#467 = VECTOR('',#468,1.);
#468 = DIRECTION('',(-0.707106781187,-0.707106781187,-5.095851118916E-15
    ));
#469 = ORIENTED_EDGE('',*,*,#123,.T.);
#470 = ORIENTED_EDGE('',*,*,#193,.F.);
#471 = PLANE('',#472);
#472 = AXIS2_PLACEMENT_3D('',#473,#474,#475);
#473 = CARTESIAN_POINT('',(75.,-24.9,-19.5));
#474 = DIRECTION('',(-0.57735026919,0.57735026919,0.57735026919));
#475 = DIRECTION('',(0.,0.707106781187,-0.707106781187));
#476 = ADVANCED_FACE('',(#477),#502,.T.);
#477 = FACE_BOUND('',#478,.T.);
#478 = EDGE_LOOP('',(#479,#489,#495,#496));
#479 = ORIENTED_EDGE('',*,*,#480,.F.);
#480 = EDGE_CURVE('',#481,#483,#485,.T.);
#481 = VERTEX_POINT('',#482);
#482 = CARTESIAN_POINT('',(43.76,-0.5,-19.));
#483 = VERTEX_POINT('',#484);
#484 = CARTESIAN_POINT('',(43.76,-24.9,-19.));
#485 = LINE('',#486,#487);
#486 = CARTESIAN_POINT('',(43.76,-4.218847493576E-15,-19.));
#487 = VECTOR('',#488,1.);
#488 = DIRECTION('',(0.,-1.,2.22044604925E-16));
#489 = ORIENTED_EDGE('',*,*,#490,.F.);
#490 = EDGE_CURVE('',#146,#481,#491,.T.);
#491 = LINE('',#492,#493);
#492 = CARTESIAN_POINT('',(43.76,-0.5,-20.));
#493 = VECTOR('',#494,1.);
#494 = DIRECTION('',(0.,2.22044604925E-16,1.));
#495 = ORIENTED_EDGE('',*,*,#162,.T.);
#496 = ORIENTED_EDGE('',*,*,#497,.T.);
#497 = EDGE_CURVE('',#155,#483,#498,.T.);
#498 = LINE('',#499,#500);
#499 = CARTESIAN_POINT('',(43.76,-24.9,-20.));
#500 = VECTOR('',#501,1.);
#501 = DIRECTION('',(0.,2.22044604925E-16,1.));
#502 = PLANE('',#503);
#503 = AXIS2_PLACEMENT_3D('',#504,#505,#506);
#504 = CARTESIAN_POINT('',(43.76,-4.440892098501E-15,-20.));
#505 = DIRECTION('',(-1.,0.,0.));
#506 = DIRECTION('',(0.,2.22044604925E-16,1.));
#507 = ADVANCED_FACE('',(#508),#518,.T.);
#508 = FACE_BOUND('',#509,.T.);
#509 = EDGE_LOOP('',(#510,#516,#517));
#510 = ORIENTED_EDGE('',*,*,#511,.F.);
#511 = EDGE_CURVE('',#155,#178,#512,.T.);
#512 = LINE('',#513,#514);
#513 = CARTESIAN_POINT('',(43.885,-25.025,-19.5));
#514 = VECTOR('',#515,1.);
#515 = DIRECTION('',(0.707106781187,-0.707106781187,4.999702984597E-15)
  );
#516 = ORIENTED_EDGE('',*,*,#154,.T.);
#517 = ORIENTED_EDGE('',*,*,#177,.F.);
#518 = PLANE('',#519);
#519 = AXIS2_PLACEMENT_3D('',#520,#521,#522);
#520 = CARTESIAN_POINT('',(43.76,-24.9,-19.5));
#521 = DIRECTION('',(-0.57735026919,-0.57735026919,-0.57735026919));
#522 = DIRECTION('',(-5.551115123126E-17,0.707106781187,-0.707106781187)
  );
#523 = ADVANCED_FACE('',(#524,#581),#651,.F.);
#524 = FACE_BOUND('',#525,.F.);
#525 = EDGE_LOOP('',(#526,#527,#535,#543,#551,#559,#567,#575));
#526 = ORIENTED_EDGE('',*,*,#185,.T.);
#527 = ORIENTED_EDGE('',*,*,#528,.T.);
#528 = EDGE_CURVE('',#178,#529,#531,.T.);
#529 = VERTEX_POINT('',#530);
#530 = CARTESIAN_POINT('',(44.26,-25.4,-18.5));
#531 = LINE('',#532,#533);
#532 = CARTESIAN_POINT('',(44.26,-25.4,-20.));
#533 = VECTOR('',#534,1.);
#534 = DIRECTION('',(0.,2.22044604925E-16,1.));
#535 = ORIENTED_EDGE('',*,*,#536,.T.);
#536 = EDGE_CURVE('',#529,#537,#539,.T.);
#537 = VERTEX_POINT('',#538);
#538 = CARTESIAN_POINT('',(-74.5,-25.4,-18.5));
#539 = LINE('',#540,#541);
#540 = CARTESIAN_POINT('',(43.76,-25.4,-18.5));
#541 = VECTOR('',#542,1.);
#542 = DIRECTION('',(-1.,0.,0.));
#543 = ORIENTED_EDGE('',*,*,#544,.T.);
#544 = EDGE_CURVE('',#537,#545,#547,.T.);
#545 = VERTEX_POINT('',#546);
#546 = CARTESIAN_POINT('',(-74.5,-25.4,19.5));
#547 = LINE('',#548,#549);
#548 = CARTESIAN_POINT('',(-74.5,-25.4,-19.));
#549 = VECTOR('',#550,1.);
#550 = DIRECTION('',(0.,2.22044604925E-16,1.));
#551 = ORIENTED_EDGE('',*,*,#552,.T.);
#552 = EDGE_CURVE('',#545,#553,#555,.T.);
#553 = VERTEX_POINT('',#554);
#554 = CARTESIAN_POINT('',(-41.15260596379,-25.4,19.5));
#555 = LINE('',#556,#557);
#556 = CARTESIAN_POINT('',(-75.,-25.4,19.5));
#557 = VECTOR('',#558,1.);
#558 = DIRECTION('',(1.,0.,0.));
#559 = ORIENTED_EDGE('',*,*,#560,.T.);
#560 = EDGE_CURVE('',#553,#561,#563,.T.);
#561 = VERTEX_POINT('',#562);
#562 = CARTESIAN_POINT('',(-39.66700596379,-25.4,18.5));
#563 = LINE('',#564,#565);
#564 = CARTESIAN_POINT('',(-41.27920296503,-25.4,19.585216075147));
#565 = VECTOR('',#566,1.);
#566 = DIRECTION('',(0.829567849707,-1.239910241294E-16,-0.558405930066)
  );
#567 = ORIENTED_EDGE('',*,*,#568,.T.);
#568 = EDGE_CURVE('',#561,#569,#571,.T.);
#569 = VERTEX_POINT('',#570);
#570 = CARTESIAN_POINT('',(74.5,-25.4,18.5));
#571 = LINE('',#572,#573);
#572 = CARTESIAN_POINT('',(-39.5144,-25.4,18.5));
#573 = VECTOR('',#574,1.);
#574 = DIRECTION('',(1.,0.,0.));
#575 = ORIENTED_EDGE('',*,*,#576,.T.);
#576 = EDGE_CURVE('',#569,#186,#577,.T.);
#577 = LINE('',#578,#579);
#578 = CARTESIAN_POINT('',(74.5,-25.4,19.));
#579 = VECTOR('',#580,1.);
#580 = DIRECTION('',(0.,-2.22044604925E-16,-1.));
#581 = FACE_BOUND('',#582,.F.);
#582 = EDGE_LOOP('',(#583,#594,#602,#611,#619,#628,#636,#645));
#583 = ORIENTED_EDGE('',*,*,#584,.T.);
#584 = EDGE_CURVE('',#585,#587,#589,.T.);
#585 = VERTEX_POINT('',#586);
#586 = CARTESIAN_POINT('',(12.022774435591,-25.4,-9.));
#587 = VERTEX_POINT('',#588);
#588 = CARTESIAN_POINT('',(23.,-25.4,-8.500000011658));
#589 = CIRCLE('',#590,5.5);
#590 = AXIS2_PLACEMENT_3D('',#591,#592,#593);
#591 = CARTESIAN_POINT('',(17.5,-25.4,-8.49999988342));
#592 = DIRECTION('',(0.,-1.,2.22044604925E-16));
#593 = DIRECTION('',(-1.,-5.17719314677E-24,-2.331600512662E-08));
#594 = ORIENTED_EDGE('',*,*,#595,.T.);
#595 = EDGE_CURVE('',#587,#596,#598,.T.);
#596 = VERTEX_POINT('',#597);
#597 = CARTESIAN_POINT('',(23.,-25.4,8.5));
#598 = LINE('',#599,#600);
#599 = CARTESIAN_POINT('',(23.,-25.4,-8.5));
#600 = VECTOR('',#601,1.);
#601 = DIRECTION('',(0.,2.22044604925E-16,1.));
#602 = ORIENTED_EDGE('',*,*,#603,.T.);
#603 = EDGE_CURVE('',#596,#604,#606,.T.);
#604 = VERTEX_POINT('',#605);
#605 = CARTESIAN_POINT('',(12.022774418629,-25.4,9.));
#606 = CIRCLE('',#607,5.5);
#607 = AXIS2_PLACEMENT_3D('',#608,#609,#610);
#608 = CARTESIAN_POINT('',(17.5,-25.4,8.500000069225));
#609 = DIRECTION('',(0.,-1.,2.22044604925E-16));
#610 = DIRECTION('',(1.,-3.074187082228E-24,-1.384490779799E-08));
#611 = ORIENTED_EDGE('',*,*,#612,.F.);
#612 = EDGE_CURVE('',#613,#604,#615,.T.);
#613 = VERTEX_POINT('',#614);
#614 = CARTESIAN_POINT('',(-12.02277442494,-25.4,9.));
#615 = LINE('',#616,#617);
#616 = CARTESIAN_POINT('',(-12.5,-25.4,9.));
#617 = VECTOR('',#618,1.);
#618 = DIRECTION('',(1.,0.,0.));
#619 = ORIENTED_EDGE('',*,*,#620,.T.);
#620 = EDGE_CURVE('',#613,#621,#623,.T.);
#621 = VERTEX_POINT('',#622);
#622 = CARTESIAN_POINT('',(-23.,-25.4,8.5));
#623 = CIRCLE('',#624,5.5);
#624 = AXIS2_PLACEMENT_3D('',#625,#626,#627);
#625 = CARTESIAN_POINT('',(-17.5,-25.4,8.5));
#626 = DIRECTION('',(0.,-1.,2.22044604925E-16));
#627 = DIRECTION('',(1.,0.,0.));
#628 = ORIENTED_EDGE('',*,*,#629,.T.);
#629 = EDGE_CURVE('',#621,#630,#632,.T.);
#630 = VERTEX_POINT('',#631);
#631 = CARTESIAN_POINT('',(-23.,-25.4,-8.5));
#632 = LINE('',#633,#634);
#633 = CARTESIAN_POINT('',(-23.,-25.4,8.5));
#634 = VECTOR('',#635,1.);
#635 = DIRECTION('',(-0.,-2.22044604925E-16,-1.));
#636 = ORIENTED_EDGE('',*,*,#637,.T.);
#637 = EDGE_CURVE('',#630,#638,#640,.T.);
#638 = VERTEX_POINT('',#639);
#639 = CARTESIAN_POINT('',(-12.02277442494,-25.4,-9.));
#640 = CIRCLE('',#641,5.5);
#641 = AXIS2_PLACEMENT_3D('',#642,#643,#644);
#642 = CARTESIAN_POINT('',(-17.5,-25.4,-8.500000000013));
#643 = DIRECTION('',(0.,-1.,2.22044604925E-16));
#644 = DIRECTION('',(-1.,5.874647161181E-28,2.645705876603E-12));
#645 = ORIENTED_EDGE('',*,*,#646,.F.);
#646 = EDGE_CURVE('',#585,#638,#647,.T.);
#647 = LINE('',#648,#649);
#648 = CARTESIAN_POINT('',(12.5,-25.4,-9.));
#649 = VECTOR('',#650,1.);
#650 = DIRECTION('',(-1.,0.,0.));
#651 = PLANE('',#652);
#652 = AXIS2_PLACEMENT_3D('',#653,#654,#655);
#653 = CARTESIAN_POINT('',(6.014276227409E-02,-25.4,-1.919637330581E-02)
  );
#654 = DIRECTION('',(0.,1.,-2.22044604925E-16));
#655 = DIRECTION('',(0.,2.22044604925E-16,1.));
#656 = ADVANCED_FACE('',(#657),#676,.F.);
#657 = FACE_BOUND('',#658,.F.);
#658 = EDGE_LOOP('',(#659,#667,#674,#675));
#659 = ORIENTED_EDGE('',*,*,#660,.T.);
#660 = EDGE_CURVE('',#208,#661,#663,.T.);
#661 = VERTEX_POINT('',#662);
#662 = CARTESIAN_POINT('',(52.91,-12.7,-8.));
#663 = LINE('',#664,#665);
#664 = CARTESIAN_POINT('',(52.91,-12.7,-20.));
#665 = VECTOR('',#666,1.);
#666 = DIRECTION('',(0.,0.,1.));
#667 = ORIENTED_EDGE('',*,*,#668,.T.);
#668 = EDGE_CURVE('',#661,#661,#669,.T.);
#669 = CIRCLE('',#670,2.75);
#670 = AXIS2_PLACEMENT_3D('',#671,#672,#673);
#671 = CARTESIAN_POINT('',(50.16,-12.7,-8.));
#672 = DIRECTION('',(0.,0.,-1.));
#673 = DIRECTION('',(1.,0.,0.));
#674 = ORIENTED_EDGE('',*,*,#660,.F.);
#675 = ORIENTED_EDGE('',*,*,#217,.F.);
#676 = CYLINDRICAL_SURFACE('',#677,2.75);
#677 = AXIS2_PLACEMENT_3D('',#678,#679,#680);
#678 = CARTESIAN_POINT('',(50.16,-12.7,-20.));
#679 = DIRECTION('',(0.,0.,-1.));
#680 = DIRECTION('',(1.,0.,0.));
#681 = ADVANCED_FACE('',(#682),#701,.F.);
#682 = FACE_BOUND('',#683,.F.);
#683 = EDGE_LOOP('',(#684,#692,#699,#700));
#684 = ORIENTED_EDGE('',*,*,#685,.T.);
#685 = EDGE_CURVE('',#233,#686,#688,.T.);
#686 = VERTEX_POINT('',#687);
#687 = CARTESIAN_POINT('',(71.91,-12.7,-8.));
#688 = LINE('',#689,#690);
#689 = CARTESIAN_POINT('',(71.91,-12.7,-20.));
#690 = VECTOR('',#691,1.);
#691 = DIRECTION('',(0.,0.,1.));
#692 = ORIENTED_EDGE('',*,*,#693,.T.);
#693 = EDGE_CURVE('',#686,#686,#694,.T.);
#694 = CIRCLE('',#695,2.75);
#695 = AXIS2_PLACEMENT_3D('',#696,#697,#698);
#696 = CARTESIAN_POINT('',(69.16,-12.7,-8.));
#697 = DIRECTION('',(0.,0.,-1.));
#698 = DIRECTION('',(1.,0.,0.));
#699 = ORIENTED_EDGE('',*,*,#685,.F.);
#700 = ORIENTED_EDGE('',*,*,#242,.F.);
#701 = CYLINDRICAL_SURFACE('',#702,2.75);
#702 = AXIS2_PLACEMENT_3D('',#703,#704,#705);
#703 = CARTESIAN_POINT('',(69.16,-12.7,-20.));
#704 = DIRECTION('',(0.,0.,-1.));
#705 = DIRECTION('',(1.,0.,0.));
#706 = ADVANCED_FACE('',(#707),#718,.T.);
#707 = FACE_BOUND('',#708,.T.);
#708 = EDGE_LOOP('',(#709,#715,#716,#717));
#709 = ORIENTED_EDGE('',*,*,#710,.F.);
#710 = EDGE_CURVE('',#423,#331,#711,.T.);
#711 = LINE('',#712,#713);
#712 = CARTESIAN_POINT('',(74.875,-0.375,18.5));
#713 = VECTOR('',#714,1.);
#714 = DIRECTION('',(-0.707106781187,0.707106781187,2.884444029575E-15)
  );
#715 = ORIENTED_EDGE('',*,*,#422,.T.);
#716 = ORIENTED_EDGE('',*,*,#257,.T.);
#717 = ORIENTED_EDGE('',*,*,#338,.F.);
#718 = PLANE('',#719);
#719 = AXIS2_PLACEMENT_3D('',#720,#721,#722);
#720 = CARTESIAN_POINT('',(74.75,-0.25,19.));
#721 = DIRECTION('',(0.707106781187,0.707106781187,-1.599930486993E-16)
  );
#722 = DIRECTION('',(-2.109867215463E-18,-2.241544721405E-16,-1.));
#723 = ADVANCED_FACE('',(#724),#735,.T.);
#724 = FACE_BOUND('',#725,.F.);
#725 = EDGE_LOOP('',(#726,#727,#728,#734));
#726 = ORIENTED_EDGE('',*,*,#273,.T.);
#727 = ORIENTED_EDGE('',*,*,#290,.T.);
#728 = ORIENTED_EDGE('',*,*,#729,.T.);
#729 = EDGE_CURVE('',#291,#481,#730,.T.);
#730 = LINE('',#731,#732);
#731 = CARTESIAN_POINT('',(43.76,-0.5,-19.));
#732 = VECTOR('',#733,1.);
#733 = DIRECTION('',(-0.57735026919,-0.57735026919,-0.57735026919));
#734 = ORIENTED_EDGE('',*,*,#490,.F.);
#735 = PLANE('',#736);
#736 = AXIS2_PLACEMENT_3D('',#737,#738,#739);
#737 = CARTESIAN_POINT('',(44.01,-0.25,-20.));
#738 = DIRECTION('',(-0.707106781187,0.707106781187,-1.530368291906E-16)
  );
#739 = DIRECTION('',(-2.808922770536E-18,-2.192356821545E-16,-1.));
#740 = ADVANCED_FACE('',(#741),#766,.T.);
#741 = FACE_BOUND('',#742,.F.);
#742 = EDGE_LOOP('',(#743,#751,#752,#760));
#743 = ORIENTED_EDGE('',*,*,#744,.F.);
#744 = EDGE_CURVE('',#323,#745,#747,.T.);
#745 = VERTEX_POINT('',#746);
#746 = CARTESIAN_POINT('',(-39.5144,-0.5,19.));
#747 = LINE('',#748,#749);
#748 = CARTESIAN_POINT('',(-39.54745777732,-0.391689104063,
    18.891689104063));
#749 = VECTOR('',#750,1.);
#750 = DIRECTION('',(0.210960369504,-0.691193070892,0.691193070892));
#751 = ORIENTED_EDGE('',*,*,#330,.T.);
#752 = ORIENTED_EDGE('',*,*,#753,.T.);
#753 = EDGE_CURVE('',#331,#754,#756,.T.);
#754 = VERTEX_POINT('',#755);
#755 = CARTESIAN_POINT('',(74.5,-0.5,19.));
#756 = LINE('',#757,#758);
#757 = CARTESIAN_POINT('',(74.5,-0.25,18.75));
#758 = VECTOR('',#759,1.);
#759 = DIRECTION('',(5.672739924831E-15,-0.707106781187,0.707106781187)
  );
#760 = ORIENTED_EDGE('',*,*,#761,.F.);
#761 = EDGE_CURVE('',#745,#754,#762,.T.);
#762 = LINE('',#763,#764);
#763 = CARTESIAN_POINT('',(-39.5144,-0.5,19.));
#764 = VECTOR('',#765,1.);
#765 = DIRECTION('',(1.,0.,0.));
#766 = PLANE('',#767);
#767 = AXIS2_PLACEMENT_3D('',#768,#769,#770);
#768 = CARTESIAN_POINT('',(-39.5144,-0.25,18.75));
#769 = DIRECTION('',(0.,0.707106781187,0.707106781187));
#770 = DIRECTION('',(-1.,-0.,-0.));
#771 = ADVANCED_FACE('',(#772),#790,.T.);
#772 = FACE_BOUND('',#773,.F.);
#773 = EDGE_LOOP('',(#774,#775,#776,#784));
#774 = ORIENTED_EDGE('',*,*,#729,.F.);
#775 = ORIENTED_EDGE('',*,*,#298,.T.);
#776 = ORIENTED_EDGE('',*,*,#777,.T.);
#777 = EDGE_CURVE('',#299,#778,#780,.T.);
#778 = VERTEX_POINT('',#779);
#779 = CARTESIAN_POINT('',(-74.5,-0.5,-19.));
#780 = LINE('',#781,#782);
#781 = CARTESIAN_POINT('',(-74.5,-0.25,-18.75));
#782 = VECTOR('',#783,1.);
#783 = DIRECTION('',(-3.172888432533E-15,-0.707106781187,-0.707106781187
    ));
#784 = ORIENTED_EDGE('',*,*,#785,.F.);
#785 = EDGE_CURVE('',#481,#778,#786,.T.);
#786 = LINE('',#787,#788);
#787 = CARTESIAN_POINT('',(43.76,-0.5,-19.));
#788 = VECTOR('',#789,1.);
#789 = DIRECTION('',(-1.,0.,0.));
#790 = PLANE('',#791);
#791 = AXIS2_PLACEMENT_3D('',#792,#793,#794);
#792 = CARTESIAN_POINT('',(43.76,-0.25,-18.75));
#793 = DIRECTION('',(0.,0.707106781187,-0.707106781187));
#794 = DIRECTION('',(1.,-0.,-0.));
#795 = ADVANCED_FACE('',(#796),#814,.T.);
#796 = FACE_BOUND('',#797,.F.);
#797 = EDGE_LOOP('',(#798,#806,#807,#808));
#798 = ORIENTED_EDGE('',*,*,#799,.F.);
#799 = EDGE_CURVE('',#315,#800,#802,.T.);
#800 = VERTEX_POINT('',#801);
#801 = CARTESIAN_POINT('',(-41.,-0.5,20.));
#802 = LINE('',#803,#804);
#803 = CARTESIAN_POINT('',(-41.82947989033,2.217717806404,
    17.282282193596));
#804 = VECTOR('',#805,1.);
#805 = DIRECTION('',(0.210960369504,-0.691193070892,0.691193070892));
#806 = ORIENTED_EDGE('',*,*,#322,.T.);
#807 = ORIENTED_EDGE('',*,*,#744,.T.);
#808 = ORIENTED_EDGE('',*,*,#809,.F.);
#809 = EDGE_CURVE('',#800,#745,#810,.T.);
#810 = LINE('',#811,#812);
#811 = CARTESIAN_POINT('',(-41.,-0.5,20.));
#812 = VECTOR('',#813,1.);
#813 = DIRECTION('',(0.829567849707,-1.239910241294E-16,-0.558405930066)
  );
#814 = PLANE('',#815);
#815 = AXIS2_PLACEMENT_3D('',#816,#817,#818);
#816 = CARTESIAN_POINT('',(-41.13960148251,-0.25,19.792608037573));
#817 = DIRECTION('',(0.394852619805,0.707106781187,0.586593051982));
#818 = DIRECTION('',(-0.829567849707,8.326672684689E-17,0.558405930066)
  );
#819 = ADVANCED_FACE('',(#820),#845,.T.);
#820 = FACE_BOUND('',#821,.F.);
#821 = EDGE_LOOP('',(#822,#830,#831,#839));
#822 = ORIENTED_EDGE('',*,*,#823,.T.);
#823 = EDGE_CURVE('',#824,#299,#826,.T.);
#824 = VERTEX_POINT('',#825);
#825 = CARTESIAN_POINT('',(-75.,-0.5,-18.5));
#826 = LINE('',#827,#828);
#827 = CARTESIAN_POINT('',(-74.875,-0.375,-18.5));
#828 = VECTOR('',#829,1.);
#829 = DIRECTION('',(0.707106781187,0.707106781187,-5.288147387555E-15)
  );
#830 = ORIENTED_EDGE('',*,*,#306,.T.);
#831 = ORIENTED_EDGE('',*,*,#832,.T.);
#832 = EDGE_CURVE('',#307,#833,#835,.T.);
#833 = VERTEX_POINT('',#834);
#834 = CARTESIAN_POINT('',(-75.,-0.5,19.5));
#835 = LINE('',#836,#837);
#836 = CARTESIAN_POINT('',(-74.75,-0.25,19.5));
#837 = VECTOR('',#838,1.);
#838 = DIRECTION('',(-0.707106781187,-0.707106781187,-5.768888059151E-16
    ));
#839 = ORIENTED_EDGE('',*,*,#840,.F.);
#840 = EDGE_CURVE('',#824,#833,#841,.T.);
#841 = LINE('',#842,#843);
#842 = CARTESIAN_POINT('',(-75.,-0.5,-19.));
#843 = VECTOR('',#844,1.);
#844 = DIRECTION('',(0.,2.22044604925E-16,1.));
#845 = PLANE('',#846);
#846 = AXIS2_PLACEMENT_3D('',#847,#848,#849);
#847 = CARTESIAN_POINT('',(-74.75,-0.25,-19.));
#848 = DIRECTION('',(-0.707106781187,0.707106781187,-1.530368291906E-16)
  );
#849 = DIRECTION('',(-2.808922770536E-18,-2.192356821545E-16,-1.));
#850 = ADVANCED_FACE('',(#851),#869,.T.);
#851 = FACE_BOUND('',#852,.F.);
#852 = EDGE_LOOP('',(#853,#861,#862,#863));
#853 = ORIENTED_EDGE('',*,*,#854,.T.);
#854 = EDGE_CURVE('',#855,#307,#857,.T.);
#855 = VERTEX_POINT('',#856);
#856 = CARTESIAN_POINT('',(-74.5,-0.5,20.));
#857 = LINE('',#858,#859);
#858 = CARTESIAN_POINT('',(-74.5,-0.375,19.875));
#859 = VECTOR('',#860,1.);
#860 = DIRECTION('',(1.346073880468E-15,0.707106781187,-0.707106781187)
  );
#861 = ORIENTED_EDGE('',*,*,#314,.T.);
#862 = ORIENTED_EDGE('',*,*,#799,.T.);
#863 = ORIENTED_EDGE('',*,*,#864,.F.);
#864 = EDGE_CURVE('',#855,#800,#865,.T.);
#865 = LINE('',#866,#867);
#866 = CARTESIAN_POINT('',(-75.,-0.5,20.));
#867 = VECTOR('',#868,1.);
#868 = DIRECTION('',(1.,0.,0.));
#869 = PLANE('',#870);
#870 = AXIS2_PLACEMENT_3D('',#871,#872,#873);
#871 = CARTESIAN_POINT('',(-75.,-0.25,19.75));
#872 = DIRECTION('',(0.,0.707106781187,0.707106781187));
#873 = DIRECTION('',(-1.,-0.,-0.));
#874 = ADVANCED_FACE('',(#875),#902,.F.);
#875 = FACE_BOUND('',#876,.F.);
#876 = EDGE_LOOP('',(#877,#886,#887,#895));
#877 = ORIENTED_EDGE('',*,*,#878,.F.);
#878 = EDGE_CURVE('',#347,#879,#881,.T.);
#879 = VERTEX_POINT('',#880);
#880 = CARTESIAN_POINT('',(12.5,-0.5,-8.5));
#881 = PARABOLA('',#882,1.767766911749);
#882 = AXIS2_PLACEMENT_3D('',#883,#884,#885);
#883 = CARTESIAN_POINT('',(17.5,-3.00000005829,-5.99999994171));
#884 = DIRECTION('',(-6.956219508665E-18,-0.707106781187,-0.707106781187
    ));
#885 = DIRECTION('',(-6.956219508665E-18,0.707106781187,-0.707106781187)
  );
#886 = ORIENTED_EDGE('',*,*,#346,.T.);
#887 = ORIENTED_EDGE('',*,*,#888,.T.);
#888 = EDGE_CURVE('',#349,#889,#891,.T.);
#889 = VERTEX_POINT('',#890);
#890 = CARTESIAN_POINT('',(22.5,-0.5,-8.5));
#891 = LINE('',#892,#893);
#892 = CARTESIAN_POINT('',(22.5,-0.5,-8.5));
#893 = VECTOR('',#894,1.);
#894 = DIRECTION('',(-0.707106781187,-0.707106781187,1.648690495078E-08)
  );
#895 = ORIENTED_EDGE('',*,*,#896,.F.);
#896 = EDGE_CURVE('',#879,#889,#897,.T.);
#897 = CIRCLE('',#898,5.);
#898 = AXIS2_PLACEMENT_3D('',#899,#900,#901);
#899 = CARTESIAN_POINT('',(17.5,-0.5,-8.49999988342));
#900 = DIRECTION('',(0.,-1.,2.22044604925E-16));
#901 = DIRECTION('',(-1.,-5.17719314677E-24,-2.331600512662E-08));
#902 = CONICAL_SURFACE('',#903,5.,0.785398163397);
#903 = AXIS2_PLACEMENT_3D('',#904,#905,#906);
#904 = CARTESIAN_POINT('',(17.5,-0.5,-8.49999988342));
#905 = DIRECTION('',(-0.,1.,-2.22044604925E-16));
#906 = DIRECTION('',(-1.,-5.17719314677E-24,-2.331600512662E-08));
#907 = ADVANCED_FACE('',(#908),#927,.T.);
#908 = FACE_BOUND('',#909,.F.);
#909 = EDGE_LOOP('',(#910,#919,#920,#921));
#910 = ORIENTED_EDGE('',*,*,#911,.F.);
#911 = EDGE_CURVE('',#400,#912,#914,.T.);
#912 = VERTEX_POINT('',#913);
#913 = CARTESIAN_POINT('',(-12.5,-0.5,-8.5));
#914 = PARABOLA('',#915,1.767766952971);
#915 = AXIS2_PLACEMENT_3D('',#916,#917,#918);
#916 = CARTESIAN_POINT('',(-17.5,-2.999999999993,-6.000000000007));
#917 = DIRECTION('',(6.956219508665E-18,0.707106781187,0.707106781187));
#918 = DIRECTION('',(-6.956219508665E-18,0.707106781187,-0.707106781187)
  );
#919 = ORIENTED_EDGE('',*,*,#408,.T.);
#920 = ORIENTED_EDGE('',*,*,#878,.T.);
#921 = ORIENTED_EDGE('',*,*,#922,.F.);
#922 = EDGE_CURVE('',#912,#879,#923,.T.);
#923 = LINE('',#924,#925);
#924 = CARTESIAN_POINT('',(-12.5,-0.5,-8.5));
#925 = VECTOR('',#926,1.);
#926 = DIRECTION('',(1.,0.,0.));
#927 = PLANE('',#928);
#928 = AXIS2_PLACEMENT_3D('',#929,#930,#931);
#929 = CARTESIAN_POINT('',(-12.5,-0.25,-8.75));
#930 = DIRECTION('',(6.956219508665E-18,0.707106781187,0.707106781187));
#931 = DIRECTION('',(-1.,4.918789985999E-18,4.918789985999E-18));
#932 = ADVANCED_FACE('',(#933),#951,.T.);
#933 = FACE_BOUND('',#934,.F.);
#934 = EDGE_LOOP('',(#935,#936,#937,#945));
#935 = ORIENTED_EDGE('',*,*,#888,.F.);
#936 = ORIENTED_EDGE('',*,*,#357,.T.);
#937 = ORIENTED_EDGE('',*,*,#938,.T.);
#938 = EDGE_CURVE('',#358,#939,#941,.T.);
#939 = VERTEX_POINT('',#940);
#940 = CARTESIAN_POINT('',(22.5,-0.5,8.5));
#941 = LINE('',#942,#943);
#942 = CARTESIAN_POINT('',(22.75,-0.25,8.5));
#943 = VECTOR('',#944,1.);
#944 = DIRECTION('',(-0.707106781187,-0.707106781187,1.570092458684E-16)
  );
#945 = ORIENTED_EDGE('',*,*,#946,.F.);
#946 = EDGE_CURVE('',#889,#939,#947,.T.);
#947 = LINE('',#948,#949);
#948 = CARTESIAN_POINT('',(22.5,-0.5,-8.5));
#949 = VECTOR('',#950,1.);
#950 = DIRECTION('',(0.,2.22044604925E-16,1.));
#951 = PLANE('',#952);
#952 = AXIS2_PLACEMENT_3D('',#953,#954,#955);
#953 = CARTESIAN_POINT('',(22.75,-0.25,-8.5));
#954 = DIRECTION('',(-0.707106781187,0.707106781187,-1.530368291906E-16)
  );
#955 = DIRECTION('',(-2.808922770536E-18,-2.192356821545E-16,-1.));
#956 = ADVANCED_FACE('',(#957),#976,.F.);
#957 = FACE_BOUND('',#958,.F.);
#958 = EDGE_LOOP('',(#959,#967,#968,#969));
#959 = ORIENTED_EDGE('',*,*,#960,.F.);
#960 = EDGE_CURVE('',#392,#961,#963,.T.);
#961 = VERTEX_POINT('',#962);
#962 = CARTESIAN_POINT('',(-22.5,-0.5,-8.5));
#963 = LINE('',#964,#965);
#964 = CARTESIAN_POINT('',(-22.75,-0.25,-8.5));
#965 = VECTOR('',#966,1.);
#966 = DIRECTION('',(0.707106781187,-0.707106781187,1.570092458684E-16)
  );
#967 = ORIENTED_EDGE('',*,*,#399,.T.);
#968 = ORIENTED_EDGE('',*,*,#911,.T.);
#969 = ORIENTED_EDGE('',*,*,#970,.F.);
#970 = EDGE_CURVE('',#961,#912,#971,.T.);
#971 = CIRCLE('',#972,5.);
#972 = AXIS2_PLACEMENT_3D('',#973,#974,#975);
#973 = CARTESIAN_POINT('',(-17.5,-0.5,-8.500000000013));
#974 = DIRECTION('',(0.,-1.,2.22044604925E-16));
#975 = DIRECTION('',(-1.,5.874647161181E-28,2.645705876603E-12));
#976 = CONICAL_SURFACE('',#977,5.,0.785398163397);
#977 = AXIS2_PLACEMENT_3D('',#978,#979,#980);
#978 = CARTESIAN_POINT('',(-17.5,-0.5,-8.500000000013));
#979 = DIRECTION('',(-0.,1.,-2.22044604925E-16));
#980 = DIRECTION('',(-1.,5.874647161181E-28,2.645705876603E-12));
#981 = ADVANCED_FACE('',(#982),#1002,.F.);
#982 = FACE_BOUND('',#983,.F.);
#983 = EDGE_LOOP('',(#984,#985,#986,#995));
#984 = ORIENTED_EDGE('',*,*,#938,.F.);
#985 = ORIENTED_EDGE('',*,*,#365,.T.);
#986 = ORIENTED_EDGE('',*,*,#987,.T.);
#987 = EDGE_CURVE('',#366,#988,#990,.T.);
#988 = VERTEX_POINT('',#989);
#989 = CARTESIAN_POINT('',(12.5,-0.5,8.5));
#990 = PARABOLA('',#991,1.767766977441);
#991 = AXIS2_PLACEMENT_3D('',#992,#993,#994);
#992 = CARTESIAN_POINT('',(17.5,-2.999999965388,6.000000034612));
#993 = DIRECTION('',(0.,0.707106781187,-0.707106781187));
#994 = DIRECTION('',(0.,0.707106781187,0.707106781187));
#995 = ORIENTED_EDGE('',*,*,#996,.F.);
#996 = EDGE_CURVE('',#939,#988,#997,.T.);
#997 = CIRCLE('',#998,5.);
#998 = AXIS2_PLACEMENT_3D('',#999,#1000,#1001);
#999 = CARTESIAN_POINT('',(17.5,-0.5,8.500000069225));
#1000 = DIRECTION('',(0.,-1.,2.22044604925E-16));
#1001 = DIRECTION('',(1.,-3.074187082228E-24,-1.384490779799E-08));
#1002 = CONICAL_SURFACE('',#1003,5.,0.785398163397);
#1003 = AXIS2_PLACEMENT_3D('',#1004,#1005,#1006);
#1004 = CARTESIAN_POINT('',(17.5,-0.5,8.500000069225));
#1005 = DIRECTION('',(-0.,1.,-2.22044604925E-16));
#1006 = DIRECTION('',(1.,-3.074187082228E-24,-1.384490779799E-08));
#1007 = ADVANCED_FACE('',(#1008),#1026,.T.);
#1008 = FACE_BOUND('',#1009,.F.);
#1009 = EDGE_LOOP('',(#1010,#1018,#1019,#1020));
#1010 = ORIENTED_EDGE('',*,*,#1011,.F.);
#1011 = EDGE_CURVE('',#383,#1012,#1014,.T.);
#1012 = VERTEX_POINT('',#1013);
#1013 = CARTESIAN_POINT('',(-22.5,-0.5,8.5));
#1014 = LINE('',#1015,#1016);
#1015 = CARTESIAN_POINT('',(-22.5,-0.5,8.5));
#1016 = VECTOR('',#1017,1.);
#1017 = DIRECTION('',(0.707106781187,-0.707106781187,7.041364024483E-17)
  );
#1018 = ORIENTED_EDGE('',*,*,#391,.T.);
#1019 = ORIENTED_EDGE('',*,*,#960,.T.);
#1020 = ORIENTED_EDGE('',*,*,#1021,.F.);
#1021 = EDGE_CURVE('',#1012,#961,#1022,.T.);
#1022 = LINE('',#1023,#1024);
#1023 = CARTESIAN_POINT('',(-22.5,-0.5,8.5));
#1024 = VECTOR('',#1025,1.);
#1025 = DIRECTION('',(0.,-2.22044604925E-16,-1.));
#1026 = PLANE('',#1027);
#1027 = AXIS2_PLACEMENT_3D('',#1028,#1029,#1030);
#1028 = CARTESIAN_POINT('',(-22.75,-0.25,8.5));
#1029 = DIRECTION('',(0.707106781187,0.707106781187,-1.599930486993E-16)
  );
#1030 = DIRECTION('',(2.109867215463E-18,2.241544721405E-16,1.));
#1031 = ADVANCED_FACE('',(#1032),#1051,.T.);
#1032 = FACE_BOUND('',#1033,.F.);
#1033 = EDGE_LOOP('',(#1034,#1035,#1036,#1045));
#1034 = ORIENTED_EDGE('',*,*,#987,.F.);
#1035 = ORIENTED_EDGE('',*,*,#374,.T.);
#1036 = ORIENTED_EDGE('',*,*,#1037,.T.);
#1037 = EDGE_CURVE('',#375,#1038,#1040,.T.);
#1038 = VERTEX_POINT('',#1039);
#1039 = CARTESIAN_POINT('',(-12.5,-0.5,8.5));
#1040 = PARABOLA('',#1041,1.767766952966);
#1041 = AXIS2_PLACEMENT_3D('',#1042,#1043,#1044);
#1042 = CARTESIAN_POINT('',(-17.5,-3.,6.));
#1043 = DIRECTION('',(0.,-0.707106781187,0.707106781187));
#1044 = DIRECTION('',(0.,0.707106781187,0.707106781187));
#1045 = ORIENTED_EDGE('',*,*,#1046,.F.);
#1046 = EDGE_CURVE('',#988,#1038,#1047,.T.);
#1047 = LINE('',#1048,#1049);
#1048 = CARTESIAN_POINT('',(12.5,-0.5,8.5));
#1049 = VECTOR('',#1050,1.);
#1050 = DIRECTION('',(-1.,0.,0.));
#1051 = PLANE('',#1052);
#1052 = AXIS2_PLACEMENT_3D('',#1053,#1054,#1055);
#1053 = CARTESIAN_POINT('',(12.5,-0.25,8.75));
#1054 = DIRECTION('',(0.,0.707106781187,-0.707106781187));
#1055 = DIRECTION('',(1.,-0.,-0.));
#1056 = ADVANCED_FACE('',(#1057),#1069,.F.);
#1057 = FACE_BOUND('',#1058,.F.);
#1058 = EDGE_LOOP('',(#1059,#1060,#1061,#1062));
#1059 = ORIENTED_EDGE('',*,*,#1037,.F.);
#1060 = ORIENTED_EDGE('',*,*,#382,.T.);
#1061 = ORIENTED_EDGE('',*,*,#1011,.T.);
#1062 = ORIENTED_EDGE('',*,*,#1063,.F.);
#1063 = EDGE_CURVE('',#1038,#1012,#1064,.T.);
#1064 = CIRCLE('',#1065,5.);
#1065 = AXIS2_PLACEMENT_3D('',#1066,#1067,#1068);
#1066 = CARTESIAN_POINT('',(-17.5,-0.5,8.5));
#1067 = DIRECTION('',(0.,-1.,2.22044604925E-16));
#1068 = DIRECTION('',(1.,-3.889384548663E-63,-1.751623080406E-47));
#1069 = CONICAL_SURFACE('',#1070,5.,0.785398163397);
#1070 = AXIS2_PLACEMENT_3D('',#1071,#1072,#1073);
#1071 = CARTESIAN_POINT('',(-17.5,-0.5,8.5));
#1072 = DIRECTION('',(-0.,1.,-2.22044604925E-16));
#1073 = DIRECTION('',(1.,-3.889384548663E-63,-1.751623080406E-47));
#1074 = ADVANCED_FACE('',(#1075),#1098,.T.);
#1075 = FACE_BOUND('',#1076,.F.);
#1076 = EDGE_LOOP('',(#1077,#1083,#1084,#1092));
#1077 = ORIENTED_EDGE('',*,*,#1078,.F.);
#1078 = EDGE_CURVE('',#423,#754,#1079,.T.);
#1079 = LINE('',#1080,#1081);
#1080 = CARTESIAN_POINT('',(74.875,-0.5,18.625));
#1081 = VECTOR('',#1082,1.);
#1082 = DIRECTION('',(-0.707106781187,8.749480223045E-15,0.707106781187)
  );
#1083 = ORIENTED_EDGE('',*,*,#430,.T.);
#1084 = ORIENTED_EDGE('',*,*,#1085,.T.);
#1085 = EDGE_CURVE('',#431,#1086,#1088,.T.);
#1086 = VERTEX_POINT('',#1087);
#1087 = CARTESIAN_POINT('',(74.5,-24.9,19.));
#1088 = LINE('',#1089,#1090);
#1089 = CARTESIAN_POINT('',(74.875,-24.9,18.625));
#1090 = VECTOR('',#1091,1.);
#1091 = DIRECTION('',(-0.707106781187,-1.009555410351E-14,0.707106781187
    ));
#1092 = ORIENTED_EDGE('',*,*,#1093,.F.);
#1093 = EDGE_CURVE('',#754,#1086,#1094,.T.);
#1094 = LINE('',#1095,#1096);
#1095 = CARTESIAN_POINT('',(74.5,4.218847493576E-15,19.));
#1096 = VECTOR('',#1097,1.);
#1097 = DIRECTION('',(0.,-1.,2.22044604925E-16));
#1098 = PLANE('',#1099);
#1099 = AXIS2_PLACEMENT_3D('',#1100,#1101,#1102);
#1100 = CARTESIAN_POINT('',(74.75,4.163336342344E-15,18.75));
#1101 = DIRECTION('',(0.707106781187,2.504239023119E-16,0.707106781187)
  );
#1102 = DIRECTION('',(-6.605413703345E-17,1.,-2.880987419585E-16));
#1103 = ADVANCED_FACE('',(#1104),#1115,.F.);
#1104 = FACE_BOUND('',#1105,.F.);
#1105 = EDGE_LOOP('',(#1106,#1112,#1113,#1114));
#1106 = ORIENTED_EDGE('',*,*,#1107,.F.);
#1107 = EDGE_CURVE('',#431,#569,#1108,.T.);
#1108 = LINE('',#1109,#1110);
#1109 = CARTESIAN_POINT('',(74.875,-25.025,18.5));
#1110 = VECTOR('',#1111,1.);
#1111 = DIRECTION('',(-0.707106781187,-0.707106781187,5.095851118916E-15
    ));
#1112 = ORIENTED_EDGE('',*,*,#438,.T.);
#1113 = ORIENTED_EDGE('',*,*,#464,.T.);
#1114 = ORIENTED_EDGE('',*,*,#576,.F.);
#1115 = PLANE('',#1116);
#1116 = AXIS2_PLACEMENT_3D('',#1117,#1118,#1119);
#1117 = CARTESIAN_POINT('',(74.75,-25.15,19.));
#1118 = DIRECTION('',(-0.707106781187,0.707106781187,0.));
#1119 = DIRECTION('',(-1.110223024625E-16,-1.110223024625E-16,-1.));
#1120 = ADVANCED_FACE('',(#1121),#1140,.T.);
#1121 = FACE_BOUND('',#1122,.F.);
#1122 = EDGE_LOOP('',(#1123,#1131,#1138,#1139));
#1123 = ORIENTED_EDGE('',*,*,#1124,.T.);
#1124 = EDGE_CURVE('',#448,#1125,#1127,.T.);
#1125 = VERTEX_POINT('',#1126);
#1126 = CARTESIAN_POINT('',(80.,-9.2,-0.5));
#1127 = LINE('',#1128,#1129);
#1128 = CARTESIAN_POINT('',(75.,-9.2,-0.5));
#1129 = VECTOR('',#1130,1.);
#1130 = DIRECTION('',(1.,0.,0.));
#1131 = ORIENTED_EDGE('',*,*,#1132,.T.);
#1132 = EDGE_CURVE('',#1125,#1125,#1133,.T.);
#1133 = CIRCLE('',#1134,3.5);
#1134 = AXIS2_PLACEMENT_3D('',#1135,#1136,#1137);
#1135 = CARTESIAN_POINT('',(80.,-12.7,-0.5));
#1136 = DIRECTION('',(1.,0.,0.));
#1137 = DIRECTION('',(0.,1.,0.));
#1138 = ORIENTED_EDGE('',*,*,#1124,.F.);
#1139 = ORIENTED_EDGE('',*,*,#447,.F.);
#1140 = CYLINDRICAL_SURFACE('',#1141,3.5);
#1141 = AXIS2_PLACEMENT_3D('',#1142,#1143,#1144);
#1142 = CARTESIAN_POINT('',(75.,-12.7,-0.5));
#1143 = DIRECTION('',(-1.,-0.,-0.));
#1144 = DIRECTION('',(0.,1.,0.));
#1145 = ADVANCED_FACE('',(#1146),#1164,.T.);
#1146 = FACE_BOUND('',#1147,.T.);
#1147 = EDGE_LOOP('',(#1148,#1149,#1157,#1163));
#1148 = ORIENTED_EDGE('',*,*,#480,.T.);
#1149 = ORIENTED_EDGE('',*,*,#1150,.T.);
#1150 = EDGE_CURVE('',#483,#1151,#1153,.T.);
#1151 = VERTEX_POINT('',#1152);
#1152 = CARTESIAN_POINT('',(-74.5,-24.9,-19.));
#1153 = LINE('',#1154,#1155);
#1154 = CARTESIAN_POINT('',(43.76,-24.9,-19.));
#1155 = VECTOR('',#1156,1.);
#1156 = DIRECTION('',(-1.,0.,0.));
#1157 = ORIENTED_EDGE('',*,*,#1158,.F.);
#1158 = EDGE_CURVE('',#778,#1151,#1159,.T.);
#1159 = LINE('',#1160,#1161);
#1160 = CARTESIAN_POINT('',(-74.5,-4.218847493576E-15,-19.));
#1161 = VECTOR('',#1162,1.);
#1162 = DIRECTION('',(0.,-1.,2.22044604925E-16));
#1163 = ORIENTED_EDGE('',*,*,#785,.F.);
#1164 = PLANE('',#1165);
#1165 = AXIS2_PLACEMENT_3D('',#1166,#1167,#1168);
#1166 = CARTESIAN_POINT('',(43.76,-4.218847493576E-15,-19.));
#1167 = DIRECTION('',(-0.,-2.22044604925E-16,-1.));
#1168 = DIRECTION('',(-1.,0.,0.));
#1169 = ADVANCED_FACE('',(#1170),#1181,.F.);
#1170 = FACE_BOUND('',#1171,.T.);
#1171 = EDGE_LOOP('',(#1172,#1173,#1174,#1180));
#1172 = ORIENTED_EDGE('',*,*,#511,.T.);
#1173 = ORIENTED_EDGE('',*,*,#528,.T.);
#1174 = ORIENTED_EDGE('',*,*,#1175,.T.);
#1175 = EDGE_CURVE('',#529,#483,#1176,.T.);
#1176 = LINE('',#1177,#1178);
#1177 = CARTESIAN_POINT('',(43.76,-24.9,-19.));
#1178 = VECTOR('',#1179,1.);
#1179 = DIRECTION('',(-0.57735026919,0.57735026919,-0.57735026919));
#1180 = ORIENTED_EDGE('',*,*,#497,.F.);
#1181 = PLANE('',#1182);
#1182 = AXIS2_PLACEMENT_3D('',#1183,#1184,#1185);
#1183 = CARTESIAN_POINT('',(44.01,-25.15,-20.));
#1184 = DIRECTION('',(0.707106781187,0.707106781187,-2.504239023119E-16)
  );
#1185 = DIRECTION('',(-6.605413703345E-17,-2.880987419585E-16,-1.));
#1186 = ADVANCED_FACE('',(#1187),#1210,.F.);
#1187 = FACE_BOUND('',#1188,.T.);
#1188 = EDGE_LOOP('',(#1189,#1197,#1198,#1204));
#1189 = ORIENTED_EDGE('',*,*,#1190,.F.);
#1190 = EDGE_CURVE('',#561,#1191,#1193,.T.);
#1191 = VERTEX_POINT('',#1192);
#1192 = CARTESIAN_POINT('',(-39.5144,-24.9,19.));
#1193 = LINE('',#1194,#1195);
#1194 = CARTESIAN_POINT('',(-39.54745777732,-25.00831089593,
    18.891689104063));
#1195 = VECTOR('',#1196,1.);
#1196 = DIRECTION('',(0.210960369504,0.691193070892,0.691193070892));
#1197 = ORIENTED_EDGE('',*,*,#568,.T.);
#1198 = ORIENTED_EDGE('',*,*,#1199,.T.);
#1199 = EDGE_CURVE('',#569,#1086,#1200,.T.);
#1200 = LINE('',#1201,#1202);
#1201 = CARTESIAN_POINT('',(74.5,-25.15,18.75));
#1202 = VECTOR('',#1203,1.);
#1203 = DIRECTION('',(4.999702984597E-15,0.707106781187,0.707106781187)
  );
#1204 = ORIENTED_EDGE('',*,*,#1205,.F.);
#1205 = EDGE_CURVE('',#1191,#1086,#1206,.T.);
#1206 = LINE('',#1207,#1208);
#1207 = CARTESIAN_POINT('',(-39.5144,-24.9,19.));
#1208 = VECTOR('',#1209,1.);
#1209 = DIRECTION('',(1.,0.,0.));
#1210 = PLANE('',#1211);
#1211 = AXIS2_PLACEMENT_3D('',#1212,#1213,#1214);
#1212 = CARTESIAN_POINT('',(-39.5144,-25.15,18.75));
#1213 = DIRECTION('',(0.,0.707106781187,-0.707106781187));
#1214 = DIRECTION('',(-1.,-0.,-0.));
#1215 = ADVANCED_FACE('',(#1216),#1227,.F.);
#1216 = FACE_BOUND('',#1217,.T.);
#1217 = EDGE_LOOP('',(#1218,#1219,#1220,#1226));
#1218 = ORIENTED_EDGE('',*,*,#1175,.F.);
#1219 = ORIENTED_EDGE('',*,*,#536,.T.);
#1220 = ORIENTED_EDGE('',*,*,#1221,.T.);
#1221 = EDGE_CURVE('',#537,#1151,#1222,.T.);
#1222 = LINE('',#1223,#1224);
#1223 = CARTESIAN_POINT('',(-74.5,-25.15,-18.75));
#1224 = VECTOR('',#1225,1.);
#1225 = DIRECTION('',(4.999702984597E-15,0.707106781187,-0.707106781187)
  );
#1226 = ORIENTED_EDGE('',*,*,#1150,.F.);
#1227 = PLANE('',#1228);
#1228 = AXIS2_PLACEMENT_3D('',#1229,#1230,#1231);
#1229 = CARTESIAN_POINT('',(43.76,-25.15,-18.75));
#1230 = DIRECTION('',(0.,0.707106781187,0.707106781187));
#1231 = DIRECTION('',(1.,-0.,-0.));
#1232 = ADVANCED_FACE('',(#1233),#1251,.F.);
#1233 = FACE_BOUND('',#1234,.T.);
#1234 = EDGE_LOOP('',(#1235,#1243,#1244,#1245));
#1235 = ORIENTED_EDGE('',*,*,#1236,.F.);
#1236 = EDGE_CURVE('',#553,#1237,#1239,.T.);
#1237 = VERTEX_POINT('',#1238);
#1238 = CARTESIAN_POINT('',(-41.,-24.9,20.));
#1239 = LINE('',#1240,#1241);
#1240 = CARTESIAN_POINT('',(-41.82947989033,-27.6177178064,
    17.282282193596));
#1241 = VECTOR('',#1242,1.);
#1242 = DIRECTION('',(0.210960369504,0.691193070892,0.691193070892));
#1243 = ORIENTED_EDGE('',*,*,#560,.T.);
#1244 = ORIENTED_EDGE('',*,*,#1190,.T.);
#1245 = ORIENTED_EDGE('',*,*,#1246,.F.);
#1246 = EDGE_CURVE('',#1237,#1191,#1247,.T.);
#1247 = LINE('',#1248,#1249);
#1248 = CARTESIAN_POINT('',(-41.,-24.9,20.));
#1249 = VECTOR('',#1250,1.);
#1250 = DIRECTION('',(0.829567849707,-1.239910241294E-16,-0.558405930066
    ));
#1251 = PLANE('',#1252);
#1252 = AXIS2_PLACEMENT_3D('',#1253,#1254,#1255);
#1253 = CARTESIAN_POINT('',(-41.13960148251,-25.15,19.792608037573));
#1254 = DIRECTION('',(-0.394852619805,0.707106781187,-0.586593051982));
#1255 = DIRECTION('',(-0.829567849707,1.665334536938E-16,0.558405930066)
  );
#1256 = ADVANCED_FACE('',(#1257),#1282,.F.);
#1257 = FACE_BOUND('',#1258,.T.);
#1258 = EDGE_LOOP('',(#1259,#1267,#1268,#1276));
#1259 = ORIENTED_EDGE('',*,*,#1260,.T.);
#1260 = EDGE_CURVE('',#1261,#537,#1263,.T.);
#1261 = VERTEX_POINT('',#1262);
#1262 = CARTESIAN_POINT('',(-75.,-24.9,-18.5));
#1263 = LINE('',#1264,#1265);
#1264 = CARTESIAN_POINT('',(-74.875,-25.025,-18.5));
#1265 = VECTOR('',#1266,1.);
#1266 = DIRECTION('',(0.707106781187,-0.707106781187,-4.999702984597E-15
    ));
#1267 = ORIENTED_EDGE('',*,*,#544,.T.);
#1268 = ORIENTED_EDGE('',*,*,#1269,.T.);
#1269 = EDGE_CURVE('',#545,#1270,#1272,.T.);
#1270 = VERTEX_POINT('',#1271);
#1271 = CARTESIAN_POINT('',(-75.,-24.9,19.5));
#1272 = LINE('',#1273,#1274);
#1273 = CARTESIAN_POINT('',(-74.75,-25.15,19.5));
#1274 = VECTOR('',#1275,1.);
#1275 = DIRECTION('',(-0.707106781187,0.707106781187,0.));
#1276 = ORIENTED_EDGE('',*,*,#1277,.F.);
#1277 = EDGE_CURVE('',#1261,#1270,#1278,.T.);
#1278 = LINE('',#1279,#1280);
#1279 = CARTESIAN_POINT('',(-75.,-24.9,-19.));
#1280 = VECTOR('',#1281,1.);
#1281 = DIRECTION('',(0.,2.22044604925E-16,1.));
#1282 = PLANE('',#1283);
#1283 = AXIS2_PLACEMENT_3D('',#1284,#1285,#1286);
#1284 = CARTESIAN_POINT('',(-74.75,-25.15,-19.));
#1285 = DIRECTION('',(0.707106781187,0.707106781187,-2.504239023119E-16)
  );
#1286 = DIRECTION('',(-6.605413703345E-17,-2.880987419585E-16,-1.));
#1287 = ADVANCED_FACE('',(#1288),#1306,.F.);
#1288 = FACE_BOUND('',#1289,.T.);
#1289 = EDGE_LOOP('',(#1290,#1298,#1299,#1300));
#1290 = ORIENTED_EDGE('',*,*,#1291,.T.);
#1291 = EDGE_CURVE('',#1292,#545,#1294,.T.);
#1292 = VERTEX_POINT('',#1293);
#1293 = CARTESIAN_POINT('',(-74.5,-24.9,20.));
#1294 = LINE('',#1295,#1296);
#1295 = CARTESIAN_POINT('',(-74.5,-25.025,19.875));
#1296 = VECTOR('',#1297,1.);
#1297 = DIRECTION('',(0.,-0.707106781187,-0.707106781187));
#1298 = ORIENTED_EDGE('',*,*,#552,.T.);
#1299 = ORIENTED_EDGE('',*,*,#1236,.T.);
#1300 = ORIENTED_EDGE('',*,*,#1301,.F.);
#1301 = EDGE_CURVE('',#1292,#1237,#1302,.T.);
#1302 = LINE('',#1303,#1304);
#1303 = CARTESIAN_POINT('',(-75.,-24.9,20.));
#1304 = VECTOR('',#1305,1.);
#1305 = DIRECTION('',(1.,0.,0.));
#1306 = PLANE('',#1307);
#1307 = AXIS2_PLACEMENT_3D('',#1308,#1309,#1310);
#1308 = CARTESIAN_POINT('',(-75.,-25.15,19.75));
#1309 = DIRECTION('',(0.,0.707106781187,-0.707106781187));
#1310 = DIRECTION('',(-1.,-0.,-0.));
#1311 = ADVANCED_FACE('',(#1312),#1339,.F.);
#1312 = FACE_BOUND('',#1313,.T.);
#1313 = EDGE_LOOP('',(#1314,#1323,#1324,#1332));
#1314 = ORIENTED_EDGE('',*,*,#1315,.F.);
#1315 = EDGE_CURVE('',#585,#1316,#1318,.T.);
#1316 = VERTEX_POINT('',#1317);
#1317 = CARTESIAN_POINT('',(12.5,-24.9,-8.5));
#1318 = PARABOLA('',#1319,1.767766911749);
#1319 = AXIS2_PLACEMENT_3D('',#1320,#1321,#1322);
#1320 = CARTESIAN_POINT('',(17.5,-22.39999994171,-5.99999994171));
#1321 = DIRECTION('',(0.,-0.707106781187,0.707106781187));
#1322 = DIRECTION('',(0.,-0.707106781187,-0.707106781187));
#1323 = ORIENTED_EDGE('',*,*,#584,.T.);
#1324 = ORIENTED_EDGE('',*,*,#1325,.T.);
#1325 = EDGE_CURVE('',#587,#1326,#1328,.T.);
#1326 = VERTEX_POINT('',#1327);
#1327 = CARTESIAN_POINT('',(22.5,-24.9,-8.5));
#1328 = LINE('',#1329,#1330);
#1329 = CARTESIAN_POINT('',(22.5,-24.9,-8.5));
#1330 = VECTOR('',#1331,1.);
#1331 = DIRECTION('',(-0.707106781187,0.707106781187,1.648690463676E-08)
  );
#1332 = ORIENTED_EDGE('',*,*,#1333,.F.);
#1333 = EDGE_CURVE('',#1316,#1326,#1334,.T.);
#1334 = CIRCLE('',#1335,5.);
#1335 = AXIS2_PLACEMENT_3D('',#1336,#1337,#1338);
#1336 = CARTESIAN_POINT('',(17.5,-24.9,-8.49999988342));
#1337 = DIRECTION('',(0.,-1.,2.22044604925E-16));
#1338 = DIRECTION('',(-1.,-5.17719314677E-24,-2.331600512662E-08));
#1339 = CONICAL_SURFACE('',#1340,5.,0.785398163397);
#1340 = AXIS2_PLACEMENT_3D('',#1341,#1342,#1343);
#1341 = CARTESIAN_POINT('',(17.5,-24.9,-8.49999988342));
#1342 = DIRECTION('',(-0.,-1.,2.22044604925E-16));
#1343 = DIRECTION('',(-1.,-5.17719314677E-24,-2.331600512662E-08));
#1344 = ADVANCED_FACE('',(#1345),#1364,.F.);
#1345 = FACE_BOUND('',#1346,.F.);
#1346 = EDGE_LOOP('',(#1347,#1348,#1349,#1358));
#1347 = ORIENTED_EDGE('',*,*,#1315,.F.);
#1348 = ORIENTED_EDGE('',*,*,#646,.T.);
#1349 = ORIENTED_EDGE('',*,*,#1350,.T.);
#1350 = EDGE_CURVE('',#638,#1351,#1353,.T.);
#1351 = VERTEX_POINT('',#1352);
#1352 = CARTESIAN_POINT('',(-12.5,-24.9,-8.5));
#1353 = PARABOLA('',#1354,1.767766952971);
#1354 = AXIS2_PLACEMENT_3D('',#1355,#1356,#1357);
#1355 = CARTESIAN_POINT('',(-17.5,-22.4,-6.000000000007));
#1356 = DIRECTION('',(0.,0.707106781187,-0.707106781187));
#1357 = DIRECTION('',(0.,-0.707106781187,-0.707106781187));
#1358 = ORIENTED_EDGE('',*,*,#1359,.F.);
#1359 = EDGE_CURVE('',#1316,#1351,#1360,.T.);
#1360 = LINE('',#1361,#1362);
#1361 = CARTESIAN_POINT('',(12.5,-24.9,-8.5));
#1362 = VECTOR('',#1363,1.);
#1363 = DIRECTION('',(-1.,0.,0.));
#1364 = PLANE('',#1365);
#1365 = AXIS2_PLACEMENT_3D('',#1366,#1367,#1368);
#1366 = CARTESIAN_POINT('',(12.5,-25.15,-8.75));
#1367 = DIRECTION('',(0.,0.707106781187,-0.707106781187));
#1368 = DIRECTION('',(-1.,0.,0.));
#1369 = ADVANCED_FACE('',(#1370),#1388,.F.);
#1370 = FACE_BOUND('',#1371,.T.);
#1371 = EDGE_LOOP('',(#1372,#1373,#1374,#1382));
#1372 = ORIENTED_EDGE('',*,*,#1325,.F.);
#1373 = ORIENTED_EDGE('',*,*,#595,.T.);
#1374 = ORIENTED_EDGE('',*,*,#1375,.T.);
#1375 = EDGE_CURVE('',#596,#1376,#1378,.T.);
#1376 = VERTEX_POINT('',#1377);
#1377 = CARTESIAN_POINT('',(22.5,-24.9,8.5));
#1378 = LINE('',#1379,#1380);
#1379 = CARTESIAN_POINT('',(22.75,-25.15,8.5));
#1380 = VECTOR('',#1381,1.);
#1381 = DIRECTION('',(-0.707106781187,0.707106781187,-1.570092458684E-16
    ));
#1382 = ORIENTED_EDGE('',*,*,#1383,.F.);
#1383 = EDGE_CURVE('',#1326,#1376,#1384,.T.);
#1384 = LINE('',#1385,#1386);
#1385 = CARTESIAN_POINT('',(22.5,-24.9,-8.5));
#1386 = VECTOR('',#1387,1.);
#1387 = DIRECTION('',(0.,2.22044604925E-16,1.));
#1388 = PLANE('',#1389);
#1389 = AXIS2_PLACEMENT_3D('',#1390,#1391,#1392);
#1390 = CARTESIAN_POINT('',(22.75,-25.15,-8.5));
#1391 = DIRECTION('',(0.707106781187,0.707106781187,-2.504239023119E-16)
  );
#1392 = DIRECTION('',(-6.605413703345E-17,-2.880987419585E-16,-1.));
#1393 = ADVANCED_FACE('',(#1394),#1413,.F.);
#1394 = FACE_BOUND('',#1395,.T.);
#1395 = EDGE_LOOP('',(#1396,#1404,#1405,#1406));
#1396 = ORIENTED_EDGE('',*,*,#1397,.F.);
#1397 = EDGE_CURVE('',#630,#1398,#1400,.T.);
#1398 = VERTEX_POINT('',#1399);
#1399 = CARTESIAN_POINT('',(-22.5,-24.9,-8.5));
#1400 = LINE('',#1401,#1402);
#1401 = CARTESIAN_POINT('',(-22.75,-25.15,-8.5));
#1402 = VECTOR('',#1403,1.);
#1403 = DIRECTION('',(0.707106781187,0.707106781187,-1.570092458684E-16)
  );
#1404 = ORIENTED_EDGE('',*,*,#637,.T.);
#1405 = ORIENTED_EDGE('',*,*,#1350,.T.);
#1406 = ORIENTED_EDGE('',*,*,#1407,.F.);
#1407 = EDGE_CURVE('',#1398,#1351,#1408,.T.);
#1408 = CIRCLE('',#1409,5.);
#1409 = AXIS2_PLACEMENT_3D('',#1410,#1411,#1412);
#1410 = CARTESIAN_POINT('',(-17.5,-24.9,-8.500000000013));
#1411 = DIRECTION('',(0.,-1.,2.22044604925E-16));
#1412 = DIRECTION('',(-1.,5.874647161181E-28,2.645705876603E-12));
#1413 = CONICAL_SURFACE('',#1414,5.,0.785398163397);
#1414 = AXIS2_PLACEMENT_3D('',#1415,#1416,#1417);
#1415 = CARTESIAN_POINT('',(-17.5,-24.9,-8.500000000013));
#1416 = DIRECTION('',(-0.,-1.,2.22044604925E-16));
#1417 = DIRECTION('',(-1.,5.874647161181E-28,2.645705876603E-12));
#1418 = ADVANCED_FACE('',(#1419),#1439,.F.);
#1419 = FACE_BOUND('',#1420,.T.);
#1420 = EDGE_LOOP('',(#1421,#1422,#1423,#1432));
#1421 = ORIENTED_EDGE('',*,*,#1375,.F.);
#1422 = ORIENTED_EDGE('',*,*,#603,.T.);
#1423 = ORIENTED_EDGE('',*,*,#1424,.T.);
#1424 = EDGE_CURVE('',#604,#1425,#1427,.T.);
#1425 = VERTEX_POINT('',#1426);
#1426 = CARTESIAN_POINT('',(12.5,-24.9,8.5));
#1427 = PARABOLA('',#1428,1.767766977441);
#1428 = AXIS2_PLACEMENT_3D('',#1429,#1430,#1431);
#1429 = CARTESIAN_POINT('',(17.5,-22.40000003461,6.000000034612));
#1430 = DIRECTION('',(-0.,0.707106781187,0.707106781187));
#1431 = DIRECTION('',(0.,-0.707106781187,0.707106781187));
#1432 = ORIENTED_EDGE('',*,*,#1433,.F.);
#1433 = EDGE_CURVE('',#1376,#1425,#1434,.T.);
#1434 = CIRCLE('',#1435,5.);
#1435 = AXIS2_PLACEMENT_3D('',#1436,#1437,#1438);
#1436 = CARTESIAN_POINT('',(17.5,-24.9,8.500000069225));
#1437 = DIRECTION('',(0.,-1.,2.22044604925E-16));
#1438 = DIRECTION('',(1.,-3.074187082228E-24,-1.384490779799E-08));
#1439 = CONICAL_SURFACE('',#1440,5.,0.785398163397);
#1440 = AXIS2_PLACEMENT_3D('',#1441,#1442,#1443);
#1441 = CARTESIAN_POINT('',(17.5,-24.9,8.500000069225));
#1442 = DIRECTION('',(-0.,-1.,2.22044604925E-16));
#1443 = DIRECTION('',(1.,-3.074187082228E-24,-1.384490779799E-08));
#1444 = ADVANCED_FACE('',(#1445),#1463,.F.);
#1445 = FACE_BOUND('',#1446,.T.);
#1446 = EDGE_LOOP('',(#1447,#1455,#1456,#1457));
#1447 = ORIENTED_EDGE('',*,*,#1448,.F.);
#1448 = EDGE_CURVE('',#621,#1449,#1451,.T.);
#1449 = VERTEX_POINT('',#1450);
#1450 = CARTESIAN_POINT('',(-22.5,-24.9,8.5));
#1451 = LINE('',#1452,#1453);
#1452 = CARTESIAN_POINT('',(-22.5,-24.9,8.5));
#1453 = VECTOR('',#1454,1.);
#1454 = DIRECTION('',(0.707106781187,0.707106781187,-2.436048514919E-16)
  );
#1455 = ORIENTED_EDGE('',*,*,#629,.T.);
#1456 = ORIENTED_EDGE('',*,*,#1397,.T.);
#1457 = ORIENTED_EDGE('',*,*,#1458,.F.);
#1458 = EDGE_CURVE('',#1449,#1398,#1459,.T.);
#1459 = LINE('',#1460,#1461);
#1460 = CARTESIAN_POINT('',(-22.5,-24.9,8.5));
#1461 = VECTOR('',#1462,1.);
#1462 = DIRECTION('',(-0.,-2.22044604925E-16,-1.));
#1463 = PLANE('',#1464);
#1464 = AXIS2_PLACEMENT_3D('',#1465,#1466,#1467);
#1465 = CARTESIAN_POINT('',(-22.75,-25.15,8.5));
#1466 = DIRECTION('',(-0.707106781187,0.707106781187,-2.504239023119E-16
    ));
#1467 = DIRECTION('',(-6.605413703345E-17,2.880987419585E-16,1.));
#1468 = ADVANCED_FACE('',(#1469),#1488,.F.);
#1469 = FACE_BOUND('',#1470,.F.);
#1470 = EDGE_LOOP('',(#1471,#1480,#1481,#1482));
#1471 = ORIENTED_EDGE('',*,*,#1472,.F.);
#1472 = EDGE_CURVE('',#613,#1473,#1475,.T.);
#1473 = VERTEX_POINT('',#1474);
#1474 = CARTESIAN_POINT('',(-12.5,-24.9,8.5));
#1475 = PARABOLA('',#1476,1.767766952966);
#1476 = AXIS2_PLACEMENT_3D('',#1477,#1478,#1479);
#1477 = CARTESIAN_POINT('',(-17.5,-22.4,6.));
#1478 = DIRECTION('',(-0.,-0.707106781187,-0.707106781187));
#1479 = DIRECTION('',(0.,-0.707106781187,0.707106781187));
#1480 = ORIENTED_EDGE('',*,*,#612,.T.);
#1481 = ORIENTED_EDGE('',*,*,#1424,.T.);
#1482 = ORIENTED_EDGE('',*,*,#1483,.F.);
#1483 = EDGE_CURVE('',#1473,#1425,#1484,.T.);
#1484 = LINE('',#1485,#1486);
#1485 = CARTESIAN_POINT('',(-12.5,-24.9,8.5));
#1486 = VECTOR('',#1487,1.);
#1487 = DIRECTION('',(1.,0.,0.));
#1488 = PLANE('',#1489);
#1489 = AXIS2_PLACEMENT_3D('',#1490,#1491,#1492);
#1490 = CARTESIAN_POINT('',(-12.5,-25.15,8.75));
#1491 = DIRECTION('',(0.,0.707106781187,0.707106781187));
#1492 = DIRECTION('',(1.,0.,0.));
#1493 = ADVANCED_FACE('',(#1494),#1506,.F.);
#1494 = FACE_BOUND('',#1495,.T.);
#1495 = EDGE_LOOP('',(#1496,#1497,#1498,#1499));
#1496 = ORIENTED_EDGE('',*,*,#1472,.F.);
#1497 = ORIENTED_EDGE('',*,*,#620,.T.);
#1498 = ORIENTED_EDGE('',*,*,#1448,.T.);
#1499 = ORIENTED_EDGE('',*,*,#1500,.F.);
#1500 = EDGE_CURVE('',#1473,#1449,#1501,.T.);
#1501 = CIRCLE('',#1502,5.);
#1502 = AXIS2_PLACEMENT_3D('',#1503,#1504,#1505);
#1503 = CARTESIAN_POINT('',(-17.5,-24.9,8.5));
#1504 = DIRECTION('',(0.,-1.,2.22044604925E-16));
#1505 = DIRECTION('',(1.,0.,0.));
#1506 = CONICAL_SURFACE('',#1507,5.,0.785398163397);
#1507 = AXIS2_PLACEMENT_3D('',#1508,#1509,#1510);
#1508 = CARTESIAN_POINT('',(-17.5,-24.9,8.5));
#1509 = DIRECTION('',(-0.,-1.,2.22044604925E-16));
#1510 = DIRECTION('',(1.,0.,0.));
#1511 = ADVANCED_FACE('',(#1512),#1515,.F.);
#1512 = FACE_BOUND('',#1513,.T.);
#1513 = EDGE_LOOP('',(#1514));
#1514 = ORIENTED_EDGE('',*,*,#668,.T.);
#1515 = PLANE('',#1516);
#1516 = AXIS2_PLACEMENT_3D('',#1517,#1518,#1519);
#1517 = CARTESIAN_POINT('',(59.66,-12.7,-8.));
#1518 = DIRECTION('',(0.,0.,1.));
#1519 = DIRECTION('',(1.,0.,0.));
#1520 = ADVANCED_FACE('',(#1521),#1524,.F.);
#1521 = FACE_BOUND('',#1522,.T.);
#1522 = EDGE_LOOP('',(#1523));
#1523 = ORIENTED_EDGE('',*,*,#693,.T.);
#1524 = PLANE('',#1525);
#1525 = AXIS2_PLACEMENT_3D('',#1526,#1527,#1528);
#1526 = CARTESIAN_POINT('',(59.66,-12.7,-8.));
#1527 = DIRECTION('',(0.,0.,1.));
#1528 = DIRECTION('',(1.,0.,0.));
#1529 = ADVANCED_FACE('',(#1530),#1535,.F.);
#1530 = FACE_BOUND('',#1531,.F.);
#1531 = EDGE_LOOP('',(#1532,#1533,#1534));
#1532 = ORIENTED_EDGE('',*,*,#710,.F.);
#1533 = ORIENTED_EDGE('',*,*,#1078,.T.);
#1534 = ORIENTED_EDGE('',*,*,#753,.F.);
#1535 = PLANE('',#1536);
#1536 = AXIS2_PLACEMENT_3D('',#1537,#1538,#1539);
#1537 = CARTESIAN_POINT('',(75.,-0.5,18.5));
#1538 = DIRECTION('',(-0.57735026919,-0.57735026919,-0.57735026919));
#1539 = DIRECTION('',(0.,-0.707106781187,0.707106781187));
#1540 = ADVANCED_FACE('',(#1541),#1552,.T.);
#1541 = FACE_BOUND('',#1542,.T.);
#1542 = EDGE_LOOP('',(#1543,#1549,#1550,#1551));
#1543 = ORIENTED_EDGE('',*,*,#1544,.T.);
#1544 = EDGE_CURVE('',#745,#1191,#1545,.T.);
#1545 = LINE('',#1546,#1547);
#1546 = CARTESIAN_POINT('',(-39.5144,4.218847493576E-15,19.));
#1547 = VECTOR('',#1548,1.);
#1548 = DIRECTION('',(0.,-1.,2.22044604925E-16));
#1549 = ORIENTED_EDGE('',*,*,#1205,.T.);
#1550 = ORIENTED_EDGE('',*,*,#1093,.F.);
#1551 = ORIENTED_EDGE('',*,*,#761,.F.);
#1552 = PLANE('',#1553);
#1553 = AXIS2_PLACEMENT_3D('',#1554,#1555,#1556);
#1554 = CARTESIAN_POINT('',(-39.5144,4.218847493576E-15,19.));
#1555 = DIRECTION('',(0.,2.22044604925E-16,1.));
#1556 = DIRECTION('',(1.,0.,0.));
#1557 = ADVANCED_FACE('',(#1558),#1568,.F.);
#1558 = FACE_BOUND('',#1559,.F.);
#1559 = EDGE_LOOP('',(#1560,#1561,#1567));
#1560 = ORIENTED_EDGE('',*,*,#823,.F.);
#1561 = ORIENTED_EDGE('',*,*,#1562,.T.);
#1562 = EDGE_CURVE('',#824,#778,#1563,.T.);
#1563 = LINE('',#1564,#1565);
#1564 = CARTESIAN_POINT('',(-74.875,-0.5,-18.625));
#1565 = VECTOR('',#1566,1.);
#1566 = DIRECTION('',(0.707106781187,8.268739551449E-15,-0.707106781187)
  );
#1567 = ORIENTED_EDGE('',*,*,#777,.F.);
#1568 = PLANE('',#1569);
#1569 = AXIS2_PLACEMENT_3D('',#1570,#1571,#1572);
#1570 = CARTESIAN_POINT('',(-75.,-0.5,-18.5));
#1571 = DIRECTION('',(0.57735026919,-0.57735026919,0.57735026919));
#1572 = DIRECTION('',(0.,-0.707106781187,-0.707106781187));
#1573 = ADVANCED_FACE('',(#1574),#1585,.T.);
#1574 = FACE_BOUND('',#1575,.T.);
#1575 = EDGE_LOOP('',(#1576,#1582,#1583,#1584));
#1576 = ORIENTED_EDGE('',*,*,#1577,.T.);
#1577 = EDGE_CURVE('',#800,#1237,#1578,.T.);
#1578 = LINE('',#1579,#1580);
#1579 = CARTESIAN_POINT('',(-41.,4.440892098501E-15,20.));
#1580 = VECTOR('',#1581,1.);
#1581 = DIRECTION('',(0.,-1.,2.22044604925E-16));
#1582 = ORIENTED_EDGE('',*,*,#1246,.T.);
#1583 = ORIENTED_EDGE('',*,*,#1544,.F.);
#1584 = ORIENTED_EDGE('',*,*,#809,.F.);
#1585 = PLANE('',#1586);
#1586 = AXIS2_PLACEMENT_3D('',#1587,#1588,#1589);
#1587 = CARTESIAN_POINT('',(-41.,4.440892098501E-15,20.));
#1588 = DIRECTION('',(0.558405930066,1.842010654466E-16,0.829567849707)
  );
#1589 = DIRECTION('',(0.829567849707,-1.239910241294E-16,-0.558405930066
    ));
#1590 = ADVANCED_FACE('',(#1591),#1607,.T.);
#1591 = FACE_BOUND('',#1592,.T.);
#1592 = EDGE_LOOP('',(#1593,#1594,#1600,#1601));
#1593 = ORIENTED_EDGE('',*,*,#840,.F.);
#1594 = ORIENTED_EDGE('',*,*,#1595,.T.);
#1595 = EDGE_CURVE('',#824,#1261,#1596,.T.);
#1596 = LINE('',#1597,#1598);
#1597 = CARTESIAN_POINT('',(-75.,-4.107825191113E-15,-18.5));
#1598 = VECTOR('',#1599,1.);
#1599 = DIRECTION('',(0.,-1.,2.22044604925E-16));
#1600 = ORIENTED_EDGE('',*,*,#1277,.T.);
#1601 = ORIENTED_EDGE('',*,*,#1602,.F.);
#1602 = EDGE_CURVE('',#833,#1270,#1603,.T.);
#1603 = LINE('',#1604,#1605);
#1604 = CARTESIAN_POINT('',(-75.,4.329869796038E-15,19.5));
#1605 = VECTOR('',#1606,1.);
#1606 = DIRECTION('',(0.,-1.,2.22044604925E-16));
#1607 = PLANE('',#1608);
#1608 = AXIS2_PLACEMENT_3D('',#1609,#1610,#1611);
#1609 = CARTESIAN_POINT('',(-75.,-4.218847493576E-15,-19.));
#1610 = DIRECTION('',(-1.,0.,0.));
#1611 = DIRECTION('',(0.,2.22044604925E-16,1.));
#1612 = ADVANCED_FACE('',(#1613),#1623,.F.);
#1613 = FACE_BOUND('',#1614,.F.);
#1614 = EDGE_LOOP('',(#1615,#1616,#1622));
#1615 = ORIENTED_EDGE('',*,*,#854,.F.);
#1616 = ORIENTED_EDGE('',*,*,#1617,.T.);
#1617 = EDGE_CURVE('',#855,#833,#1618,.T.);
#1618 = LINE('',#1619,#1620);
#1619 = CARTESIAN_POINT('',(-74.625,-0.5,19.875));
#1620 = VECTOR('',#1621,1.);
#1621 = DIRECTION('',(-0.707106781187,-2.019110820703E-15,
    -0.707106781187));
#1622 = ORIENTED_EDGE('',*,*,#832,.F.);
#1623 = PLANE('',#1624);
#1624 = AXIS2_PLACEMENT_3D('',#1625,#1626,#1627);
#1625 = CARTESIAN_POINT('',(-74.5,-0.5,20.));
#1626 = DIRECTION('',(0.57735026919,-0.57735026919,-0.57735026919));
#1627 = DIRECTION('',(-0.707106781187,-0.707106781187,
    -2.775557561563E-17));
#1628 = ADVANCED_FACE('',(#1629,#1640,#1651),#1662,.T.);
#1629 = FACE_BOUND('',#1630,.T.);
#1630 = EDGE_LOOP('',(#1631,#1632,#1633,#1639));
#1631 = ORIENTED_EDGE('',*,*,#1577,.F.);
#1632 = ORIENTED_EDGE('',*,*,#864,.F.);
#1633 = ORIENTED_EDGE('',*,*,#1634,.T.);
#1634 = EDGE_CURVE('',#855,#1292,#1635,.T.);
#1635 = LINE('',#1636,#1637);
#1636 = CARTESIAN_POINT('',(-74.5,4.440892098501E-15,20.));
#1637 = VECTOR('',#1638,1.);
#1638 = DIRECTION('',(0.,-1.,2.22044604925E-16));
#1639 = ORIENTED_EDGE('',*,*,#1301,.T.);
#1640 = FACE_BOUND('',#1641,.T.);
#1641 = EDGE_LOOP('',(#1642));
#1642 = ORIENTED_EDGE('',*,*,#1643,.F.);
#1643 = EDGE_CURVE('',#1644,#1644,#1646,.T.);
#1644 = VERTEX_POINT('',#1645);
#1645 = CARTESIAN_POINT('',(-46.91,-12.7,20.));
#1646 = CIRCLE('',#1647,3.25);
#1647 = AXIS2_PLACEMENT_3D('',#1648,#1649,#1650);
#1648 = CARTESIAN_POINT('',(-50.16,-12.7,20.));
#1649 = DIRECTION('',(0.,2.22044604925E-16,1.));
#1650 = DIRECTION('',(1.,2.868585109895E-31,-6.369538474204E-47));
#1651 = FACE_BOUND('',#1652,.T.);
#1652 = EDGE_LOOP('',(#1653));
#1653 = ORIENTED_EDGE('',*,*,#1654,.F.);
#1654 = EDGE_CURVE('',#1655,#1655,#1657,.T.);
#1655 = VERTEX_POINT('',#1656);
#1656 = CARTESIAN_POINT('',(-65.91,-12.7,20.));
#1657 = CIRCLE('',#1658,3.25);
#1658 = AXIS2_PLACEMENT_3D('',#1659,#1660,#1661);
#1659 = CARTESIAN_POINT('',(-69.16,-12.7,20.));
#1660 = DIRECTION('',(0.,2.22044604925E-16,1.));
#1661 = DIRECTION('',(1.,2.868585109895E-31,-6.369538474204E-47));
#1662 = PLANE('',#1663);
#1663 = AXIS2_PLACEMENT_3D('',#1664,#1665,#1666);
#1664 = CARTESIAN_POINT('',(-75.,4.440892098501E-15,20.));
#1665 = DIRECTION('',(0.,2.22044604925E-16,1.));
#1666 = DIRECTION('',(1.,0.,0.));
#1667 = ADVANCED_FACE('',(#1668),#1684,.F.);
#1668 = FACE_BOUND('',#1669,.T.);
#1669 = EDGE_LOOP('',(#1670,#1676,#1677,#1683));
#1670 = ORIENTED_EDGE('',*,*,#1671,.T.);
#1671 = EDGE_CURVE('',#879,#1316,#1672,.T.);
#1672 = LINE('',#1673,#1674);
#1673 = CARTESIAN_POINT('',(12.5,-1.887379141863E-15,-8.5));
#1674 = VECTOR('',#1675,1.);
#1675 = DIRECTION('',(0.,-1.,2.22044604925E-16));
#1676 = ORIENTED_EDGE('',*,*,#1333,.T.);
#1677 = ORIENTED_EDGE('',*,*,#1678,.F.);
#1678 = EDGE_CURVE('',#889,#1326,#1679,.T.);
#1679 = LINE('',#1680,#1681);
#1680 = CARTESIAN_POINT('',(22.5,-1.887379141863E-15,-8.5));
#1681 = VECTOR('',#1682,1.);
#1682 = DIRECTION('',(0.,-1.,2.22044604925E-16));
#1683 = ORIENTED_EDGE('',*,*,#896,.F.);
#1684 = CYLINDRICAL_SURFACE('',#1685,5.);
#1685 = AXIS2_PLACEMENT_3D('',#1686,#1687,#1688);
#1686 = CARTESIAN_POINT('',(17.5,-1.887379115977E-15,-8.49999988342));
#1687 = DIRECTION('',(0.,1.,-2.22044604925E-16));
#1688 = DIRECTION('',(1.,0.,0.));
#1689 = ADVANCED_FACE('',(#1690),#1701,.T.);
#1690 = FACE_BOUND('',#1691,.T.);
#1691 = EDGE_LOOP('',(#1692,#1698,#1699,#1700));
#1692 = ORIENTED_EDGE('',*,*,#1693,.T.);
#1693 = EDGE_CURVE('',#912,#1351,#1694,.T.);
#1694 = LINE('',#1695,#1696);
#1695 = CARTESIAN_POINT('',(-12.5,-1.887379141863E-15,-8.5));
#1696 = VECTOR('',#1697,1.);
#1697 = DIRECTION('',(0.,-1.,2.22044604925E-16));
#1698 = ORIENTED_EDGE('',*,*,#1359,.F.);
#1699 = ORIENTED_EDGE('',*,*,#1671,.F.);
#1700 = ORIENTED_EDGE('',*,*,#922,.F.);
#1701 = PLANE('',#1702);
#1702 = AXIS2_PLACEMENT_3D('',#1703,#1704,#1705);
#1703 = CARTESIAN_POINT('',(0.,-12.7,-8.5));
#1704 = DIRECTION('',(0.,0.,1.));
#1705 = DIRECTION('',(1.,0.,0.));
#1706 = ADVANCED_FACE('',(#1707),#1718,.T.);
#1707 = FACE_BOUND('',#1708,.T.);
#1708 = EDGE_LOOP('',(#1709,#1710,#1711,#1717));
#1709 = ORIENTED_EDGE('',*,*,#1678,.T.);
#1710 = ORIENTED_EDGE('',*,*,#1383,.T.);
#1711 = ORIENTED_EDGE('',*,*,#1712,.F.);
#1712 = EDGE_CURVE('',#939,#1376,#1713,.T.);
#1713 = LINE('',#1714,#1715);
#1714 = CARTESIAN_POINT('',(22.5,1.887379141863E-15,8.5));
#1715 = VECTOR('',#1716,1.);
#1716 = DIRECTION('',(0.,-1.,2.22044604925E-16));
#1717 = ORIENTED_EDGE('',*,*,#946,.F.);
#1718 = PLANE('',#1719);
#1719 = AXIS2_PLACEMENT_3D('',#1720,#1721,#1722);
#1720 = CARTESIAN_POINT('',(22.5,-12.7,3.519197512019E-15));
#1721 = DIRECTION('',(-1.,-0.,-0.));
#1722 = DIRECTION('',(0.,0.,-1.));
#1723 = ADVANCED_FACE('',(#1724),#1735,.F.);
#1724 = FACE_BOUND('',#1725,.T.);
#1725 = EDGE_LOOP('',(#1726,#1732,#1733,#1734));
#1726 = ORIENTED_EDGE('',*,*,#1727,.T.);
#1727 = EDGE_CURVE('',#961,#1398,#1728,.T.);
#1728 = LINE('',#1729,#1730);
#1729 = CARTESIAN_POINT('',(-22.5,-1.887379141863E-15,-8.5));
#1730 = VECTOR('',#1731,1.);
#1731 = DIRECTION('',(0.,-1.,2.22044604925E-16));
#1732 = ORIENTED_EDGE('',*,*,#1407,.T.);
#1733 = ORIENTED_EDGE('',*,*,#1693,.F.);
#1734 = ORIENTED_EDGE('',*,*,#970,.F.);
#1735 = CYLINDRICAL_SURFACE('',#1736,5.);
#1736 = AXIS2_PLACEMENT_3D('',#1737,#1738,#1739);
#1737 = CARTESIAN_POINT('',(-17.5,-1.887379141866E-15,-8.500000000013));
#1738 = DIRECTION('',(0.,1.,-2.22044604925E-16));
#1739 = DIRECTION('',(1.,0.,0.));
#1740 = ADVANCED_FACE('',(#1741),#1752,.F.);
#1741 = FACE_BOUND('',#1742,.T.);
#1742 = EDGE_LOOP('',(#1743,#1744,#1745,#1751));
#1743 = ORIENTED_EDGE('',*,*,#1712,.T.);
#1744 = ORIENTED_EDGE('',*,*,#1433,.T.);
#1745 = ORIENTED_EDGE('',*,*,#1746,.F.);
#1746 = EDGE_CURVE('',#988,#1425,#1747,.T.);
#1747 = LINE('',#1748,#1749);
#1748 = CARTESIAN_POINT('',(12.5,1.887379141863E-15,8.5));
#1749 = VECTOR('',#1750,1.);
#1750 = DIRECTION('',(0.,-1.,2.22044604925E-16));
#1751 = ORIENTED_EDGE('',*,*,#996,.F.);
#1752 = CYLINDRICAL_SURFACE('',#1753,5.);
#1753 = AXIS2_PLACEMENT_3D('',#1754,#1755,#1756);
#1754 = CARTESIAN_POINT('',(17.5,1.887379157234E-15,8.500000069225));
#1755 = DIRECTION('',(0.,1.,-2.22044604925E-16));
#1756 = DIRECTION('',(1.,0.,0.));
#1757 = ADVANCED_FACE('',(#1758),#1769,.T.);
#1758 = FACE_BOUND('',#1759,.T.);
#1759 = EDGE_LOOP('',(#1760,#1766,#1767,#1768));
#1760 = ORIENTED_EDGE('',*,*,#1761,.T.);
#1761 = EDGE_CURVE('',#1012,#1449,#1762,.T.);
#1762 = LINE('',#1763,#1764);
#1763 = CARTESIAN_POINT('',(-22.5,1.887379141863E-15,8.5));
#1764 = VECTOR('',#1765,1.);
#1765 = DIRECTION('',(0.,-1.,2.22044604925E-16));
#1766 = ORIENTED_EDGE('',*,*,#1458,.T.);
#1767 = ORIENTED_EDGE('',*,*,#1727,.F.);
#1768 = ORIENTED_EDGE('',*,*,#1021,.F.);
#1769 = PLANE('',#1770);
#1770 = AXIS2_PLACEMENT_3D('',#1771,#1772,#1773);
#1771 = CARTESIAN_POINT('',(-22.5,-12.7,2.681293342491E-15));
#1772 = DIRECTION('',(1.,0.,0.));
#1773 = DIRECTION('',(0.,0.,1.));
#1774 = ADVANCED_FACE('',(#1775),#1786,.T.);
#1775 = FACE_BOUND('',#1776,.T.);
#1776 = EDGE_LOOP('',(#1777,#1778,#1779,#1785));
#1777 = ORIENTED_EDGE('',*,*,#1746,.T.);
#1778 = ORIENTED_EDGE('',*,*,#1483,.F.);
#1779 = ORIENTED_EDGE('',*,*,#1780,.F.);
#1780 = EDGE_CURVE('',#1038,#1473,#1781,.T.);
#1781 = LINE('',#1782,#1783);
#1782 = CARTESIAN_POINT('',(-12.5,1.887379141863E-15,8.5));
#1783 = VECTOR('',#1784,1.);
#1784 = DIRECTION('',(0.,-1.,2.22044604925E-16));
#1785 = ORIENTED_EDGE('',*,*,#1046,.F.);
#1786 = PLANE('',#1787);
#1787 = AXIS2_PLACEMENT_3D('',#1788,#1789,#1790);
#1788 = CARTESIAN_POINT('',(0.,-12.7,8.5));
#1789 = DIRECTION('',(-0.,-0.,-1.));
#1790 = DIRECTION('',(-1.,0.,0.));
#1791 = ADVANCED_FACE('',(#1792),#1798,.F.);
#1792 = FACE_BOUND('',#1793,.T.);
#1793 = EDGE_LOOP('',(#1794,#1795,#1796,#1797));
#1794 = ORIENTED_EDGE('',*,*,#1780,.T.);
#1795 = ORIENTED_EDGE('',*,*,#1500,.T.);
#1796 = ORIENTED_EDGE('',*,*,#1761,.F.);
#1797 = ORIENTED_EDGE('',*,*,#1063,.F.);
#1798 = CYLINDRICAL_SURFACE('',#1799,5.);
#1799 = AXIS2_PLACEMENT_3D('',#1800,#1801,#1802);
#1800 = CARTESIAN_POINT('',(-17.5,1.887379141863E-15,8.5));
#1801 = DIRECTION('',(0.,1.,-2.22044604925E-16));
#1802 = DIRECTION('',(1.,0.,0.));
#1803 = ADVANCED_FACE('',(#1804),#1809,.T.);
#1804 = FACE_BOUND('',#1805,.T.);
#1805 = EDGE_LOOP('',(#1806,#1807,#1808));
#1806 = ORIENTED_EDGE('',*,*,#1107,.F.);
#1807 = ORIENTED_EDGE('',*,*,#1085,.T.);
#1808 = ORIENTED_EDGE('',*,*,#1199,.F.);
#1809 = PLANE('',#1810);
#1810 = AXIS2_PLACEMENT_3D('',#1811,#1812,#1813);
#1811 = CARTESIAN_POINT('',(75.,-24.9,18.5));
#1812 = DIRECTION('',(0.57735026919,-0.57735026919,0.57735026919));
#1813 = DIRECTION('',(0.,0.707106781187,0.707106781187));
#1814 = ADVANCED_FACE('',(#1815),#1818,.T.);
#1815 = FACE_BOUND('',#1816,.T.);
#1816 = EDGE_LOOP('',(#1817));
#1817 = ORIENTED_EDGE('',*,*,#1132,.T.);
#1818 = PLANE('',#1819);
#1819 = AXIS2_PLACEMENT_3D('',#1820,#1821,#1822);
#1820 = CARTESIAN_POINT('',(80.,-12.7,-0.5));
#1821 = DIRECTION('',(1.,0.,0.));
#1822 = DIRECTION('',(0.,0.,1.));
#1823 = ADVANCED_FACE('',(#1824),#1835,.T.);
#1824 = FACE_BOUND('',#1825,.T.);
#1825 = EDGE_LOOP('',(#1826,#1827,#1828,#1834));
#1826 = ORIENTED_EDGE('',*,*,#1562,.T.);
#1827 = ORIENTED_EDGE('',*,*,#1158,.T.);
#1828 = ORIENTED_EDGE('',*,*,#1829,.F.);
#1829 = EDGE_CURVE('',#1261,#1151,#1830,.T.);
#1830 = LINE('',#1831,#1832);
#1831 = CARTESIAN_POINT('',(-74.875,-24.9,-18.625));
#1832 = VECTOR('',#1833,1.);
#1833 = DIRECTION('',(0.707106781187,0.,-0.707106781187));
#1834 = ORIENTED_EDGE('',*,*,#1595,.F.);
#1835 = PLANE('',#1836);
#1836 = AXIS2_PLACEMENT_3D('',#1837,#1838,#1839);
#1837 = CARTESIAN_POINT('',(-74.75,-4.163336342344E-15,-18.75));
#1838 = DIRECTION('',(-0.707106781187,-2.504239023119E-16,
    -0.707106781187));
#1839 = DIRECTION('',(6.605413703345E-17,-1.,2.880987419585E-16));
#1840 = ADVANCED_FACE('',(#1841),#1846,.T.);
#1841 = FACE_BOUND('',#1842,.T.);
#1842 = EDGE_LOOP('',(#1843,#1844,#1845));
#1843 = ORIENTED_EDGE('',*,*,#1260,.F.);
#1844 = ORIENTED_EDGE('',*,*,#1829,.T.);
#1845 = ORIENTED_EDGE('',*,*,#1221,.F.);
#1846 = PLANE('',#1847);
#1847 = AXIS2_PLACEMENT_3D('',#1848,#1849,#1850);
#1848 = CARTESIAN_POINT('',(-75.,-24.9,-18.5));
#1849 = DIRECTION('',(-0.57735026919,-0.57735026919,-0.57735026919));
#1850 = DIRECTION('',(2.775557561563E-17,0.707106781187,-0.707106781187)
  );
#1851 = ADVANCED_FACE('',(#1852),#1862,.T.);
#1852 = FACE_BOUND('',#1853,.T.);
#1853 = EDGE_LOOP('',(#1854,#1855,#1861));
#1854 = ORIENTED_EDGE('',*,*,#1291,.F.);
#1855 = ORIENTED_EDGE('',*,*,#1856,.T.);
#1856 = EDGE_CURVE('',#1292,#1270,#1857,.T.);
#1857 = LINE('',#1858,#1859);
#1858 = CARTESIAN_POINT('',(-74.625,-24.9,19.875));
#1859 = VECTOR('',#1860,1.);
#1860 = DIRECTION('',(-0.707106781187,-0.,-0.707106781187));
#1861 = ORIENTED_EDGE('',*,*,#1269,.F.);
#1862 = PLANE('',#1863);
#1863 = AXIS2_PLACEMENT_3D('',#1864,#1865,#1866);
#1864 = CARTESIAN_POINT('',(-74.5,-24.9,20.));
#1865 = DIRECTION('',(-0.57735026919,-0.57735026919,0.57735026919));
#1866 = DIRECTION('',(-0.707106781187,0.707106781187,0.));
#1867 = ADVANCED_FACE('',(#1868),#1874,.T.);
#1868 = FACE_BOUND('',#1869,.T.);
#1869 = EDGE_LOOP('',(#1870,#1871,#1872,#1873));
#1870 = ORIENTED_EDGE('',*,*,#1617,.T.);
#1871 = ORIENTED_EDGE('',*,*,#1602,.T.);
#1872 = ORIENTED_EDGE('',*,*,#1856,.F.);
#1873 = ORIENTED_EDGE('',*,*,#1634,.F.);
#1874 = PLANE('',#1875);
#1875 = AXIS2_PLACEMENT_3D('',#1876,#1877,#1878);
#1876 = CARTESIAN_POINT('',(-74.75,4.385380947269E-15,19.75));
#1877 = DIRECTION('',(-0.707106781187,2.504239023119E-16,0.707106781187)
  );
#1878 = DIRECTION('',(-6.605413703345E-17,-1.,2.880987419585E-16));
#1879 = ADVANCED_FACE('',(#1880),#1899,.F.);
#1880 = FACE_BOUND('',#1881,.T.);
#1881 = EDGE_LOOP('',(#1882,#1890,#1891,#1892));
#1882 = ORIENTED_EDGE('',*,*,#1883,.F.);
#1883 = EDGE_CURVE('',#1644,#1884,#1886,.T.);
#1884 = VERTEX_POINT('',#1885);
#1885 = CARTESIAN_POINT('',(-47.41,-12.7,19.5));
#1886 = LINE('',#1887,#1888);
#1887 = CARTESIAN_POINT('',(-47.41,-12.7,19.5));
#1888 = VECTOR('',#1889,1.);
#1889 = DIRECTION('',(-0.707106781187,-1.570092458684E-16,
    -0.707106781187));
#1890 = ORIENTED_EDGE('',*,*,#1643,.T.);
#1891 = ORIENTED_EDGE('',*,*,#1883,.T.);
#1892 = ORIENTED_EDGE('',*,*,#1893,.F.);
#1893 = EDGE_CURVE('',#1884,#1884,#1894,.T.);
#1894 = CIRCLE('',#1895,2.75);
#1895 = AXIS2_PLACEMENT_3D('',#1896,#1897,#1898);
#1896 = CARTESIAN_POINT('',(-50.16,-12.7,19.5));
#1897 = DIRECTION('',(0.,2.22044604925E-16,1.));
#1898 = DIRECTION('',(1.,2.868585109895E-31,-6.369538474204E-47));
#1899 = CONICAL_SURFACE('',#1900,2.75,0.785398163397);
#1900 = AXIS2_PLACEMENT_3D('',#1901,#1902,#1903);
#1901 = CARTESIAN_POINT('',(-50.16,-12.7,19.5));
#1902 = DIRECTION('',(-0.,2.22044604925E-16,1.));
#1903 = DIRECTION('',(1.,2.868585109895E-31,-6.369538474204E-47));
#1904 = ADVANCED_FACE('',(#1905),#1924,.F.);
#1905 = FACE_BOUND('',#1906,.T.);
#1906 = EDGE_LOOP('',(#1907,#1915,#1916,#1917));
#1907 = ORIENTED_EDGE('',*,*,#1908,.F.);
#1908 = EDGE_CURVE('',#1655,#1909,#1911,.T.);
#1909 = VERTEX_POINT('',#1910);
#1910 = CARTESIAN_POINT('',(-66.41,-12.7,19.5));
#1911 = LINE('',#1912,#1913);
#1912 = CARTESIAN_POINT('',(-66.41,-12.7,19.5));
#1913 = VECTOR('',#1914,1.);
#1914 = DIRECTION('',(-0.707106781187,-1.570092458684E-16,
    -0.707106781187));
#1915 = ORIENTED_EDGE('',*,*,#1654,.T.);
#1916 = ORIENTED_EDGE('',*,*,#1908,.T.);
#1917 = ORIENTED_EDGE('',*,*,#1918,.F.);
#1918 = EDGE_CURVE('',#1909,#1909,#1919,.T.);
#1919 = CIRCLE('',#1920,2.75);
#1920 = AXIS2_PLACEMENT_3D('',#1921,#1922,#1923);
#1921 = CARTESIAN_POINT('',(-69.16,-12.7,19.5));
#1922 = DIRECTION('',(0.,2.22044604925E-16,1.));
#1923 = DIRECTION('',(1.,2.868585109895E-31,-6.369538474204E-47));
#1924 = CONICAL_SURFACE('',#1925,2.75,0.785398163397);
#1925 = AXIS2_PLACEMENT_3D('',#1926,#1927,#1928);
#1926 = CARTESIAN_POINT('',(-69.16,-12.7,19.5));
#1927 = DIRECTION('',(-0.,2.22044604925E-16,1.));
#1928 = DIRECTION('',(1.,2.868585109895E-31,-6.369538474204E-47));
#1929 = ADVANCED_FACE('',(#1930),#1949,.F.);
#1930 = FACE_BOUND('',#1931,.F.);
#1931 = EDGE_LOOP('',(#1932,#1940,#1947,#1948));
#1932 = ORIENTED_EDGE('',*,*,#1933,.T.);
#1933 = EDGE_CURVE('',#1884,#1934,#1936,.T.);
#1934 = VERTEX_POINT('',#1935);
#1935 = CARTESIAN_POINT('',(-47.41,-12.7,8.));
#1936 = LINE('',#1937,#1938);
#1937 = CARTESIAN_POINT('',(-47.41,-12.7,20.));
#1938 = VECTOR('',#1939,1.);
#1939 = DIRECTION('',(-0.,-0.,-1.));
#1940 = ORIENTED_EDGE('',*,*,#1941,.T.);
#1941 = EDGE_CURVE('',#1934,#1934,#1942,.T.);
#1942 = CIRCLE('',#1943,2.75);
#1943 = AXIS2_PLACEMENT_3D('',#1944,#1945,#1946);
#1944 = CARTESIAN_POINT('',(-50.16,-12.7,8.));
#1945 = DIRECTION('',(0.,0.,1.));
#1946 = DIRECTION('',(1.,0.,0.));
#1947 = ORIENTED_EDGE('',*,*,#1933,.F.);
#1948 = ORIENTED_EDGE('',*,*,#1893,.F.);
#1949 = CYLINDRICAL_SURFACE('',#1950,2.75);
#1950 = AXIS2_PLACEMENT_3D('',#1951,#1952,#1953);
#1951 = CARTESIAN_POINT('',(-50.16,-12.7,20.));
#1952 = DIRECTION('',(0.,0.,1.));
#1953 = DIRECTION('',(1.,0.,0.));
#1954 = ADVANCED_FACE('',(#1955),#1974,.F.);
#1955 = FACE_BOUND('',#1956,.F.);
#1956 = EDGE_LOOP('',(#1957,#1965,#1972,#1973));
#1957 = ORIENTED_EDGE('',*,*,#1958,.T.);
#1958 = EDGE_CURVE('',#1909,#1959,#1961,.T.);
#1959 = VERTEX_POINT('',#1960);
#1960 = CARTESIAN_POINT('',(-66.41,-12.7,8.));
#1961 = LINE('',#1962,#1963);
#1962 = CARTESIAN_POINT('',(-66.41,-12.7,20.));
#1963 = VECTOR('',#1964,1.);
#1964 = DIRECTION('',(-0.,-0.,-1.));
#1965 = ORIENTED_EDGE('',*,*,#1966,.T.);
#1966 = EDGE_CURVE('',#1959,#1959,#1967,.T.);
#1967 = CIRCLE('',#1968,2.75);
#1968 = AXIS2_PLACEMENT_3D('',#1969,#1970,#1971);
#1969 = CARTESIAN_POINT('',(-69.16,-12.7,8.));
#1970 = DIRECTION('',(0.,0.,1.));
#1971 = DIRECTION('',(1.,0.,0.));
#1972 = ORIENTED_EDGE('',*,*,#1958,.F.);
#1973 = ORIENTED_EDGE('',*,*,#1918,.F.);
#1974 = CYLINDRICAL_SURFACE('',#1975,2.75);
#1975 = AXIS2_PLACEMENT_3D('',#1976,#1977,#1978);
#1976 = CARTESIAN_POINT('',(-69.16,-12.7,20.));
#1977 = DIRECTION('',(0.,0.,1.));
#1978 = DIRECTION('',(1.,0.,0.));
#1979 = ADVANCED_FACE('',(#1980),#1983,.T.);
#1980 = FACE_BOUND('',#1981,.T.);
#1981 = EDGE_LOOP('',(#1982));
#1982 = ORIENTED_EDGE('',*,*,#1941,.T.);
#1983 = PLANE('',#1984);
#1984 = AXIS2_PLACEMENT_3D('',#1985,#1986,#1987);
#1985 = CARTESIAN_POINT('',(-59.66,-12.7,8.));
#1986 = DIRECTION('',(0.,0.,1.));
#1987 = DIRECTION('',(1.,0.,0.));
#1988 = ADVANCED_FACE('',(#1989),#1992,.T.);
#1989 = FACE_BOUND('',#1990,.T.);
#1990 = EDGE_LOOP('',(#1991));
#1991 = ORIENTED_EDGE('',*,*,#1966,.T.);
#1992 = PLANE('',#1993);
#1993 = AXIS2_PLACEMENT_3D('',#1994,#1995,#1996);
#1994 = CARTESIAN_POINT('',(-59.66,-12.7,8.));
#1995 = DIRECTION('',(0.,0.,1.));
#1996 = DIRECTION('',(1.,0.,0.));
#1997 = ( GEOMETRIC_REPRESENTATION_CONTEXT(3) 
GLOBAL_UNCERTAINTY_ASSIGNED_CONTEXT((#2001)) 
GLOBAL_UNIT_ASSIGNED_CONTEXT((#1998,#1999,#2000)) REPRESENTATION_CONTEXT
('Context #1','3D Context with UNIT and UNCERTAINTY') );
#1998 = ( LENGTH_UNIT() NAMED_UNIT(*) SI_UNIT(.MILLI.,.METRE.) );
#1999 = ( NAMED_UNIT(*) PLANE_ANGLE_UNIT() SI_UNIT($,.RADIAN.) );
#2000 = ( NAMED_UNIT(*) SI_UNIT($,.STERADIAN.) SOLID_ANGLE_UNIT() );
#2001 = UNCERTAINTY_MEASURE_WITH_UNIT(LENGTH_MEASURE(1.E-07),#1998,
  'distance_accuracy_value','confusion accuracy');
#2002 = PRODUCT_RELATED_PRODUCT_CATEGORY('part',$,(#7));
#2003 = MECHANICAL_DESIGN_GEOMETRIC_PRESENTATION_REPRESENTATION('',(
    #2004),#1997);
#2004 = STYLED_ITEM('color',(#2005),#15);
#2005 = PRESENTATION_STYLE_ASSIGNMENT((#2006,#2012));
#2006 = SURFACE_STYLE_USAGE(.BOTH.,#2007);
#2007 = SURFACE_SIDE_STYLE('',(#2008));
#2008 = SURFACE_STYLE_FILL_AREA(#2009);
#2009 = FILL_AREA_STYLE('',(#2010));
#2010 = FILL_AREA_STYLE_COLOUR('',#2011);
#2011 = COLOUR_RGB('',0.300000011149,0.300000011149,0.300000011149);
#2012 = CURVE_STYLE('',#2013,POSITIVE_LENGTH_MEASURE(0.1),#2014);
#2013 = DRAUGHTING_PRE_DEFINED_CURVE_FONT('continuous');
#2014 = COLOUR_RGB('',9.803921802644E-02,9.803921802644E-02,
  9.803921802644E-02);
ENDSEC;
END-ISO-10303-21;
